<?xml version="1.0" encoding="utf-8"?>
<!-- Generator: Adobe Illustrator 19.1.0, SVG Export Plug-In . SVG Version: 6.00 Build 0)  -->
<svg version="1.1" id="Layer_1" xmlns="http://www.w3.org/2000/svg" xmlns:xlink="http://www.w3.org/1999/xlink" x="0px" y="0px"
	 viewBox="0 0 61.1 54.1" style="enable-background:new 0 0 61.1 54.1;" xml:space="preserve">
<style type="text/css">
	.st0{fill:#194375;stroke:#010101;stroke-width:1.3069;stroke-miterlimit:10;}
	.st1{fill:#020202;}
	.st2{fill:#EF8022;}
	.st3{fill:#FFFFFF;}
	.st4{fill:#194476;}
	.st5{enable-background:new    ;}
</style>
<g>
	<g>
		<path class="st0" d="M29.1,0.7c3.4,0,6.7,0,10.1,0c7.2,0.1,13.2,0.5,16.8,4c3.7,3.5,4.2,9.3,4.4,16.4c0,3.8,0,7.7,0,11.5
			c-0.2,5.8-0.3,11.1-2.5,14.6c-3.1,5-9.2,6.2-17.3,6.3c-4.3,0-8.7,0-13,0c-3.6-0.2-6.8-0.2-9.6-0.9c-2.6-0.6-5.1-1.9-6.7-3.7
			c-3.4-3.8-3.6-9.9-3.8-17c0-3.1,0-6.2,0-9.4c0.2-6,0.2-11.6,2.4-15.3C13.4,1.6,20.3,0.7,29.1,0.7z"/>
	</g>
	<g>
		<path class="st1" d="M32.4,47.1c-0.1,0.4-0.6,0.6-1,0.5c-2.5-0.9-4.9-2.1-5.5-2.3c-0.6-0.1-1.1-0.2-1.7-0.3l-0.7,3
			c-0.1,0.2-0.2,0.4-0.3,0.5s-0.4,0.1-0.6,0.1c-2.7-0.7-5.4-1.5-8.1-2.4c-2.7-1-5.3-2.1-7.8-3.3c-0.2-0.1-0.3-0.2-0.4-0.4
			s-0.1-0.4,0-0.6l1.4-2.8c-0.5-0.3-1-0.5-1.5-0.8c-0.6-0.1-3.2-0.8-5.7-1.7c-0.4-0.1-0.6-0.6-0.5-1c0.9-2.7,3.1-5.4,6.3-8.1
			c2-1.7,3.8-2.8,4.3-3.2c0.9-1.6,1.9-3.2,2.9-4.7c4-5.7,9-10.7,15.1-14.9c0.2-0.1,0.5-0.2,0.7-0.1c0.2,0.1,0.4,0.3,0.5,0.5
			c2,7,2.7,14.1,2.2,21.1c-0.2,1.9-0.4,3.7-0.7,5.5c0.2,0.6,0.9,2.6,1.3,5.2C33.4,41,33.3,44.5,32.4,47.1z M31.2,45.9
			c1-3.7,0.2-8.3-0.5-11.2c-0.8,3.3-2,6.5-3.5,9.5C28,44.6,29.5,45.3,31.2,45.9z M25.7,43.7c2.7-5.4,4.3-11.3,4.8-17.7
			c0.2-3,0.2-6.1,0-9.1c-1.8,0.2-3.6-0.1-5.3-0.7c-1.7-0.6-3.3-1.6-4.5-2.9c-2.1,2.2-4.1,4.5-5.8,7c-3.6,5.3-6.2,10.9-7.5,16.8
			C13.1,40.5,19.2,42.7,25.7,43.7z M22.2,46.9l0.5-2.2c-2.4-0.5-4.7-1.2-7-2s-4.5-1.8-6.7-2.9l-1,2.1C12.6,44,17.3,45.7,22.2,46.9z
			 M30.4,15.4c-0.3-3-0.9-5.9-1.7-8.9c-2.5,1.8-4.8,3.7-6.9,5.8c1.1,1.1,2.5,2,4,2.5C27.2,15.3,28.8,15.5,30.4,15.4z M6,36.6
			c0.8-3.3,1.9-6.4,3.3-9.5c-2.4,1.8-5.9,4.8-7.5,8.3C3.4,35.9,5.1,36.4,6,36.6z"/>
		<path class="st2" d="M30.7,34.7c0.7,2.9,1.5,7.5,0.5,11.2c-1.6-0.6-3.1-1.3-4-1.7C28.6,41.2,29.8,38,30.7,34.7z"/>
		<path class="st3" d="M30.6,26c-0.5,6.4-2.2,12.3-4.8,17.7c-6.5-1-12.7-3.3-18.3-6.6c1.3-5.9,3.9-11.5,7.5-16.8
			c1.7-2.5,3.7-4.8,5.8-7c1.3,1.3,2.8,2.2,4.5,2.9c1.7,0.6,3.5,0.8,5.3,0.7C30.8,19.9,30.8,23,30.6,26z M28.1,30.2
			c1.4-3.8-0.6-8-4.4-9.4c-3.8-1.4-8,0.6-9.4,4.4c-1.4,3.8,0.6,8,4.4,9.4C22.6,35.9,26.8,34,28.1,30.2z"/>
		<path class="st2" d="M22.7,44.7l-0.5,2.2C17.3,45.7,12.6,44,8,41.8l1-2.1c2.2,1.1,4.4,2.1,6.7,2.9C18,43.5,20.4,44.2,22.7,44.7z"
			/>
		<path class="st2" d="M28.7,6.5c0.8,3,1.4,5.9,1.7,8.9c-1.6,0.1-3.2-0.1-4.7-0.6s-2.8-1.4-4-2.5C23.9,10.2,26.2,8.3,28.7,6.5z"/>
		<path class="st2" d="M9.3,27.1c-1.5,3.1-2.6,6.3-3.3,9.5c-0.9-0.2-2.5-0.7-4.2-1.2C3.4,31.9,6.9,28.8,9.3,27.1z"/>
	</g>
	<rect x="28.9" y="23.7" class="st4" width="4.1" height="7.6"/>
	<g class="st5">
		<path class="st3" d="M18.9,28.4c0.1,1.1,1.1,1.8,2.6,1.8c0.8,0,1.8-0.3,2.3-0.8l1.4,1.3c-0.9,0.9-2.4,1.4-3.7,1.4
			c-3,0-4.7-1.8-4.7-4.6c0-2.6,1.8-4.5,4.5-4.5c2.9,0,4.7,1.8,4.3,5.3L18.9,28.4C18.9,28.3,18.9,28.4,18.9,28.4z M23.6,26.6
			c-0.1-1.1-1-1.7-2.2-1.7s-2.1,0.6-2.4,1.7H23.6z"/>
		<path class="st3" d="M34,23.4h2V32h-2l-0.1-1.3c-0.5,1-1.8,1.5-2.8,1.5c-2.5,0-4.4-1.5-4.4-4.5s2-4.5,4.5-4.5
			c1.2,0,2.2,0.5,2.7,1.4L34,23.4z M28.9,27.6c0,1.6,1.1,2.6,2.5,2.6c3.3,0,3.3-5.2,0-5.2C30,25.1,28.9,26,28.9,27.6z"/>
	</g>
	<g class="st5">
		<path class="st3" d="M44,24.9c-0.9-0.8-1.7-0.9-2.7-0.9c-1.3,0-2.6,0.5-2.6,1.6c0,1.2,1.5,1.4,2.6,1.6c1.5,0.3,3.6,0.5,3.5,2.5
			c-0.1,1.9-2,2.4-3.5,2.4s-3-0.6-3.8-1.7l0.6-0.6c0.7,1,2,1.5,3.1,1.5c1,0,2.6-0.3,2.7-1.6c0-1.2-1.4-1.5-2.8-1.7
			c-1.7-0.3-3.3-0.6-3.3-2.3s1.7-2.4,3.4-2.4c1.3,0,2.4,0.4,3.2,1.2L44,24.9z"/>
		<path class="st3" d="M54.1,23.3l-5.2,12.2H48l1.6-3.7l-3.5-8.5H47l2,5.1l1,2.5l1-2.5l2.2-5.1H54.1L54.1,23.3z"/>
	</g>
</g>
</svg>
