<?xml version="1.0" encoding="utf-8"?>
<!-- Generator: Adobe Illustrator 19.1.0, SVG Export Plug-In . SVG Version: 6.00 Build 0)  -->
<svg version="1.1" id="Layer_1" xmlns="http://www.w3.org/2000/svg" xmlns:xlink="http://www.w3.org/1999/xlink" x="0px" y="0px"
	 viewBox="0 0 504.3 337.2" style="enable-background:new 0 0 504.3 337.2;" xml:space="preserve">
<style type="text/css">
	.st0{fill:#010101;}
	.st1{fill:#020202;}
	.st2{fill:#EF8022;}
	.st3{fill:#FFFFFF;}
	.st4{enable-background:new    ;}
</style>
<g>
	<rect x="105.8" y="121.1" class="st0" width="113.6" height="112.1"/>
	<g>
		<path class="st1" d="M247,326c-1.1,3-4.4,4.6-7.4,3.5c-19.1-6.9-37.8-15.7-41.9-17.7c-4.3-0.7-8.6-1.4-12.9-2.2l-5.5,23.1
			c-0.4,1.5-1.3,2.8-2.6,3.6c-1.3,0.8-2.9,1.1-4.4,0.7c-21-5-41.7-11.2-62-18.5s-40.2-15.7-59.6-25.2c-1.4-0.7-2.4-1.9-2.9-3.3
			c-0.5-1.5-0.4-3,0.3-4.4l10.5-21.4c-3.8-2.1-7.5-4.2-11.2-6.4c-4.4-1.1-24.4-6.1-43.6-13c-3-1.1-4.6-4.4-3.5-7.4
			c7.2-20.5,23.4-41.5,48.1-62.3c15.2-12.9,28.9-21.5,33.2-24.2c6.8-12.3,14.3-24.4,22.5-36.2C134.5,70.8,173.3,32.6,219.4,1
			c1.5-1.1,3.5-1.3,5.2-0.7c1.8,0.6,3.1,2.1,3.6,3.9c15.4,53.7,21,107.8,16.6,161.1c-1.2,14.4-3.1,28.4-5.7,42.2
			c1.7,4.8,6.7,20.2,10.2,39.8C255.2,279,254.4,305.5,247,326z M237.9,316.5c7.8-28.3,1.7-63.5-3.9-85.6
			c-6.4,25.4-15.3,49.6-26.7,72.6C213.8,306.6,225.5,311.8,237.9,316.5z M196.2,299.9c20.6-41.2,33-86.8,37.1-135.7
			c1.9-23.1,1.9-46.3,0-69.6c-13.7,1.3-27.6-0.5-40.7-5.1c-13-4.7-24.9-12.2-34.6-21.9c-16.3,16.8-31.1,34.7-44.3,53.7
			c-27.9,40.2-47.3,83.4-57.6,128.3C99.4,274.9,146.5,291.8,196.2,299.9z M169.3,324.4l4.1-17c-18.2-3.9-36.1-9-53.6-15.3
			s-34.6-13.8-51.2-22.4l-7.7,15.8C95.6,302,132,315.1,169.3,324.4z M232.1,83c-2.5-22.6-6.8-45.3-12.9-67.9
			c-19.1,13.6-36.8,28.3-53.1,44.2c8.5,8.5,18.9,15.1,30.3,19.2C207.9,82.6,220.1,84.2,232.1,83z M45.1,245.3
			c5.9-24.9,14.4-49.3,25.6-73c-18.3,13.5-45.5,36.8-57.4,63.5C25.8,240.1,38.1,243.5,45.1,245.3z"/>
		<path class="st2" d="M234,230.9c5.6,22.1,11.7,57.3,3.9,85.6c-12.3-4.7-24-9.9-30.6-13C218.6,280.6,227.5,256.3,234,230.9z"/>
		<path class="st3" d="M233.3,164.2c-4,48.8-16.5,94.4-37.1,135.7c-49.6-8-96.8-25-140.2-50.3c10.3-44.9,29.7-88,57.6-128.3
			c13.2-19,28-36.9,44.3-53.7c9.7,9.7,21.6,17.2,34.6,21.9s27,6.4,40.7,5.1C235.2,117.9,235.2,141.2,233.3,164.2z M214.6,196.1
			c10.4-29.1-4.7-61.3-33.8-71.7s-61.3,4.7-71.7,33.8s4.7,61.3,33.8,71.7C172,240.3,204.1,225.2,214.6,196.1z"/>
		<path class="st2" d="M173.4,307.4l-4.1,17C132,315.1,95.6,302,60.9,285.5l7.7-15.8c16.6,8.6,33.7,16.1,51.2,22.4
			S155.2,303.5,173.4,307.4z"/>
		<path class="st2" d="M219.3,15.2c6.1,22.6,10.4,45.3,12.9,67.9c-12,1.1-24.2-0.4-35.6-4.5c-11.4-4.1-21.8-10.7-30.3-19.2
			C182.5,43.5,200.2,28.7,219.3,15.2z"/>
		<path class="st2" d="M70.7,172.4c-11.2,23.7-19.7,48-25.6,73c-6.9-1.8-19.3-5.2-31.8-9.4C25.2,209.1,52.3,185.8,70.7,172.4z"/>
	</g>
	<rect x="220.4" y="146.7" class="st0" width="31" height="57.8"/>
	<g class="st4">
		<path class="st3" d="M178.4,143.9H194v65.6h-15.3l-0.9-9.6c-3.7,7.7-14,11.4-21.3,11.6c-19.4,0.1-33.8-11.8-33.8-34.8
			c0-22.6,15-34.4,34.2-34.3c8.8,0,17.2,4.1,20.9,10.6L178.4,143.9z M139,176.6c0,12.5,8.6,19.9,19.4,19.9c25.5,0,25.5-39.8,0-39.8
			C147.6,156.8,139,164.1,139,176.6z"/>
		<path class="st3" d="M275.7,116.5v93h-15.2l-1.1-9c-5.1,7.8-13.2,10.5-21.1,10.5c-19.3,0-33.8-12.8-33.8-34.3
			c0-22.6,14.2-34.3,33.4-34.3c6.9,0,17.7,3.7,21.5,10.5v-36.3L275.7,116.5L275.7,116.5z M220.8,176.6c0,11.4,8.2,19.3,18.6,19.3
			c10.2,0,19-7.4,19-19.3c0-11.4-8.8-19.2-19-19.2C229,157.5,220.8,164.8,220.8,176.6z"/>
		<path class="st3" d="M333.4,209.5v-35.1c0-8.6-4.5-16.5-13.4-16.5c-8.8,0-14,7.8-14,16.5v35.1h-16.2v-65.7h15l1.2,8
			c3.5-6.7,11-9,17.3-9c7.8,0,15.7,3.2,19.4,12.2c5.9-9.3,13.4-12,21.9-12c18.6,0,27.8,11.4,27.8,31.1v35.4h-16.2v-35.4
			c0-8.6-3.6-16-12.4-16s-14.2,7.6-14.2,16.2v35.1L333.4,209.5L333.4,209.5L333.4,209.5z"/>
		<path class="st3" d="M426.7,125.4c0,12.6-19.2,12.6-19.2,0C407.5,112.8,426.7,112.8,426.7,125.4z M409,143.7v65.8h16.2v-65.8
			L409,143.7L409,143.7z"/>
		<path class="st3" d="M488.1,209.5v-34.3c0-10-5.5-17.6-15.8-17.6c-10,0-16.8,8.4-16.8,18.4v33.5h-16.1v-65.7h14.5l1.1,8.9
			c6.6-6.5,13.3-9.8,21.5-9.8c15.4,0,27.8,11.6,27.8,32.2v34.4L488.1,209.5L488.1,209.5z"/>
	</g>
</g>
</svg>
