<?xml version="1.0" encoding="utf-8"?>
<!-- Generator: Adobe Illustrator 19.1.0, SVG Export Plug-In . SVG Version: 6.00 Build 0)  -->
<svg version="1.1" id="Layer_1" xmlns="http://www.w3.org/2000/svg" xmlns:xlink="http://www.w3.org/1999/xlink" x="0px" y="0px"
	 viewBox="36 141 342.1 512" style="enable-background:new 36 141 342.1 512;" xml:space="preserve">
<style type="text/css">
	.st0{fill:#FFD960;}
	.st1{fill:#F5F5F5;}
	.st2{fill:#59C384;}
	.st3{opacity:0.2;}
	.st4{fill:#231F20;}
</style>
<g>
	<g>
		<circle class="st0" cx="292.2" cy="213.7" r="64.6"/>
		<circle class="st0" cx="119.5" cy="213.7" r="64.6"/>
	</g>
	<g>
		<circle class="st1" cx="292.2" cy="213.7" r="25.6"/>
		<circle class="st1" cx="119.5" cy="213.7" r="25.6"/>
	</g>
	<path class="st2" d="M301.4,492.2v-62.7c0-52.1-42.3-94.4-94.4-94.4c-52.2,0-94.4,42.3-94.4,94.4v158.6H64.1
		c-11.1,0-20.1,9-20.1,20.1v16.7c0,11.1,9,20.1,20.1,20.1h285.8c11.1,0,20.1-9,20.1-20.1v-16.7c0-11.1-9-20.1-20.1-20.1h-48.5v-70"
		/>
	<g class="st3">
		<path class="st4" d="M253,213.7c0-31.3,22.3-57.5,51.9-63.4c-4.1-0.8-8.3-1.3-12.7-1.3c-35.7,0-64.6,28.9-64.6,64.6
			c0,35.7,28.9,64.6,64.6,64.6c4.3,0,8.6-0.4,12.7-1.3C275.3,271.2,253,245.1,253,213.7z"/>
	</g>
	<g class="st3">
		<path class="st4" d="M80.3,213.7c0-31.3,22.3-57.5,51.9-63.4c-4.1-0.8-8.3-1.3-12.7-1.3c-35.7,0-64.6,28.9-64.6,64.6
			c0,35.7,28.9,64.6,64.6,64.6c4.3,0,8.6-0.4,12.7-1.3C102.6,271.2,80.3,245.1,80.3,213.7z"/>
	</g>
	<g class="st3">
		<path class="st4" d="M207,335c-52.2,0-94.4,42.3-94.4,94.4v166.2h3.2c6.8-0.3,22.2-2.8,22.2-18.7V429.4
			c0-47.8,35.6-87.4,81.7-93.6C215.5,335.3,211.3,335,207,335z"/>
	</g>
	<g>
		<path class="st4" d="M349.9,580h-40.4v-61.9c0-4.5-3.6-8.1-8.1-8.1c-4.5,0-8.1,3.6-8.1,8.1v70c0,4.5,3.6,8.1,8.1,8.1h48.5
			c6.6,0,12,5.4,12,12v16.7c0,6.6-5.4,12-12,12H64.1c-6.6,0-12-5.4-12-12v-16.7c0-6.6,5.4-12,12-12h48.5c4.5,0,8.1-3.6,8.1-8.1
			V429.4c0-47.6,38.7-86.3,86.3-86.3s86.3,38.7,86.3,86.3v62.7c0,4.5,3.6,8.1,8.1,8.1c4.5,0,8.1-3.6,8.1-8.1v-62.7
			c0-39.9-23-74.6-56.4-91.5l20.7-53.8c5.9,1.5,12,2.4,18.4,2.4c40.1,0,72.7-32.6,72.7-72.7c0-40.1-32.6-72.7-72.7-72.7
			s-72.7,32.6-72.7,72.7c0,28,15.9,52.4,39.2,64.5l-20.6,53.5c-9.8-3.1-20.3-4.9-31.2-4.9c-11.2,0-22,1.8-32.1,5.1L153.6,278
			c23-12.2,38.7-36.4,38.7-64.2c0-40.1-32.6-72.7-72.7-72.7c-40.1,0-72.7,32.6-72.7,72.7c0,40.1,32.6,72.7,72.7,72.7
			c6.6,0,12.9-0.9,19-2.5l21.5,54.4c-32.9,17.1-55.5,51.5-55.5,91.1V580H64.1C48.6,580,36,592.6,36,608.1v16.7
			c0,15.5,12.6,28.2,28.2,28.2h285.8c15.5,0,28.2-12.6,28.2-28.2v-16.7C378,592.6,365.4,580,349.9,580z M235.7,213.7
			c0-31.2,25.4-56.5,56.5-56.5s56.5,25.4,56.5,56.5c0,31.2-25.4,56.5-56.5,56.5C261.1,270.2,235.7,244.9,235.7,213.7z M63,213.7
			c0-31.2,25.4-56.5,56.5-56.5c31.2,0,56.5,25.4,56.5,56.5c0,31.2-25.4,56.5-56.5,56.5C88.4,270.2,63,244.9,63,213.7z"/>
		<path class="st4" d="M326,213.7c0-18.6-15.1-33.7-33.7-33.7c-18.6,0-33.7,15.1-33.7,33.7c0,18.6,15.1,33.7,33.7,33.7
			C310.8,247.4,326,232.3,326,213.7z M274.7,213.7c0-9.7,7.9-17.5,17.5-17.5c9.7,0,17.5,7.9,17.5,17.5c0,9.7-7.9,17.5-17.5,17.5
			C282.6,231.2,274.7,223.4,274.7,213.7z"/>
		<path class="st4" d="M119.5,180c-18.6,0-33.7,15.1-33.7,33.7s15.1,33.7,33.7,33.7c18.6,0,33.7-15.1,33.7-33.7S138.1,180,119.5,180
			z M119.5,231.2c-9.7,0-17.5-7.9-17.5-17.5c0-9.7,7.9-17.5,17.5-17.5c9.7,0,17.5,7.9,17.5,17.5
			C137.1,223.4,129.2,231.2,119.5,231.2z"/>
		<path class="st4" d="M234.6,442.1c0,15.2-12.4,27.6-27.6,27.6c-15.2,0-27.6-12.4-27.6-27.6c0-4.5-3.6-8.1-8.1-8.1
			c-4.5,0-8.1,3.6-8.1,8.1c0,24.1,19.6,43.7,43.7,43.7c24.1,0,43.8-19.6,43.8-43.7c0-4.5-3.6-8.1-8.1-8.1
			C238.2,434,234.6,437.7,234.6,442.1z"/>
	</g>
</g>
</svg>
