<?xml version="1.0" encoding="utf-8"?>
<!-- Generator: Adobe Illustrator 19.1.0, SVG Export Plug-In . SVG Version: 6.00 Build 0)  -->
<svg version="1.1" id="Layer_1" xmlns="http://www.w3.org/2000/svg" xmlns:xlink="http://www.w3.org/1999/xlink" x="0px" y="0px"
	 viewBox="-41.3 157.8 498.2 475.5" style="enable-background:new -41.3 157.8 498.2 475.5;" xml:space="preserve">
<style type="text/css">
	.st0{fill:#FFFFFF;}
	.st1{opacity:0.1;enable-background:new    ;}
</style>
<g>
	<rect x="179.2" y="565.6" class="st0" width="14.9" height="64.8"/>
	<polygon class="st1" points="50.5,278.2 156.7,348 145.3,378.7 28.7,330.9 33.6,295.3 	"/>
	<polygon class="st1" points="174.7,319.1 264,378.7 254,398.3 159.3,363.3 163.8,330.9 	"/>
	<polygon class="st1" points="276.7,358.7 370.7,419.3 318,405.3 268.7,384 	"/>
	<polygon class="st1" points="10,282.7 24,324 17,352.7 -13.3,338.7 	"/>
	<path class="st0" d="M456.9,380.2l-14-5.1l-3.9,10.8l-44-16l8.9-25L300.2,307l5.2-14.6l-103.8-37.9l5.2-14.6l-126.2-46l7.1-19.8
		l-44.2-16.3L38.8,171c-2.3-0.4-4.7-0.6-7-0.6c-17.9,0-34.9,11.4-40.6,27.2l-30.3,84.9c-6.7,18.8,2.4,41,19.8,51.2l-4.7,13.2
		L20.2,363l7.1-19.8l126.2,46l5.2-14.6l18.4,6.7L76.4,627.5l13.8,5.8l53.5-130.9h35.5v43.1h14.9v-43.1h35.5l53.5,130.9l13.8-5.8
		l-97.3-238l62.9,22.9l5.2-14.6l103.8,37.9l8.9-25l44,16l-3.9,10.8l14,5.1l3.9-10.8l0,0L453,391l0,0L456.9,380.2z M-14,319.1
		c-9.1-6.9-15.2-19.8-11-31.4l30.3-84.9c3.5-9.8,14.9-17.3,26.5-17.3c0.6,0,1.2,0,1.8,0.1l-18.4,51.5L-14,319.1z M-4.9,337.9
		l22.5-63.1l34.8-97.6l16.1,5.9L11.3,343.7L-4.9,337.9z M32.4,329l7.3-20.4l24.2-67.8l86.7,31.6l5.1-14.2L69,226.6l6.6-18.6
		l112.1,40.9l-0.2,0.5l0,0L174,287.1L144.4,370L32.4,329z M149.9,487.3l29.3-71.8v71.8H149.9z M194.2,487.3v-71.7l29.3,71.7H194.2z
		 M253.6,393.1l-89.8-32.8l21-59l64.4,23.5l5.1-14.2l-64.4-23.5l4.6-12.8l2.1-5.8l89.8,32.8l-9.3,26.1l-23.3,65.2l0,0L253.6,393.1z
		 M362.6,416.4l-89.8-32.8l10.6-29.7l64.4,23.5l5.1-14.2l-64.4-23.5l6.6-18.6l89.8,32.8l-3.9,10.8l0,0l-14.6,40.8l0,0L362.6,416.4z
		 M429.5,412.5l-44-16L390,384l44,16l-0.9,2.4L429.5,412.5z"/>
</g>
</svg>
