<?xml version="1.0" encoding="utf-8"?>
<!-- Generator: Adobe Illustrator 19.1.0, SVG Export Plug-In . SVG Version: 6.00 Build 0)  -->
<svg version="1.1" id="Layer_1" xmlns="http://www.w3.org/2000/svg" xmlns:xlink="http://www.w3.org/1999/xlink" x="0px" y="0px"
	 viewBox="-7.8 148 466.5 494.5" style="enable-background:new -7.8 148 466.5 494.5;" xml:space="preserve">
<style type="text/css">
	.st0{opacity:0.2;}
	.st1{fill:#231F20;}
	.st2{fill:#FFFFFF;}
</style>
<g>
	<g class="st0">
		<path class="st1" d="M111.4,615.4v-41.8H86.7v41.8c0,10.7,8.6,19.3,19.3,19.3h13.9c1.9,0,3.7-0.3,5.4-0.8
			C117.3,631.5,111.4,624.1,111.4,615.4z"/>
	</g>
	<g class="st0">
		<path class="st1" d="M231.6,615.4v-41.8h-24.7v41.8c0,10.7,8.6,19.3,19.3,19.3h13.9c1.9,0,3.7-0.3,5.4-0.8
			C237.4,631.5,231.6,624.1,231.6,615.4z"/>
	</g>
	<g class="st0">
		<path class="st1" d="M64.8,288.8c0-69.2,52.9-126.1,120.6-132.3c-4.1-0.4-8.2-0.6-12.4-0.6c-73.4,0-132.9,59.5-132.9,132.9
			S99.6,421.7,173,421.7c4.2,0,8.3-0.2,12.4-0.6C117.8,414.9,64.8,358,64.8,288.8z"/>
	</g>
	<g class="st0">
		<path class="st1" d="M111.4,425c-4.4,1.9-8.4,4.5-11.8,7.7c4,2.5,7.1,6.3,8.6,11.1c3.3,10.6-2.6,21.9-13.2,25.2
			c-2.8,0.9-5.6,1.8-8.3,2.8v101.8h24.7V471.8V425L111.4,425z"/>
	</g>
	<g class="st0">
		<path class="st1" d="M110.4,314.2v-50.4c0-10.7,8.6-19.3,19.3-19.3H105c-10.7,0-19.3,8.6-19.3,19.3v50.4
			c0,10.7,8.6,19.3,19.3,19.3h24.7C119,333.4,110.4,324.8,110.4,314.2z"/>
	</g>
	<g>
		<path class="st2" d="M207.9,333.4c0-4.3-3.5-7.8-7.8-7.8H105c-6.3,0-11.4-5.1-11.4-11.4v-50.4c0-6.3,5.1-11.4,11.4-11.4h136.1
			c6.3,0,11.4,5.1,11.4,11.4v50.4c0,6.3-5.1,11.4-11.4,11.4h-15.9c-4.3,0-7.8,3.5-7.8,7.8s3.5,7.8,7.8,7.8h15.9
			c15,0,27.1-12.2,27.1-27.1v-50.4c0-15-12.2-27.1-27.1-27.1H105c-15,0-27.1,12.2-27.1,27.1v50.4c0,15,12.2,27.1,27.1,27.1h95.1
			C204.4,341.3,207.9,337.8,207.9,333.4z"/>
		<path class="st2" d="M194.5,471.3h-48.2c-4.3,0-7.8,3.5-7.8,7.8s3.5,7.8,7.8,7.8h48.2c4.3,0,7.8-3.5,7.8-7.8
			S198.8,471.3,194.5,471.3z"/>
		<path class="st2" d="M194.5,508.3h-48.2c-4.3,0-7.8,3.5-7.8,7.8s3.5,7.8,7.8,7.8h48.2c4.3,0,7.8-3.5,7.8-7.8
			S198.8,508.3,194.5,508.3z"/>
		<path class="st2" d="M414.4,353.5h-30.5c-15.9,0-28.9-13-28.9-28.9v-8c0-15.9,13-28.9,28.9-28.9h63.6c4.3,0,7.8-3.5,7.8-7.8
			c0-4.3-3.5-7.8-7.8-7.8h-63.6c-24.6,0-44.6,20-44.6,44.6v8c0,24.6,20,44.6,44.6,44.6h30.5c15.9,0,28.9,13,28.9,28.9v8
			c0,15.9-13,28.9-28.9,28.9H289.5c-6.9-3.4-14.4-6.5-22.4-9.3c-3-1-6.1-1.6-9.2-1.6c-2.8,0-5.5,0.4-8,1.2c-5-4.2-10.6-7.3-16.7-9.2
			c47.7-22.6,80.7-71.1,80.7-127.3C313.8,211.1,250.7,148,173,148c-77.6,0-140.7,63.1-140.7,140.8c0,56.2,33.1,104.7,80.7,127.3
			c-5.2,1.6-10.1,4.1-14.5,7.4c-3-1.1-6.2-1.7-9.5-1.7c-2.8,0-5.6,0.4-8.3,1.3c-55.4,17.2-88.5,50-88.5,87.6
			c0,15.4,12.5,27.9,27.9,27.9S48,526.1,48,510.7c0-7.2,10.7-18.1,30.8-27.2v90.1v41.8c0,15,12.2,27.1,27.1,27.1h13.9
			c15,0,27.1-12.2,27.1-27.1v-34H199v34c0,15,12.2,27.1,27.1,27.1H240c15,0,27.1-12.2,27.1-27.1v-41.8v-87.2
			c16.4,8.5,24.8,17.9,24.8,24.4c0,15.4,12.5,27.9,27.9,27.9s27.9-12.5,27.9-27.9c0-22.7-11.7-43.4-33.1-60h99.5
			c24.6,0,44.6-20,44.6-44.6v-8C459,373.5,439,353.5,414.4,353.5z M48,288.8c0-69,56.1-125.1,125.1-125.1s125.1,56.1,125.1,125.1
			s-56.2,125-125.2,125C104.1,413.8,48,357.7,48,288.8z M32.4,510.7c0,6.8-5.5,12.3-12.3,12.3s-12.3-5.5-12.3-12.3
			c0-30.4,29-57.5,77.5-72.6c1.2-0.4,2.4-0.6,3.6-0.6c2.2,0,4.4,0.6,6.2,1.7c0.1,0.1,0.2,0.1,0.3,0.2c2.2,1.4,3.8,3.3,4.8,5.7v0.1
			c0.1,0.3,0.3,0.7,0.4,1c0.5,1.6,0.7,3.3,0.5,4.8c-0.5,4.8-3.7,9-8.6,10.5c-1.4,0.4-2.8,0.9-4.2,1.4c-0.1,0-0.2,0.1-0.3,0.1
			C53.6,474.6,32.4,492.6,32.4,510.7z M131.4,615.4c0,6.3-5.1,11.5-11.5,11.5H106c-6.3,0-11.5-5.1-11.5-11.5v-34h36.8L131.4,615.4
			L131.4,615.4z M251.5,615.4c0,6.3-5.1,11.5-11.5,11.5h-13.9c-6.3,0-11.4-5.1-11.4-11.5v-34h36.8V615.4L251.5,615.4z M251.5,565.7
			h-44.7h-67.6H94.5v-88.4c0.9-0.3,1.8-0.6,2.7-0.9c0.5-0.1,0.9-0.3,1.4-0.5c13.9-5.1,21.5-20.3,17-34.5l0,0l0,0v-0.1
			c-0.9-2.9-2.2-5.5-3.9-7.8c4.8-2.6,10.2-4,15.8-4h90.9c6.3,0,12.4,1.8,17.6,5c-0.1,0.1-0.1,0.1-0.2,0.2c-0.3,0.4-0.6,0.8-0.9,1.2
			c-0.1,0.2-0.3,0.4-0.4,0.6c-0.3,0.4-0.5,0.8-0.8,1.3c-0.1,0.2-0.3,0.5-0.4,0.7c-0.2,0.5-0.5,0.9-0.7,1.4c-0.1,0.2-0.2,0.4-0.3,0.7
			c-0.3,0.7-0.6,1.4-0.8,2.1c-1,2.7-1.5,5.5-1.5,8.3c0,0.5,0,0.9,0,1.4c0.2,11.4,7.4,22,18.7,26c0.9,0.3,1.9,0.7,2.8,1h0.1
			L251.5,565.7L251.5,565.7L251.5,565.7z M332.3,510.7c0,6.8-5.5,12.3-12.3,12.3s-12.3-5.5-12.3-12.3c0-16.9-18.4-33.7-49.4-45.4
			c-0.2-0.1-0.3-0.1-0.5-0.2c-1.3-0.5-2.7-1-4.1-1.5c-0.8-0.3-1.5-0.6-2.2-1c-4.9-2.9-7.2-9-5.3-14.6l0,0c0.1-0.3,0.2-0.6,0.4-1
			c0-0.1,0.1-0.2,0.1-0.3c0.1-0.2,0.2-0.5,0.4-0.7c0-0.1,0.1-0.2,0.1-0.3c0.1-0.2,0.3-0.5,0.4-0.7c0-0.1,0.1-0.1,0.1-0.2
			c1.1-1.5,2.4-2.7,4.1-3.6c0.1,0,0.1-0.1,0.2-0.1c1.7-0.9,3.7-1.4,5.7-1.4c1.4,0,2.7,0.2,4,0.7C306.6,456,332.3,481.6,332.3,510.7z
			"/>
	</g>
</g>
</svg>
