<?xml version="1.0" encoding="utf-8"?>
<!-- Generator: Adobe Illustrator 19.1.0, SVG Export Plug-In . SVG Version: 6.00 Build 0)  -->
<svg version="1.1" id="Capa_1" xmlns="http://www.w3.org/2000/svg" xmlns:xlink="http://www.w3.org/1999/xlink" x="0px" y="0px"
	 viewBox="-97.9 311 511.9 483.4" style="enable-background:new -97.9 311 511.9 483.4;" xml:space="preserve">
<style type="text/css">
	.st0{fill:#FABA45;}
	.st1{fill:#E95B2D;}
	.st2{fill:#0F2639;}
</style>
<g>
	
		<rect x="189.7" y="371.3" transform="matrix(-0.9406 0.3394 -0.3394 -0.9406 652.649 774.5375)" class="st0" width="137.8" height="146.1"/>
	
		<rect x="322.5" y="320.9" transform="matrix(-0.9406 0.3394 -0.3394 -0.9406 798.8675 691.0342)" class="st1" width="33" height="189"/>
	
		<rect x="83.7" y="429.8" transform="matrix(-0.9406 0.3394 -0.3394 -0.9406 437.8329 897.4564)" class="st0" width="113.4" height="114.5"/>
	
		<rect x="-23" y="484.1" transform="matrix(-0.9406 0.3394 -0.3394 -0.9406 243.7901 1008.3032)" class="st0" width="113.4" height="82.8"/>
	
		<rect x="-81.1" y="541.1" transform="matrix(-0.9406 0.3394 -0.3394 -0.9406 92.762 1094.8175)" class="st1" width="63.4" height="28.8"/>
	<path class="st0" d="M381.9,485.9c19.1-6.9,28.6-29.1,22.7-45.5l-31.1-86.3c-5.9-16.4-27.4-27.4-46.5-20.5L381.9,485.9z"/>
	<path class="st2" d="M-94.1,548L-94.1,548l15,41.5l0,0l4,11l14.4-5.2l-4-11l45.2-16.3l9.2,25.4l106.7-38.5l5.4,14.9l64.6-23.3
		l-100,242l14.2,5.9l55-133.1h36.5v43.8h15.4v-43.8H224l55,133.1l14.2-5.9L189.4,538.1l18.9-6.8l5.4,14.9l129.7-46.8l7.3,20.2
		l45.4-16.4l-4.8-13.4c17.9-10.4,27.3-32.9,20.4-52l-31.1-86.3c-5.8-16.1-23.3-27.7-41.7-27.7c-2.4,0-4.8,0.2-7.2,0.6l-4.8-13.4
		l-45.4,16.4l7.3,20.2l-129.7,46.8l5.4,14.9L57.8,447.8l5.4,14.9l-106.7,38.4l9.2,25.4l-45.2,16.3l-4-11l-14.4,5.2L-94.1,548z
		 M356,391.6l-18.9-52.3c0.6-0.1,1.3-0.1,1.9-0.1c12,0,23.7,7.5,27.3,17.5l31.1,86.3c4.3,11.9-2,25-11.3,32L356,391.6z M360.1,500
		l-59-163.3l16.6-6l35.9,99.2l23.1,64.1L360.1,500z M223.2,526.7l-30.4-84.2L179,404.2l0,0l-0.2-0.5L294,362.1l6.8,18.9l-89.1,32.2
		l5.2,14.4l89.1-32.2l24.9,68.9l7.5,20.8L223.2,526.7z M187.4,646v-72.9l30.2,72.9H187.4z M141.9,646l30.2-72.9V646H141.9z
		 M111,549.8L111,549.8l-23.9-66.3L77.5,457l92.3-33.3l2.1,5.9l4.7,13l-66.2,23.9l5.2,14.4l66.2-23.9l21.6,59.9l-92.3,33.3
		L111,549.8z M-4.9,562.8L-4.9,562.8l-15-41.5l0,0l-4-11L68.4,477l6.8,18.9L9,519.8l5.2,14.4l66.2-23.9l10.9,30.2L-1,573.8
		L-4.9,562.8z M-73.4,559.7l-0.9-2.4l45.2-16.3l4.6,12.7L-69.7,570L-73.4,559.7z"/>
	<rect x="172.2" y="725.6" class="st2" width="15.3" height="65.9"/>
</g>
</svg>
