<?xml version="1.0" encoding="utf-8"?>
<!-- Generator: Adobe Illustrator 19.1.0, SVG Export Plug-In . SVG Version: 6.00 Build 0)  -->
<svg version="1.1" id="Layer_1" xmlns="http://www.w3.org/2000/svg" xmlns:xlink="http://www.w3.org/1999/xlink" x="0px" y="0px"
	 viewBox="46.2 149.5 329 492.5" style="enable-background:new 46.2 149.5 329 492.5;" xml:space="preserve">
<style type="text/css">
	.st0{opacity:0.2;}
	.st1{fill:#231F20;}
	.st2{fill:#FFFFFF;}
</style>
<g>
	<g class="st0">
		<path class="st1" d="M254.7,219.3c0-30.1,21.5-55.3,49.9-60.9c-3.9-0.8-8-1.2-12.2-1.2c-34.3,0-62.1,27.8-62.1,62.1
			s27.8,62.1,62.1,62.1c4.2,0,8.3-0.4,12.2-1.2C276.2,274.6,254.7,249.5,254.7,219.3z"/>
	</g>
	<g class="st0">
		<path class="st1" d="M88.7,219.3c0-30.1,21.5-55.3,50-60.9c-3.9-0.8-8-1.2-12.2-1.2c-34.3,0-62.1,27.8-62.1,62.1
			s27.8,62.1,62.1,62.1c4.2,0,8.3-0.4,12.2-1.2C110.1,274.6,88.7,249.5,88.7,219.3z"/>
	</g>
	<g class="st0">
		<path class="st1" d="M210.5,336c-50.2,0-90.8,40.7-90.8,90.8v159.8h3c6.5-0.3,21.4-2.6,21.4-18V426.8c0-46,34.2-84,78.6-90
			C218.7,336.3,214.7,336,210.5,336z"/>
	</g>
	<g>
		<path class="st2" d="M347.9,571.6h-38.8v-59.5c0-4.3-3.5-7.8-7.8-7.8s-7.8,3.5-7.8,7.8v67.3c0,4.3,3.5,7.8,7.8,7.8h46.6
			c6.3,0,11.5,5.2,11.5,11.5v16.1c0,6.3-5.2,11.5-11.5,11.5H73.1c-6.3,0-11.5-5.2-11.5-11.5v-16.1c0-6.3,5.2-11.5,11.5-11.5h46.6
			c4.3,0,7.8-3.5,7.8-7.8V426.8c0-45.8,37.2-83,83-83s83,37.2,83,83v60.3c0,4.3,3.5,7.8,7.8,7.8s7.8-3.5,7.8-7.8v-60.3
			c0-38.4-22.1-71.7-54.2-88l19.9-51.8c5.6,1.5,11.6,2.3,17.7,2.3c38.6,0,69.9-31.4,69.9-69.9c0-38.6-31.4-69.9-69.9-69.9
			s-69.9,31.4-69.9,69.9c0,27,15.3,50.4,37.7,62.1L240.5,333c-9.5-3-19.5-4.7-30-4.7c-10.8,0-21.1,1.7-30.8,4.9l-20.5-52
			c22.1-11.8,37.2-35,37.2-61.8c0-38.6-31.4-69.9-69.9-69.9c-38.6,0-69.9,31.4-69.9,69.9c0,38.6,31.4,69.9,69.9,69.9
			c6.3,0,12.4-0.9,18.3-2.4l20.7,52.4c-31.7,16.4-53.4,49.5-53.4,87.6v144.8H73.3c-14.9,0-27.1,12.1-27.1,27.1v16.1
			c0,14.9,12.1,27.1,27.1,27.1h274.8c14.9,0,27.1-12.1,27.1-27.1v-16.1C375,583.7,362.9,571.6,347.9,571.6z M238.1,219.3
			c0-30,24.4-54.4,54.4-54.4s54.4,24.4,54.4,54.4s-24.4,54.4-54.4,54.4C262.5,273.7,238.1,249.3,238.1,219.3z M72,219.3
			c0-30,24.4-54.4,54.4-54.4s54.4,24.4,54.4,54.4s-24.4,54.4-54.4,54.4C96.4,273.7,72,249.3,72,219.3z"/>
		<path class="st2" d="M324.9,219.3c0-17.9-14.5-32.4-32.4-32.4s-32.4,14.5-32.4,32.4s14.5,32.4,32.4,32.4
			C310.4,251.8,324.9,237.2,324.9,219.3z M275.6,219.3c0-9.3,7.6-16.9,16.9-16.9s16.9,7.6,16.9,16.9c0,9.3-7.6,16.9-16.9,16.9
			C283.2,236.2,275.6,228.6,275.6,219.3z"/>
		<path class="st2" d="M126.4,186.9c-17.9,0-32.4,14.5-32.4,32.4s14.5,32.4,32.4,32.4s32.4-14.5,32.4-32.4S144.3,186.9,126.4,186.9z
			 M126.4,236.2c-9.3,0-16.9-7.6-16.9-16.9s7.6-16.9,16.9-16.9c9.3,0,16.9,7.6,16.9,16.9S135.7,236.2,126.4,236.2z"/>
		<path class="st2" d="M237,439c0,14.6-11.9,26.5-26.5,26.5S184,453.6,184,439c0-4.3-3.5-7.8-7.8-7.8s-7.8,3.5-7.8,7.8
			c0,23.2,18.9,42.1,42.1,42.1s42.1-18.9,42.1-42.1c0-4.3-3.5-7.8-7.8-7.8C240.5,431.2,237,434.7,237,439z"/>
	</g>
</g>
</svg>
