<?xml version="1.0" encoding="utf-8"?>
<!-- Generator: Adobe Illustrator 19.1.0, SVG Export Plug-In . SVG Version: 6.00 Build 0)  -->
<svg version="1.1" id="Layer_1" xmlns="http://www.w3.org/2000/svg" xmlns:xlink="http://www.w3.org/1999/xlink" x="0px" y="0px"
	 viewBox="-41 152.7 497.6 488.5" style="enable-background:new -41 152.7 497.6 488.5;" xml:space="preserve">
<style type="text/css">
	.st0{opacity:0.2;}
	.st1{fill:#231F20;}
	.st2{fill:#FFFFFF;}
</style>
<g>
	<g class="st0">
		<path class="st1" d="M60,399.5c-29.7,0-53.7,24.1-53.7,53.7v13.9v0.1h-18c-11.8,0-21.4,9.6-21.4,21.4v14.2
			c0,11.8,9.6,21.3,21.4,21.3h24.9c-11.8,0-21.4-9.6-21.4-21.3v-14.2c0-13.8,9.6-16.1,21.4-16.1h2.2c3.9-0.1,15.7-1.5,15.7-13.6
			v-0.4c0-0.1,0-5.6,0-5.7c0-0.2,0-0.5,0-0.7c0.6-29.1,24.4-52.6,53.7-52.6L60,399.5L60,399.5z"/>
	</g>
	<g class="st0">
		<path class="st1" d="M220.2,274.2c-4.1-0.3-8.2-0.5-12.4-0.5c-75.3,0-137.9,54.3-150.9,125.8h24.9
			C94,331.9,150.5,279.8,220.2,274.2z"/>
	</g>
	<g class="st0">
		<path class="st1" d="M176.3,347h-24.9c-11.8,0-21.3,9.6-21.3,21.4v31.2H155v-31.2C154.9,356.5,164.5,347,176.3,347z"/>
	</g>
	<g class="st0">
		<path class="st1" d="M79,544.9c0-11.5,9.3-20.8,20.8-20.8h-10H74.9c-11.5,0-20.8,9.3-20.8,20.8s9.3,20.8,20.8,20.8h24.9
			C88.3,565.7,79,556.4,79,544.9z"/>
	</g>
	<g class="st0">
		<path class="st1" d="M201.8,191.6c0-12.6,7.6-23.4,18.4-28.2c-3.8-1.7-8-2.6-12.4-2.6c-17,0-30.8,13.8-30.8,30.8
			s13.8,30.8,30.8,30.8c4.4,0,8.6-0.9,12.4-2.6C209.3,215,201.8,204.2,201.8,191.6z"/>
	</g>
	<g>
		<path class="st2" d="M427.1,459.3h-10v-6c0-30.7-22.5-56.2-51.9-60.9c-15.6-71.1-77-122.9-149.6-126.4v-36.5
			c17.6-3.7,30.8-19.3,30.8-38c0-21.4-17.4-38.8-38.8-38.8s-38.8,17.4-38.8,38.8c0,18.7,13.3,34.3,30.8,38V266
			C127,269.5,65.6,321.3,50,392.4c-29.4,4.7-51.9,30.2-51.9,60.9v6h-10c-16,0-29.1,13.1-29.1,29.3v14.2c0,16.2,13.1,29.3,29.3,29.3
			h60.9c-1.9,3.9-3,8.2-3,12.8c0,15.8,12.9,28.7,28.7,28.7h6.8l-34.3,55.5c-2.3,3.7-1.2,8.6,2.6,10.9c1.3,0.8,2.7,1.2,4.2,1.2
			c2.7,0,5.3-1.3,6.8-3.8l39.5-63.8h99.4v59.7c0,4.4,3.6,7.9,7.9,7.9c4.4,0,7.9-3.6,7.9-7.9v-59.7h99.4l39.5,63.8
			c1.5,2.4,4.1,3.8,6.8,3.8c1.4,0,2.9-0.4,4.2-1.2c3.7-2.3,4.9-7.2,2.6-10.9l-34.3-55.5h6.8c15.8,0,28.7-12.9,28.7-28.7
			c0-4.6-1.1-9-3-12.8h60.9c16.2,0,29.3-13.1,29.3-29.3v-14.2C456.4,472.4,443.3,459.3,427.1,459.3z M184.8,191.6
			c0-12.6,10.3-22.9,22.9-22.9s22.9,10.3,22.9,22.9c0,12.6-10.3,22.9-22.9,22.9S184.8,204.2,184.8,191.6z M207.7,281.6
			c67.1,0,125,45.7,141.1,109.9h-55.4v-23.3c0-16.2-13.1-29.3-29.3-29.3H151.4c-16.1,0-29.3,13.1-29.3,29.3v23.3H66.7
			C82.7,327.3,140.6,281.6,207.7,281.6z M277.5,391.6H138v-23.3c0-7.4,6-13.4,13.4-13.4h112.7c7.4,0,13.4,6,13.4,13.4L277.5,391.6
			L277.5,391.6z M440.6,502.8c0,7.4-6,13.4-13.4,13.4H310.4c-4.4,0-7.9,3.6-7.9,7.9c0,4.4,3.6,7.9,7.9,7.9h30.1
			c7.1,0,12.8,5.8,12.8,12.8c0,7.1-5.8,12.8-12.8,12.8H74.9c-7.1,0-12.8-5.7-12.8-12.8S67.9,532,74.9,532h14.9H285
			c4.4,0,7.9-3.6,7.9-7.9c0-4.4-3.6-7.9-7.9-7.9H89.7H74.8h-86.5c-7.4,0-13.4-6-13.4-13.4v-14.2c0-7.4,6-13.4,13.4-13.4H6.2
			c4.4,0,7.9-3.6,7.9-7.9c0-0.1,0-0.2,0-0.3v-13.7c0-25.3,20.5-45.8,45.8-45.8H130h155.4h70.1c25.3,0,45.8,20.5,45.8,45.8V467
			c0,0.1,0,0.2,0,0.3c0,4.4,3.6,7.9,7.9,7.9h17.9c7.4,0,13.4,6,13.4,13.4L440.6,502.8L440.6,502.8L440.6,502.8z"/>
		<path class="st2" d="M364.3,453.9H51.2c-4.4,0-7.9,3.6-7.9,7.9s3.6,7.9,7.9,7.9h313.1c4.4,0,7.9-3.6,7.9-7.9
			C372.2,457.4,368.7,453.9,364.3,453.9z"/>
	</g>
</g>
</svg>
