<?xml version="1.0" encoding="utf-8"?>
<!-- Generator: Adobe Illustrator 19.1.0, SVG Export Plug-In . SVG Version: 6.00 Build 0)  -->
<svg version="1.1" id="Layer_1" xmlns="http://www.w3.org/2000/svg" xmlns:xlink="http://www.w3.org/1999/xlink" x="0px" y="0px"
	 viewBox="-32.7 146 479 502.2" style="enable-background:new -32.7 146 479 502.2;" xml:space="preserve">
<style type="text/css">
	.st0{opacity:0.2;}
	.st1{fill:#231F20;}
	.st2{fill:#FFFFFF;}
</style>
<g>
	<g class="st0">
		<path class="st1" d="M219.9,211.6c-4.3-0.3-8.6-0.5-12.9-0.5c-105.1,0-190.3,85.2-190.3,190.3v197h26v-197
			C42.6,300.7,120.9,218.3,219.9,211.6z"/>
	</g>
	<g class="st0">
		<path class="st1" d="M1.3,620.4V618c0-10.8,8.8-19.6,19.6-19.6H-5c-10.8,0-19.6,8.8-19.6,19.6v2.5c0,10.8,8.8,19.6,19.6,19.6h26
			C10.1,640.1,1.3,631.2,1.3,620.4z"/>
	</g>
	<g class="st0">
		<path class="st1" d="M220,211.6c-4.3-0.3-8.6-0.5-13-0.5c-25,0-48.9,4.8-70.8,13.6v170.1h26V224.7
			C180.2,217.5,199.6,213,220,211.6z"/>
	</g>
	<g class="st0">
		<path class="st1" d="M181.8,535.4h-26c-10.8,0-19.6,8.8-19.6,19.6v43.3h26V555C162.2,544.2,171,535.4,181.8,535.4z"/>
	</g>
	<path class="st2" d="M419,590.4h-13.7V434.1v-32.6v-6.6c0-0.6-0.1-1.2-0.2-1.7c-2-47.2-20.5-90.2-49.9-123.2l31.4-31.4
		c2.5,2.2,5.6,3.4,8.8,3.4l0,0c3.5,0,6.9-1.4,9.4-3.9l19.9-19.9c2.5-2.5,3.9-5.9,3.9-9.4s-1.4-6.9-3.9-9.4l-49.5-49.5
		c-2.5-2.5-5.9-3.9-9.4-3.9s-6.9,1.4-9.4,3.9l-19.9,19.9c-2.5,2.5-3.9,5.9-3.9,9.4c0,3.3,1.2,6.5,3.4,8.8l-37.5,37.6
		c-5.9-3-12-5.9-18.1-8.3c-0.2-0.1-0.4-0.2-0.7-0.3c-15.3-6.1-31.2-10.1-47.4-12.2c0,0,0,0-0.1,0c-1.6-0.2-3-0.4-4.6-0.5
		c-0.2,0-0.4,0-0.5-0.1c-1.4-0.1-2.7-0.3-4.2-0.4c-0.3,0-0.6-0.1-0.9-0.1c-1.3-0.1-2.5-0.2-3.9-0.3c-0.4,0-0.8,0-1.2-0.1
		c-1.3-0.1-2.5-0.1-3.7-0.1c-0.4,0-0.8,0-1.3,0c-1.7,0-3.3-0.1-4.9-0.1c-1.7,0-3.3,0-5,0.1c-0.4,0-0.8,0-1.2,0
		c-1.3,0-2.5,0.1-3.8,0.1c-0.4,0-0.8,0-1.2,0.1c-1.3,0.1-2.5,0.2-3.9,0.3c-0.3,0-0.6,0.1-0.9,0.1c-1.4,0.1-2.7,0.2-4.1,0.4
		c-0.2,0-0.4,0-0.6,0.1c-1.5,0.2-2.9,0.3-4.5,0.5c-0.1,0-0.2,0-0.3,0c-16.6,2.2-32.7,6.3-48.3,12.6c-0.2,0.1-0.4,0.2-0.6,0.3
		C62.3,246.2,12,313.8,8.8,393.2c-0.1,0.6-0.2,1.1-0.2,1.7v6.6v32.6v156.4H-5.2c-15.2,0-27.5,12.4-27.5,27.6v2.5
		c0,15.2,12.4,27.6,27.5,27.6h424c15.2,0,27.5-12.4,27.5-27.6V618C446.5,602.8,434.1,590.4,419,590.4z M144.2,230.2
		c13.9-5.1,28.7-8.6,44-10.2c0.1,0,0.3,0,0.4,0c1.3-0.1,2.5-0.2,3.8-0.4c0.3,0,0.6-0.1,1-0.1c1.1-0.1,2.3-0.2,3.4-0.2
		c0.4,0,0.8,0,1.2-0.1c1.1-0.1,2.2-0.1,3.3-0.1c0.4,0,0.8,0,1.2,0c1.5,0,2.9-0.1,4.4-0.1c1.5,0,2.9,0,4.4,0.1c0.4,0,0.8,0,1.2,0
		c1.1,0,2.3,0.1,3.3,0.1c0.4,0,0.8,0,1.2,0.1c1.2,0.1,2.4,0.1,3.5,0.2c0.3,0,0.5,0,0.8,0.1c16.6,1.3,32.4,4.8,47.4,10.2v157.1H144.2
		V230.2z M284.7,236.5c57.6,27.3,98.8,83.9,104.1,150.4H284.7V236.5L284.7,236.5z M365.8,163l45.8,45.8L395.4,225l-11.7-11.7
		l-30.9-30.9l0,0l-3.2-3.2L365.8,163z M347.3,199.3l25.1,25.1l2.9,2.9l-31.1,31c-9.6-9.2-20.2-17.6-31.5-24.6L347.3,199.3z
		 M128.3,236.9v150h-103C30.4,320.7,71.1,264.3,128.3,236.9z M24.7,442H320c4.4,0,7.9-3.5,7.9-7.9s-3.5-7.9-7.9-7.9H24.7v-23.3
		h364.7v23.3h-44c-4.4,0-7.9,3.5-7.9,7.9s3.5,7.9,7.9,7.9h44v148.4H284.7V555c0-15.2-12.4-27.6-27.5-27.6H155.8
		c-15.2,0-27.5,12.4-27.5,27.6v35.4H24.7V442z M268.9,590.4H144.2V555c0-6.5,5.2-11.7,11.7-11.7h101.3c6.5,0,11.7,5.2,11.7,11.7
		L268.9,590.4L268.9,590.4z M430.6,620.4c0,6.5-5.2,11.7-11.7,11.7H-5c-6.5,0-11.7-5.2-11.7-11.7V618c0-6.5,5.2-11.7,11.7-11.7h21.7
		h119.6h140.5h120.6H419c6.5,0,11.7,5.2,11.7,11.7L430.6,620.4L430.6,620.4z"/>
	<g class="st0">
		<polygon class="st1" points="405.6,214.8 395.3,225 349.5,179.3 359.9,169.1 		"/>
	</g>
</g>
</svg>
