<?xml version="1.0" encoding="utf-8"?>
<!-- Generator: Adobe Illustrator 19.1.0, SVG Export Plug-In . SVG Version: 6.00 Build 0)  -->
<svg version="1.1" id="Layer_1" xmlns="http://www.w3.org/2000/svg" xmlns:xlink="http://www.w3.org/1999/xlink" x="0px" y="0px"
	 viewBox="-42.2 146 499 499.1" style="enable-background:new -42.2 146 499 499.1;" xml:space="preserve">
<style type="text/css">
	.st0{opacity:0.2;}
	.st1{fill:#231F20;}
	.st2{fill:#FFFFFF;}
</style>
<g>
	<g class="st0">
		<path class="st1" d="M153.7,581.7c0-9.1,2.1-17.8,5.7-25.6h-22.3c-4.6,8.5-7.3,18.3-7.3,28.7c0,22.3,12.1,41.8,30.2,52.2
			c5-2.9,9.6-6.5,13.6-10.7C161.4,615.3,153.7,599.4,153.7,581.7z"/>
	</g>
	<g class="st0">
		<path class="st1" d="M248.5,581.7c0-9.1,2.1-17.8,5.7-25.6h-22.3c-4.6,8.5-7.3,18.3-7.3,28.7c0,22.3,12.1,41.8,30.2,52.2
			c5-2.9,9.6-6.5,13.6-10.7C256.2,615.3,248.5,599.4,248.5,581.7z"/>
	</g>
	<g class="st0">
		<path class="st1" d="M190.4,414c0-18.4,12.2-33.9,28.9-39.1c-3.8-1.2-7.8-1.8-12-1.8c-22.6,0-40.8,18.3-40.8,40.8
			c0,22.6,18.3,40.8,40.8,40.8c4.2,0,8.2-0.6,12-1.8C202.6,447.9,190.4,432.4,190.4,414z"/>
	</g>
	<g class="st0">
		<path class="st1" d="M219.3,228c-3.8-1.2-7.8-1.8-12-1.8c-22,0-39.8,17.8-39.8,39.8h23.9C191.5,248.1,203.2,233,219.3,228z"/>
	</g>
	<g class="st0">
		<polygon class="st1" points="45.7,397.7 109.3,361.2 109.3,331.8 23.8,380.8 -34.1,533.8 -5.9,533.8 		"/>
	</g>
	<path class="st2" d="M256.1,414c0-26.9-21.9-48.8-48.8-48.8s-48.8,21.9-48.8,48.8s21.9,48.8,48.8,48.8S256.1,440.9,256.1,414z
		 M174.4,414c0-18.2,14.8-32.9,32.9-32.9c18.2,0,32.9,14.8,32.9,32.9c0,18.2-14.8,32.9-32.9,32.9S174.4,432.2,174.4,414z"/>
	<path class="st2" d="M167.6,273.8h79.5c4.4,0,7.9-3.5,7.9-7.9c0-26.3-21.4-47.7-47.7-47.7s-47.7,21.4-47.7,47.7
		C159.7,270.3,163.2,273.8,167.6,273.8z M207.4,234c14.8,0,27.3,10.2,30.8,23.9h-61.7C180.1,244.2,192.5,234,207.4,234z"/>
	<g class="st0">
		<path class="st1" d="M140.1,534.1v-34.3V352.3v-53.6c0-57.2,30.5-106.9,75.6-132.8c-2.5-1.2-5.1-2.4-7.7-3.4
			c-53.1,21.5-90.7,75.1-90.7,137.7v52.2V496v33.4c0,10.4,8.1,18.8,18.1,18.8h10.7C142.4,544.7,140.1,539.7,140.1,534.1z"/>
	</g>
	<path class="st2" d="M456.3,531l-58-153c-0.6-1.7-1.9-3.2-3.5-4.1l-81.5-46.7v-29.7c0-33.3-10-65.2-28.9-92.4
		c-18.5-26.6-44.1-46.8-74.2-58.6c-1.9-0.7-3.9-0.7-5.8,0c-30,11.8-55.7,32-74.2,58.6c-18.9,27.2-28.9,59.2-28.9,92.4v29.7
		l-81.5,46.7c-1.6,0.9-2.8,2.3-3.5,4.1l-58,153c-0.9,2.4-0.6,5.2,0.9,7.3c1.5,2.1,3.9,3.4,6.5,3.4h50.5h85.6
		c2.2,11.5,11.6,20.5,23.4,22.1c-2.2,6.8-3.4,13.9-3.4,21.1c0,24.3,13.1,46.9,34.1,59.1c1.2,0.7,2.6,1.1,4,1.1s2.7-0.4,4-1.1
		c21-12.2,34.1-34.8,34.1-59.1c0-7.1-1.1-14.1-3.3-20.8h25.2c-2.2,6.7-3.3,13.7-3.3,20.8c0,24.3,13.1,46.9,34.1,59.1
		c1.2,0.7,2.6,1.1,4,1.1s2.7-0.4,4-1.1c21-12.2,34.1-34.8,34.1-59.1c0-7.2-1.1-14.3-3.4-21.1c11.7-1.6,21.1-10.6,23.4-22.1h85.6l0,0
		h50.4c2.6,0,5-1.3,6.5-3.4C456.8,536.2,457.2,533.4,456.3,531z M30.2,386.2l71.2-40.8v36.3l-43.5,24.9c-1.6,0.9-2.8,2.3-3.5,4.1
		L10.9,525.9h-33.6L30.2,386.2z M68.3,419l33.1-19v111.4v14.4H27.8L68.3,419z M182.2,584.9c0,17.1-8.4,33.1-22.2,42.8
		c-13.8-9.8-22.2-25.8-22.2-42.8c0-7.1,1.5-14.3,4.3-20.8h35.8C180.7,570.6,182.2,577.7,182.2,584.9z M254.7,627.7
		c-13.8-9.8-22.2-25.8-22.2-42.8c0-7.1,1.5-14.3,4.3-20.8h35.8c2.8,6.6,4.3,13.7,4.3,20.8C277,601.9,268.6,617.9,254.7,627.7z
		 M297.5,536.5c0,6.4-5.2,11.7-11.7,11.7h-8.2h-45.7h-49.1h-45.7h-8.2c-6.4,0-11.7-5.2-11.7-11.7v-2.7v-14.4h46.7
		c4.4,0,7.9-3.5,7.9-7.9c0-4.4-3.5-7.9-7.9-7.9h-46.7V386.4v-54.6v-34.3c0-59.6,35.3-112.3,90.1-135.1
		c54.9,22.8,90.1,75.5,90.1,135.1v34.3v54.6v117.2H190.3c-4.4,0-7.9,3.5-7.9,7.9s3.5,7.9,7.9,7.9h107.2v14.4V536.5z M313.3,525.9
		v-14.4V400l33.1,19l40.5,106.9H313.3L313.3,525.9z M403.9,525.9l-43.6-115.1c-0.7-1.7-1.9-3.2-3.5-4.1l-43.5-24.9v-36.3l71.2,40.8
		l52.9,139.6H403.9L403.9,525.9z"/>
</g>
</svg>
