<?xml version="1.0" encoding="utf-8"?>
<!-- Generator: Adobe Illustrator 19.1.0, SVG Export Plug-In . SVG Version: 6.00 Build 0)  -->
<svg version="1.1" id="Layer_1" xmlns="http://www.w3.org/2000/svg" xmlns:xlink="http://www.w3.org/1999/xlink" x="0px" y="0px"
	 viewBox="-86 294.6 372.6 498.2" style="enable-background:new -86 294.6 372.6 498.2;" xml:space="preserve">
<style type="text/css">
	.st0{opacity:0.2;}
	.st1{fill:#231F20;}
	.st2{fill:#FFFFFF;}
</style>
<g>
	<g class="st0">
		<path class="st1" d="M-22.1,522.3c0-69.9,53.4-127.3,121.7-133.6c-4.1-0.4-8.3-0.6-12.6-0.6c-74.1,0-134.2,60.1-134.2,134.2
			S12.9,656.5,87,656.5c4.2,0,8.4-0.2,12.5-0.6C31.3,649.6-22.1,592.2-22.1,522.3z"/>
	</g>
	<g class="st0">
		<path class="st1" d="M52.1,508c0-28.8,20.3-52.9,47.4-58.6c-4-0.9-8.2-1.3-12.5-1.3c-33.1,0-60,26.8-60,60c0,33.1,26.8,60,60,60
			c4.3,0,8.5-0.5,12.5-1.3C72.4,560.9,52.1,536.9,52.1,508z"/>
	</g>
	<g class="st0">
		<path class="st1" d="M84.9,329.7c0-10.5,5.9-19.6,14.7-24.1c-3.8-2-8-3.1-12.5-3.1c-15,0-27.2,12.2-27.2,27.2s12.2,27.2,27.2,27.2
			c4.5,0,8.8-1.1,12.5-3.1C90.8,349.3,84.9,340.2,84.9,329.7z"/>
	</g>
	<g>
		<path class="st2" d="M286.5,731.8c-0.4-6.9-3.6-13.3-8.8-17.9c-4.8-4.2-10.9-6.5-17.2-6.5c-7.5,0-14.6,3.2-19.5,8.8
			c-13.7,15.5-33.3,24.4-54,24.4c-33.8,0-62.2-23.4-69.9-54.9c19,13.9,42.1,21.6,65.8,21.6c43.4,0,83.1-25.5,101.2-64.9
			c6-13,0.3-28.5-12.8-34.5c-3.4-1.6-7.1-2.4-10.9-2.4c-10.1,0-19.4,6-23.7,15.2c-9.7,21-30.8,34.6-53.9,34.6
			c-10.3,0-20.3-2.7-29.2-7.7c44.8-23.9,75.3-71.2,75.3-125.4c0-29-8.7-57-25.2-80.8c-2.5-3.6-7.4-4.5-11-2s-4.5,7.4-2,11
			c14.6,21.1,22.4,46,22.4,71.8c0,55.5-36,102.7-85.8,119.6c-0.2,0.1-0.4,0.1-0.5,0.2c-0.8,0.3-1.6,0.5-2.4,0.8
			c-6,1.9-12.2,3.3-18.5,4.2c-0.2,0-0.4,0.1-0.6,0.1c-0.1,0-0.2,0-0.3,0c-0.9,0.1-1.8,0.3-2.7,0.4c-0.4,0.1-0.9,0.1-1.3,0.2
			c-0.9,0.1-1.9,0.2-2.8,0.3c-0.3,0-0.7,0.1-1,0.1c-2.6,0.2-5.3,0.3-7.9,0.4c-0.3,0-0.5,0-0.8,0c-1.2,0-2.3,0-3.5,0
			c-0.2,0-0.3,0-0.5,0c-2.8-0.1-5.5-0.2-8.3-0.4c-0.1,0-0.2,0-0.3,0c-1.3-0.1-2.6-0.2-3.9-0.4c-0.2,0-0.4,0-0.6-0.1
			c-0.5-0.1-1-0.1-1.5-0.2C8.3,639.1-39.4,586.1-39.4,522.2c0-69.6,56.7-126.3,126.3-126.3c33.3,0,64.8,12.9,88.5,36.2
			c3.1,3.1,8.1,3,11.2-0.1s3-8.1-0.1-11.2c-24.8-24.4-57.2-38.6-91.7-40.5v-16.4c15.6-3.6,27.2-17.5,27.2-34.2
			c0-19.3-15.7-35.1-35.1-35.1s-35.1,15.7-35.1,35.1c0,16.6,11.6,30.6,27.2,34.2v16.5C4.3,384.5-55.2,446.6-55.2,522.3
			c0,59.5,36.8,110.6,88.9,131.7c-10.6,17.6-29.8,28.6-50.8,28.6c-10.5,0-20.8-2.8-29.8-8c-4-2.3-8.5-3.5-13.1-3.5
			c-9.2,0-17.9,5-22.5,12.9c-3.5,6-4.4,13-2.7,19.7c1.7,6.7,6.2,12.5,12.2,16c16.9,9.9,36.3,15.1,56,15.1c31.9,0,62.4-14,83.3-37.5
			c12.9,54.6,62.1,95.5,120.7,95.5c35.6,0,69.6-15.3,93.1-42.1C284.7,745.5,287,738.8,286.5,731.8z M67.7,329.7
			c0-10.6,8.7-19.3,19.3-19.3s19.3,8.7,19.3,19.3S97.6,349,87,349C76.3,349,67.7,340.4,67.7,329.7z M136.9,655.4
			c13.1,10.2,29.3,15.8,46,15.8c29.3,0,56.1-17.2,68.3-43.8c1.7-3.6,5.3-6,9.3-6c1.5,0,2.9,0.3,4.3,0.9c5.1,2.4,7.4,8.5,5,13.6
			c-15.5,33.9-49.7,55.7-86.9,55.7c-25.4,0-50-10.3-67.9-28.3v-1.7c5.3-1.1,10.6-2.5,15.7-4.1c0.5-0.2,0.9-0.3,1.4-0.5
			c1.3-0.4,2.5-0.9,3.8-1.3C136.2,655.6,136.6,655.5,136.9,655.4z M-17,719c-16.9,0-33.5-4.5-48-12.9c-2.4-1.4-4.1-3.6-4.8-6.2
			c-0.7-2.6-0.3-5.4,1.1-7.8c1.8-3.1,5.2-5.1,8.9-5.1c1.8,0,3.6,0.5,5.1,1.4c11.4,6.6,24.4,10.1,37.7,10.1c27.8,0,53-15.2,66-39.2
			c4.7,1.3,9.3,2.3,14.1,3.1v6.4c0,0.8,0,1.5,0,2.3c0,1.4,0.1,2.8,0.1,4.2C45.7,702.3,15.2,719-17,719z M268.2,740.3
			c-20.5,23.4-50.2,36.8-81.2,36.8c-56.8,0-103.6-44-107.9-99.8c0-0.1,0-0.3,0-0.4c-0.2-2.2-0.3-4.1-0.3-5.9c0-0.7,0-1.3,0-2v-4.7
			h0.1c1.6,0.1,3.2,0.2,4.8,0.2c0.3,0,0.5,0,0.8,0c0.8,0,1.6,0,2.5,0c0.5,0,1,0,1.4,0s0.8,0,1.2,0c3.1-0.1,6.2-0.2,9.2-0.5
			c0.2,0,0.3,0,0.5,0v5c0,48.3,39.3,87.7,87.7,87.7c25.2,0,49.2-10.9,65.9-29.8c1.9-2.2,4.8-3.5,7.7-3.5c2.5,0,4.9,0.9,6.8,2.6
			c2.1,1.8,3.3,4.3,3.5,7C270.9,735.6,270,738.2,268.2,740.3z"/>
		<path class="st2" d="M154.8,508c0-37.4-30.4-67.9-67.9-67.9C49.5,440.1,19,470.5,19,508s30.4,67.9,67.9,67.9
			S154.8,545.5,154.8,508z M87,560.1c-28.7,0-52.1-23.4-52.1-52.1s23.4-52.1,52.1-52.1s52.1,23.4,52.1,52.1
			C139.1,536.8,115.7,560.1,87,560.1z"/>
		<path class="st2" d="M87,479.4c-15.8,0-28.7,12.9-28.7,28.7c0,15.8,12.9,28.7,28.7,28.7s28.7-12.9,28.7-28.7
			C115.7,492.3,102.8,479.4,87,479.4z M87,521c-7.1,0-12.9-5.8-12.9-12.9c0-7.1,5.8-12.9,12.9-12.9c7.1,0,12.9,5.8,12.9,12.9
			C99.9,515.2,94.1,521,87,521z"/>
		<path class="st2" d="M101.5,603.6c-2.9,5.5-8.5,8.8-14.6,8.8c-6.4,0-12-3.5-14.9-9.2c-1.9-3.9-6.7-5.5-10.6-3.6
			c-3.9,1.9-5.5,6.7-3.6,10.6c5.5,11.1,16.6,18.1,29,18.1c12,0,23-6.6,28.6-17.3c2-3.9,0.6-8.6-3.3-10.7
			C108.3,598.3,103.6,599.7,101.5,603.6z"/>
	</g>
</g>
</svg>
