<?xml version="1.0" encoding="utf-8"?>
<!-- Generator: Adobe Illustrator 19.1.0, SVG Export Plug-In . SVG Version: 6.00 Build 0)  -->
<svg version="1.1" id="Layer_1" xmlns="http://www.w3.org/2000/svg" xmlns:xlink="http://www.w3.org/1999/xlink" x="0px" y="0px"
	 viewBox="-22.8 146 462.5 504.1" style="enable-background:new -22.8 146 462.5 504.1;" xml:space="preserve">
<style type="text/css">
	.st0{opacity:0.2;}
	.st1{fill:#231F20;}
	.st2{fill:#FFFFFF;}
</style>
<g>
	<g class="st0">
		<path class="st1" d="M228.7,627.1c-43.3,0-80.7-25.5-98-62.2c0,0,0-0.1-0.1-0.1c-1.3-2.8-3.7-3.8-3.7-3.8l0,0
			C54.9,524,5.5,448.9,5.5,362.3c0-69.5,31.7-131.5,81.5-172.4C25.7,229.6-14.9,298.7-14.9,377.2c0,87.6,50.5,163.5,124,200
			c16.7,38.2,54.8,64.9,99.2,64.9c28.4,0,54.2-11,73.6-28.9C266.2,622.1,248.1,627.1,228.7,627.1z"/>
	</g>
	<g class="st0">
		<path class="st1" d="M289.4,447.5c-22.7-17.7-22.1-56.6,1.5-86.8c12.3-15.8,28.4-26,44.2-29.8c-22.1-6-50.3,5.3-69.4,29.8
			c-23.6,30.2-24.2,69.1-1.5,86.8c10.9,8.5,25.1,10.6,39.6,7.2C298.6,453.2,293.7,450.8,289.4,447.5z"/>
	</g>
	<g class="st0">
		<path class="st1" d="M93.9,424.9c-23.6-30.2-24.2-69.1-1.5-86.8c4.3-3.4,9.2-5.8,14.5-7.2c-14.5-3.4-28.8-1.3-39.6,7.2
			c-22.7,17.7-22.1,56.6,1.5,86.8c19.1,24.4,47.2,35.7,69.4,29.8C122.3,450.9,106.2,440.6,93.9,424.9z"/>
	</g>
	<g class="st0">
		<path class="st1" d="M182.7,522h-25.2c3,25.5,24.6,45.3,50.9,45.3c4.3,0,8.6-0.6,12.6-1.6C200.6,560.5,185.1,543.2,182.7,522z"/>
	</g>
	<g>
		<path class="st2" d="M208.4,650.1c-45.2,0-86.2-26.2-105.3-67c-36.9-18.9-68-47.3-90.2-82.4c-23.3-36.9-35.7-79.6-35.7-123.4
			c0-61.8,24.1-119.8,67.7-163.5S146.6,146,208.4,146c55.9,0,109.9,20.2,151.9,56.9c3.3,2.9,3.7,8,0.8,11.3c-2.9,3.3-8,3.7-11.3,0.8
			c-39.2-34.2-89.4-53-141.4-53C89.7,162-6.9,258.5-6.9,377.2c0,82.3,45.8,156.2,119.6,192.8c1.7,0.8,3,2.2,3.8,3.9
			c16,36.5,52.1,60.1,91.9,60.1s75.9-23.6,91.9-60.1c0.8-1.7,2.1-3.1,3.8-3.9c73.8-36.7,119.6-110.5,119.6-192.8
			c0-53.4-19.7-104.5-55.4-144.1c-3-3.3-2.7-8.3,0.6-11.3c3.3-3,8.3-2.7,11.3,0.6c38.4,42.5,59.5,97.5,59.5,154.8
			c0,43.9-12.3,86.6-35.7,123.4c-22.2,35.1-53.4,63.5-90.2,82.4C294.6,623.9,253.5,650.1,208.4,650.1z"/>
		<path class="st2" d="M290.9,464.2L290.9,464.2c-11.9,0-22.8-3.6-31.6-10.4c-26.2-20.4-26.1-64.4,0.1-98
			c16.8-21.5,40.5-34.4,63.5-34.4c11.9,0,22.8,3.6,31.6,10.4c13,10.2,20,26.2,19.7,45.2c-0.3,18.1-7.3,36.9-19.8,52.9
			C337.5,451.3,313.8,464.2,290.9,464.2z M322.8,337.3c-17.8,0-37.3,10.8-50.9,28.2c-20.8,26.7-22.1,60.6-2.9,75.6
			c5.9,4.6,13.4,7,21.7,7c17.8,0,37.3-10.8,50.9-28.2c10.3-13.3,16.2-28.6,16.4-43.3c0.2-13.8-4.6-25.3-13.5-32.3
			C338.7,339.8,331.1,337.3,322.8,337.3z"/>
		<path class="st2" d="M125.9,464.2L125.9,464.2c-22.9,0-46.7-12.9-63.5-34.4c-26.2-33.6-26.3-77.6-0.1-98
			C71,325,82,321.4,93.9,321.4c22.9,0,46.7,12.9,63.5,34.4c26.2,33.6,26.3,77.6,0.1,98C148.7,460.6,137.8,464.2,125.9,464.2z
			 M93.9,337.3c-8.3,0-15.8,2.4-21.7,7c-19.2,15-17.9,48.9,2.9,75.6c13.6,17.4,33.1,28.2,50.9,28.3l0,0c8.3,0,15.8-2.4,21.7-7
			c19.2-15,17.9-48.9-2.9-75.6C131.2,348.1,111.7,337.3,93.9,337.3z"/>
		<path class="st2" d="M208.4,575.2c-30.1,0-55.3-22.5-58.8-52.3c-0.3-2.3,0.5-4.5,2-6.2s3.7-2.7,6-2.7h101.7c2.3,0,4.5,1,6,2.7
			s2.2,4,2,6.2C263.7,552.7,238.4,575.2,208.4,575.2z M167.4,530c5.8,17.2,22.1,29.3,40.9,29.3s35.1-12.1,40.9-29.3H167.4z"/>
	</g>
</g>
</svg>
