<?xml version="1.0" encoding="utf-8"?>
<!-- Generator: Adobe Illustrator 16.0.0, SVG Export Plug-In . SVG Version: 6.00 Build 0)  -->
<!DOCTYPE svg PUBLIC "-//W3C//DTD SVG 1.1//EN" "http://www.w3.org/Graphics/SVG/1.1/DTD/svg11.dtd">
<svg version="1.1" id="Livello_1" xmlns="http://www.w3.org/2000/svg" xmlns:xlink="http://www.w3.org/1999/xlink" x="0px" y="0px"
	 width="1920px" height="400px" viewBox="4 0 1920 400" enable-background="new 4 0 1920 400" xml:space="preserve">
<g>
	<defs>
		<rect id="SVGID_1_" x="4" y="0" width="1920" height="400"/>
	</defs>
	<clipPath id="SVGID_2_">
		<use xlink:href="#SVGID_1_"  overflow="visible"/>
	</clipPath>
	<g clip-path="url(#SVGID_2_)">
		<path fill="#91C8EC" d="M903.9,2130.2c-303.399-235.899-477-622-422.8-1030.399c81.1-612.2,643.2-1042.7,1255.4-961.601
			c612.199,81.1,1042.699,643.2,961.6,1255.4s-643.2,1042.7-1255.4,961.6c-162.699-21.6-312.5-77.1-443.399-158.5"/>
		<g>
			<ellipse fill="#588CAD" cx="2197.352" cy="1157.399" rx="168.395" ry="168.395"/>
			<ellipse fill="#588CAD" cx="2014.393" cy="1727.146" rx="106.497" ry="106.497"/>
			<path fill="#588CAD" d="M1334.199,412.5c11.7-88-13.1-172.399-62.6-238.1C1059.4,237.5,871,362.5,730.3,531
				c48.6,84.9,134.8,146.9,239.2,160.801C1147.4,715.4,1310.6,590.301,1334.199,412.5z"/>
			<ellipse fill="#588CAD" cx="1119.506" cy="1530.037" rx="193.194" ry="193.194"/>
			<ellipse fill="#588CAD" cx="1696.228" cy="384.709" rx="104.697" ry="104.697"/>
		</g>
		<g>
			<path fill="#231F20" d="M2291.699,2163.301c244.9-187.5,402-459.2,442.5-764.9s-40.5-609-228-853.8s-459.199-402-764.9-442.5
				C1499.199,70,1258.699,114.1,1047.5,227c-2.5,1.3-4.9,2.601-7.4,4c-3.9,2.101-7.7,4.2-11.6,6.3
				C947.4,282.4,872,337.2,803.699,400.7c-4.6,4.2-9.1,8.5-13.6,12.8c-0.3,0.301-0.5,0.5-0.8,0.801
				c-188.601,180.6-309.5,418-344.4,680.699c-27,203.601,0.7,410.601,79.9,598.9c76.899,182.6,200.2,343.5,356.7,465.1
				c15.899,12.4,38.8,9.5,51.199-6.399c12.4-15.899,9.5-38.8-6.399-51.2c-302.601-235.3-459.4-617.3-409.101-996.8
				c25.5-192.8,100.7-367,210.801-511.7c57.899,74.101,141.699,122.4,236.699,135c197.5,26.2,379.4-113.2,405.601-310.7
				c10.199-77-4.301-153.6-41.101-220.6c128-31.9,263.9-40.7,402.4-22.4c591.3,78.4,1008.6,623.2,930.2,1214.4
				c-78.4,591.3-623.2,1008.601-1214.4,930.2c-153.899-20.4-298.2-72-428.899-153.301c-17.101-10.6-39.601-5.399-50.2,11.7
				c-10.601,17.101-5.4,39.601,11.7,50.2c139.6,86.8,293.6,141.9,457.8,163.7C1743.6,2431.801,2046.8,2350.801,2291.699,2163.301z
				 M1298.1,407.7c-20.9,157.601-166.1,268.8-323.7,247.9c-81.3-10.8-152.399-54.4-198.6-121C904.199,388.301,1070.6,278,1257,217.4
				C1292.4,274.1,1306.9,340.801,1298.1,407.7z"/>
			<path fill="#231F20" d="M2170.4,1360.4c112,14.8,215.2-64.2,230-176.2s-64.2-215.199-176.2-230c-112-14.8-215.1,64.2-230,176.2
				C1979.4,1242.4,2058.5,1345.6,2170.4,1360.4z M2214.699,1026.6c72.101,9.6,123,76,113.5,148.1c-9.6,72.101-76,123-148.1,113.4
				c-72.101-9.601-123-76-113.5-148.101C2076.1,1067.9,2142.6,1017,2214.699,1026.6z"/>
			<path fill="#231F20" d="M1995.6,1868.801c78.2,10.399,150.2-44.801,160.5-123c10.4-78.2-44.8-150.2-123-160.5
				c-78.2-10.4-150.2,44.8-160.5,123C1862.3,1786.5,1917.4,1858.5,1995.6,1868.801z M2023.6,1657.6c38.3,5.1,65.3,40.399,60.3,78.7
				c-5.101,38.3-40.399,65.3-78.7,60.3c-38.3-5-65.3-40.4-60.3-78.7C1950,1679.6,1985.3,1652.6,2023.6,1657.6z"/>
			<path fill="#231F20" d="M1149.6,1302.301c-125.5-16.601-241.2,72-257.9,197.5c-16.6,125.6,72,241.199,197.5,257.899
				c125.601,16.601,241.2-72,257.9-197.5C1363.8,1434.6,1275.199,1318.9,1149.6,1302.301z M1274.9,1550.6
				c-11.399,85.7-90.3,146.2-176,134.8c-85.7-11.399-146.2-90.3-134.8-176s90.3-146.2,176-134.8
				C1225.699,1385.9,1286.199,1464.9,1274.9,1550.6z"/>
			<path fill="#231F20" d="M1702.9,244.7c-77.2-10.2-148.3,44.2-158.5,121.4s44.2,148.3,121.4,158.5s148.3-44.2,158.5-121.4
				C1834.5,326.1,1780.1,255,1702.9,244.7z M1675.4,452.301c-37.3-4.9-63.6-39.301-58.7-76.601c4.9-37.3,39.301-63.6,76.601-58.7
				c37.3,4.9,63.6,39.301,58.7,76.601C1747.1,430.9,1712.699,457.301,1675.4,452.301z"/>
		</g>
		<g opacity="0.2">
			<path fill="#231F20" d="M1721.5,251.5C2314.699,330.1,2737.3,860.301,2689.199,1450c3.4-18.6,6.4-37.5,8.9-56.5
				c81.1-612.199-349.4-1174.3-961.6-1255.399c-612.2-81-1174.301,349.5-1255.4,961.7c-2.5,19-4.5,38-6.1,56.899
				C582.1,574.7,1128.3,172.9,1721.5,251.5z"/>
		</g>
	</g>
	<g clip-path="url(#SVGID_2_)">
		<path fill="#91C8EC" d="M45.5,491.2C-6.4,450.9-36,384.9-26.8,315.1C-12.9,210.5,83.1,136.9,187.8,150.7
			C292.5,164.6,366,260.6,352.2,365.301C338.3,469.9,242.3,543.5,137.6,529.7c-27.8-3.7-53.399-13.2-75.8-27.1"/>
		<g>
			<ellipse fill="#588CAD" cx="266.581" cy="324.918" rx="28.8" ry="28.8"/>
			<ellipse fill="#588CAD" cx="235.305" cy="422.327" rx="18.199" ry="18.199"/>
			<path fill="#588CAD" d="M119,197.6c2-15-2.2-29.5-10.7-40.7c-36.3,10.8-68.5,32.1-92.5,61c8.3,14.5,23,25.1,40.9,27.5
				C87.1,249.4,115,228,119,197.6z"/>
			<ellipse fill="#588CAD" cx="82.324" cy="388.662" rx="32.999" ry="32.999"/>
			<ellipse fill="#588CAD" cx="180.883" cy="192.86" rx="17.899" ry="17.899"/>
		</g>
		<g>
			<path fill="#231F20" d="M282.7,496.9c41.899-32.1,68.699-78.5,75.6-130.8s-6.9-104.101-39-145.9c-32.1-41.9-78.5-68.7-130.8-75.6
				C147.1,139.1,106,146.7,69.9,166c-0.399,0.2-0.8,0.5-1.3,0.7c-0.7,0.4-1.3,0.7-2,1.1C52.7,175.5,39.8,184.9,28.2,195.7
				c-0.801,0.7-1.601,1.5-2.301,2.2l-0.1,0.1C-6.3,228.8-27,269.4-33,314.2c-4.601,34.8,0.1,70.2,13.7,102.4
				c13.1,31.2,34.199,58.7,61,79.5c2.699,2.1,6.6,1.6,8.699-1.101c2.101-2.699,1.601-6.6-1.1-8.699
				c-51.7-40.2-78.5-105.5-69.9-170.4c4.4-33,17.2-62.7,36-87.5c9.9,12.7,24.2,20.899,40.5,23.1c33.801,4.5,64.9-19.3,69.301-53.1
				c1.699-13.2-0.7-26.3-7-37.7c21.899-5.5,45.1-7,68.8-3.8C288.1,170.3,359.4,263.4,346,364.5C332.6,465.6,239.5,536.9,138.4,523.5
				c-26.3-3.5-51-12.3-73.3-26.199c-2.899-1.801-6.8-0.9-8.6,2c-1.8,2.899-0.9,6.8,2,8.6c23.899,14.8,50.2,24.3,78.3,28
				C189,542.801,240.9,528.9,282.7,496.9z M112.9,196.8c-3.6,26.9-28.399,46-55.3,42.4c-13.899-1.8-26-9.3-34-20.7
				c21.9-25,50.4-43.899,82.3-54.2C111.9,173.9,114.4,185.3,112.9,196.8z"/>
			<path fill="#231F20" d="M262,359.6c19.1,2.5,36.8-11,39.3-30.101c2.5-19.1-11-36.8-30.101-39.3c-19.1-2.5-36.8,11-39.3,30.101
				C229.4,339.4,242.8,357.1,262,359.6z M269.6,302.6c12.3,1.6,21,13,19.4,25.3c-1.601,12.3-13,21-25.3,19.4
				c-12.301-1.601-21-13-19.4-25.301C245.9,309.6,257.2,300.9,269.6,302.6z"/>
			<path fill="#231F20" d="M232.1,446.5c13.4,1.801,25.7-7.699,27.4-21c1.8-13.399-7.7-25.699-21-27.399c-13.4-1.8-25.7,7.7-27.4,21
				C209.3,432.5,218.7,444.801,232.1,446.5z M236.9,410.4c6.5,0.9,11.2,6.9,10.301,13.4c-0.9,6.5-6.9,11.199-13.4,10.3
				c-6.5-0.9-11.2-6.9-10.3-13.4C224.3,414.2,230.3,409.6,236.9,410.4z"/>
			<path fill="#231F20" d="M87.5,349.7C66,346.801,46.3,362,43.4,383.4C40.6,404.9,55.7,424.6,77.2,427.5
				c21.5,2.9,41.199-12.3,44.1-33.8C124.1,372.301,109,352.5,87.5,349.7z M108.9,392.1c-1.899,14.6-15.399,25-30.1,23
				c-14.6-1.9-25-15.4-23-30.101c1.9-14.6,15.4-25,30.1-23C100.5,364,110.8,377.5,108.9,392.1z"/>
			<path fill="#231F20" d="M182.1,168.9c-13.2-1.7-25.3,7.6-27.1,20.8c-1.7,13.2,7.6,25.3,20.8,27.1c13.2,1.801,25.3-7.6,27.1-20.8
				C204.6,182.8,195.3,170.7,182.1,168.9z M177.4,204.4c-6.399-0.8-10.899-6.7-10-13.101c0.801-6.399,6.7-10.899,13.101-10
				c6.399,0.801,10.899,6.7,10,13.101C189.6,200.7,183.7,205.2,177.4,204.4z"/>
		</g>
		<g opacity="0.2">
			<path fill="#231F20" d="M185.2,170.1C286.6,183.5,358.8,274.2,350.6,375c0.6-3.199,1.1-6.399,1.5-9.699
				C366,260.7,292.4,164.6,187.699,150.7C83.2,136.8-12.9,210.4-26.8,315.1c-0.4,3.2-0.801,6.5-1,9.7
				C-9.5,225.3,83.8,156.6,185.2,170.1z"/>
		</g>
	</g>
	<g clip-path="url(#SVGID_2_)">
		<path fill="#91C8EC" d="M311.7,146.1c-18.601-14.5-29.301-38.2-26-63.301c5-37.6,39.5-64.1,77.1-59.1s64.1,39.5,59.1,77.1
			c-5,37.601-39.5,64.101-77.1,59.101c-10-1.3-19.2-4.7-27.2-9.7"/>
		<g>
			<path fill="#231F20" d="M397,148.2c15-11.5,24.7-28.2,27.2-47c2.499-18.8-2.5-37.4-14-52.5c-11.5-15-28.2-24.7-47-27.2
				c-14.9-2-29.7,0.7-42.601,7.7c-0.2,0.1-0.3,0.2-0.5,0.2c-0.2,0.1-0.5,0.3-0.7,0.399c-5,2.801-9.6,6.101-13.8,10
				c-0.3,0.301-0.6,0.5-0.8,0.801c0,0,0,0-0.1,0c-11.601,11.1-19,25.699-21.2,41.8c-1.7,12.5,0,25.2,4.899,36.8
				c4.7,11.2,12.3,21.1,21.9,28.6c1,0.801,2.399,0.601,3.1-0.399c0.8-1,0.601-2.4-0.399-3.101C294.4,129.8,284.8,106.4,287.9,83
				c1.601-11.8,6.2-22.6,13-31.399c3.601,4.6,8.7,7.5,14.5,8.3c12.101,1.6,23.3-7,24.9-19.101c0.6-4.699-0.3-9.399-2.5-13.6
				c7.899-2,16.2-2.5,24.7-1.4c36.3,4.801,62,38.301,57.2,74.601c-4.801,36.3-38.301,62-74.601,57.2c-9.5-1.301-18.3-4.4-26.399-9.4
				c-1.101-0.7-2.4-0.3-3.101,0.7c-0.7,1.1-0.3,2.399,0.7,3.1c8.6,5.3,18,8.7,28.1,10.101C363.3,164.7,382,159.7,397,148.2z
				 M335.9,40.3c-1.3,9.7-10.2,16.5-19.899,15.2c-5-0.7-9.4-3.3-12.2-7.399c7.899-9,18.1-15.801,29.6-19.5
				C335.6,32.1,336.5,36.2,335.9,40.3z"/>
			<path fill="#231F20" d="M360.8,30.3c-4.7-0.6-9.101,2.7-9.7,7.5c-0.6,4.7,2.7,9.101,7.5,9.7c4.7,0.601,9.1-2.7,9.7-7.5
				C368.9,35.3,365.6,30.9,360.8,30.3z M359.1,43c-2.3-0.3-3.899-2.399-3.6-4.7c0.3-2.3,2.399-3.899,4.7-3.6
				c2.3,0.3,3.899,2.4,3.6,4.7S361.4,43.3,359.1,43z"/>
		</g>
		<g opacity="0.2">
			<path fill="#231F20" d="M362,30.7c36.399,4.8,62.399,37.4,59.5,73.6c0.2-1.1,0.399-2.3,0.5-3.5c5-37.6-21.5-72.199-59.101-77.1
				c-37.6-5-72.199,21.5-77.1,59.1c-0.2,1.2-0.3,2.301-0.4,3.5C292,50.6,325.5,25.9,362,30.7z"/>
		</g>
	</g>
	<g clip-path="url(#SVGID_2_)">
		<path fill="#157D3F" d="M851.1,183.3l-9.7-13c-17.3-23.1-50.1-27.899-73.3-10.5C745,177.1,740.199,209.9,757.6,233.1l78.1,104.399
			l-6.5,4.9c-16.399,12.3-39.8,8.9-52.1-7.5c-7.8-10.4-9.6-23.8-4.9-35.9c2.2-5.6-0.6-11.899-6.199-14c-5.601-2.1-11.9,0.601-14,6.2
			c-7.5,19.101-4.601,40.4,7.699,56.8c19.5,26,56.5,31.301,82.5,11.9l14.801-11.1L863.4,344l54.4-40.699l6.399-4.801L939,287.4
			c26-19.5,31.3-56.5,11.899-82.5c-12.3-16.4-31.8-25.2-52.3-23.4c-6,0.5-10.4,5.8-9.9,11.7c0.5,6,5.801,10.4,11.7,9.9
			c12.9-1.101,25.3,4.399,33.101,14.8c12.3,16.399,8.899,39.8-7.5,52.1l-6.5,4.9L858.8,193.8"/>
		<ellipse fill="#FFD961" cx="802.365" cy="205.602" rx="27.301" ry="27.301"/>
		<path fill="#95CE91" d="M815.8,262c9.3,7.7,21.8,8.9,30.6,2.3c8.8-6.6,11.101-19,6.4-30L815.8,262z"/>
		<path fill="#179948" d="M792.5,104.7c4.199,5.6,3,13.5-2.5,17.7c-5.601,4.2-13.5,3-17.7-2.5c-4.2-5.601-3-13.5,2.5-17.7
			C780.4,98,788.3,99.1,792.5,104.7z"/>
		<g opacity="0.2">
			<path fill="#231F20" d="M768.1,159.8C745,177.1,740.199,209.9,757.6,233.1l80.2,107.2c1-0.601,2.1-1.301,3.1-2
				c2.4-2.2,6.101-7,1-13.7l-74.2-99.101c-16-21.399-13.199-51.1,5.7-69.1C771.6,157.3,769.8,158.5,768.1,159.8z"/>
		</g>
		<g opacity="0.2">
			<path fill="#231F20" d="M790.699,214.3c-7.699-10.3-7-24.3,0.801-33.8c-1.9,0.8-3.801,1.9-5.5,3.2c-12.101,9-14.5,26.1-5.5,38.2
				c9,12.1,26.1,14.5,38.199,5.5c1.801-1.3,3.301-2.8,4.601-4.4C812,227.9,798.4,224.6,790.699,214.3z"/>
		</g>
		<g opacity="0.2">
			<path fill="#231F20" d="M825.9,254.4l-10.2,7.6c9.301,7.7,21.801,8.9,30.601,2.3c1.8-1.3,3.3-2.899,4.5-4.6
				C842.9,262.6,833.3,260.5,825.9,254.4z"/>
		</g>
		<g opacity="0.2">
			<path fill="#231F20" d="M782.4,112.2c-2.8-3.7-3.2-8.5-1.5-12.5c-2.2,0.3-4.3,1-6.1,2.4c-5.601,4.199-6.7,12.1-2.5,17.699
				c4.2,5.601,12.1,6.7,17.7,2.5c1.899-1.399,3.199-3.199,4.1-5.199C789.699,117.7,785.199,115.9,782.4,112.2z"/>
		</g>
		<g>
			<path fill="#231F20" d="M783.6,180.5c-13.8,10.3-16.6,30-6.3,43.8c10.3,13.801,30,16.601,43.8,6.301
				c13.8-10.301,16.6-30,6.3-43.801C817.1,173,797.4,170.1,783.6,180.5z M816.3,224.2c-10.3,7.7-24.9,5.6-32.601-4.7
				c-7.699-10.3-5.6-24.899,4.7-32.6s24.9-5.601,32.601,4.7C828.699,201.9,826.6,216.5,816.3,224.2z"/>
			<ellipse fill="#231F20" cx="802.365" cy="205.602" rx="7.7" ry="7.7"/>
			<path fill="#231F20" d="M850.3,231.1l-37,27.699c-1,0.7-1.601,1.9-1.601,3.101s0.5,2.399,1.5,3.2c10.9,9,25.601,10,35.601,2.5
				c10.1-7.5,13.2-21.9,7.7-34.9c-0.5-1.1-1.5-2-2.7-2.3C852.699,230.1,851.3,230.3,850.3,231.1z M844,261.1
				c-5.801,4.399-14.101,4.5-21.301,0.699l28-20.899C852.3,248.9,849.8,256.8,844,261.1z"/>
			<path fill="#231F20" d="M898.199,177.2c-4,0.4-7.5,2.2-10.1,5.3c-2.6,3-3.8,6.9-3.4,10.8c0.4,4,2.2,7.5,5.301,10.101
				c3,2.6,6.899,3.8,10.8,3.399c11.5-1,22.6,3.9,29.5,13.2c11,14.7,8,35.5-6.7,46.5l-3.3,2.5L862,191.2
				c-1.301-1.8-3.801-2.2-5.601-0.8c-1.8,1.3-2.2,3.8-0.8,5.6l60.7,81.101c1.3,1.8,3.8,2.199,5.6,0.8l6.5-4.9
				c18.2-13.6,22-39.6,8.3-57.8c-8.6-11.5-22.3-17.6-36.699-16.4c-1.801,0.2-3.601-0.399-5-1.6c-1.4-1.2-2.2-2.8-2.4-4.6
				c-0.2-1.801,0.4-3.601,1.6-5c1.2-1.4,2.801-2.2,4.601-2.4c19.1-1.7,37.3,6.5,48.7,21.8c18.1,24.2,13.199,58.7-11,76.8
				l-96.801,72.501c-24.199,18.1-58.699,13.199-76.8-11c-11.399-15.301-14.1-35.101-7.2-52.9c0.7-1.7,2-3,3.601-3.7
				c1.7-0.8,3.5-0.8,5.2-0.1c3.5,1.399,5.199,5.3,3.899,8.8c-5.2,13.3-3.2,28.2,5.4,39.7c13.6,18.2,39.6,22,57.8,8.3l6.5-4.9
				c1.8-1.3,2.2-3.8,0.8-5.6l-78.2-104.4c-16-21.3-11.6-51.6,9.7-67.6l0,0l0,0C791.699,147,822,151.3,838,172.6l9.699,13
				c1.301,1.8,3.801,2.199,5.601,0.8c1.8-1.3,2.2-3.8,0.8-5.601l-9.7-13c-17.5-23.399-50-29.3-74.5-14.3c-2-6.2-4.3-18,2.1-28.2
				c5.8,4.601,14.101,4.801,20.2,0.2c7.4-5.5,8.9-15.899,3.3-23.3c-5.5-7.4-15.899-8.9-23.3-3.3c-6.2,4.7-8.3,12.899-5.4,19.8
				c-0.3,0.2-0.5,0.5-0.699,0.8c-10.5,14.8-5.7,32.101-3.2,39c-22.7,19.101-26.8,52.9-8.8,76.9L830,336.6l-3.301,2.5
				c-14.699,11-35.5,8-46.5-6.7c-6.899-9.3-8.6-21.2-4.3-32c3-7.601-0.8-16.3-8.5-19.3c-3.7-1.5-7.7-1.4-11.399,0.199
				c-3.601,1.601-6.4,4.5-7.9,8.2c-7.9,20.4-4.8,43.101,8.3,60.601c20.8,27.8,60.3,33.5,88.101,12.7l96.8-72.5
				C969.1,269.5,974.8,230,954,202.1C940.9,184.7,920,175.3,898.199,177.2z M777.199,105.4c3.801-2.8,9.2-2.101,12,1.7
				c2.9,3.8,2.101,9.199-1.699,12c-3.801,2.8-9.2,2.1-12-1.7C772.699,113.7,773.4,108.2,777.199,105.4z"/>
		</g>
	</g>
</g>
</svg>
