<?xml version="1.0" encoding="utf-8"?>
<!-- Generator: Adobe Illustrator 16.0.0, SVG Export Plug-In . SVG Version: 6.00 Build 0)  -->
<!DOCTYPE svg PUBLIC "-//W3C//DTD SVG 1.1//EN" "http://www.w3.org/Graphics/SVG/1.1/DTD/svg11.dtd">
<svg version="1.1" id="Layer_1" xmlns="http://www.w3.org/2000/svg" xmlns:xlink="http://www.w3.org/1999/xlink" x="0px" y="0px"
	 width="1977px" height="400px" viewBox="0 0 1977 400" enable-background="new 0 0 1977 400" xml:space="preserve">
<g>
	<g>
		<defs>
			<rect id="SVGID_1_" x="1377.229" width="600" height="400"/>
		</defs>
		<clipPath id="SVGID_2_">
			<use xlink:href="#SVGID_1_"  overflow="visible"/>
		</clipPath>
		<g clip-path="url(#SVGID_2_)">
			<path fill="#867871" d="M1634.729,682.7c11,15.102,23.5,29.3,37.398,42.3l-7.8,15.302c-6.8,13.3-1.5,29.6,11.8,36.398l98.5,50.3
				c13.3,6.802,29.602,1.5,36.4-11.8l7.8-15.3c48.399,9.4,97.6,6.4,143.5-7.5l9.399,14.5c8.101,12.6,24.899,16.1,37.5,8l92.801-60.2
				c12.6-8.1,16.1-24.898,8-37.5l-9.4-14.398c15.5-17.9,29.2-38,40.4-60c11.3-22.102,19.5-44.9,24.898-68l17.2-0.9
				c14.9-0.8,26.4-13.5,25.7-28.5l-5.7-110.5c-0.8-14.899-13.5-26.399-28.5-25.7l-17.3,0.9c-15.6-45.3-42.1-87-78.1-120.602
				l7.8-15.3c6.8-13.3,1.5-29.6-11.8-36.4l-98.5-50.3c-13.302-6.8-29.602-1.5-36.4,11.8l-7.8,15.302c-48.4-9.4-97.602-6.4-143.5,7.5
				l-9.4-14.5c-8.1-12.602-24.898-16.102-37.5-8l-92.798,60.198c-12.6,8.102-16.1,24.9-8,37.5l9.4,14.4c-15.5,17.9-29.2,38-40.5,60
				c-11.3,22.102-19.5,44.9-24.9,68l-17.2,0.9c-14.899,0.8-26.399,13.5-25.699,28.5l5.698,110.5c0.802,14.898,13.5,26.398,28.5,25.7
				l17.302-0.9c5.8,16.9,13.198,33.3,22,49"/>
			<g opacity="0.2">
				<path fill="#231F20" d="M2172.427,516.302c0.9,17-0.1,27.1-17.1,28l-4.9,0.3l0,0l0,0l-2.898,0.2c-3.8,0.6-10.4,3.1-13.2,13.198
					v0.102c-5.9,22.898-13.9,47.5-24.6,68.6c-11,21.7-27.602,44.7-43.302,63.7l0,0c-7.198,8.9-0.198,16.599-0.198,16.699l4.698,5.3
					c9.2,14.3,5,21.6-9.3,30.8l-92.1,60.2l2.3,3.6c8.1,12.602,24.899,16.102,37.5,8l92.8-60.198c12.602-8.102,16.102-24.9,8-37.5
					l-9.398-14.4c15.5-17.9,29.198-38,40.398-60c11.3-22.1,19.5-44.9,24.9-68l17.201-0.901c14.898-0.8,26.398-13.5,25.698-28.5
					l-5.698-110.5c-0.802-14.898-13.5-26.398-28.5-25.698l-9.302,0.5L2172.427,516.302z"/>
			</g>
			<g>
				<ellipse fill="#867871" cx="2010.963" cy="392.08" rx="37.301" ry="37.301"/>
				<ellipse fill="#867871" cx="2024.61" cy="521.978" rx="22.601" ry="22.601"/>
				<ellipse fill="#867871" cx="1795.653" cy="478.71" rx="65.503" ry="65.503"/>
				<ellipse fill="#867871" cx="1857.846" cy="659.938" rx="33.902" ry="33.902"/>
			</g>
			<g>
				<path fill="#231F20" d="M1981.628,177.8l98.5,50.302c18.601,9.5,26,32.398,16.5,51l-4.2,8.198
					c31.801,31.301,56.601,69.601,72.301,111.601l9.3-0.5c10.1-0.5,19.8,2.9,27.3,9.7s11.9,16.1,12.5,26.2l5.7,110.5
					c0.5,10.1-2.9,19.8-9.7,27.3s-16.1,11.9-26.2,12.5l-9.2,0.5c-5.6,21.6-13.6,42.6-23.8,62.5s-22.5,38.7-36.7,56l5,7.7
					c11.4,17.5,6.4,41-11.199,52.398l-92.801,60.2c-8.5,5.5-18.6,7.4-28.5,5.3c-9.898-2.1-18.398-7.898-23.898-16.398l-5-7.8
					c-43.2,11.898-88.801,14.3-132.801,7l-4.2,8.199c-9.5,18.602-32.4,26-51,16.5l-98.3-50.398c-18.602-9.5-26-32.4-16.5-51l4.2-8.2
					c-12-11.8-23-24.602-32.9-38.2c-3.5-4.8-2.4-11.6,2.4-15.1c4.8-3.5,11.6-2.4,15.1,2.398c10.7,14.7,22.8,28.4,36,40.8
					c3.5,3.302,4.4,8.5,2.2,12.802l-7.8,15.3c-4.102,8-0.9,17.898,7.1,21.898l98.5,50.302c8,4.1,17.9,0.898,21.898-7.102l7.802-15.3
					c2.198-4.3,6.898-6.6,11.698-5.7c45.7,8.9,93.5,6.4,138.302-7.2c4.6-1.398,9.6,0.4,12.198,4.4l9.4,14.5
					c2.399,3.7,6,6.2,10.3,7.1c4.3,0.9,8.602,0.102,12.3-2.3l92.802-60.2c7.5-4.898,9.698-15,4.8-22.6l-9.4-14.4
					c-2.6-4-2.2-9.3,0.9-12.898c15.2-17.602,28.398-37,39-57.9c10.6-20.8,18.7-42.898,24-65.5c1.1-4.699,5.1-8.1,9.898-8.3
					l17.2-0.899c4.3-0.199,8.4-2.101,11.3-5.399c2.9-3.2,4.4-7.4,4.2-11.8l-5.7-110.5c-0.198-4.303-2.099-8.402-5.398-11.303
					c-3.2-2.898-7.4-4.398-11.8-4.198l-17.302,0.898c-4.8,0.2-9.198-2.7-10.8-7.3c-15.3-44.3-41.3-84.5-75.3-116.2
					c-3.5-3.3-4.4-8.5-2.2-12.8l7.8-15.3c4.102-8,0.9-17.9-7.1-21.9l-98.499-50.2c-8-4.1-17.9-0.898-21.9,7.102l-7.8,15.3
					c-2.2,4.3-6.899,6.6-11.7,5.7c-45.699-8.9-93.5-6.4-138.3,7.198c-4.6,1.4-9.6-0.398-12.2-4.398l-9.398-14.5
					c-4.9-7.5-15-9.7-22.602-4.8l-92.8,60.198c-3.7,2.4-6.2,6-7.1,10.302c-0.9,4.3-0.102,8.6,2.3,12.3l9.4,14.4
					c2.6,4,2.198,9.3-0.9,12.898c-15.2,17.602-28.4,37-39,57.9c-10.6,20.8-18.7,42.898-24,65.5c-1.1,4.7-5.1,8.1-9.9,8.3
					l-17.198,0.9c-4.4,0.198-8.4,2.1-11.302,5.398c-2.898,3.2-4.398,7.4-4.198,11.8l5.698,110.5c0.5,9,8.102,15.9,17.102,15.4
					l17.3-0.9c4.8-0.198,9.2,2.7,10.8,7.302c5.6,16.3,12.798,32.199,21.199,47.199c2.9,5.2,1.101,11.802-4.1,14.7
					c-5.2,2.9-11.802,1.102-14.7-4.1c-7.7-13.8-14.5-28.3-20-43.101l-9.3,0.5c-20.9,1.102-38.7-15-39.8-35.898l-5.7-110.5
					c-0.5-10.102,2.898-19.8,9.7-27.3c6.8-7.5,16.1-11.9,26.198-12.5l9.2-0.5c5.602-21.602,13.602-42.602,23.8-62.5
					c10.2-20,22.5-38.7,36.7-56l-5-7.7c-5.5-8.5-7.398-18.602-5.3-28.5c2.1-9.9,7.899-18.4,16.399-23.9l92.801-60.2
					c17.5-11.398,41-6.398,52.398,11.2l5,7.8c43.2-11.898,88.8-14.3,132.8-7l4.2-8.199
					C1940.229,175.8,1963.028,168.3,1981.628,177.8z"/>
				<path fill="#231F20" d="M2032.729,349.302c23.6,12,33,41,21,64.6c-12,23.601-41,33-64.602,21c-23.6-12-33-41-21-64.6
					C1980.128,346.7,2009.128,337.302,2032.729,349.302z M1998.927,415.7c13,6.602,29,1.5,35.602-11.5c6.6-13,1.5-29-11.5-35.6
					c-13-6.602-29-1.5-35.602,11.5C1980.729,393.101,1985.927,409.101,1998.927,415.7z"/>
				<path fill="#231F20" d="M2039.628,492.302c16.4,8.398,22.9,28.5,14.601,44.898c-8.399,16.4-28.5,22.9-44.899,14.602
					c-16.4-8.4-22.9-28.5-14.601-44.9C2003.128,490.4,2023.328,483.9,2039.628,492.302z M2019.128,532.5c5.8,3,12.9,0.602,15.9-5.1
					c3-5.8,0.6-12.9-5.102-15.898c-5.8-3-12.898-0.602-15.898,5.1C2011.028,522.4,2013.328,529.5,2019.128,532.5z"/>
				<path fill="#231F20" d="M1830.328,410.802c37.5,19.1,52.4,65.1,33.3,102.6c-19.1,37.5-65.1,52.4-102.6,33.3
					c-37.5-19.1-52.4-65.1-33.3-102.6C1746.828,406.601,1792.828,391.7,1830.328,410.802z M1770.828,527.4
					c26.9,13.7,59.9,3,73.6-23.898c13.7-26.9,3-59.9-23.898-73.602c-26.9-13.7-59.9-3-73.6,23.9
					C1733.229,480.7,1743.929,513.7,1770.828,527.4z"/>
				<path fill="#5E5F5F" d="M1875.729,284.4c13.6,6.898,19,23.7,12.1,37.3c-6.9,13.602-23.7,19-37.3,12.102
					c-13.602-6.9-19-23.7-12.102-37.302C1845.427,282.9,1862.128,277.5,1875.729,284.4z M1860.328,314.601c3,1.5,6.7,0.3,8.3-2.7
					c1.601-3,0.3-6.7-2.7-8.3c-3-1.5-6.699-0.3-8.3,2.7C1856.128,309.4,1857.328,313.101,1860.328,314.601z"/>
				<path fill="#231F20" d="M1878.028,620.2c21.898,11.2,30.7,38.102,19.5,60.102c-11.2,21.898-38.102,30.698-60.102,19.5
					c-21.898-11.201-30.698-38.102-19.5-60.102C1829.229,617.802,1856.128,609,1878.028,620.2z M1847.328,680.5
					c11.3,5.802,25.3,1.302,31.1-10.1c5.801-11.398,1.301-25.3-10.1-31.1c-11.3-5.8-25.3-1.3-31.1,10.1
					C1831.427,660.802,1835.927,674.802,1847.328,680.5z"/>
			</g>
		</g>
	</g>
	<g>
		<defs>
			<rect id="SVGID_3_" x="1377.229" width="600" height="400"/>
		</defs>
		<clipPath id="SVGID_4_">
			<use xlink:href="#SVGID_3_"  overflow="visible"/>
		</clipPath>
		<g clip-path="url(#SVGID_4_)">
			<path fill="#CB2128" d="M1936.828,216.3c-6.2-0.898-11.8,3.2-12.8,9.5c-2.4,16.102-14.102,29.4-29.7,33.9
				c-9.9,2.9-20.3,1.9-29.4-2.4c-5.1,4.2-10.898,7.7-17.1,10.5l2,6.9l0,0l0,0c15.2,9.2,33.6,11.6,50.8,6.6
				c24-6.898,42-27.398,45.7-52.1C1947.229,223,1943.028,217.2,1936.828,216.3z"/>
			<path fill="#CB2128" d="M1957.528,278c-5.602-2.6-12.3-0.2-15,5.4c-6.102,12.898-17.4,22.6-31,26.5c-26.2,7.6-53.7-7.6-61.3-33.8
				l-2.4-8.2c-3.8,1.8-7.7,3.2-11.8,4.398c-3.2,0.9-6.4,1.7-9.7,2.102l2.3,7.898c11,38.2,50.9,60.2,89.101,49.2
				c19.899-5.698,36.301-19.698,45.199-38.5C1965.528,287.2,1963.128,280.601,1957.528,278z"/>
			<path fill="#CB2128" d="M1828.628,282.2l-2.3-7.9c0,0-0.1,0,0,0c-5.7,1-11,1.302-16.6,1c-2,16.4-13.602,30.302-29.8,35.002
				c-7.102,2-14.602,2.2-21.7,0.398c-6-1.5-12.2,2.102-13.7,8.102s2.1,12.2,8.1,13.7c11,2.8,22.4,2.5,33.4-0.602
				c21.898-6.3,38.3-23.6,44.1-44.7C1829.628,285.601,1829.128,283.9,1828.628,282.2z"/>
		</g>
	</g>
	<g>
		<defs>
			<rect id="SVGID_5_" x="1377.229" width="600" height="400"/>
		</defs>
		<clipPath id="SVGID_6_">
			<use xlink:href="#SVGID_5_"  overflow="visible"/>
		</clipPath>
		<path clip-path="url(#SVGID_6_)" fill="#A82923" d="M1865.729,127.601c12.698,10.399,22.399,24.5,27.198,41.399
			c12.701,44.2-12.698,90.3-56.898,103s-90.3-12.7-103-56.898c-12.7-44.2,12.8-90.302,56.899-103
			c21.801-6.302,44.199-3.2,62.699,6.698"/>
	</g>
	<g>
		<defs>
			<rect id="SVGID_7_" x="1377.229" width="600" height="400"/>
		</defs>
		<clipPath id="SVGID_8_">
			<use xlink:href="#SVGID_7_"  overflow="visible"/>
		</clipPath>
		<ellipse clip-path="url(#SVGID_8_)" fill="#FFDA62" cx="1810.535" cy="183.571" rx="37.2" ry="37.2"/>
	</g>
	<g>
		<defs>
			<rect id="SVGID_9_" x="1377.229" width="600" height="400"/>
		</defs>
		<clipPath id="SVGID_10_">
			<use xlink:href="#SVGID_9_"  overflow="visible"/>
		</clipPath>
		<ellipse clip-path="url(#SVGID_10_)" fill="#F5F6F6" cx="1810.535" cy="183.571" rx="12.9" ry="12.9"/>
	</g>
	<g>
		<defs>
			<rect id="SVGID_11_" x="1377.229" width="600" height="400"/>
		</defs>
		<clipPath id="SVGID_12_">
			<use xlink:href="#SVGID_11_"  overflow="visible"/>
		</clipPath>
		<ellipse clip-path="url(#SVGID_12_)" fill="#CB2128" cx="1779.92" cy="77.37" rx="16.9" ry="16.9"/>
	</g>
	<g>
		<defs>
			<rect id="SVGID_13_" x="1377.229" width="600" height="400"/>
		</defs>
		<clipPath id="SVGID_14_">
			<use xlink:href="#SVGID_13_"  overflow="visible"/>
		</clipPath>
		<g opacity="0.2" clip-path="url(#SVGID_14_)">
			<path fill="#231F20" d="M1748.028,210.9c-12-41.602,10-85,49.5-100.5c-2.5,0.5-5.102,1.1-7.602,1.8
				c-44.198,12.7-69.6,58.9-56.898,103c12.7,44.2,58.898,69.6,103,56.9c2.5-0.7,5-1.602,7.398-2.5
				C1801.729,277.5,1760.028,252.5,1748.028,210.9z"/>
		</g>
	</g>
	<g>
		<defs>
			<rect id="SVGID_15_" x="1377.229" width="600" height="400"/>
		</defs>
		<clipPath id="SVGID_16_">
			<use xlink:href="#SVGID_15_"  overflow="visible"/>
		</clipPath>
		<g opacity="0.2" clip-path="url(#SVGID_16_)">
			<path fill="#231F20" d="M1789.729,189.601c-5-17.2,3-34.9,18.1-43.102c-2.6,0.2-5.2,0.602-7.7,1.3
				c-19.7,5.7-31.1,26.302-25.398,46c5.7,19.7,26.3,31.102,45.999,25.4c2.5-0.7,4.899-1.8,7.199-3
				C1810.927,217.7,1794.628,206.8,1789.729,189.601z"/>
		</g>
	</g>
	<g>
		<defs>
			<rect id="SVGID_17_" x="1377.229" width="600" height="400"/>
		</defs>
		<clipPath id="SVGID_18_">
			<use xlink:href="#SVGID_17_"  overflow="visible"/>
		</clipPath>
		<g opacity="0.2" clip-path="url(#SVGID_18_)">
			<path fill="#231F20" d="M1778.628,77.8c-1.8-6.198,0.2-12.698,4.7-16.898c-2.6-0.5-5.3-0.5-8,0.3c-8.898,2.6-14.2,11.9-11.6,21
				c2.6,8.9,11.898,14.2,21,11.6c2.7-0.8,5.1-2.1,6.898-4C1785.429,88.4,1780.429,84,1778.628,77.8z"/>
		</g>
	</g>
	<g>
		<defs>
			<rect id="SVGID_19_" x="1377.229" width="600" height="400"/>
		</defs>
		<clipPath id="SVGID_20_">
			<use xlink:href="#SVGID_19_"  overflow="visible"/>
		</clipPath>
		<g clip-path="url(#SVGID_20_)">
			<path fill="#231F20" d="M1967.927,282.601c-1.5-4-4.398-7.302-8.3-9.102c-3.6-1.6-7.6-2-11.398-0.898
				c-4.5,1.3-8.2,4.398-10.102,8.6c-5.398,11.6-15.7,20.3-27.898,23.8c-20.102,5.802-41.102-3.3-51.102-20.7
				c13.7,5.102,28.8,5.602,43,1.602c25.8-7.501,45.102-29.501,49.102-56.102c1.398-8.8-4.7-17-13.602-18.398
				c-2.3-0.3-4.6-0.2-6.898,0.5c-6,1.7-10.5,6.898-11.5,13.1c-2.102,14.102-12.4,26-26.2,29.9c-6.2,1.8-12.602,1.898-18.7,0.5
				c22.6-22,32.6-55.3,23.3-87.602c-5-17.3-15.1-32.5-28.899-43.8c-2.101-1.7-5.199-1.398-6.899,0.7s-1.4,5.2,0.7,6.9
				c12.3,10.1,21.3,23.6,25.699,38.898c9.5,33.102-3.801,67.4-30.5,86.102c-0.101,0.1-0.199,0.1-0.301,0.198
				c-0.398,0.302-0.898,0.7-1.3,0.9c-3.3,2.1-6.7,4.1-10.3,5.6c-0.2,0-0.2,0.102-0.4,0.2c-0.1,0-0.198,0-0.198,0
				c-0.5,0.2-1,0.5-1.602,0.7c-0.3,0.2-0.5,0.2-0.8,0.4c-0.6,0.3-1,0.5-1.7,0.6c-0.2,0.1-0.398,0.2-0.6,0.3
				c-1.5,0.602-3.102,1.102-4.602,1.602c-0.198,0-0.3,0.1-0.5,0.1c-0.698,0.2-1.398,0.4-2.1,0.6c-0.2,0-0.2,0.102-0.3,0.102
				c-1.602,0.398-3.4,0.8-5,1.2c-0.102,0-0.2,0-0.2,0c-0.8,0.1-1.601,0.3-2.4,0.398c-0.198,0-0.198,0.102-0.398,0
				c-0.3,0-0.602,0.102-1,0.102c-38.2,5.6-75.7-17.801-86.7-55.8c-12-41.5,12.102-85,53.5-97c19.8-5.7,40.8-3.5,59,6.398
				c2.4,1.2,5.3,0.4,6.6-2c1.2-2.398,0.4-5.3-2-6.6c-19-10.3-40.6-13.2-61.498-8.4l-2.9-9.898c8.6-4.802,13.3-15.102,10.398-25
				c-3.3-11.602-15.399-18.201-26.899-14.901c-11.601,3.3-18.2,15.399-14.9,26.899c2.9,9.9,12.2,16.2,22.101,15.7l2.8,9.9
				c-43.9,15.3-68.601,62.5-55.601,107.6c10.2,35.5,40.9,59.601,75.601,63.2c-3.3,12.3-12.8,22.2-25.4,25.802
				c-6.198,1.8-12.898,2-19.1,0.3c-2.8-0.7-5.601-0.602-8.4,0.2c-5.5,1.6-9.8,6-11.198,11.6c-1,4.2-0.5,8.6,1.898,12.2
				c2.2,3.7,5.8,6.398,9.9,7.398c11.8,2.9,24.199,2.802,35.898-0.6c19-5.5,34.8-19,43.2-36.7c17,30.4,53.399,46.2,88.3,36.2
				c21.2-6.101,38.8-21.101,48.3-41.102C1969.128,291.101,1969.328,286.7,1967.927,282.601z M1768.429,80.7
				c-1.802-6.3,1.8-13.1,8.198-14.9c6.302-1.8,13,1.9,14.802,8.302c1.8,6.398-1.9,13-8.2,14.8
				C1776.828,90.7,1770.229,87,1768.429,80.7z M1865.628,262.9c9.601,3.8,20.101,4.398,30.2,1.5c17.4-5,30.4-19.9,33.2-37.8
				c0.398-2.4,2.1-4.5,4.5-5.102c0.8-0.2,1.8-0.398,2.7-0.1c3.5,0.5,5.8,3.7,5.3,7.2c-3.4,22.898-20,41.8-42.2,48.198
				c-15.1,4.4-31.6,2.4-45.3-5.198l-0.3-1.102c3-1.5,5.898-3.3,8.6-5.2c0.3-0.198,0.6-0.3,0.8-0.6c0.7-0.5,1.4-1,2-1.5
				C1865.229,263.101,1865.528,263,1865.628,262.9z M1784.828,327.2c-10.1,2.9-20.7,3.102-30.8,0.5c-1.6-0.398-3.1-1.398-3.9-2.898
				c-0.8-1.4-1.1-3.2-0.698-4.8c0.5-2.2,2.3-3.9,4.398-4.5c1.102-0.302,2.2-0.302,3.3,0c7.9,2,16.3,1.8,24.2-0.5
				c16.601-4.802,28.9-18.102,32.599-34.702c3,0,6-0.198,8.9-0.6l1.1,3.9c0.102,0.5,0.302,0.898,0.4,1.398c0.2,0.8,0.6,1.7,0.8,2.4
				C1819.328,306.5,1804.028,321.601,1784.828,327.2z M1958.427,290.8c-8.3,17.4-23.6,30.502-42.1,35.9c-33.8,9.8-69.3-8.5-81.4-41
				c0-0.2,0-0.2-0.1-0.3c-0.5-1.3-0.9-2.4-1.2-3.5c-0.1-0.4-0.2-0.8-0.398-1.2l-0.802-2.8c0.102,0,0.102,0,0.2,0
				c0.9-0.2,2-0.4,2.9-0.7c0.199,0,0.3-0.1,0.5-0.1c0.5-0.102,1-0.302,1.5-0.4c0.3-0.1,0.6-0.2,0.8-0.2c0.2-0.1,0.5-0.1,0.8-0.2
				c1.8-0.6,3.602-1.198,5.4-1.898c0.199,0,0.199,0,0.3-0.102l0.8,2.9c8.3,28.8,38.5,45.5,67.3,37.2c15-4.3,27.5-14.9,34.102-29.102
				c0.8-1.6,2.3-2.898,3.898-3.398c1.5-0.4,3.102-0.3,4.5,0.398c1.5,0.7,2.7,2,3.302,3.602
				C1959.229,287.5,1959.229,289.3,1958.427,290.8z"/>
			<path fill="#231F20" d="M1850.927,171.9c-6.398-22.4-29.8-35.2-52.1-28.7c-22.398,6.4-35.2,29.8-28.7,52.1
				c6.4,22.302,29.8,35.2,52.102,28.7C1844.427,217.601,1857.328,194.3,1850.927,171.9z M1819.528,214.7
				c-17.102,4.9-35-4.9-39.9-22.1c-4.898-17.2,4.9-35,22.101-39.9c17.101-4.9,35,4.9,39.899,22.1
				C1846.528,192,1836.628,209.8,1819.528,214.7z"/>
			<path fill="#231F20" d="M1805.628,166.5c-9.5,2.7-14.898,12.602-12.2,22.102c2.7,9.5,12.602,14.898,22.102,12.198
				c9.5-2.698,14.898-12.6,12.199-22.1C1824.927,169.2,1815.028,163.8,1805.628,166.5z M1812.729,191.3c-4.2,1.2-8.7-1.198-9.9-5.5
				c-1.2-4.3,1.2-8.698,5.5-9.898c4.2-1.2,8.7,1.2,9.9,5.5C1819.427,185.7,1816.927,190,1812.729,191.3z"/>
			<path fill="#231F20" d="M1835.528,238c-0.8,3.7-3.5,6.7-7.3,7.8c-3.802,1.102-7.802,0-10.4-2.898c-1.8-2-4.9-2.2-6.9-0.3
				c-2,1.8-2.199,4.898-0.3,6.898c5.2,5.7,13.102,7.9,20.4,5.8c7.2-2.1,12.5-7.898,14.1-15.198c0.602-2.7-1.1-5.302-3.898-5.802
				C1838.729,233.7,1836.128,235.5,1835.528,238z"/>
		</g>
	</g>
	<g>
		<defs>
			<rect id="SVGID_21_" x="1377.229" width="600" height="400"/>
		</defs>
		<clipPath id="SVGID_22_">
			<use xlink:href="#SVGID_21_"  overflow="visible"/>
		</clipPath>
		<circle clip-path="url(#SVGID_22_)" fill="#194476" cx="1501.429" cy="334.4" r="7"/>
	</g>
	<g>
		<defs>
			<rect id="SVGID_23_" x="1377.229" width="600" height="400"/>
		</defs>
		<clipPath id="SVGID_24_">
			<use xlink:href="#SVGID_23_"  overflow="visible"/>
		</clipPath>
		<circle clip-path="url(#SVGID_24_)" fill="#194476" cx="1593.929" cy="208.4" r="22.4"/>
	</g>
	<g>
		<defs>
			<rect id="SVGID_25_" x="1377.229" width="600" height="400"/>
		</defs>
		<clipPath id="SVGID_26_">
			<use xlink:href="#SVGID_25_"  overflow="visible"/>
		</clipPath>
		<circle clip-path="url(#SVGID_26_)" fill="#194476" cx="1632.628" cy="44.601" r="9"/>
	</g>
	<g>
		<defs>
			<rect id="SVGID_27_" x="1377.229" width="600" height="400"/>
		</defs>
		<clipPath id="SVGID_28_">
			<use xlink:href="#SVGID_27_"  overflow="visible"/>
		</clipPath>
		<circle clip-path="url(#SVGID_28_)" fill="#194476" cx="1436.128" cy="47" r="7"/>
	</g>
	<g>
		<defs>
			<rect id="SVGID_29_" x="1377.229" width="600" height="400"/>
		</defs>
		<clipPath id="SVGID_30_">
			<use xlink:href="#SVGID_29_"  overflow="visible"/>
		</clipPath>
		<circle clip-path="url(#SVGID_30_)" fill="#194476" cx="1914.628" cy="65.3" r="6.6"/>
	</g>
	<g>
		<defs>
			<rect id="SVGID_31_" x="1377.229" width="600" height="400"/>
		</defs>
		<clipPath id="SVGID_32_">
			<use xlink:href="#SVGID_31_"  overflow="visible"/>
		</clipPath>
		<circle clip-path="url(#SVGID_32_)" fill="#194476" cx="1487.729" cy="184.5" r="13.6"/>
	</g>
</g>
</svg>
