<?xml version="1.0" encoding="utf-8"?>
<!-- Generator: Adobe Illustrator 16.0.0, SVG Export Plug-In . SVG Version: 6.00 Build 0)  -->
<!DOCTYPE svg PUBLIC "-//W3C//DTD SVG 1.1//EN" "http://www.w3.org/Graphics/SVG/1.1/DTD/svg11.dtd">
<svg version="1.1" id="Livello_1" xmlns="http://www.w3.org/2000/svg" xmlns:xlink="http://www.w3.org/1999/xlink" x="0px" y="0px"
	 width="1920px" height="400px" viewBox="0 0 1920 400" enable-background="new 0 0 1920 400" xml:space="preserve">
<g>
	<defs>
		<rect id="SVGID_1_" x="0.125" y="0" width="1919.75" height="400"/>
	</defs>
	<clipPath id="SVGID_2_">
		<use xlink:href="#SVGID_1_"  overflow="visible"/>
	</clipPath>
	<circle clip-path="url(#SVGID_2_)" fill="#184375" cx="1246.198" cy="410.2" r="188.7"/>
</g>
<g>
	<defs>
		<rect id="SVGID_3_" x="0.125" y="0" width="1919.75" height="400"/>
	</defs>
	<clipPath id="SVGID_4_">
		<use xlink:href="#SVGID_3_"  overflow="visible"/>
	</clipPath>
	<polygon clip-path="url(#SVGID_4_)" fill="#D44B27" points="2042.9,283.8 -114.1,470.801 1238.8,673.9 2228.9,496.801 	"/>
</g>
<g>
	<defs>
		<rect id="SVGID_5_" x="0.125" y="0" width="1919.75" height="400"/>
	</defs>
	<clipPath id="SVGID_6_">
		<use xlink:href="#SVGID_5_"  overflow="visible"/>
	</clipPath>
	<polygon clip-path="url(#SVGID_6_)" fill="#D22427" points="-320.6,565.6 1841.8,458.5 497.3,205.5 -498.7,345.801 	"/>
</g>
<g>
	<defs>
		<rect id="SVGID_7_" x="0.125" y="0" width="1919.75" height="400"/>
	</defs>
	<clipPath id="SVGID_8_">
		<use xlink:href="#SVGID_7_"  overflow="visible"/>
	</clipPath>
	<polygon clip-path="url(#SVGID_8_)" fill="#F08022" points="-66.3,282 2129.9,425.801 1748.9,614.9 -141.3,551.801 	"/>
</g>
<g>
	<defs>
		<rect id="SVGID_9_" x="0.125" y="0" width="1919.75" height="400"/>
	</defs>
	<clipPath id="SVGID_10_">
		<use xlink:href="#SVGID_9_"  overflow="visible"/>
	</clipPath>
	<path clip-path="url(#SVGID_10_)" fill="#D44B27" d="M-53,326.801C-46.9,329,1171,410.2,1171,410.2L26.2,457L-53,326.801z"/>
</g>
<g>
	<defs>
		<rect id="SVGID_11_" x="0.125" y="0" width="1919.75" height="400"/>
	</defs>
	<clipPath id="SVGID_12_">
		<use xlink:href="#SVGID_11_"  overflow="visible"/>
	</clipPath>
	<g clip-path="url(#SVGID_12_)">
		<g>
			<circle fill="#FFD961" cx="268.3" cy="179.1" r="27.4"/>
			<circle fill="#FFD961" cx="153.5" cy="179.1" r="27.4"/>
		</g>
		<g>
			<circle fill="#AE7229" cx="211" cy="79.9" r="10.6"/>
			<path fill="#AE7229" d="M293.9,305.9c-3.1-4.301-9.1-5.2-13.3-2.101c-9.8,7.101-22.1,9.699-33.8,7
				c-22.5-5.101-36.8-27.501-31.7-50.2l1.5-6.801H197L196.4,256.4c-7.399,32.8,13.301,65.4,46.101,72.9
				c17.1,3.899,35,0.1,49.2-10.101C296,316.1,297,310.1,293.9,305.9z"/>
			<path fill="#AE7229" d="M196.5,256.5l0.6-2.6H187c-6.602,10.6-18.7,17.1-31.7,16.5c-6.3-0.301-12.3-2.301-17.5-5.7
				c-4.4-2.8-10.3-1.601-13.2,2.8c-2.8,4.4-1.6,10.3,2.8,13.2c8,5.2,17.302,8.2,26.9,8.7c15.6,0.8,30.2-5.102,40.8-15.4
				C194.7,268.1,195.2,262.2,196.5,256.5z"/>
			<path fill="#AE7229" d="M302.9,252.1c-4.1-3.199-10.1-2.5-13.3,1.699c-8.398,10.801-22.5,15.9-36,12.7
				c-7.898-1.8-14.8-6.3-19.7-12.6H216.7l-1.5,6.398c7.5,12.4,19.698,21.4,34,24.7c20.6,4.8,42.398-2.8,55.3-19.7
				C307.8,261.2,307,255.3,302.9,252.1z"/>
		</g>
		<path fill="#DF9726" d="M240,121c-8.8-4.2-18.7-6.6-29.102-6.6c-26.398,0-49.398,15.2-60.398,37.399c1-0.1,2-0.1,3.1-0.1
			c15.102,0,27.4,12.3,27.4,27.4c0,15.1-12.3,27.399-27.4,27.399c-3.6,0-7-0.7-10.1-2v40c0,5.101,4.1,9.101,9.1,9.101h116.7
			c5.1,0,9.1-4.101,9.1-9.101v-40c-3.1,1.2-6.6,2-10.1,2c-15.102,0-27.4-12.3-27.4-27.399c0-15.101,12.302-27.4,27.4-27.4
			c1,0,2,0.1,3.1,0.1c-4.5-9-10.8-16.699-18.698-22.899"/>
		<g opacity="0.2">
			<path fill="#231F20" d="M254.4,179.1c0-12.801,8.7-23.601,20.602-26.601c-2.2-0.5-4.4-0.899-6.8-0.899
				c-15.102,0-27.4,12.3-27.4,27.399c0,15.101,12.3,27.4,27.4,27.4c2.3,0,4.6-0.301,6.8-0.9C263.2,202.7,254.4,191.9,254.4,179.1z"
				/>
		</g>
		<g opacity="0.2">
			<path fill="#231F20" d="M139.8,179.1c0-12.801,8.7-23.601,20.6-26.601c-2.198-0.5-4.398-0.899-6.8-0.899
				c-15.1,0-27.398,12.3-27.398,27.399c0,15.101,12.198,27.4,27.398,27.4c2.3,0,4.602-0.301,6.8-0.9
				C148.5,202.7,139.8,191.9,139.8,179.1z"/>
		</g>
		<g opacity="0.2">
			<path fill="#231F20" d="M157,244.6V206.3c-1.102,0.102-2.3,0.2-3.5,0.2c-3.602,0-7-0.7-10.102-2v40
				c0,5.101,4.102,9.101,9.102,9.101H166C161.2,253.8,157,249.7,157,244.6z"/>
			<path fill="#231F20" d="M162.5,153.2l1.8-1.4c-0.1,0-0.2,0-0.3,0c10-20.199,30.1-34.699,53.6-37.1c-2.2-0.2-4.5-0.4-6.8-0.4
				c-26.4,0-49.4,15.2-60.4,37.4c1-0.1,2-0.1,3.102-0.1C156.7,151.7,159.8,152.2,162.5,153.2z"/>
		</g>
		<g opacity="0.2">
			<circle fill="#231F20" cx="211" cy="79.9" r="10.6"/>
		</g>
		<g>
			<circle fill="#231F20" cx="153.5" cy="179.1" r="9.1"/>
			<circle fill="#231F20" cx="269.3" cy="179.1" r="9.1"/>
			<path fill="#231F20" d="M223.8,217.3c-1.6,5.7-6.9,9.602-12.8,9.602c-5.9,0-11.2-3.9-12.8-9.602c-0.7-2.3-3.102-3.6-5.2-2.898
				c-2.3,0.699-3.602,3.1-2.9,5.199c2.7,9.301,11.4,15.801,21,15.801c9.7,0,18.3-6.5,21-15.801c0.7-2.301-0.7-4.699-2.898-5.199
				C226.8,213.7,224.5,215.1,223.8,217.3z"/>
			<path fill="#231F20" d="M305.4,248.6C303,246.7,300,245.7,297,245.7c-4.3,0-8.3,2-10.9,5.3c-5.8,7.5-15.1,12-24.6,12
				c-2.4,0-4.7-0.3-7-0.8c-3.5-0.8-6.8-2.2-9.8-4.101h24.5c7.398,0,13.398-6,13.398-13.399v-37.3c10.3-5.2,17.3-15.9,17.3-28.2
				c0-15.5-11.2-28.5-25.8-31.2c-4.7-8.6-11.1-16.399-18.898-22.399c-1.802-1.5-4.5-1.2-6,0.699c-1.5,1.801-1.2,4.5,0.698,6
				c5.5,4.301,10.302,9.5,14,15.4c-0.1,0-0.199,0.1-0.3,0.1c-0.2,0.101-0.398,0.101-0.7,0.101c-0.3,0.1-0.6,0.1-0.898,0.1
				c-0.2,0.101-0.4,0.101-0.7,0.101c-0.3,0.1-0.601,0.1-0.9,0.199c-0.198,0.101-0.398,0.101-0.698,0.101c-0.302,0.1-0.5,0.1-0.9,0.2
				c-0.2,0.1-0.4,0.1-0.7,0.199c-0.3,0.101-0.5,0.101-0.8,0.301c-0.2,0.1-0.4,0.1-0.6,0.199c-0.302,0.101-0.602,0.2-0.9,0.301
				c-0.1,0.1-0.4,0.1-0.5,0.199c-0.3,0.101-0.6,0.301-0.9,0.4c-0.1,0.1-0.3,0.1-0.398,0.2c-0.4,0.2-0.9,0.399-1.3,0.7
				c-0.102,0.1-0.2,0.1-0.4,0.199c-0.3,0.101-0.7,0.4-0.9,0.5c-0.1,0.101-0.3,0.2-0.5,0.301c-0.3,0.1-0.5,0.3-0.698,0.5
				c-0.102,0.1-0.4,0.3-0.5,0.399c-0.2,0.101-0.5,0.3-0.7,0.5c-0.102,0.101-0.4,0.3-0.5,0.4c-0.2,0.1-0.4,0.3-0.7,0.5
				c-0.1,0.1-0.4,0.3-0.5,0.399c-0.2,0.101-0.4,0.301-0.6,0.5c-0.102,0.101-0.302,0.301-0.5,0.5c-0.2,0.101-0.4,0.4-0.602,0.5
				c-0.1,0.101-0.3,0.301-0.5,0.5c-0.2,0.2-0.398,0.4-0.5,0.601c-0.1,0.1-0.3,0.3-0.5,0.5c-0.1,0.2-0.398,0.399-0.5,0.7
				c-0.1,0.1-0.3,0.3-0.398,0.5c-0.102,0.199-0.4,0.399-0.5,0.699c-0.102,0.101-0.302,0.301-0.4,0.5c-0.2,0.301-0.4,0.5-0.5,0.7
				c-0.1,0.101-0.2,0.3-0.3,0.4c-0.3,0.399-0.5,0.8-0.8,1.2c-0.102,0.1-0.102,0.1-0.102,0.3c-0.2,0.3-0.398,0.7-0.6,1
				c-0.102,0.1-0.102,0.3-0.3,0.5c-0.102,0.3-0.302,0.5-0.4,0.899c-0.1,0.2-0.1,0.4-0.3,0.601c-0.102,0.3-0.3,0.5-0.4,0.8
				c-0.1,0.2-0.1,0.4-0.3,0.6c-0.1,0.301-0.2,0.5-0.3,0.801c-0.102,0.199-0.102,0.399-0.2,0.699c-0.1,0.301-0.1,0.5-0.3,0.801
				c-0.102,0.199-0.102,0.399-0.2,0.699c-0.1,0.301-0.1,0.5-0.2,0.801c-0.1,0.199-0.1,0.399-0.1,0.699
				c-0.102,0.301-0.102,0.601-0.2,0.9c-0.1,0.2-0.1,0.4-0.1,0.7c-0.102,0.3-0.102,0.6-0.102,0.899c-0.1,0.2-0.1,0.4-0.1,0.7
				c-0.102,0.3-0.102,0.7-0.102,0.9s-0.1,0.399-0.1,0.6c-0.101,0.3-0.101,0.7-0.101,1c0,0.101-0.101,0.4-0.101,0.5
				c0,0.5-0.1,1-0.1,1.601c0,17.5,14.3,31.699,31.698,31.699c0.5,0,1,0,1.5-0.1c0.102,0,0.4,0,0.5-0.101c0.302,0,0.7-0.101,1-0.101
				c0.2,0,0.4-0.1,0.7-0.1c0.3-0.102,0.602-0.102,0.9-0.102c0.2-0.1,0.5-0.1,0.7-0.1c0.1-0.101,0.398-0.101,0.5-0.101V245
				c0,2.7-2.2,4.9-4.9,4.9h-35.3h-17.2h-19.5h-10.1h-34.4c-2.7,0-4.899-2.2-4.899-4.9V210.1c0.101,0.101,0.399,0.101,0.5,0.101
				c0.199,0.101,0.5,0.101,0.699,0.101c0.301,0.101,0.602,0.101,0.9,0.101c0.2,0,0.399,0.1,0.7,0.1c0.3,0.101,0.699,0.101,1,0.101
				c0.1,0,0.398,0.101,0.5,0.101c0.5,0,1,0.101,1.5,0.101c17.5,0,31.699-14.301,31.699-31.7c0-0.5,0-1-0.101-1.601
				c0-0.1,0-0.3-0.1-0.5c0-0.399-0.102-0.699-0.102-1c0-0.199-0.1-0.399-0.1-0.6c-0.102-0.3-0.102-0.7-0.102-0.9
				c-0.1-0.199-0.1-0.399-0.1-0.699c-0.1-0.301-0.1-0.601-0.1-0.9c-0.102-0.2-0.102-0.4-0.102-0.7c-0.1-0.3-0.1-0.6-0.2-0.899
				c-0.1-0.2-0.1-0.4-0.1-0.7c-0.1-0.3-0.1-0.5-0.2-0.9c-0.1-0.2-0.1-0.399-0.2-0.7c-0.1-0.3-0.1-0.5-0.3-0.8
				c-0.1-0.2-0.1-0.399-0.2-0.6c-0.1-0.3-0.198-0.5-0.3-0.8c-0.1-0.2-0.1-0.4-0.2-0.601c-0.1-0.3-0.3-0.5-0.398-0.899
				c-0.102-0.101-0.102-0.4-0.3-0.5c-0.102-0.301-0.302-0.601-0.4-0.9c-0.1-0.1-0.1-0.3-0.2-0.4c-0.2-0.399-0.398-0.699-0.7-1.1
				c-0.1-0.1-0.1-0.1-0.1-0.1c-0.3-0.4-0.5-0.9-0.8-1.2c-0.102-0.101-0.102-0.2-0.3-0.3c-0.2-0.301-0.4-0.601-0.7-0.9
				c-0.102-0.1-0.2-0.3-0.3-0.4c-0.2-0.3-0.4-0.5-0.602-0.699c-0.1-0.101-0.3-0.301-0.398-0.5c-0.2-0.2-0.4-0.4-0.602-0.7
				c-0.1-0.101-0.3-0.3-0.398-0.5c-0.2-0.2-0.4-0.4-0.602-0.7c-0.1-0.1-0.3-0.3-0.398-0.4c-0.2-0.199-0.4-0.399-0.7-0.6
				c-0.102-0.1-0.3-0.3-0.5-0.4c-0.2-0.199-0.4-0.399-0.7-0.5c-0.1-0.1-0.3-0.3-0.5-0.399c-0.2-0.101-0.5-0.4-0.7-0.5
				c-0.1-0.101-0.3-0.3-0.5-0.4c-0.3-0.1-0.5-0.399-0.7-0.5c-0.1-0.1-0.3-0.2-0.5-0.3c-0.3-0.1-0.5-0.4-0.8-0.5
				c-0.1-0.1-0.3-0.2-0.398-0.3c-0.302-0.2-0.7-0.4-1-0.601c-0.102-0.1-0.102-0.1-0.302-0.1c-0.398-0.2-0.898-0.5-1.3-0.7
				c-0.1-0.1-0.2-0.1-0.3-0.1c-0.3-0.101-0.7-0.3-1-0.5c-0.1-0.101-0.3-0.101-0.5-0.2c-0.3-0.1-0.6-0.3-0.9-0.4
				c-0.198-0.1-0.398-0.1-0.6-0.199c-0.3-0.101-0.6-0.2-0.9-0.301c-0.198-0.1-0.398-0.1-0.6-0.1c-0.3-0.1-0.6-0.1-0.9-0.3
				C160.5,148,160.3,148,160,148c-0.302-0.1-0.602-0.1-0.9-0.2c-0.2-0.1-0.399-0.1-0.7-0.1c-0.3-0.1-0.6-0.1-0.898-0.1
				c-0.2-0.101-0.4-0.101-0.7-0.101c-0.101,0-0.2-0.1-0.3-0.1c11.6-18.101,31.398-29,53.1-29c9.5,0,18.7,2,27.3,6.2
				c2.102,1,4.7,0.1,5.7-2c1-2.101,0.101-4.7-2-5.7c-8.399-4.101-17.3-6.3-26.7-6.8V94.2c6-1.8,10.602-7.6,10.602-14.3
				c0-8.2-6.7-14.9-14.9-14.9S194.7,71.7,194.7,79.9c0,6.8,4.5,12.399,10.6,14.3v16.2c-12.1,0.7-23.7,4.399-34,10.899
				c-10.5,6.601-19.1,15.801-25,26.7c-14.7,2.8-25.8,15.7-25.8,31.2c0,12.3,7.1,23,17.3,28.2v37.3c0,7.399,6,13.399,13.4,13.399
				H176.4c-5.6,5.101-13,7.899-20.698,7.899c-0.5,0-1,0-1.602-0.1c-5.5-0.301-10.8-2-15.398-4.9c-2.302-1.5-4.9-2.2-7.602-2.2
				c-4.7,0-9,2.301-11.6,6.301c-2,3.101-2.7,6.801-2,10.399c0.7,3.6,2.898,6.7,6,8.7c8.7,5.7,18.7,8.899,29,9.399
				c1,0.101,2,0.101,3,0.101c12.7,0,24.7-4,34.8-11.4c1.5,7.9,4.5,15.501,9,22.501c9.3,14.699,23.8,25,40.8,28.8
				c4.7,1,9.5,1.601,14.3,1.601l0,0c13.9,0,27.2-4.3,38.4-12.399c6.2-4.5,7.6-13.101,3.1-19.301c-2.6-3.6-6.8-5.699-11.198-5.699
				c-2.9,0-5.802,0.899-8.2,2.601C270,305.1,262.4,307.6,254.4,307.6c-2.8,0-5.5-0.3-8.3-0.899c-16.898-3.8-28.5-18.5-29.3-34.899
				c7.898,8.699,18.3,14.8,29.8,17.5c4.3,1,8.8,1.5,13.3,1.5l0,0c18.102,0,35.4-8.5,46.4-22.7C312.6,262,311.5,253.3,305.4,248.6z
				 M245.2,179.1c0-12.7,10.398-23.101,23.1-23.101c0.898,0,1.7,0.101,2.6,0.101c11.602,1.199,20.602,11.1,20.602,23
				c0,9.899-6.2,18.3-14.8,21.6c-0.2,0.1-0.4,0.1-0.7,0.2c-0.102,0.1-0.3,0.1-0.4,0.1c-0.2,0.101-0.398,0.101-0.7,0.2
				c-0.1,0.1-0.3,0.1-0.398,0.1c-0.2,0.102-0.4,0.102-0.7,0.102c-0.101,0.1-0.3,0.1-0.5,0.1c-0.2,0.101-0.4,0.101-0.601,0.101
				c-0.199,0.101-0.399,0.101-0.601,0.101c-0.1,0.101-0.399,0.101-0.5,0.101c-0.2,0.101-0.399,0.101-0.7,0.101
				c-0.1,0-0.3,0.1-0.5,0.1c-0.3,0-0.5,0.101-0.7,0.101c-0.1,0-0.3,0-0.398,0.101c-0.4,0-0.7,0.101-1.2,0.101
				C255.5,202.3,245.2,191.9,245.2,179.1z M204.5,79.9c0-3.601,2.8-6.4,6.398-6.4c3.602,0,6.4,2.8,6.4,6.4
				c0,3.6-2.8,6.399-6.4,6.399C207.4,86.2,204.5,83.4,204.5,79.9z M130.4,179.1c0-11.9,9-21.801,20.602-23
				c0.898-0.101,1.7-0.101,2.6-0.101c12.7,0,23.102,10.4,23.102,23.101c0,12.699-10.4,23.1-23.102,23.1c-0.398,0-0.8,0-1.2-0.101
				c-0.1,0-0.3,0-0.398-0.101c-0.3,0-0.5-0.1-0.7-0.1c-0.1,0-0.3-0.102-0.5-0.102s-0.4-0.1-0.7-0.1c-0.1,0-0.398-0.101-0.5-0.101
				c-0.2-0.101-0.398-0.101-0.6-0.101c-0.2-0.1-0.4-0.1-0.602-0.1c-0.1-0.102-0.3-0.102-0.5-0.102c-0.198-0.1-0.398-0.1-0.698-0.1
				c-0.102-0.101-0.302-0.101-0.4-0.101c-0.2-0.101-0.4-0.101-0.7-0.199c-0.1-0.102-0.3-0.102-0.398-0.102
				c-0.2-0.1-0.4-0.1-0.7-0.199C136.6,197.4,130.4,189,130.4,179.1z M157.1,285.1c-0.898,0-1.7,0-2.5-0.101
				c-8.898-0.399-17.398-3.2-24.8-8c-1.2-0.8-2-2-2.3-3.3c-0.3-1.4-0.102-2.8,0.7-3.9c0.898-1.5,2.6-2.398,4.398-2.398
				c1,0,2,0.3,2.8,0.898C141.2,272.1,148,274.3,155,274.6c0.7,0.101,1.398,0.101,2,0.101c12.898,0,24.7-6.101,32.1-16.5h2.5
				c0,0.101,0,0.101-0.1,0.101c-0.102,0.5-0.102,1-0.3,1.5v0.101c-0.7,4.1-0.9,8.199-0.7,12.199
				C181.5,280.4,169.6,285.1,157.1,285.1z M245.8,315c3.3,0.7,6.8,1.101,10.1,1.101c9.802,0,19.2-3.101,27.2-8.8
				c0.9-0.7,2-1,3.102-1c1.698,0,3.3,0.8,4.3,2.2c1.7,2.3,1.2,5.699-1.2,7.399c-9.8,7.101-21.3,10.8-33.3,10.8
				c-4.102,0-8.4-0.5-12.4-1.399c-14.8-3.3-27.3-12.2-35.399-25c-5.101-8.001-8-17.001-8.699-26.101c0-0.101,0-0.3,0-0.4
				c-0.301-5.199,0.1-10.398,1.1-15.398h10.8L211,260C205.3,284.5,221,309.301,245.8,315z M301.1,262.8
				c-9.5,12.2-24.2,19.4-39.7,19.4c-3.8,0-7.6-0.4-11.398-1.3c-12.4-2.9-23.4-10.602-30.4-21.301l0.3-1.399h11.8
				c5.5,6.3,12.698,10.6,20.8,12.5c3,0.7,6,1,9,1c12.2,0,23.898-5.7,31.398-15.3c1-1.2,2.5-2,4.102-2c1.2,0,2.3,0.398,3.2,1.1
				C302.5,257.2,302.9,260.5,301.1,262.8z"/>
		</g>
	</g>
</g>
<g>
	<defs>
		<rect id="SVGID_13_" x="0.125" y="0" width="1919.75" height="400"/>
	</defs>
	<clipPath id="SVGID_14_">
		<use xlink:href="#SVGID_13_"  overflow="visible"/>
	</clipPath>
	<g clip-path="url(#SVGID_14_)">
		<path fill="#91C8EC" d="M1698.4,56.2c-2.1-2.1-5.5-2.1-7.6,0l-34.2,34.2c-2.1,2.1-2.1,5.5,0,7.6l0,0c2.1,2.101,5.5,2.101,7.6,0
			l34.2-34.2C1700.5,61.6,1700.5,58.3,1698.4,56.2L1698.4,56.2z"/>
		<g>
			<path fill="#588CAD" d="M1797.3,166.7c2,2,2,5.3,0,7.3l-22.8,22.8c-2,2-5.302,2-7.302,0l0,0c-2-2-2-5.3,0-7.3L1790,166.7
				C1792,164.7,1795.3,164.7,1797.3,166.7L1797.3,166.7z"/>
			<path fill="#588CAD" d="M1664.4,97.7c9.4,8,23.601,7.6,32.4-1.3c8.899-8.9,9.399-23.101,1.3-32.4L1664.4,97.7z"/>
		</g>
		
			<rect x="1768.565" y="167.401" transform="matrix(0.7071 -0.7071 0.7071 0.7071 396.7806 1305.4147)" fill="#3B5E75" width="11.2" height="12.7"/>
		<path fill="#91C8EC" d="M1706.5,106.1c-7.802,7.8-7.802,20.399,0,28.1l44.698,44.7c2.4,2.399,6.2,2.399,8.601,0l19.5-19.5
			c2.399-2.4,2.399-6.2,0-8.601L1734.6,106.1C1726.8,98.3,1714.3,98.3,1706.5,106.1z"/>
		<path fill="#3B5E75" d="M1696.8,96.4c-1.3,1.3-2.8,2.5-4.4,3.399l10.7,10.7c0.9-1.6,2-3.1,3.4-4.5c1.3-1.3,2.898-2.5,4.5-3.399
			L1700.198,92C1699.3,93.5,1698.198,95,1696.8,96.4z"/>
		<path fill="#91C8EC" d="M1706.5,134.2c-3.4-3.4-5.302-7.7-5.7-12.1L1662.9,160c-2.399,2.4-2.399,6.2,0,8.601L1697.3,203
			c2.399,2.4,6.2,2.4,8.6,0l34.7-34.7L1706.5,134.2z"/>
		<path fill="#B3DBF1" d="M1760.4,62.5l-37.899,37.9c4.399,0.399,8.699,2.3,12.101,5.7l34.1,34.1l34.7-34.7
			c2.398-2.399,2.398-6.2,0-8.6L1769,62.5C1766.6,60.1,1762.8,60.1,1760.4,62.5z"/>
		<path fill="#91C8EC" d="M1760.4,62.5l-16.8,16.8l43,43l16.8-16.8c2.4-2.399,2.4-6.2,0-8.6L1769,62.5
			C1766.6,60.1,1762.8,60.1,1760.4,62.5z"/>
		<g>
			<path fill="#B3DBF1" d="M1679.698,143.2l-16.8,16.8c-2.398,2.4-2.398,6.2,0,8.601L1697.297,203c2.4,2.4,6.201,2.4,8.602,0
				l16.8-16.8L1679.698,143.2z"/>
			<path fill="#B3DBF1" d="M1762.3,157.8l-16.101,16.101l5,5c2.399,2.399,6.199,2.399,8.601,0l19.5-19.5
				c2.399-2.4,2.399-6.2,0-8.601l-5-5l-5.601,5.601"/>
		</g>
		<g opacity="0.2">
			<path fill="#231F20" d="M1772.9,191.2c-2-2-2-5.3,0-7.3l-5.8,5.8c-2,2-2,5.3,0,7.3s5.3,2,7.3,0l5.8-5.8
				C1778.198,193.2,1774.9,193.2,1772.9,191.2z"/>
		</g>
		<g opacity="0.2">
			<path fill="#231F20" d="M1670.1,92l-5.801,5.8c9.399,8,23.601,7.601,32.399-1.3c1-1,1.9-2,2.601-3.1
				C1690.6,99.5,1678.5,99.1,1670.1,92z"/>
		</g>
		<g opacity="0.2">
			<path fill="#231F20" d="M1757,173.2l-44.7-44.7c-6.7-6.7-7.601-17.2-2.5-24.899c-1.101,0.699-2.2,1.6-3.101,2.5
				c-7.801,7.8-7.801,20.399,0,28.1l44.699,44.7c2.4,2.399,6.2,2.399,8.602,0l5.8-5.8C1763.198,175.6,1759.4,175.6,1757,173.2z"/>
		</g>
		<g opacity="0.2">
			<path fill="#231F20" d="M1703.1,197.3l-34.4-34.399c-2.4-2.4-2.4-6.2,0-8.601l-5.8,5.801c-2.399,2.399-2.399,6.199,0,8.6
				l34.399,34.399c2.399,2.399,6.201,2.399,8.601,0l5.8-5.801C1709.3,199.6,1705.4,199.6,1703.1,197.3z"/>
		</g>
		<g opacity="0.2">
			<path fill="#231F20" d="M1662.3,92.2c-2.101-2.1-2.101-5.5,0-7.6l-5.8,5.8c-2.102,2.1-2.102,5.5,0,7.6c2.1,2.101,5.5,2.101,7.6,0
				l5.8-5.8C1667.8,94.3,1664.4,94.3,1662.3,92.2z"/>
		</g>
		<path fill="#231F20" d="M1758.6,60.7l-16.801,16.8L1721.5,97.8c-3.4-0.1-6.802,0.4-10,1.9l-8-8c1.698-3.4,2.799-7.2,2.898-11.1
			c0.2-5.9-1.601-11.801-5-16.5c1.801-3,1.399-7-1.199-9.601c-3.101-3.1-8.101-3.1-11.199,0l-34.2,34.2c-3.101,3.1-3.101,8.1,0,11.2
			c2.6,2.6,6.6,3,9.6,1.2c4.8,3.399,10.601,5.199,16.5,5c3.9-0.101,7.601-1.101,11.101-2.9l8,8c-1.301,3.1-2,6.6-1.899,10
			l-20.301,20.3l-16.8,16.8c-3.4,3.4-3.4,8.9,0,12.301l17.198,17.199l17.2,17.2c3.398,3.4,8.898,3.4,12.3,0l16.802-16.8l16.1-16.1
			l3.8,3.8l5,5c3.399,3.399,8.899,3.399,12.3,0l4-4l5.301,5.3l-5.601,5.6c-3.1,3.101-3.1,7.9,0,11c3.101,3.102,7.9,3.102,11,0
			l22.8-22.8c3.102-3.1,3.102-7.899,0-11c-3.1-3.1-7.898-3.1-11,0l-5.6,5.601l-5.3-5.301l4-4c3.399-3.399,3.399-8.899,0-12.3l-5-5
			l-3.8-3.8l16.1-16.1l16.8-16.801c3.4-3.399,3.4-8.899,0-12.3l-17.2-17.2L1771,60.6C1767.4,57.2,1762,57.2,1758.6,60.7z
			 M1762.3,64.3c1.3-1.3,3.6-1.3,4.899,0l15.399,15.4l-17.5,17.5l-17.8-17.8L1762.3,64.3L1762.3,64.3z M1727.698,98.9l16-16
			l17.802,17.8l-14.2,14.2l-10.8-10.8c-0.302-0.301-0.602-0.601-0.9-0.801c-0.1-0.1-0.1-0.1-0.2-0.1c-0.2-0.2-0.5-0.4-0.7-0.6
			c-0.1-0.101-0.1-0.101-0.199-0.101c-0.301-0.2-0.5-0.399-0.801-0.6c-0.1-0.101-0.1-0.101-0.1-0.101c-0.3-0.199-0.6-0.399-0.9-0.6
			l-0.1-0.1c-0.4-0.2-0.7-0.4-1-0.601l0,0c-0.7-0.399-1.6-0.7-2.3-1.1c0,0,0,0-0.101,0c-0.399-0.101-0.699-0.3-1-0.4
			C1727.8,98.9,1727.698,98.9,1727.698,98.9z M1658.4,92.2l34.2-34.2c1-1,2.8-1,3.9,0c1,1,1,2.8,0,3.9l-0.2,0.2l-33.8,33.8l-0.2,0.2
			c-1,1-2.8,1-3.9,0C1657.3,95,1657.3,93.3,1658.4,92.2z M1668.3,97.4l29.5-29.5c4.5,7,4.5,16.1,0.1,23.1c0,0,0,0.101-0.1,0.101
			c-0.2,0.3-0.4,0.699-0.7,1c-0.1,0.199-0.3,0.399-0.4,0.6c-0.1,0.1-0.1,0.1-0.199,0.3c-0.199,0.2-0.399,0.4-0.601,0.7
			c-0.1,0.1-0.1,0.1-0.1,0.1c-0.5,0.601-1.101,1.101-1.601,1.601c-0.101,0.1-0.101,0.1-0.101,0.1c-0.198,0.2-0.399,0.4-0.698,0.601
			c-0.102,0.1-0.102,0.1-0.302,0.199c-0.198,0.101-0.399,0.301-0.6,0.4c-0.4,0.2-0.7,0.4-1,0.7l0,0
			C1684.4,101.9,1675.3,101.9,1668.3,97.4z M1702.698,106.5l-6.3-6.3c0.102-0.1,0.102-0.1,0.2-0.2c0.099-0.1,0.1-0.1,0.198-0.1
			c0.302-0.2,0.5-0.4,0.7-0.7c0.101-0.1,0.101-0.1,0.101-0.1c0.301-0.2,0.5-0.5,0.801-0.7l0,0l0,0c0.199-0.2,0.5-0.5,0.699-0.8
			c0.101-0.101,0.101-0.101,0.101-0.101c0.2-0.2,0.399-0.5,0.7-0.7c0.1-0.1,0.1-0.1,0.1-0.199c0.102-0.101,0.102-0.101,0.2-0.2
			l6.3,6.3c-0.1,0.1-0.199,0.2-0.398,0.3c-0.102,0.101-0.102,0.101-0.2,0.101c-0.2,0.199-0.4,0.399-0.7,0.6
			c-0.1,0.1-0.1,0.1-0.2,0.1c-0.2,0.2-0.5,0.4-0.7,0.7c-0.198,0.2-0.398,0.4-0.698,0.7c-0.101,0.1-0.101,0.1-0.101,0.2
			c-0.201,0.2-0.399,0.399-0.601,0.7c-0.101,0.1-0.101,0.1-0.101,0.199C1702.9,106.3,1702.8,106.4,1702.698,106.5z M1699.3,127.4
			c0.1,0.399,0.2,0.7,0.399,1l0,0c0.301,0.8,0.699,1.6,1.101,2.3l0,0c0.2,0.4,0.399,0.7,0.6,1c0,0.1,0.101,0.1,0.101,0.1
			c0.199,0.301,0.399,0.601,0.601,0.9c0.1,0.1,0.1,0.1,0.1,0.1c0.2,0.301,0.4,0.5,0.601,0.801c0.101,0.1,0.101,0.1,0.101,0.199
			c0.2,0.2,0.399,0.5,0.601,0.7c0.101,0.101,0.101,0.101,0.101,0.101s0,0,0.1,0.1c0.302,0.3,0.5,0.6,0.802,0.9l10.799,10.8
			l-14.199,14.2l-17.801-17.801l16-16C1699.3,127.3,1699.3,127.3,1699.3,127.4z M1664.698,166.7c-1.3-1.3-1.3-3.6,0-4.9l15-15
			L1697.5,164.6l-17.5,17.5L1664.698,166.7z M1704.1,201.2c-1.301,1.3-3.6,1.3-4.9,0l-15.4-15.4l17.5-17.5l17.802,17.801
			L1704.1,201.2z M1722.698,182.5l-17.8-17.8l14.2-14.2l17.8,17.8L1722.698,182.5z M1795.5,168.6c1,1,1,2.699,0,3.699
			l-22.802,22.801c-1,1-2.698,1-3.698,0s-1-2.7,0-3.7l7.5-7.5l7.898-7.9l7.5-7.5C1792.8,167.6,1794.5,167.6,1795.5,168.6z
			 M1778.9,174.2l-4.2,4.2l-5.3-5.3l4.2-4.2L1778.9,174.2z M1777.6,152.6c1.3,1.3,1.3,3.6,0,4.899l-5.801,5.8l-7.899,7.9l-5.8,5.8
			c-1.301,1.3-3.6,1.3-4.9,0l-3.199-3.2l14.299-14.3c1-1,1-2.6,0-3.7c-1-1-2.6-1-3.698,0l-14.302,14.301l-3.799-3.801l-21.5-21.5
			l-12.601-12.6c-0.2-0.2-0.399-0.4-0.5-0.6c-0.101-0.101-0.101-0.101-0.2-0.2c-0.099-0.101-0.199-0.2-0.3-0.4
			c-0.101-0.1-0.101-0.2-0.3-0.399c-0.1-0.101-0.1-0.101-0.2-0.2c-0.101-0.101-0.2-0.3-0.3-0.4c-0.101-0.1-0.1-0.1-0.1-0.1
			c-0.102-0.101-0.201-0.3-0.302-0.5c0,0,0,0,0-0.101c-0.5-0.699-0.899-1.6-1.3-2.399c0-0.101-0.102-0.101-0.102-0.2
			c-0.1-0.1-0.1-0.3-0.1-0.4c-0.1-0.1-0.1-0.199-0.1-0.399c-0.1-0.101-0.1-0.2-0.1-0.3c-0.102-0.101-0.102-0.4-0.102-0.5
			c0-0.101-0.102-0.101-0.102-0.2c-0.1-0.2-0.1-0.4-0.198-0.7l0,0c-1-4.2-0.4-8.8,1.698-12.6c0.102-0.2,0.302-0.4,0.4-0.7
			c0.1-0.101,0.1-0.101,0.1-0.2c0.102-0.1,0.102-0.2,0.201-0.4c0.101-0.1,0.101-0.1,0.101-0.199c0.1-0.101,0.1-0.301,0.3-0.4
			l0.102-0.1c0.198-0.2,0.398-0.5,0.6-0.7c0.1-0.101,0.1-0.101,0.1-0.2c0.1-0.1,0.2-0.2,0.301-0.4c0.101-0.1,0.101-0.1,0.101-0.199
			c0.1-0.2,0.399-0.4,0.6-0.601c0.101-0.1,0.101-0.1,0.2-0.1c0.1-0.101,0.2-0.2,0.398-0.3c0.102-0.101,0.102-0.101,0.201-0.101
			c0.199-0.2,0.5-0.399,0.699-0.6l0.1-0.101c0.102-0.1,0.2-0.199,0.4-0.3c0.1-0.1,0.1-0.1,0.2-0.1c0.1-0.101,0.2-0.101,0.399-0.3
			c0.101,0,0.101-0.101,0.101-0.101c0.2-0.1,0.5-0.3,0.7-0.399c3.898-2.2,8.398-2.801,12.6-1.7l0,0c0.199,0.1,0.4,0.1,0.699,0.2
			c0.101,0,0.101,0.1,0.201,0.1c0.1,0.1,0.398,0.1,0.5,0.1c0.1,0,0.199,0.101,0.299,0.101c0.101,0.1,0.201,0.1,0.4,0.1
			s0.301,0.101,0.399,0.101s0.101,0.1,0.199,0.1c0.801,0.4,1.601,0.8,2.399,1.3h0.101c0.101,0.101,0.301,0.2,0.5,0.3
			c0.101,0.101,0.101,0.101,0.101,0.101c0.102,0.1,0.301,0.2,0.399,0.3c0.101,0.1,0.101,0.1,0.2,0.2c0.101,0.1,0.199,0.1,0.399,0.3
			c0.101,0.1,0.2,0.2,0.399,0.3c0.101,0.101,0.101,0.101,0.201,0.2c0.199,0.1,0.398,0.4,0.6,0.5l12.6,12.6l21.5,21.5l3.802,3.801
			l-3.802,3.8c-1,1-1,2.6,0,3.7c1,1,2.601,1,3.7,0l3.8-3.801L1777.6,152.6L1777.6,152.6L1777.6,152.6z M1750.9,118.7l14.2-14.2
			l17.8,17.8l-14.2,14.2L1750.9,118.7z M1801.6,103.7l-15,15l-17.801-17.9l17.5-17.5l15.399,15.4
			C1802.9,100.1,1802.9,102.3,1801.6,103.7z"/>
	</g>
</g>
<g>
	<defs>
		<rect id="SVGID_15_" x="0.125" y="0" width="1919.75" height="400"/>
	</defs>
	<clipPath id="SVGID_16_">
		<use xlink:href="#SVGID_15_"  overflow="visible"/>
	</clipPath>
	<circle clip-path="url(#SVGID_16_)" fill="#184375" cx="960" cy="162.4" r="13"/>
</g>
<g>
	<defs>
		<rect id="SVGID_17_" x="0.125" y="0" width="1919.75" height="400"/>
	</defs>
	<clipPath id="SVGID_18_">
		<use xlink:href="#SVGID_17_"  overflow="visible"/>
	</clipPath>
	<circle clip-path="url(#SVGID_18_)" fill="#184375" cx="1401" cy="69.5" r="9.8"/>
</g>
<g>
	<defs>
		<rect id="SVGID_19_" x="0.125" y="0" width="1919.75" height="400"/>
	</defs>
	<clipPath id="SVGID_20_">
		<use xlink:href="#SVGID_19_"  overflow="visible"/>
	</clipPath>
	<circle clip-path="url(#SVGID_20_)" fill="#184375" cx="1465" cy="293.7" r="18.8"/>
</g>
<g>
	<defs>
		<rect id="SVGID_21_" x="0.125" y="0" width="1919.75" height="400"/>
	</defs>
	<clipPath id="SVGID_22_">
		<use xlink:href="#SVGID_21_"  overflow="visible"/>
	</clipPath>
	<circle clip-path="url(#SVGID_22_)" fill="#184375" cx="453.8" cy="98.7" r="9.8"/>
</g>
</svg>
