<?xml version="1.0" encoding="utf-8"?>
<!-- Generator: Adobe Illustrator 16.0.0, SVG Export Plug-In . SVG Version: 6.00 Build 0)  -->
<!DOCTYPE svg PUBLIC "-//W3C//DTD SVG 1.1//EN" "http://www.w3.org/Graphics/SVG/1.1/DTD/svg11.dtd">
<svg version="1.1" id="Livello_1" xmlns="http://www.w3.org/2000/svg" xmlns:xlink="http://www.w3.org/1999/xlink" x="0px" y="0px"
	 width="2125.98px" height="432.043px" viewBox="0 912.294 2125.98 432.043" enable-background="new 0 912.294 2125.98 432.043"
	 xml:space="preserve">
<rect x="0" y="1" fill="none" width="2125.979" height="2124.98"/>
<g>
	<g>
		<g>
			<defs>
				<rect id="SVGID_1_" x="-0.065" y="903.52" width="2125.979" height="442.913"/>
			</defs>
			<clipPath id="SVGID_2_">
				<use xlink:href="#SVGID_1_"  overflow="visible"/>
			</clipPath>
			<g clip-path="url(#SVGID_2_)">
				<circle fill="#F08022" cx="974.674" cy="1509.978" r="508.463"/>
				<polygon fill="#9A247A" points="-29.851,1115.455 1879.324,1237.144 1806.906,1295.609 -12.024,1406.447 				"/>
				<path fill="#B35484" d="M2255.465,1206.14c0,0-1161.758-12.069-1322.093,21.26c0,0-841.091,84.597-978.836,37.205
					L972.791,1558.92l908.525,49.938L2255.465,1206.14z"/>
				<path fill="#DA92BF" d="M2135.881,1210.127c0,0-600.811-130.992-985.148,124.791c0,0-342.592-206.84-738.889,36.871
					l838.545,153.803l877.963-128.889L2135.881,1210.127z"/>
				<polygon fill="#B35484" points="351.607,1362.267 41.457,1276.896 -80.897,1251.318 19.976,1475.984 399.663,1420.621 
					373.088,1363.707 				"/>
				<g>
					<path fill="#5FBF84" d="M296.132,1021.888c-22.256-19.377-51.268-31.115-83.046-31.115
						c-69.759,0-126.452,56.582-126.452,126.453c0,49.605,28.568,92.568,70.313,113.273c9.412,21.592,31.114,36.762,56.14,36.762
						c25.135,0,46.729-15.059,56.139-36.762c41.745-20.594,70.313-63.558,70.313-113.164c0-32.553-12.29-62.229-32.554-84.707"/>
					<g opacity="0.2">
						<path fill="#231F20" d="M224.712,1258.625c-24.581,0-45.729-14.396-55.475-35.322c0,0,0-0.109-0.11-0.109
							c-0.774-1.551-2.104-2.215-2.104-2.215l0,0c-40.858-20.815-68.763-63.338-68.763-112.5c0-39.309,17.938-74.52,46.174-97.662
							c-34.769,22.478-57.688,61.677-57.688,106.188c0,49.606,28.568,92.567,70.313,113.274
							c9.411,21.593,31.113,36.763,56.139,36.763c16.056,0,30.672-6.201,41.634-16.388
							C245.862,1255.857,235.564,1258.625,224.712,1258.625z"/>
					</g>
					<g>
						
							<ellipse transform="matrix(0.7886 0.6149 -0.6149 0.7886 749.2696 72.6614)" fill="#3B5E75" cx="268.96" cy="1126.031" rx="29.564" ry="39.309"/>
						
							<ellipse transform="matrix(0.6149 0.7886 -0.7886 0.6149 948.5721 309.4712)" fill="#3B5E75" cx="157.416" cy="1125.987" rx="39.309" ry="29.564"/>
						<path fill="#3B5E75" d="M184.296,1199.164c1.661,14.395,13.952,25.578,28.79,25.578c14.837,0,27.128-11.185,28.789-25.578
							H184.296z"/>
					</g>
					<g opacity="0.2">
						<path fill="#231F20" d="M259.038,1156.976c-12.955-10.076-12.513-32,0.775-49.162c6.976-8.969,16.055-14.727,25.023-16.832
							c-12.513-3.432-28.568,2.99-39.309,16.832c-13.398,17.162-13.73,39.086-0.775,49.162c6.201,4.762,14.284,5.98,22.479,4.099
							C264.242,1160.187,261.474,1158.859,259.038,1156.976z"/>
					</g>
					<g opacity="0.2">
						<path fill="#231F20" d="M148.31,1144.133c-13.397-17.162-13.73-39.088-0.775-49.164c2.437-1.992,5.205-3.211,8.193-4.096
							c-8.193-1.994-16.276-0.775-22.478,4.096c-12.955,10.076-12.513,32.002,0.775,49.164
							c10.851,13.842,26.686,20.152,39.309,16.83C164.365,1158.859,155.286,1153.101,148.31,1144.133z"/>
					</g>
					<g opacity="0.2">
						<path fill="#231F20" d="M198.58,1199.164h-14.284c1.661,14.395,13.952,25.578,28.79,25.578c2.437,0,4.872-0.332,7.087-0.886
							C208.767,1220.978,200.019,1211.123,198.58,1199.164z"/>
					</g>
					<g>
						<path fill="#231F20" d="M213.197,1271.691c-25.578,0-48.831-14.838-59.571-37.869c-20.817-10.739-38.534-26.797-51.157-46.727
							c-13.176-20.816-20.151-45.066-20.151-69.869c0-34.99,13.62-67.877,38.313-92.57c24.692-24.69,57.578-38.311,92.568-38.311
							c31.668,0,62.229,11.516,86.036,32.221c1.882,1.662,2.104,4.541,0.441,6.422c-1.66,1.884-4.539,2.105-6.422,0.443
							c-22.146-19.377-50.603-30.008-80.057-30.008c-67.212,0-121.911,54.701-121.911,121.912
							c0,46.616,26.021,88.473,67.766,109.178c0.996,0.443,1.771,1.33,2.104,2.215c9.08,20.596,29.454,33.994,52.042,33.994
							c22.589,0,42.963-13.398,52.043-33.994c0.442-0.996,1.218-1.771,2.104-2.215c41.744-20.816,67.767-62.562,67.767-109.178
							c0-30.229-11.073-59.238-31.336-81.605c-1.661-1.883-1.551-4.762,0.332-6.422c1.883-1.662,4.762-1.551,6.422,0.332
							c21.703,24.139,33.662,55.252,33.662,87.695c0,24.803-6.978,49.053-20.153,69.869c-12.512,19.932-30.229,35.987-51.156,46.729
							C261.917,1256.853,238.775,1271.691,213.197,1271.691z"/>
						<path fill="#231F20" d="M259.814,1166.388L259.814,1166.388c-6.756,0-12.955-1.992-17.828-5.979
							c-14.837-11.517-14.837-36.431,0.111-55.476c9.521-12.291,22.92-19.487,35.985-19.487c6.755,0,12.955,1.991,17.827,5.979
							c7.309,5.758,11.294,14.838,11.184,25.578c-0.109,10.299-4.097,20.816-11.184,29.896
							C286.278,1159.191,272.879,1166.388,259.814,1166.388z M277.972,1094.636c-10.075,0-21.148,6.201-28.789,15.945
							c-11.736,15.059-12.513,34.326-1.66,42.74c3.433,2.657,7.528,3.985,12.291,3.985c10.076,0,21.147-6.199,28.789-15.942
							c5.867-7.529,9.189-16.166,9.301-24.582c0.111-7.861-2.657-14.285-7.641-18.271
							C286.942,1095.967,282.623,1094.636,277.972,1094.636z"/>
						<path fill="#231F20" d="M166.359,1166.388L166.359,1166.388c-12.955,0-26.465-7.309-35.986-19.488
							c-14.838-19.045-14.838-43.959-0.111-55.475c4.983-3.875,11.073-5.979,17.828-5.979c12.955,0,26.464,7.309,35.986,19.487
							c14.838,19.045,14.838,43.959,0.109,55.476C179.424,1164.396,173.114,1166.388,166.359,1166.388z M148.31,1094.636
							c-4.762,0-8.97,1.33-12.291,3.986c-10.852,8.526-10.188,27.682,1.66,42.742c7.642,9.854,18.715,15.942,28.79,15.942l0,0
							c4.761,0,8.97-1.328,12.29-3.985c10.853-8.525,10.188-27.683-1.661-42.74C169.349,1100.617,158.385,1094.636,148.31,1094.636z
							"/>
						<path fill="#231F20" d="M213.197,1229.283c-17.053,0-31.336-12.734-33.329-29.677c-0.11-1.327,0.222-2.547,1.106-3.543
							c0.775-0.995,2.104-1.551,3.434-1.551h57.578c1.329,0,2.547,0.556,3.433,1.551c0.775,0.996,1.329,2.216,1.107,3.543
							C244.422,1216.549,230.249,1229.283,213.197,1229.283z M189.944,1203.705c3.321,9.744,12.513,16.608,23.143,16.608
							s19.931-6.864,23.142-16.608H189.944z"/>
					</g>
				</g>
				<path fill="#F08022" d="M1873.898,1098.734c19.154-6.754,41.301-16.94,64.773-30.45c20.707-11.957,39.531-24.912,55.145-37.869
					c-5.869-34.769-36.1-61.343-72.416-61.343c-40.527,0-73.523,32.996-73.523,73.523
					C1847.765,1065.072,1857.953,1085.224,1873.898,1098.734z M1856.402,1047.023c-2.438,0-4.318-1.991-4.318-4.317
					c0-38.201,31.115-69.205,69.205-69.205c2.438,0,4.318,1.994,4.318,4.317c0,2.326-1.992,4.318-4.318,4.318
					c-33.439,0-60.568,27.24-60.568,60.568C1860.72,1045.031,1858.838,1047.023,1856.402,1047.023z"/>
				<path fill="#F28544" d="M1882.203,1104.824c11.404,7.196,24.691,11.403,39.086,11.403c40.527,0,73.523-32.995,73.523-73.522
					c0-0.553-0.111-1.328-0.111-1.881c-15.061,12.067-32.775,24.026-51.82,34.988
					C1923.172,1087.219,1902.023,1097.406,1882.203,1104.824z"/>
				<path fill="#EBE9D3" d="M1769.812,1044.588c18.049,0,32.666-14.615,32.666-32.664s-14.617-32.666-32.666-32.666
					s-32.664,14.617-32.664,32.666S1751.765,1044.588,1769.812,1044.588z"/>
				<g>
					<path fill="#030303" d="M1921.4,982.027c2.436,0,4.318-1.993,4.318-4.317c0-2.326-1.994-4.318-4.318-4.318
						c-38.201,0-69.205,31.113-69.205,69.205c0,2.437,1.992,4.318,4.318,4.318c2.324,0,4.316-1.994,4.316-4.318
						C1860.72,1009.265,1887.961,982.027,1921.4,982.027z"/>
					<path fill="#030303" d="M2041.318,968.961c-11.627-20.041-58.354-5.646-79.393,2.104
						c-11.959-6.864-25.801-10.739-40.525-10.739c-45.287,0-82.16,36.873-82.16,82.159c0,0.111,0,0.332,0,0.443
						c-31.779,27.35-45.621,50.824-37.758,64.443c4.096,7.086,12.955,10.188,24.803,10.188c12.623,0,28.566-3.434,45.951-9.301
						c13.729,10.297,30.672,16.387,49.053,16.387c45.287,0,82.16-36.873,82.16-82.16c0-2.989-0.111-5.869-0.443-8.748
						c6.313-5.426,12.182-10.852,17.273-16.166C2040.433,996.865,2047.631,980.033,2041.318,968.961z M1921.4,968.961
						c36.318,0,66.547,26.574,72.416,61.344c-15.613,12.955-34.438,26.021-55.145,37.869
						c-23.475,13.508-45.619,23.695-64.773,30.449c-15.945-13.508-26.133-33.66-26.133-56.14
						C1847.765,1002.068,1880.761,968.961,1921.4,968.961z M1808.9,1103.164c-4.207-7.197,3.986-25.025,31.115-49.385
						c2.547,18.821,11.402,35.543,24.58,48.055C1834.59,1111.246,1813.662,1111.578,1808.9,1103.164z M1994.924,1042.705
						c0,40.526-32.998,73.522-73.523,73.522c-14.395,0-27.793-4.207-39.086-11.403c19.82-7.418,40.969-17.605,60.789-29.011
						c19.045-11.073,36.762-23.032,51.82-34.989C1994.924,1041.377,1994.924,1041.931,1994.924,1042.705z M2001.344,1023.992
						c-4.428-18.935-15.502-35.433-30.447-46.728c37.426-12.955,58.463-11.404,62.893-3.766c3.986,6.977-3.322,21.26-19.598,38.313
						C2010.314,1015.799,2005.885,1019.896,2001.344,1023.992z"/>
					<path fill="#030303" d="M1768.041,1047.023c21.482,0,38.979-17.494,38.979-38.975c0-21.482-17.496-38.977-38.979-38.977
						c-21.48,0-38.975,17.493-38.975,38.977C1729.066,1029.529,1746.56,1047.023,1768.041,1047.023z M1768.041,977.709
						c16.721,0,30.34,13.508,30.34,30.34c0,16.83-13.508,30.338-30.34,30.338c-16.719,0-30.338-13.508-30.338-30.338
						C1737.701,991.217,1751.322,977.709,1768.041,977.709z"/>
				</g>
			</g>
		</g>
	</g>
</g>
</svg>
