<?xml version="1.0" encoding="utf-8"?>
<!-- Generator: Adobe Illustrator 16.0.0, SVG Export Plug-In . SVG Version: 6.00 Build 0)  -->
<!DOCTYPE svg PUBLIC "-//W3C//DTD SVG 1.1//EN" "http://www.w3.org/Graphics/SVG/1.1/DTD/svg11.dtd">
<svg version="1.1" id="Livello_1" xmlns="http://www.w3.org/2000/svg" xmlns:xlink="http://www.w3.org/1999/xlink" x="0px" y="0px"
	 width="1920px" height="400px" viewBox="0 0 1920 400" enable-background="new 0 0 1920 400" xml:space="preserve">
<g>
	<defs>
		<rect id="SVGID_1_" x="0.059" y="0" width="1919.941" height="400"/>
	</defs>
	<clipPath id="SVGID_2_">
		<use xlink:href="#SVGID_1_"  overflow="visible"/>
	</clipPath>
	<g clip-path="url(#SVGID_2_)">
		<g>
			<path fill="#F8963B" d="M1584.4,173.6c-3.5-1.9-7.5-3-11.7-3c-9.1,0-17.1,5-21.3,12.3c4.3,7.399,12.2,12.3,21.3,12.3
				c4.301,0,8.301-1.1,11.7-3V173.6z"/>
			<path fill="#F8963B" d="M1584.4,212.3c-3.5-1.898-7.5-3-11.7-3c-9.1,0-17.1,5-21.3,12.301c4.3,7.399,12.2,12.301,21.3,12.301
				c4.301,0,8.301-1.102,11.7-3V212.3z"/>
		</g>
		<path fill="#91C8EC" d="M1748.8,202.3c-9.2-23.399-32-40.1-58.7-40.1h-22.3h-61.101h-14.301c-4.398,0-8,3.6-8,8v64.1
			c0,4.4,3.602,8,8,8h14.301h61.101h22.2C1716.8,242.3,1739.6,225.7,1748.8,202.3z"/>
		<path fill="#CAE8F6" d="M1602.698,184.5v-22.3h-10.3c-4.398,0-8,3.6-8,8v64.1c0,4.4,3.602,8,8,8h10.3v-47"/>
		<g>
			<path fill="#588CAD" d="M1642.5,219c-9.2,0-16.7-7.5-16.7-16.7c0-9.199,7.5-16.699,16.7-16.699c9.198,0,16.698,7.5,16.698,16.699
				C1659.198,211.5,1651.698,219,1642.5,219z"/>
			<path fill="#588CAD" d="M1719.3,202.3c0-9-7.3-16.199-16.2-16.199v32.5C1712,218.5,1719.3,211.3,1719.3,202.3z"/>
			<polygon fill="#588CAD" points="1656.1,277.2 1676.1,242.3 1593.5,242.3 1593.5,300.9 			"/>
			<polygon fill="#588CAD" points="1656.1,127.2 1676.1,162.2 1593.5,162.2 1593.5,103.6 			"/>
		</g>
		<g opacity="0.2">
			<path fill="#231F20" d="M1574,180.4c3.8,0,7.3,0.8,10.398,2.399v-9.1c-3.5-1.9-7.5-3-11.699-3c-9.101,0-17.101,5-21.301,12.3
				c1.2,2,2.7,3.9,4.4,5.5C1560.198,183.5,1566.8,180.4,1574,180.4z"/>
		</g>
		<g opacity="0.2">
			<path fill="#231F20" d="M1574,219.1c3.8,0,7.3,0.801,10.398,2.399v-9.2c-3.5-1.898-7.5-3-11.699-3
				c-9.101,0-17.101,5-21.301,12.301c1.2,2,2.7,3.899,4.4,5.5C1560.198,222.2,1566.8,219.1,1574,219.1z"/>
		</g>
		<g opacity="0.2">
			<path fill="#231F20" d="M1642.5,195.3c7.5,0,13.898,5,16,11.801c0.398-1.5,0.698-3.199,0.698-4.899c0-9.2-7.5-16.7-16.698-16.7
				c-9.2,0-16.7,7.5-16.7,16.7c0,1.7,0.3,3.3,0.7,4.899C1628.6,200.3,1635,195.3,1642.5,195.3z"/>
		</g>
		<g opacity="0.2">
			<path fill="#231F20" d="M1718.5,207.2c0.5-1.5,0.8-3.2,0.8-4.9c0-9-7.3-16.199-16.2-16.199v9.8
				C1710.3,195.8,1716.4,200.6,1718.5,207.2z"/>
		</g>
		<g opacity="0.2">
			<polygon fill="#231F20" points="1649.198,136.2 1664.1,162.2 1676.1,162.2 1656.1,127.2 1593.5,103.6 1593.5,115.1 			"/>
		</g>
		<g>
			<polygon fill="#3B5E75" points="1593.5,162.2 1653.8,162.2 1642.698,142.8 1593.5,124.2 			"/>
			<polygon fill="#3B5E75" points="1593.5,242.3 1653.8,242.3 1642.698,261.7 1593.5,280.4 			"/>
		</g>
		<g>
			<path fill="#231F20" d="M1642.5,222.2c11,0,19.898-8.9,19.898-19.9S1653.5,182.4,1642.5,182.4s-19.9,8.899-19.9,19.899
				C1622.6,213.2,1631.5,222.2,1642.5,222.2z M1642.5,188.8c7.398,0,13.398,6.101,13.398,13.4c0,7.399-6.1,13.399-13.398,13.399
				c-7.4,0-13.4-6.101-13.4-13.399C1629.1,194.8,1635.1,188.8,1642.5,188.8z"/>
			<path fill="#231F20" d="M1699.8,186v32.5c0,1.8,1.5,3.2,3.2,3.2c10.8,0,19.5-8.7,19.5-19.5s-8.7-19.5-19.5-19.5
				C1701.198,182.8,1699.8,184.3,1699.8,186z M1716.1,202.3c0,6.102-4.1,11.102-9.7,12.602v-25.2
				C1711.9,191.1,1716.1,196.2,1716.1,202.3z"/>
			<path fill="#231F20" d="M1594.698,304l62.5-23.7c0.7-0.3,1.302-0.8,1.7-1.398L1678,245.6h12.1c13.6,0,26.6-4.101,37.8-11.801
				c10.8-7.6,19.101-18,23.899-30.3c0.301-0.8,0.301-1.6,0-2.399c-4.799-12.301-13.1-22.7-23.899-30.301
				c-11.101-7.699-24.2-11.8-37.8-11.8H1678l-19.102-33.3c-0.398-0.6-1-1.1-1.699-1.4l-62.5-23.699c-1-0.4-2.101-0.301-3,0.399
				c-0.899,0.601-1.399,1.601-1.399,2.7v20.6v35c-4.7,0.9-8.4,4.801-9,9.601c-2.8-0.9-5.7-1.4-8.601-1.4
				c-9.899,0-19.199,5.4-24.101,13.9c-0.3,0.5-0.399,1.1-0.399,1.6c0,0.601,0.101,1.101,0.399,1.601
				c5,8.6,14.2,13.899,24.101,13.899c2.899,0,5.699-0.399,8.5-1.3v10.3c-2.699-0.899-5.601-1.3-8.5-1.3
				c-9.899,0-19.199,5.399-24.101,13.899c-0.3,0.5-0.399,1.101-0.399,1.601c0,0.6,0.101,1.1,0.399,1.6
				c5,8.602,14.2,13.9,24.101,13.9c2.899,0,5.899-0.4,8.601-1.4c0.6,4.801,4.3,8.7,9,9.602v35l0,0V301c0,1.101,0.5,2,1.399,2.7
				C1592.6,304.301,1593.698,304.4,1594.698,304z M1653.8,129.9l16.7,29.1h-14.802l-10.198-17.8c-0.4-0.6-1-1.1-1.7-1.4
				l-47.101-17.8v-13.8L1653.8,129.9z M1640.5,145.5l7.8,13.601h-45.5h-5.9V129L1640.5,145.5z M1572.698,192
				c-6.899,0-13.5-3.399-17.5-9.1c4-5.7,10.5-9.101,17.5-9.101c2.9,0,5.802,0.601,8.5,1.801v14.6
				C1578.5,191.4,1575.6,192,1572.698,192z M1555.198,221.6c4-5.699,10.5-9.101,17.5-9.101c2.9,0,5.802,0.601,8.5,1.8V229
				c-2.698,1.101-5.6,1.8-8.5,1.8C1565.698,230.8,1559.198,227.3,1555.198,221.6z M1592.4,239.1c-2.6,0-4.8-2.199-4.8-4.801V230.9
				v-18.7v-20.1v-18.7v-3.3c0-2.601,2.199-4.801,4.8-4.801h1.101h5.899v19c0,1.801,1.5,3.2,3.2,3.2c1.8,0,3.199-1.5,3.199-3.2v-19
				h47.899H1676h14c24.3,0,45.898,14.4,55.198,36.801c-9.3,22.399-30.8,36.801-55.198,36.801h-14h-22.302h-47.899v-43.8
				c0-1.801-1.5-3.2-3.199-3.2c-1.801,0-3.2,1.5-3.2,3.2v43.8h-5.899h-1.101V239.1z M1596.8,245.6h5.899h45.5l-7.801,13.601
				l-43.699,16.601L1596.8,245.6L1596.8,245.6z M1596.8,282.6l47.1-17.801c0.7-0.3,1.3-0.8,1.7-1.398l10.199-17.801h14.801
				l-16.7,29.101l-57.1,21.601V282.6L1596.8,282.6z"/>
		</g>
		<g opacity="0.2">
			<path fill="#231F20" d="M1590.5,172.3h14.6h62.8h22.9c24.3,0,45.5,13.5,56.6,33.4c0.5-1.101,1-2.2,1.5-3.4
				c-9.2-23.399-32-40.1-58.7-40.1H1667.8h-61.101h-14.301c-4.398,0-8,3.6-8,8v4.7C1585.9,173.4,1588,172.3,1590.5,172.3z"/>
		</g>
	</g>
</g>
<g>
	<defs>
		<rect id="SVGID_3_" x="0.059" y="0" width="1919.941" height="400"/>
	</defs>
	<clipPath id="SVGID_4_">
		<use xlink:href="#SVGID_3_"  overflow="visible"/>
	</clipPath>
	<ellipse clip-path="url(#SVGID_4_)" fill="#184375" cx="513.1" cy="116" rx="262.5" ry="5.9"/>
</g>
<g>
	<defs>
		<rect id="SVGID_5_" x="0.059" y="0" width="1919.941" height="400"/>
	</defs>
	<clipPath id="SVGID_6_">
		<use xlink:href="#SVGID_5_"  overflow="visible"/>
	</clipPath>
	<ellipse clip-path="url(#SVGID_6_)" fill="#184375" cx="1044.1" cy="262.9" rx="220.5" ry="5.8"/>
</g>
<g>
	<defs>
		<rect id="SVGID_7_" x="0.059" y="0" width="1919.941" height="400"/>
	</defs>
	<clipPath id="SVGID_8_">
		<use xlink:href="#SVGID_7_"  overflow="visible"/>
	</clipPath>
	<ellipse clip-path="url(#SVGID_8_)" fill="#184375" cx="1295.3" cy="53" rx="185.2" ry="3.5"/>
</g>
<g>
	<defs>
		<rect id="SVGID_9_" x="0.059" y="0" width="1919.941" height="400"/>
	</defs>
	<clipPath id="SVGID_10_">
		<use xlink:href="#SVGID_9_"  overflow="visible"/>
	</clipPath>
	<ellipse clip-path="url(#SVGID_10_)" fill="#184375" cx="1828.9" cy="36.6" rx="70.101" ry="6"/>
</g>
<g>
	<defs>
		<rect id="SVGID_11_" x="0.059" y="0" width="1919.941" height="400"/>
	</defs>
	<clipPath id="SVGID_12_">
		<use xlink:href="#SVGID_11_"  overflow="visible"/>
	</clipPath>
	<ellipse clip-path="url(#SVGID_12_)" fill="#184375" cx="299.4" cy="361.5" rx="230.2" ry="5.5"/>
</g>
<g>
	<defs>
		<rect id="SVGID_13_" x="0.059" y="0" width="1919.941" height="400"/>
	</defs>
	<clipPath id="SVGID_14_">
		<use xlink:href="#SVGID_13_"  overflow="visible"/>
	</clipPath>
	<ellipse clip-path="url(#SVGID_14_)" fill="#184375" cx="207.9" cy="278.4" rx="128.2" ry="5.8"/>
</g>
<g>
	<defs>
		<rect id="SVGID_15_" x="0.059" y="0" width="1919.941" height="400"/>
	</defs>
	<clipPath id="SVGID_16_">
		<use xlink:href="#SVGID_15_"  overflow="visible"/>
	</clipPath>
	<ellipse clip-path="url(#SVGID_16_)" fill="#184375" cx="583.6" cy="210.8" rx="186" ry="5.5"/>
</g>
<g>
	<defs>
		<rect id="SVGID_17_" x="0.059" y="0" width="1919.941" height="400"/>
	</defs>
	<clipPath id="SVGID_18_">
		<use xlink:href="#SVGID_17_"  overflow="visible"/>
	</clipPath>
	<ellipse clip-path="url(#SVGID_18_)" fill="#184375" cx="136.1" cy="40.7" rx="152.4" ry="4.1"/>
</g>
<g>
	<defs>
		<rect id="SVGID_19_" x="0.059" y="0" width="1919.941" height="400"/>
	</defs>
	<clipPath id="SVGID_20_">
		<use xlink:href="#SVGID_19_"  overflow="visible"/>
	</clipPath>
	<ellipse clip-path="url(#SVGID_20_)" fill="#184375" cx="852.8" cy="22" rx="191.2" ry="4.5"/>
</g>
<g>
	<defs>
		<rect id="SVGID_21_" x="0.059" y="0" width="1919.941" height="400"/>
	</defs>
	<clipPath id="SVGID_22_">
		<use xlink:href="#SVGID_21_"  overflow="visible"/>
	</clipPath>
	<ellipse clip-path="url(#SVGID_22_)" fill="#184375" cx="1249.6" cy="178.3" rx="163.5" ry="4.8"/>
</g>
<g>
	<defs>
		<rect id="SVGID_23_" x="0.059" y="0" width="1919.941" height="400"/>
	</defs>
	<clipPath id="SVGID_24_">
		<use xlink:href="#SVGID_23_"  overflow="visible"/>
	</clipPath>
	<ellipse clip-path="url(#SVGID_24_)" fill="#184375" cx="1276.6" cy="343" rx="190.5" ry="4.1"/>
</g>
<g>
	<defs>
		<rect id="SVGID_25_" x="0.059" y="0" width="1919.941" height="400"/>
	</defs>
	<clipPath id="SVGID_26_">
		<use xlink:href="#SVGID_25_"  overflow="visible"/>
	</clipPath>
	<ellipse clip-path="url(#SVGID_26_)" fill="#184375" cx="1781.698" cy="367.4" rx="117.302" ry="3.8"/>
</g>
<g>
	<defs>
		<rect id="SVGID_27_" x="0.059" y="0" width="1919.941" height="400"/>
	</defs>
	<clipPath id="SVGID_28_">
		<use xlink:href="#SVGID_27_"  overflow="visible"/>
	</clipPath>
	<circle clip-path="url(#SVGID_28_)" fill="#184375" cx="169" cy="178.5" r="12"/>
</g>
<g>
	<defs>
		<rect id="SVGID_29_" x="0.059" y="0" width="1919.941" height="400"/>
	</defs>
	<clipPath id="SVGID_30_">
		<use xlink:href="#SVGID_29_"  overflow="visible"/>
	</clipPath>
	<circle clip-path="url(#SVGID_30_)" fill="#184375" cx="521.4" cy="44.8" r="8.2"/>
</g>
<g>
	<defs>
		<rect id="SVGID_31_" x="0.059" y="0" width="1919.941" height="400"/>
	</defs>
	<clipPath id="SVGID_32_">
		<use xlink:href="#SVGID_31_"  overflow="visible"/>
	</clipPath>
	<circle clip-path="url(#SVGID_32_)" fill="#184375" cx="567.198" cy="36.6" r="8.2"/>
</g>
<g>
	<defs>
		<rect id="SVGID_33_" x="0.059" y="0" width="1919.941" height="400"/>
	</defs>
	<clipPath id="SVGID_34_">
		<use xlink:href="#SVGID_33_"  overflow="visible"/>
	</clipPath>
	<circle clip-path="url(#SVGID_34_)" fill="#184375" cx="547.1" cy="71.8" r="11.9"/>
</g>
<g>
	<defs>
		<rect id="SVGID_35_" x="0.059" y="0" width="1919.941" height="400"/>
	</defs>
	<clipPath id="SVGID_36_">
		<use xlink:href="#SVGID_35_"  overflow="visible"/>
	</clipPath>
	<circle clip-path="url(#SVGID_36_)" fill="#184375" cx="1030.198" cy="108.3" r="38"/>
</g>
<g>
	<defs>
		<rect id="SVGID_37_" x="0.059" y="0" width="1919.941" height="400"/>
	</defs>
	<clipPath id="SVGID_38_">
		<use xlink:href="#SVGID_37_"  overflow="visible"/>
	</clipPath>
	<circle clip-path="url(#SVGID_38_)" fill="#184375" cx="1822.3" cy="86.6" r="17.9"/>
</g>
<g>
	<defs>
		<rect id="SVGID_39_" x="0.059" y="0" width="1919.941" height="400"/>
	</defs>
	<clipPath id="SVGID_40_">
		<use xlink:href="#SVGID_39_"  overflow="visible"/>
	</clipPath>
	<circle clip-path="url(#SVGID_40_)" fill="#184375" cx="878.5" cy="351.5" r="15.1"/>
</g>
<g>
	<defs>
		<rect id="SVGID_41_" x="0.059" y="0" width="1919.941" height="400"/>
	</defs>
	<clipPath id="SVGID_42_">
		<use xlink:href="#SVGID_41_"  overflow="visible"/>
	</clipPath>
	<circle clip-path="url(#SVGID_42_)" fill="#184375" cx="500" cy="302" r="9"/>
</g>
<g>
	<defs>
		<rect id="SVGID_43_" x="0.059" y="0" width="1919.941" height="400"/>
	</defs>
	<clipPath id="SVGID_44_">
		<use xlink:href="#SVGID_43_"  overflow="visible"/>
	</clipPath>
	<circle clip-path="url(#SVGID_44_)" fill="#184375" cx="1493.698" cy="101.1" r="7.4"/>
</g>
<g>
	<defs>
		<rect id="SVGID_45_" x="0.059" y="0" width="1919.941" height="400"/>
	</defs>
	<clipPath id="SVGID_46_">
		<use xlink:href="#SVGID_45_"  overflow="visible"/>
	</clipPath>
	<circle clip-path="url(#SVGID_46_)" fill="#184375" cx="1740.6" cy="331.5" r="7.4"/>
</g>
</svg>
