<?xml version="1.0" encoding="utf-8"?>
<!-- Generator: Adobe Illustrator 19.2.1, SVG Export Plug-In . SVG Version: 6.00 Build 0)  -->
<svg version="1.1" id="Livello_1" xmlns="http://www.w3.org/2000/svg" xmlns:xlink="http://www.w3.org/1999/xlink" x="0px" y="0px"
	 width="600px" height="400px" viewBox="0 0 600 400" style="enable-background:new 0 0 600 400;" xml:space="preserve">
<style type="text/css">
	.st0{fill:#91C8EC;}
	.st1{fill:#588CAD;}
	.st2{opacity:0.2;}
	.st3{fill:#231F20;}
	.st4{fill:#ED1F24;stroke:#000000;stroke-width:6;stroke-miterlimit:10;}
	.st5{fill:#F8963B;}
	.st6{fill:#FFD961;}
	.st7{fill:#CAE8F6;}
	.st8{fill:#3B5E75;}
</style>
<path class="st0" d="M169.1,113.9l-11.1-5.6l-19.7-10c-13.4-6.8-29.8-1.4-36.6,12s-1.4,29.8,12,36.6l19.7,10l33.7,17.1l32,16.3
	l11.9,6l44.1,22.3c5.1,2.6,11.4,0.6,14-4.6l15.3-30.1c2.6-5.1,0.6-11.4-4.6-14l-44.1-22.4l-11.9-6l-32-16.3l-11.1-5.6"/>
<g>
	<path class="st1" d="M131,114c4.9,2.5,6.8,8.5,4.4,13.3l0,0c-2.5,4.9-8.5,6.8-13.3,4.4l0,0c-4.9-2.5-6.8-8.5-4.4-13.3l0,0
		C120.1,113.6,126.1,111.5,131,114L131,114z"/>
	<polygon class="st1" points="226.8,143.2 281.6,171 325.7,84.1 295.2,68.6 	"/>
	<polygon class="st1" points="202.1,191.9 257,219.7 212.9,306.6 182.3,291.1 	"/>
</g>
<g class="st2">
	<path class="st3" d="M260.9,207.1l-44.1-22.4l-11.9-6l-32-16.3l-33.7-17.1l-19.7-10c-11.5-5.8-17-18.5-14.2-30.5
		c-1.3,1.6-2.6,3.4-3.6,5.4c-6.8,13.4-1.4,29.8,12,36.6l19.7,10L167,174l32,16.3l11.9,6l44.1,22.4c5.1,2.6,11.4,0.6,14-4.6l5.9-11.6
		C272.3,207.7,266.1,209.7,260.9,207.1z"/>
</g>
<g class="st2">
	<polygon class="st3" points="187.6,279.2 204.7,193.2 202.1,191.9 182.3,291.1 212.9,306.6 218.7,295 	"/>
</g>
<g class="st2">
	<path class="st3" d="M131,114c4.9,2.5,6.8,8.5,4.4,13.3l0,0c-2.5,4.9-8.5,6.8-13.3,4.4l0,0c-4.9-2.5-6.8-8.5-4.4-13.3l0,0
		C120.1,113.6,126.1,111.5,131,114L131,114z"/>
</g>
<path class="st3" d="M296.1,178.3L271.4,227c-1,2-0.2,4.5,1.8,5.5c2,1,4.5,0.2,5.5-1.8l24.7-48.7c1-2,0.2-4.5-1.8-5.5
	C299.6,175.5,297.2,176.3,296.1,178.3z"/>
<path class="st3" d="M292.2,65.8l-7.1,7.6l-60.1-30.5c-2-1-4.5-0.2-5.5,1.8c-1,2-0.2,4.5,1.8,5.5l58.1,29.5L254.3,107l-49.2-24.9
	c-2-1-4.5-0.2-5.5,1.8s-0.2,4.5,1.8,5.5l47.2,23.9l-22.7,24.8l-43.4-22c-2-1-4.5-0.2-5.5,1.8c-1,2-0.2,4.5,1.8,5.5l46.2,23.4
	l53.1,26.9c3.1,1.6,4.3,5.4,2.8,8.5l-15.3,30.1c-1.6,3.1-5.4,4.3-8.5,2.8l-53.1-26.9l-88.4-44.8c-11.4-5.8-16-19.8-10.2-31.1
	s19.8-16,31.1-10.2l30.8,15.6c2,1,4.5,0.2,5.5-1.8c1-2,0.2-4.5-1.8-5.5l-30.8-15.6c-14.2-7.2-31.3-2.5-40.1,10.2l-16.9-8.6
	c-2-1-4.5-0.2-5.5,1.8c-1,2-0.2,4.5,1.8,5.5l16.9,8.6c-5.1,14.6,1.2,31.2,15.4,38.4l85.7,43.4l-6.6,33l-47.2-23.9
	c-2-1-4.5-0.2-5.5,1.8c-1,2-0.2,4.5,1.8,5.5l49.2,24.9l-7.2,36.4l-58.1-29.5c-2-1-4.5-0.2-5.5,1.8c-1,2-0.2,4.5,1.8,5.5l60.1,30.5
	l-2,10.2c-0.4,1.8,0.5,3.6,2.2,4.5l30.5,15.5c2,1,4.5,0.2,5.5-1.8l42.9-84.5c5.4,0.2,10.8-2.8,13.4-7.9l15.3-30.1
	c2.6-5.1,1.9-11.2-1.5-15.4l42.9-84.5c1-2,0.2-4.5-1.8-5.5L297,64.9C295.4,64.1,293.4,64.5,292.2,65.8z M187,288.9l10.7-53.6
	c0-0.1,0-0.1,0.1-0.1c0.4-0.8,0.5-1.6,0.4-2.4l6.9-34.8l46.4,23.5L211,301.1L187,288.9z M320.2,85.9l-40.4,79.6L233.5,142l24-26.1
	c0.7-0.3,1.3-0.9,1.7-1.7c0-0.1,0-0.1,0.1-0.1l36.9-40.3L320.2,85.9L320.2,85.9L320.2,85.9z"/>
<path class="st3" d="M208.7,169.2l48.3,24.5c2,1,4.5,0.2,5.5-1.8c1-2,0.2-4.5-1.8-5.5l-48.3-24.5c-2-1-4.5-0.2-5.5,1.8
	S206.7,168.1,208.7,169.2z"/>
<path class="st3" d="M132.9,110.4c-6.9-3.5-15.4-0.7-18.9,6.2c-3.5,6.9-0.7,15.4,6.2,18.9c6.9,3.5,15.4,0.7,18.9-6.2
	C142.5,122.4,139.8,113.9,132.9,110.4z M131.8,125.6c-1.5,2.9-5,4-7.8,2.6c-2.9-1.5-4-5-2.6-7.8c1.5-2.9,5-4,7.8-2.6
	C132.1,119.2,133.3,122.7,131.8,125.6z"/>
<polygon class="st4" points="314.4,177.1 283.1,238.9 284.4,314.5 294.6,248.4 312.2,257.3 298,232.6 313.4,237.7 304.3,223.7 
	343.6,233.8 312.8,207.4 328.8,207.3 315.4,199 338.9,194.4 322.7,186.2 362.9,153.5 "/>
<g>
	<path class="st5" d="M547.2,89.4c10.1-2.1,17.4-10.1,19.1-19.7c-5.4-8-15.3-12.4-25.3-10.4c-3.3,0.7-6.4,2-9,3.8l5.5,26.2
		C540.5,90,543.8,90.1,547.2,89.4z"/>
	<path class="st6" d="M536.3,84.3c4.9-1.4,8.3-5.4,9.2-10.3c-2.7-4.1-7.5-6.3-12.5-5.7L536.3,84.3z"/>
	<path class="st7" d="M470,70.5l-6.5,1.3c-9.2,1.9-15.1,10.9-13.2,20.1l0.8,3.7c1.9,9.2,10.9,15.1,20.1,13.2L534,95.8
		c2.5-0.5,4.2-3,3.6-5.5l-5.8-27.9c-0.5-2.5-3-4.2-5.5-3.6l-49.6,10.3"/>
	<path class="st0" d="M527.4,97.2l6.6-1.4c2.5-0.5,4.2-3,3.6-5.5l-5.8-27.9c-0.5-2.5-3-4.2-5.5-3.6l-6.6,1.4L527.4,97.2z"/>
	<g>
		
			<ellipse transform="matrix(0.9789 -0.2042 0.2042 0.9789 -6.2337 104.8175)" class="st8" cx="504.7" cy="82.6" rx="8.3" ry="8.3"/>
		<path class="st8" d="M527.6,34.9l-12.7,2.6c-5.6,1.2-8.7,4.6-9.5,5.8l-16.6,23.2l37.4-7.8l5-21.8
			C531.4,36.2,531.4,34.1,527.6,34.9z"/>
		<path class="st8" d="M544.8,117.1l-12.7,2.6c-5.6,1.2-9.8-0.8-11.1-1.5l-24.5-14.7l37.4-7.8l13.3,18
			C547.8,114.5,548.5,116.3,544.8,117.1z"/>
	</g>
	<g class="st2">
		<path class="st3" d="M546.5,82.9c-3.6,0.8-7.1,0.8-10.5,0.1l1.3,6.5c3.2,0.6,6.4,0.6,9.7,0c10.1-2.1,17.4-10.1,19.1-19.7
			c-0.4-0.5-0.8-1.2-1.3-1.7C561.6,75.4,554.9,81.1,546.5,82.9z"/>
	</g>
	<g class="st2">
		<path class="st3" d="M532.6,89.5l-62.8,13.1c-8.7,1.9-17.3-3.4-19.8-11.9c0.1,0.4,0.1,0.9,0.2,1.4l0.8,3.7
			c1.9,9.2,10.9,15.1,20.1,13.2L534,95.9c2.5-0.5,4.2-3,3.6-5.5l-1.3-6.4C536.8,86.4,535.2,88.9,532.6,89.5z"/>
	</g>
	<g class="st2">
		<path class="st3" d="M505.1,84.3c-3.4,0.7-6.7-0.7-8.5-3.4c-0.2,1-0.2,2.2,0,3.3c0.9,4.5,5.3,7.4,9.8,6.4c4.5-0.9,7.4-5.3,6.4-9.8
			c-0.2-1.1-0.7-2.2-1.3-3.1C510.9,81,508.4,83.6,505.1,84.3z"/>
	</g>
	<g class="st2">
		<path class="st3" d="M532.6,113c-5.6,1.2-9.8-0.8-11.1-1.5l-16.2-9.8l-8.8,1.9l24.5,14.7c1.3,0.7,5.4,2.7,11.1,1.5l12.7-2.6
			c3.7-0.8,3-2.6,2.5-3.3l-2.5-3.3C544.8,110.5,532.6,113,532.6,113z"/>
	</g>
	<g>
		<path class="st3" d="M506.9,92.8c5.6-1.2,9.2-6.7,8-12.3c-1.2-5.6-6.7-9.2-12.3-8c-5.6,1.2-9.2,6.7-8,12.3
			C495.7,90.3,501.3,93.9,506.9,92.8z M503.5,76.5c3.4-0.7,6.7,1.4,7.3,4.8c0.7,3.4-1.4,6.7-4.8,7.3c-3.4,0.7-6.7-1.4-7.3-4.8
			C497.9,80.5,500.1,77.2,503.5,76.5z"/>
		<path class="st3" d="M503.7,42.2L503.7,42.2l-16.1,22.6l-11.4,2.4c-1.1,0.2-1.8,1.4-1.6,2.5s1.4,1.8,2.5,1.6l12.2-2.5l28.8-6
			l6.9,32.9l-28.8,6l-25.3,5.3c-8.1,1.6-16-3.5-17.6-11.6l-0.8-3.7c-1.6-8.1,3.5-16,11.6-17.6l6.5-1.3c1.1-0.2,1.8-1.4,1.6-2.5
			c-0.2-1.1-1.4-1.8-2.5-1.6l-6.5,1.3C452.8,72,446.2,82,448.2,92.3l-8.1,1.6c-1.1,0.2-1.8,1.4-1.6,2.5c0.2,1.1,1.4,1.8,2.5,1.6
			l8.1-1.6c2.2,10.2,12.3,16.7,22.6,14.6l24.6-5.1l23.7,14.2c0,0,0,0,0.1,0.1c1.7,1,6.3,3,12.5,1.8l12.7-2.6c4.9-1,4.7-4.1,4.5-5
			c-0.1-0.5-0.4-1-0.6-1.5c0-0.1,0-0.1-0.1-0.1l-11.8-16c1.5-1.1,2.4-2.8,2.6-4.7c2.6,0.3,5.2,0.1,7.8-0.4
			c10.7-2.2,18.8-10.6,20.7-21.3c0-0.2,0-0.6,0-0.8s-0.2-0.5-0.3-0.7c-6-9.1-16.8-13.4-27.5-11.2c-2.6,0.5-5.1,1.5-7.3,2.7
			c-0.9-1.6-2.5-2.8-4.3-3.3l4.5-19.4c0-0.1,0-0.1,0-0.2c0.1-0.6,0.1-1.1,0-1.6l0,0c-0.2-1.2-0.9-2.1-2.1-2.6
			c-1-0.5-2.4-0.6-4.1-0.2l-12.7,2.6C508.3,36.8,504.9,40.6,503.7,42.2z M545.4,114.7c-0.2,0.1-0.6,0.2-1,0.3l-12.7,2.6
			c-4.9,1-8.5-0.7-9.6-1.2l-19.9-11.8l25.6-5.4l5.3-1.1L545.4,114.7z M564,70.2c-1.9,8.6-8.6,15.3-17.3,17.1c-2.5,0.5-5,0.6-7.6,0.3
			l-0.4-1.9c4.6-2,8-6.2,8.9-11.2c0-0.2,0-0.6,0-0.8c0-0.2-0.2-0.5-0.3-0.7c-2.8-4.2-7.6-6.7-12.6-6.7l-0.4-1.9
			c2.1-1.4,4.5-2.3,7-2.8C550,59.7,558.8,63.1,564,70.2z M537.8,81.5l-2.3-11.1c3,0.3,5.9,1.7,7.7,4.2
			C542.5,77.5,540.5,80,537.8,81.5z M529.7,62.8l0.2,0.9l1.1,5.2l3.3,15.9l1.1,5.2l0.2,0.9c0.3,1.4-0.6,2.8-2,3l-4.6,1l-6.9-32.9
			l4.6-1C528,60.5,529.4,61.4,529.7,62.8z M528,37c0.5-0.1,0.8-0.2,1.1-0.1L524.5,57l-5.3,1.1l-25.5,5.4l13.4-18.8
			c0.8-0.9,3.3-4,8.3-5L528,37L528,37z"/>
	</g>
</g>
<g>
	<path class="st5" d="M544.4,327c14.6,4.3,29.7-0.9,38.6-12.2c-1.4-14.2-11.2-26.9-25.7-31.3c-4.8-1.4-9.7-1.8-14.4-1.3l-11.2,38
		C535.3,323.2,539.5,325.6,544.4,327z"/>
	<path class="st6" d="M533.8,312.8c7.3,1.6,14.7-1.2,19.2-6.9c-0.7-7.2-5.4-13.5-12.3-16.2L533.8,312.8z"/>
	<path class="st7" d="M457.2,248.3l-9.4-2.8c-13.3-3.9-27.4,3.6-31.3,17l-1.6,5.4c-3.9,13.3,3.6,27.4,17,31.3l90.9,27
		c3.7,1.1,7.5-1,8.5-4.7l12-40.4c1.1-3.7-1-7.5-4.7-8.5l-71.8-21.3"/>
	<path class="st0" d="M513.2,323.3l9.5,2.8c3.7,1.1,7.5-1,8.5-4.7l12-40.4c1.1-3.7-1-7.5-4.7-8.5l-9.5-2.8L513.2,323.3z"/>
	<g>
		
			<ellipse transform="matrix(0.2844 -0.9587 0.9587 0.2844 77.0401 679.8876)" class="st8" cx="494" cy="288.3" rx="12.3" ry="12.3"/>
		<path class="st8" d="M557.1,242.5l-18.4-5.5c-8.1-2.4-14.5,0-16.5,0.9l-37.9,18.5l54.2,16l21.8-24.9
			C561.2,246.7,562.6,244,557.1,242.5z"/>
		<path class="st8" d="M521.9,361.4l-18.4-5.5c-8.1-2.4-12.2-7.9-13.4-9.7L468.6,310l54.2,16l4.7,32.8
			C527.6,360.1,527.3,363,521.9,361.4z"/>
	</g>
	<g class="st2">
		<path class="st3" d="M548.2,318c-5.2-1.5-9.7-4-13.7-7.2l-2.8,9.4c3.7,3,7.9,5.3,12.7,6.8c14.6,4.3,29.7-0.9,38.6-12.2
			c-0.2-1-0.2-2.1-0.5-3.1C573,318.9,560.4,321.7,548.2,318z"/>
	</g>
	<g class="st2">
		<path class="st3" d="M525.5,316.8l-90.9-27c-12.7-3.7-20.1-16.5-17.5-29.3c-0.2,0.6-0.5,1.3-0.7,1.9l-1.6,5.4
			c-3.9,13.3,3.6,27.4,17,31.3l90.9,27c3.7,1.1,7.5-1,8.5-4.7l2.7-9.2C533,315.9,529.1,318,525.5,316.8z"/>
	</g>
	<g class="st2">
		<path class="st3" d="M493.2,290.9c-4.9-1.4-8.2-5.6-8.7-10.4c-1,1.2-1.8,2.7-2.3,4.4c-1.9,6.5,1.8,13.3,8.3,15.2
			c6.5,1.9,13.3-1.8,15.2-8.3c0.5-1.6,0.6-3.4,0.5-4.9C503.1,290.6,498,292.3,493.2,290.9z"/>
	</g>
	<g class="st2">
		<path class="st3" d="M509,347.5c-8.1-2.4-12.2-7.9-13.4-9.7l-14.3-23.9l-12.8-3.7l21.5,36.2c1.2,1.8,5.2,7.3,13.4,9.7l18.4,5.5
			c5.4,1.6,5.7-1.3,5.6-2.5l-0.9-6.1C526.6,352.7,509,347.5,509,347.5z"/>
	</g>
	<g>
		<path class="st3" d="M489.6,303.2c8.1,2.4,16.6-2.3,19.1-10.4c2.4-8.1-2.3-16.6-10.4-19.1s-16.6,2.3-19.1,10.4
			C476.8,292.1,481.5,300.8,489.6,303.2z M496.6,279.6c4.9,1.4,7.7,6.5,6.1,11.4c-1.5,4.8-6.5,7.7-11.4,6.1
			c-4.9-1.4-7.7-6.5-6.1-11.4C486.6,281,491.7,278.2,496.6,279.6z"/>
		<path class="st3" d="M521,235C521,235,520.9,235.1,521,235L484.2,253l-16.4-4.9c-1.6-0.5-3.3,0.5-3.8,2.1s0.5,3.3,2.1,3.8
			l17.6,5.3l41.7,12.4l-14.1,47.7l-41.7-12.4l-36.7-10.8c-11.7-3.5-18.4-15.8-14.8-27.4l1.6-5.4c3.5-11.7,15.8-18.4,27.4-14.8
			l9.4,2.8c1.6,0.5,3.3-0.5,3.8-2.1s-0.5-3.3-2.1-3.8l-9.4-2.8c-14.8-4.4-30.5,4-35,18.7l-11.7-3.5c-1.6-0.5-3.3,0.5-3.8,2.1
			s0.5,3.3,2.1,3.8l11.7,3.5c-4.3,14.9,4.3,30.4,19.1,34.9l35.6,10.6l21,35.1c0,0,0,0,0.1,0.1c1.5,2.5,6.1,8.4,15.1,11.1l18.4,5.5
			c7.1,2.1,9-2,9.3-3.4c0.2-0.8,0.3-1.6,0.3-2.4c0-0.1,0-0.1,0-0.2l-4.2-29.1c2.7-0.4,5.1-2,6.7-4.3c3.2,2.2,6.7,3.8,10.5,4.9
			c15.5,4.6,31.8-0.6,41.9-13.2c0.2-0.3,0.5-0.7,0.6-1c0.1-0.3,0.1-0.8,0.1-1.1c-1.5-16.1-12.5-29.3-28-33.9
			c-3.8-1.2-7.6-1.7-11.4-1.6c-0.1-2.7-1.3-5.4-3.3-7.3l19.4-22.1c0-0.1,0-0.1,0.2-0.2c0.6-0.7,0.9-1.4,1.1-2.1l0,0
			c0.5-1.7,0.2-3.4-0.9-4.8c-1-1.4-2.7-2.4-5.2-3.1l-18.4-5.5C530.7,231.4,523.6,233.8,521,235z M524.4,358.8
			c-0.4,0-0.9-0.2-1.5-0.4l-18.4-5.5c-7.1-2.1-10.6-6.9-11.6-8.3l-17.6-29.3l37.1,11l7.7,2.3L524.4,358.8z M579.8,313.9
			c-8.5,9.9-21.9,13.8-34.5,10.2c-3.7-1.1-6.9-2.8-10-4.9l0.9-2.8c7.4,0.6,14.7-2.5,19.4-8.4c0.2-0.3,0.5-0.7,0.6-1
			c0.1-0.3,0.1-0.8,0.1-1.1c-0.8-7.4-5.2-14-11.7-17.6l0.9-2.8c3.7-0.3,7.5,0.2,11,1.3C568.9,290.3,578,300.9,579.8,313.9z
			 M537.9,310l4.7-16c3.7,2.5,6.4,6.4,7.1,10.8C546.7,308.2,542.3,310.1,537.9,310z M540.3,280.2l-0.4,1.3l-2.2,7.5l-6.8,23
			l-2.2,7.5l-0.4,1.3c-0.6,2-2.8,3.2-4.7,2.6l-6.6-1.9l14.1-47.7l6.6,1.9C539.7,276,540.9,278.2,540.3,280.2z M556.2,245.4
			c0.8,0.2,1.2,0.4,1.5,0.6l-20.2,23l-7.7-2.3l-37.1-11l30.7-15c1.6-0.7,7.1-2.9,14.3-0.7L556.2,245.4L556.2,245.4z"/>
	</g>
</g>
</svg>
