<?xml version="1.0" encoding="utf-8"?>
<!-- Generator: Adobe Illustrator 19.2.1, SVG Export Plug-In . SVG Version: 6.00 Build 0)  -->
<svg version="1.1" id="Livello_1" xmlns="http://www.w3.org/2000/svg" xmlns:xlink="http://www.w3.org/1999/xlink" x="0px" y="0px"
	 width="600px" height="400px" viewBox="0 0 600 400" style="enable-background:new 0 0 600 400;" xml:space="preserve">
<style type="text/css">
	.st0{fill:#157D3F;}
	.st1{fill:#FFD961;}
	.st2{fill:#95CE91;}
	.st3{fill:#179948;}
	.st4{opacity:0.2;}
	.st5{fill:#231F20;}
	.st6{fill:#F5F6F6;}
	.st7{fill:#5FBF84;}
</style>
<g>
	<path class="st0" d="M431.6,153.6l-20.1-0.2c-35.6-0.3-64.8,28.4-65.1,64.1c-0.3,35.6,28.4,64.8,64.1,65.1l160.9,1.2l-0.1,10.1
		c-0.2,25.3-21,45.8-46.3,45.6c-16-0.1-30.5-8.3-38.9-22c-3.9-6.3-12.1-8.3-18.4-4.4c-6.3,3.9-8.3,12.1-4.4,18.4
		c13.2,21.6,36.2,34.6,61.5,34.8c40.1,0.3,73-32.1,73.3-72.2l0.2-22.9l0.1-9.8l0.6-83.8l0.1-9.8l0.2-22.9
		c0.3-40.1-32.1-73-72.2-73.3c-25.3-0.2-48.5,12.5-62,33.9c-4,6.2-2.1,14.5,4.2,18.4c6.2,4,14.5,2.1,18.4-4.2
		c8.6-13.6,23.2-21.5,39.2-21.4c25.3,0.2,45.8,21,45.6,46.3l-0.1,10.1l-124.9-0.9"/>
	
		<ellipse transform="matrix(7.525661e-003 -1 1 7.525661e-003 195.8662 633.4545)" class="st1" cx="417.1" cy="218.1" rx="33.7" ry="33.7"/>
	<path class="st2" d="M482.5,247.1c14.4-3.4,25.1-14.8,25.2-28.3c0.1-13.6-10.4-25.1-24.7-28.7L482.5,247.1z"/>
	<path class="st3" d="M310.6,152.4c8.6,0.1,15.5,7.1,15.5,15.7c-0.1,8.6-7.1,15.5-15.7,15.5c-8.6-0.1-15.5-7.1-15.5-15.7
		C295,159.3,302.1,152.4,310.6,152.4z"/>
	<g class="st4">
		<path class="st5" d="M346.5,217.5c-0.3,35.6,28.4,64.8,64.1,65.1l165.2,1.2c0.2-1.5,0.3-3,0.4-4.5c-0.3-4-2.3-11.2-12.7-11.3
			l-152.7-1.1c-33-0.2-60-25.2-63.7-57.2C346.7,212.3,346.5,214.9,346.5,217.5z"/>
	</g>
	<g class="st4">
		<path class="st5" d="M416.9,236c-15.9-0.1-29.1-11.3-32.6-26.1c-0.6,2.5-1,5.1-1,7.8c-0.1,18.6,14.8,33.8,33.4,33.9
			s33.8-14.8,33.9-33.4c0-2.7-0.3-5.3-0.9-7.9C446.2,225.3,432.8,236.1,416.9,236z"/>
	</g>
	<g class="st4">
		<path class="st5" d="M482.6,231.4l-0.1,15.7c14.4-3.4,25.1-14.8,25.2-28.3c0-2.7-0.4-5.3-1.2-7.9
			C503.3,220.9,494.2,228.7,482.6,231.4z"/>
	</g>
	<g class="st4">
		<path class="st5" d="M310.5,167.9c-5.8,0-10.7-3.2-13.4-7.8c-1.4,2.3-2.2,5-2.2,7.8c-0.1,8.6,6.9,15.6,15.5,15.7
			c8.6,0.1,15.6-6.9,15.7-15.5c0-2.9-0.8-5.5-2.1-7.9C321.3,164.8,316.2,167.9,310.5,167.9z"/>
	</g>
	<g>
		<path class="st5" d="M378.4,217.8c-0.2,21.3,17.1,38.8,38.3,38.9s38.8-17.1,38.9-38.3s-17.1-38.8-38.3-38.9
			C396.1,179.3,378.6,196.5,378.4,217.8z M445.8,218.3c-0.1,15.8-13.1,28.6-28.9,28.5s-28.6-13.1-28.5-28.9
			c0.1-15.8,13.1-28.6,28.9-28.5C433.1,189.5,445.9,202.4,445.8,218.3z"/>
		
			<ellipse transform="matrix(7.525661e-003 -1 1 7.525661e-003 195.8662 633.4545)" class="st5" cx="417.1" cy="218.1" rx="9.5" ry="9.5"/>
		<path class="st5" d="M478,190l-0.4,57.1c0,1.5,0.7,2.9,1.9,3.9c1.2,0.9,2.8,1.3,4.2,1c17-4,28.9-17.6,29-33.1
			s-11.6-29.3-28.5-33.6c-1.5-0.4-3.1,0-4.2,0.9C478.7,187,478,188.5,478,190z M502.7,218.7c-0.1,9-6.1,17.2-15.2,21.4l0.3-43.1
			C496.9,201.4,502.8,209.7,502.7,218.7z"/>
		<path class="st5" d="M460.8,102.8c-2.6,4.2-3.4,9.1-2.4,13.8c1.1,4.8,3.9,8.9,8.1,11.5c4.2,2.6,9.1,3.4,13.8,2.4
			c4.8-1.1,8.9-3.9,11.5-8.1c7.6-12.1,20.7-19.2,35-19.1c22.6,0.2,40.8,18.7,40.7,41.3l0,5.1l-119.9-0.9c-2.8,0-5,2.2-5,4.9
			c0,2.8,2.2,5,4.9,5l124.9,0.9c2.8,0,5-2.2,5-4.9l0.1-10.1c0.2-28.1-22.5-51.1-50.6-51.3c-17.7-0.1-34,8.8-43.5,23.8
			c-1.2,1.9-3.1,3.2-5.2,3.7c-2.2,0.5-4.4,0.1-6.3-1.1c-1.9-1.2-3.2-3.1-3.7-5.2c-0.5-2.2-0.1-4.4,1.1-6.3
			c12.6-20,34.2-31.8,57.8-31.6c37.3,0.3,67.5,30.9,67.2,68.2L593.1,294c-0.3,37.3-30.9,67.5-68.2,67.2c-23.5-0.2-45-12.3-57.3-32.4
			c-1.2-1.9-1.5-4.2-1-6.3c0.5-2.2,1.9-4,3.8-5.2c3.9-2.4,9.1-1.2,11.6,2.8c9.2,15.1,25.3,24.2,43.1,24.4
			c28.1,0.2,51.1-22.5,51.3-50.6l0.1-10.1c0-2.8-2.2-5-4.9-5l-160.9-1.2c-32.9-0.2-59.3-27.2-59.1-60l0,0l0,0
			c0.2-32.8,27.2-59.3,60-59.1l20.1,0.2c2.8,0,5-2.2,5-4.9c0-2.8-2.2-5-4.9-5l-20.1-0.2c-36.1-0.3-66.1,27.2-69.7,62.5
			c-7.6-2.7-20.9-9.2-26.1-23.1c8.8-2.3,15.3-10.2,15.4-19.7c0.1-11.3-9-20.6-20.4-20.7c-11.3-0.1-20.6,9-20.7,20.4
			c-0.1,9.6,6.5,17.8,15.4,20c0,0.4,0.1,0.9,0.2,1.3c6.7,21.4,27.3,29.6,35.9,32.2c1.7,36.6,31.9,65.9,68.9,66.1l155.9,1.2l0,5.1
			c-0.2,22.6-18.7,40.8-41.3,40.7c-14.3-0.1-27.2-7.4-34.7-19.6c-5.3-8.6-16.6-11.3-25.2-6.1c-4.2,2.5-7.1,6.6-8.2,11.3
			c-1.1,4.8-0.4,9.7,2.2,13.9c14.1,23,38.7,36.9,65.7,37.1c42.9,0.3,78-34.2,78.3-77.1l1.1-149.2c0.3-42.8-34.2-78-77.1-78.3
			C500.1,66.4,475.3,79.9,460.8,102.8z M299.9,167.9c0-5.8,4.8-10.6,10.7-10.5s10.6,4.8,10.5,10.7c0,5.8-4.8,10.6-10.7,10.5
			C304.6,178.6,299.9,173.8,299.9,167.9z"/>
	</g>
</g>
<g>
	<g>
		<circle class="st1" cx="492.7" cy="280.5" r="16.2"/>
		<circle class="st1" cx="492.7" cy="323.8" r="16.2"/>
	</g>
	<g>
		<circle class="st6" cx="492.7" cy="280.5" r="6.4"/>
		<circle class="st6" cx="492.7" cy="323.8" r="6.4"/>
	</g>
	<path class="st7" d="M562.6,278.2h-15.7c-13.1,0-23.7,10.6-23.7,23.7c0,13.1,10.6,23.7,23.7,23.7h39.8v12.2c0,2.8,2.3,5,5,5h4.2
		c2.8,0,5-2.3,5-5V266c0-2.8-2.3-5-5-5h-4.2c-2.8,0-5,2.3-5,5v12.2h-17.6"/>
	<g class="st4">
		<path class="st5" d="M492.7,290.4c-7.9,0-14.4-5.6-15.9-13c-0.2,1-0.3,2.1-0.3,3.2c0,9,7.3,16.2,16.2,16.2c9,0,16.2-7.3,16.2-16.2
			c0-1.1-0.1-2.2-0.3-3.2C507.1,284.8,500.6,290.4,492.7,290.4z"/>
	</g>
	<g class="st4">
		<path class="st5" d="M492.7,333.7c-7.9,0-14.4-5.6-15.9-13c-0.2,1-0.3,2.1-0.3,3.2c0,9,7.3,16.2,16.2,16.2c9,0,16.2-7.3,16.2-16.2
			c0-1.1-0.1-2.2-0.3-3.2C507.1,328.1,500.6,333.7,492.7,333.7z"/>
	</g>
	<g class="st4">
		<path class="st5" d="M523.1,301.9c0,13.1,10.6,23.7,23.7,23.7h41.7v-0.8c-0.1-1.7-0.7-5.6-4.7-5.6h-37c-12,0-21.9-8.9-23.5-20.5
			C523.2,299.8,523.1,300.8,523.1,301.9z"/>
	</g>
	<g>
		<path class="st5" d="M584.6,266v10.1h-15.5c-1.1,0-2,0.9-2,2c0,1.1,0.9,2,2,2h17.6c1.1,0,2-0.9,2-2V266c0-1.7,1.3-3,3-3h4.2
			c1.7,0,3,1.3,3,3v71.7c0,1.7-1.3,3-3,3h-4.2c-1.7,0-3-1.3-3-3v-12.2c0-1.1-0.9-2-2-2h-39.8c-11.9,0-21.7-9.7-21.7-21.7
			s9.7-21.7,21.7-21.7h15.7c1.1,0,2-0.9,2-2c0-1.1-0.9-2-2-2h-15.7c-10,0-18.7,5.8-23,14.1l-13.5-5.2c0.4-1.5,0.6-3,0.6-4.6
			c0-10.1-8.2-18.2-18.2-18.2c-10.1,0-18.2,8.2-18.2,18.2c0,10.1,8.2,18.2,18.2,18.2c7,0,13.1-4,16.2-9.8l13.4,5.2
			c-0.8,2.5-1.2,5.1-1.2,7.8c0,2.8,0.5,5.5,1.3,8l-13.6,5.4c-3.1-5.8-9.1-9.7-16.1-9.7c-10.1,0-18.2,8.2-18.2,18.2
			c0,10.1,8.2,18.2,18.2,18.2c10.1,0,18.2-8.2,18.2-18.2c0-1.6-0.2-3.2-0.6-4.8l13.7-5.4c4.3,8.3,12.9,13.9,22.9,13.9h37.8v10.1
			c0,3.9,3.2,7.1,7.1,7.1h4.2c3.9,0,7.1-3.2,7.1-7.1V266c0-3.9-3.2-7.1-7.1-7.1h-4.2C587.8,259,584.6,262.2,584.6,266z M492.7,294.7
			c-7.8,0-14.2-6.4-14.2-14.2c0-7.8,6.4-14.2,14.2-14.2c7.8,0,14.2,6.4,14.2,14.2C506.9,288.3,500.5,294.7,492.7,294.7z M492.7,338
			c-7.8,0-14.2-6.4-14.2-14.2c0-7.8,6.4-14.2,14.2-14.2c7.8,0,14.2,6.4,14.2,14.2C506.9,331.7,500.5,338,492.7,338z"/>
		<path class="st5" d="M492.7,272c-4.7,0-8.5,3.8-8.5,8.5c0,4.7,3.8,8.5,8.5,8.5s8.5-3.8,8.5-8.5C501.2,275.8,497.4,272,492.7,272z
			 M492.7,284.9c-2.4,0-4.4-2-4.4-4.4s2-4.4,4.4-4.4c2.4,0,4.4,2,4.4,4.4C497.1,282.9,495.1,284.9,492.7,284.9z"/>
		<path class="st5" d="M484.3,323.8c0,4.7,3.8,8.5,8.5,8.5s8.5-3.8,8.5-8.5c0-4.7-3.8-8.5-8.5-8.5S484.3,319.2,484.3,323.8z
			 M497.1,323.8c0,2.4-2,4.4-4.4,4.4c-2.4,0-4.4-2-4.4-4.4c0-2.4,2-4.4,4.4-4.4C495.1,319.4,497.1,321.4,497.1,323.8z"/>
		<path class="st5" d="M550,295c3.8,0,6.9,3.1,6.9,6.9c0,3.8-3.1,6.9-6.9,6.9c-1.1,0-2,0.9-2,2c0,1.1,0.9,2,2,2c6.1,0,11-4.9,11-11
			c0-6.1-4.9-11-11-11c-1.1,0-2,0.9-2,2C548,294.1,548.9,295,550,295z"/>
	</g>
</g>
<g>
	<g>
		<circle class="st1" cx="472.2" cy="68.4" r="19.2"/>
		<circle class="st1" cx="472.2" cy="119.8" r="19.2"/>
	</g>
	<g>
		<circle class="st6" cx="472.2" cy="68.4" r="7.6"/>
		<circle class="st6" cx="472.2" cy="119.8" r="7.6"/>
	</g>
	<path class="st7" d="M555.1,65.7h-18.7c-15.5,0-28.1,12.6-28.1,28.1c0,15.5,12.6,28.1,28.1,28.1h47.2v14.4c0,3.3,2.7,6,6,6h5
		c3.3,0,6-2.7,6-6v-85c0-3.3-2.7-6-6-6h-5c-3.3,0-6,2.7-6,6v14.4h-20.8"/>
	<g class="st4">
		<path class="st5" d="M472.2,80.1c-9.3,0-17.1-6.6-18.9-15.5c-0.2,1.2-0.4,2.5-0.4,3.8c0,10.6,8.6,19.2,19.2,19.2
			c10.6,0,19.2-8.6,19.2-19.2c0-1.3-0.1-2.6-0.4-3.8C489.3,73.5,481.6,80.1,472.2,80.1z"/>
	</g>
	<g class="st4">
		<path class="st5" d="M472.2,131.5c-9.3,0-17.1-6.6-18.9-15.5c-0.2,1.2-0.4,2.5-0.4,3.8c0,10.6,8.6,19.2,19.2,19.2
			c10.6,0,19.2-8.6,19.2-19.2c0-1.3-0.1-2.6-0.4-3.8C489.3,124.8,481.6,131.5,472.2,131.5z"/>
	</g>
	<g class="st4">
		<path class="st5" d="M508.3,93.8c0,15.5,12.6,28.1,28.1,28.1h49.4v-0.9c-0.1-2-0.8-6.6-5.6-6.6h-43.9c-14.2,0-26-10.6-27.8-24.3
			C508.4,91.2,508.3,92.5,508.3,93.8z"/>
	</g>
	<g>
		<path class="st5" d="M581.2,51.3v12h-18.4c-1.3,0-2.4,1.1-2.4,2.4c0,1.3,1.1,2.4,2.4,2.4h20.8c1.3,0,2.4-1.1,2.4-2.4V51.3
			c0-2,1.6-3.6,3.6-3.6h5c2,0,3.6,1.6,3.6,3.6v85c0,2-1.6,3.6-3.6,3.6h-5c-2,0-3.6-1.6-3.6-3.6v-14.4c0-1.3-1.1-2.4-2.4-2.4h-47.2
			c-14.2,0-25.7-11.5-25.7-25.7s11.5-25.7,25.7-25.7h18.7c1.3,0,2.4-1.1,2.4-2.4c0-1.3-1.1-2.4-2.4-2.4h-18.7
			c-11.9,0-22.2,6.8-27.2,16.8l-16-6.2c0.5-1.7,0.7-3.6,0.7-5.5c0-11.9-9.7-21.6-21.6-21.6c-11.9,0-21.6,9.7-21.6,21.6
			s9.7,21.6,21.6,21.6c8.3,0,15.6-4.7,19.2-11.7l15.9,6.1c-0.9,2.9-1.4,6-1.4,9.3c0,3.3,0.5,6.5,1.5,9.5l-16.1,6.3
			c-3.6-6.8-10.8-11.5-19.1-11.5c-11.9,0-21.6,9.7-21.6,21.6c0,11.9,9.7,21.6,21.6,21.6c11.9,0,21.6-9.7,21.6-21.6
			c0-2-0.3-3.8-0.8-5.6l16.2-6.4c5.1,9.8,15.3,16.5,27.1,16.5h44.8v12c0,4.6,3.8,8.4,8.4,8.4h5c4.6,0,8.4-3.8,8.4-8.4v-85
			c0-4.6-3.8-8.4-8.4-8.4h-5C584.9,42.9,581.2,46.7,581.2,51.3z M472.2,85.2c-9.3,0-16.8-7.5-16.8-16.8s7.5-16.8,16.8-16.8
			c9.3,0,16.8,7.5,16.8,16.8C489,77.7,481.5,85.2,472.2,85.2z M472.2,136.6c-9.3,0-16.8-7.5-16.8-16.8c0-9.3,7.5-16.8,16.8-16.8
			c9.3,0,16.8,7.5,16.8,16.8C489,129.1,481.5,136.6,472.2,136.6z"/>
		<path class="st5" d="M472.2,58.4c-5.5,0-10,4.5-10,10c0,5.5,4.5,10,10,10c5.5,0,10-4.5,10-10C482.3,62.9,477.8,58.4,472.2,58.4z
			 M472.2,73.6c-2.9,0-5.2-2.3-5.2-5.2c0-2.9,2.3-5.2,5.2-5.2c2.9,0,5.2,2.3,5.2,5.2C477.4,71.3,475.1,73.6,472.2,73.6z"/>
		<path class="st5" d="M462.2,119.8c0,5.5,4.5,10,10,10s10-4.5,10-10c0-5.5-4.5-10-10-10C466.7,109.8,462.2,114.3,462.2,119.8z
			 M477.4,119.8c0,2.9-2.3,5.2-5.2,5.2c-2.9,0-5.2-2.3-5.2-5.2c0-2.9,2.3-5.2,5.2-5.2C475.1,114.6,477.4,116.9,477.4,119.8z"/>
		<path class="st5" d="M540.2,85.6c4.5,0,8.2,3.7,8.2,8.2c0,4.5-3.7,8.2-8.2,8.2c-1.3,0-2.4,1.1-2.4,2.4c0,1.3,1.1,2.4,2.4,2.4
			c7.2,0,13-5.8,13-13c0-7.2-5.8-13-13-13c-1.3,0-2.4,1.1-2.4,2.4C537.8,84.5,538.8,85.6,540.2,85.6z"/>
	</g>
</g>
<g>
	<g>
		<circle class="st1" cx="530.4" cy="130.1" r="10.7"/>
		<circle class="st1" cx="530.4" cy="158.7" r="10.7"/>
	</g>
	<g>
		<circle class="st6" cx="530.4" cy="130.1" r="4.2"/>
		<circle class="st6" cx="530.4" cy="158.7" r="4.2"/>
	</g>
	<path class="st7" d="M576.4,128.6H566c-8.6,0-15.6,7-15.6,15.6c0,8.6,7,15.6,15.6,15.6h26.2v8c0,1.8,1.5,3.3,3.3,3.3h2.8
		c1.8,0,3.3-1.5,3.3-3.3v-47.2c0-1.8-1.5-3.3-3.3-3.3h-2.8c-1.8,0-3.3,1.5-3.3,3.3v8h-11.6"/>
	<g class="st4">
		<path class="st5" d="M530.4,136.6c-5.2,0-9.5-3.7-10.5-8.6c-0.1,0.7-0.2,1.4-0.2,2.1c0,5.9,4.8,10.7,10.7,10.7
			c5.9,0,10.7-4.8,10.7-10.7c0-0.7-0.1-1.4-0.2-2.1C539.9,132.9,535.6,136.6,530.4,136.6z"/>
	</g>
	<g class="st4">
		<path class="st5" d="M530.4,165.1c-5.2,0-9.5-3.7-10.5-8.6c-0.1,0.7-0.2,1.4-0.2,2.1c0,5.9,4.8,10.7,10.7,10.7
			c5.9,0,10.7-4.8,10.7-10.7c0-0.7-0.1-1.4-0.2-2.1C539.9,161.5,535.6,165.1,530.4,165.1z"/>
	</g>
	<g class="st4">
		<path class="st5" d="M550.4,144.2c0,8.6,7,15.6,15.6,15.6h27.5v-0.5c-0.1-1.1-0.5-3.7-3.1-3.7H566c-7.9,0-14.4-5.9-15.5-13.5
			C550.5,142.8,550.4,143.5,550.4,144.2z"/>
	</g>
	<g>
		<path class="st5" d="M590.9,120.6v6.7h-10.2c-0.7,0-1.3,0.6-1.3,1.3c0,0.7,0.6,1.3,1.3,1.3h11.6c0.7,0,1.3-0.6,1.3-1.3v-8
			c0-1.1,0.9-2,2-2h2.8c1.1,0,2,0.9,2,2v47.2c0,1.1-0.9,2-2,2h-2.8c-1.1,0-2-0.9-2-2v-8c0-0.7-0.6-1.3-1.3-1.3H566
			c-7.9,0-14.3-6.4-14.3-14.3c0-7.9,6.4-14.3,14.3-14.3h10.4c0.7,0,1.3-0.6,1.3-1.3c0-0.7-0.6-1.3-1.3-1.3H566
			c-6.6,0-12.3,3.8-15.1,9.3l-8.9-3.4c0.3-1,0.4-2,0.4-3c0-6.6-5.4-12-12-12c-6.6,0-12,5.4-12,12c0,6.6,5.4,12,12,12
			c4.6,0,8.7-2.6,10.7-6.5l8.8,3.4c-0.5,1.6-0.8,3.4-0.8,5.2c0,1.9,0.3,3.6,0.9,5.3L541,153c-2-3.8-6-6.4-10.6-6.4
			c-6.6,0-12,5.4-12,12c0,6.6,5.4,12,12,12c6.6,0,12-5.4,12-12c0-1.1-0.1-2.1-0.4-3.1l9-3.5c2.8,5.4,8.5,9.2,15.1,9.2h24.9v6.7
			c0,2.6,2.1,4.7,4.7,4.7h2.8c2.6,0,4.7-2.1,4.7-4.7v-47.2c0-2.6-2.1-4.7-4.7-4.7h-2.8C593,115.9,590.9,118,590.9,120.6z
			 M530.4,139.5c-5.2,0-9.3-4.2-9.3-9.3c0-5.2,4.2-9.3,9.3-9.3c5.2,0,9.3,4.2,9.3,9.3C539.7,135.3,535.6,139.5,530.4,139.5z
			 M530.4,168c-5.2,0-9.3-4.2-9.3-9.3c0-5.2,4.2-9.3,9.3-9.3c5.2,0,9.3,4.2,9.3,9.3C539.7,163.8,535.6,168,530.4,168z"/>
		<path class="st5" d="M530.4,124.6c-3.1,0-5.6,2.5-5.6,5.6c0,3.1,2.5,5.6,5.6,5.6s5.6-2.5,5.6-5.6
			C536,127.1,533.5,124.6,530.4,124.6z M530.4,133c-1.6,0-2.9-1.3-2.9-2.9c0-1.6,1.3-2.9,2.9-2.9s2.9,1.3,2.9,2.9
			C533.3,131.7,532,133,530.4,133z"/>
		<path class="st5" d="M524.8,158.7c0,3.1,2.5,5.6,5.6,5.6s5.6-2.5,5.6-5.6c0-3.1-2.5-5.6-5.6-5.6S524.8,155.6,524.8,158.7z
			 M533.3,158.7c0,1.6-1.3,2.9-2.9,2.9c-1.6,0-2.9-1.3-2.9-2.9c0-1.6,1.3-2.9,2.9-2.9C532,155.8,533.3,157.1,533.3,158.7z"/>
		<path class="st5" d="M568.1,139.7c2.5,0,4.6,2,4.6,4.6c0,2.5-2,4.6-4.6,4.6c-0.7,0-1.3,0.6-1.3,1.3c0,0.7,0.6,1.3,1.3,1.3
			c4,0,7.2-3.2,7.2-7.2c0-4-3.2-7.2-7.2-7.2c-0.7,0-1.3,0.6-1.3,1.3C566.8,139.1,567.4,139.7,568.1,139.7z"/>
	</g>
</g>
<g>
	<g>
		<circle class="st1" cx="530.4" cy="339.7" r="10.7"/>
		<circle class="st1" cx="530.4" cy="368.3" r="10.7"/>
	</g>
	<g>
		<circle class="st6" cx="530.4" cy="339.7" r="4.2"/>
		<circle class="st6" cx="530.4" cy="368.3" r="4.2"/>
	</g>
	<path class="st7" d="M576.4,338.2H566c-8.6,0-15.6,7-15.6,15.6c0,8.6,7,15.6,15.6,15.6h26.2v8c0,1.8,1.5,3.3,3.3,3.3h2.8
		c1.8,0,3.3-1.5,3.3-3.3v-47.2c0-1.8-1.5-3.3-3.3-3.3h-2.8c-1.8,0-3.3,1.5-3.3,3.3v8h-11.6"/>
	<g class="st4">
		<path class="st5" d="M530.4,346.2c-5.2,0-9.5-3.7-10.5-8.6c-0.1,0.7-0.2,1.4-0.2,2.1c0,5.9,4.8,10.7,10.7,10.7
			c5.9,0,10.7-4.8,10.7-10.7c0-0.7-0.1-1.4-0.2-2.1C539.9,342.5,535.6,346.2,530.4,346.2z"/>
	</g>
	<g class="st4">
		<path class="st5" d="M530.4,374.7c-5.2,0-9.5-3.7-10.5-8.6c-0.1,0.7-0.2,1.4-0.2,2.1c0,5.9,4.8,10.7,10.7,10.7
			c5.9,0,10.7-4.8,10.7-10.7c0-0.7-0.1-1.4-0.2-2.1C539.9,371.1,535.6,374.7,530.4,374.7z"/>
	</g>
	<g class="st4">
		<path class="st5" d="M550.4,353.8c0,8.6,7,15.6,15.6,15.6h27.5v-0.5c-0.1-1.1-0.5-3.7-3.1-3.7H566c-7.9,0-14.4-5.9-15.5-13.5
			C550.5,352.4,550.4,353.1,550.4,353.8z"/>
	</g>
	<g>
		<path class="st5" d="M590.9,330.2v6.7h-10.2c-0.7,0-1.3,0.6-1.3,1.3c0,0.7,0.6,1.3,1.3,1.3h11.6c0.7,0,1.3-0.6,1.3-1.3v-8
			c0-1.1,0.9-2,2-2h2.8c1.1,0,2,0.9,2,2v47.2c0,1.1-0.9,2-2,2h-2.8c-1.1,0-2-0.9-2-2v-8c0-0.7-0.6-1.3-1.3-1.3H566
			c-7.9,0-14.3-6.4-14.3-14.3c0-7.9,6.4-14.3,14.3-14.3h10.4c0.7,0,1.3-0.6,1.3-1.3c0-0.7-0.6-1.3-1.3-1.3H566
			c-6.6,0-12.3,3.8-15.1,9.3l-8.9-3.4c0.3-1,0.4-2,0.4-3c0-6.6-5.4-12-12-12c-6.6,0-12,5.4-12,12c0,6.6,5.4,12,12,12
			c4.6,0,8.7-2.6,10.7-6.5l8.8,3.4c-0.5,1.6-0.8,3.4-0.8,5.2c0,1.9,0.3,3.6,0.9,5.3l-8.9,3.5c-2-3.8-6-6.4-10.6-6.4
			c-6.6,0-12,5.4-12,12c0,6.6,5.4,12,12,12c6.6,0,12-5.4,12-12c0-1.1-0.1-2.1-0.4-3.1l9-3.5c2.8,5.4,8.5,9.2,15.1,9.2h24.9v6.7
			c0,2.6,2.1,4.7,4.7,4.7h2.8c2.6,0,4.7-2.1,4.7-4.7v-47.2c0-2.6-2.1-4.7-4.7-4.7h-2.8C593,325.5,590.9,327.6,590.9,330.2z
			 M530.4,349.1c-5.2,0-9.3-4.2-9.3-9.3s4.2-9.3,9.3-9.3c5.2,0,9.3,4.2,9.3,9.3C539.7,344.9,535.6,349.1,530.4,349.1z M530.4,377.6
			c-5.2,0-9.3-4.2-9.3-9.3c0-5.2,4.2-9.3,9.3-9.3c5.2,0,9.3,4.2,9.3,9.3C539.7,373.4,535.6,377.6,530.4,377.6z"/>
		<path class="st5" d="M530.4,334.1c-3.1,0-5.6,2.5-5.6,5.6c0,3.1,2.5,5.6,5.6,5.6s5.6-2.5,5.6-5.6
			C536,336.6,533.5,334.1,530.4,334.1z M530.4,342.6c-1.6,0-2.9-1.3-2.9-2.9s1.3-2.9,2.9-2.9s2.9,1.3,2.9,2.9
			C533.3,341.3,532,342.6,530.4,342.6z"/>
		<path class="st5" d="M524.8,368.3c0,3.1,2.5,5.6,5.6,5.6s5.6-2.5,5.6-5.6c0-3.1-2.5-5.6-5.6-5.6S524.8,365.2,524.8,368.3z
			 M533.3,368.3c0,1.6-1.3,2.9-2.9,2.9c-1.6,0-2.9-1.3-2.9-2.9c0-1.6,1.3-2.9,2.9-2.9C532,365.4,533.3,366.7,533.3,368.3z"/>
		<path class="st5" d="M568.1,349.2c2.5,0,4.6,2,4.6,4.6c0,2.5-2,4.6-4.6,4.6c-0.7,0-1.3,0.6-1.3,1.3c0,0.7,0.6,1.3,1.3,1.3
			c4,0,7.2-3.2,7.2-7.2c0-4-3.2-7.2-7.2-7.2c-0.7,0-1.3,0.6-1.3,1.3C566.8,348.6,567.4,349.2,568.1,349.2z"/>
	</g>
</g>
</svg>
