<?xml version="1.0" encoding="utf-8"?>
<!-- Generator: Adobe Illustrator 19.2.1, SVG Export Plug-In . SVG Version: 6.00 Build 0)  -->
<svg version="1.1" id="Livello_1" xmlns="http://www.w3.org/2000/svg" xmlns:xlink="http://www.w3.org/1999/xlink" x="0px" y="0px"
	 width="600px" height="400px" viewBox="0 0 600 400" style="enable-background:new 0 0 600 400;" xml:space="preserve">
<style type="text/css">
	.st0{fill:#B3DBF1;}
	.st1{fill:#91C8EC;}
	.st2{fill:#588CAD;}
	.st3{fill:#3B5E75;}
	.st4{opacity:0.2;}
	.st5{fill:#231F20;}
	.st6{fill:#184375;}
</style>
<path class="st0" d="M558.1,174.8c3.2,3.2,3.2,8.3,0,11.4l-47,47c-3.2,3.2-8.3,3.2-11.4,0l-26-26c-3.2-3.2-3.2-8.3,0-11.4l47-47
	c3.2-3.2,8.3-3.2,11.4,0L558.1,174.8z"/>
<g>
	<path class="st1" d="M436.9,296.1c3.2,3.2,3.2,8.3,0,11.4l-47,47c-3.2,3.2-8.3,3.2-11.4,0l-26-26c-3.2-3.2-3.2-8.3,0-11.4l47-47
		c3.2-3.2,8.3-3.2,11.4,0L436.9,296.1L436.9,296.1L436.9,296.1z"/>
	<path class="st1" d="M520.7,148.8l-23.5,23.5l37.4,37.4l23.5-23.5c3.2-3.2,3.2-8.3,0-11.4l-26-26
		C528.9,145.6,523.8,145.6,520.7,148.8z"/>
</g>
<path class="st0" d="M375.9,293.5L352.4,317c-3.2,3.2-3.2,8.3,0,11.4l26,26c3.2,3.2,8.3,3.2,11.4,0l23.5-23.5
	C413.4,331,375.9,293.5,375.9,293.5z"/>
<path class="st2" d="M547.1,293.3l25.6-25.6c3.2-3.2,3.2-8.3,0-11.4l-8.7-8.7c-7.2-7.2-19-7.2-26.2,0l-86.6,86.6
	c-7.2,7.2-7.2,19,0,26.2l8.7,8.7c3.2,3.2,8.3,3.2,11.4,0l66.1-66.1"/>
<g>
	<path class="st3" d="M485.6,354.8l4.2,4.2c3.2,3.2,8.3,3.2,11.4,0l61.4-61.4c3.2-3.2,3.2-8.3,0-11.4l-4.2-4.2"/>
	<path class="st3" d="M503.9,256.6l-43.6,43.6c-3.2,3.2-3.2,8.3,0,11.4l6.7,6.7l55.1-55.1l-6.7-6.7
		C512.2,253.5,507.1,253.5,503.9,256.6z"/>
</g>
<path class="st0" d="M502.7,257.8l-45.5-45.5c-11.4-11.4-29.9-11.4-41.2,0c-11.4,11.4-11.4,29.9,0,41.2l45.5,45.5L502.7,257.8z"/>
<ellipse transform="matrix(0.7071 -0.7071 0.7071 0.7071 -47.0249 401.4861)" class="st2" cx="461.1" cy="257.5" rx="13" ry="13"/>
<g class="st4">
	<path class="st5" d="M387.7,345.2l-26-26c-3.2-3.2-3.2-8.3,0-11.4l-9.3,9.3c-3.2,3.2-3.2,8.3,0,11.4l26,26c3.2,3.2,8.3,3.2,11.4,0
		l9.3-9.3C396,348.3,390.9,348.3,387.7,345.2z"/>
</g>
<g class="st4">
	<path class="st5" d="M469.2,359.8l-8.7-8.7c-7.2-7.2-7.2-19,0-26.2l-9.3,9.3c-7.2,7.2-7.2,19,0,26.2l8.7,8.7
		c3.2,3.2,8.3,3.2,11.4,0l9.3-9.3C477.5,362.9,472.4,362.9,469.2,359.8z"/>
</g>
<g class="st4">
	<path class="st5" d="M499.1,349.7l-4.2-4.2l-9.3,9.3l4.2,4.2c3.2,3.2,8.3,3.2,11.4,0l9.3-9.3C507.3,352.8,502.2,352.8,499.1,349.7z
		"/>
</g>
<g class="st4">
	<path class="st5" d="M469.6,291l-9.3,9.3c-3.2,3.2-3.2,8.3,0,11.4l6.7,6.7l9.3-9.3l-6.7-6.7C466.4,299.3,466.4,294.2,469.6,291z"/>
</g>
<g class="st4">
	<path class="st5" d="M421.1,208.2c-1.8,1.2-3.6,2.5-5.2,4.1c-11.4,11.4-11.4,29.9,0,41.2l45.5,45.5l9.3-9.3l-45.5-45.5
		C415.4,234.5,414.1,219.4,421.1,208.2z"/>
</g>
<g class="st4">
	<path class="st5" d="M461.2,257.4c-3.4-3.4-4.5-8.2-3.4-12.5c-2.2,0.6-4.2,1.7-5.9,3.4c-5.1,5.1-5.1,13.3,0,18.4
		c5.1,5.1,13.3,5.1,18.4,0c1.7-1.7,2.8-3.7,3.4-5.9C469.4,261.9,464.6,260.8,461.2,257.4z"/>
</g>
<g>
	<path class="st5" d="M462.7,350.1c1.6,1.6,4.2,1.6,5.8,0l85.2-85.2c1.6-1.6,1.6-4.2,0-5.8c-1.6-1.6-4.2-1.6-5.8,0l-85.2,85.2
		C461.1,345.9,461.1,348.5,462.7,350.1z"/>
	<path class="st5" d="M473.2,269.6c6.7-6.7,6.7-17.5,0-24.2c-6.7-6.7-17.5-6.7-24.2,0c-6.7,6.7-6.7,17.5,0,24.2
		C455.7,276.3,466.6,276.3,473.2,269.6z M454.8,251.2c3.5-3.5,9.1-3.5,12.6,0c3.5,3.5,3.5,9.1,0,12.6c-3.5,3.5-9.1,3.5-12.6,0
		C451.4,260.3,451.4,254.7,454.8,251.2z"/>
	<path class="st5" d="M517.8,145.9l-23.5,23.5l-23.5,23.5c-4.8,4.8-4.7,12.5,0,17.2l1.9,1.9l-5,5l-7.6-7.6c-13-13-34.1-13-47.1,0
		c-13,13-13,34.1,0,47.1l7.6,7.6l-5,5l-1.9-1.9c-4.8-4.8-12.5-4.7-17.2,0L373,290.6l-23.5,23.5c-4.7,4.7-4.7,12.5,0,17.2l26,26
		c4.8,4.8,12.5,4.7,17.2,0l23.5-23.5l23.5-23.5c4.5-4.5,4.7-11.7,0.7-16.5l5-5l10.4,10.4c-3.1,4.7-2.6,11.2,1.5,15.4l3.8,3.8
		l-12.9,12.9c-8.8,8.8-8.8,23.2,0,32l8.7,8.7c4.8,4.8,12.5,4.7,17.2,0l11.4-11.4l1.2,1.2c3.4,3.4,8.3,4.4,12.5,2.9l3.9,24.3
		c0.4,2.2,2.5,3.8,4.7,3.4c0.9-0.1,1.7-0.6,2.2-1.1c0.9-0.9,1.4-2.2,1.2-3.6l-4.6-28.6l25.1-25.1l14.9,14.9c1.6,1.6,4.2,1.6,5.8,0
		c1.6-1.6,1.6-4.2,0-5.8l-14.9-14.9l25.1-25.1l28.6,4.6c1.4,0.2,2.7-0.3,3.6-1.2c0.6-0.6,1-1.4,1.1-2.2c0.4-2.2-1.2-4.3-3.4-4.7
		l-24.3-3.9c1.4-4.2,0.5-9.1-2.9-12.5l-1.2-1.2l11.4-11.4c4.8-4.8,4.7-12.5,0-17.2l-8.7-8.7c-8.8-8.8-23.2-8.8-32,0L522,257.5
		l-3.8-3.8c-4.2-4.2-10.6-4.7-15.4-1.5l-10.4-10.4l5-5c4.8,4.1,12,3.9,16.5-0.7l23.5-23.5l23.5-23.5c4.8-4.8,4.7-12.5,0-17.2l-26-26
		C530.2,141.1,522.5,141.1,517.8,145.9z M418.8,250.6c-9.8-9.8-9.8-25.7,0-35.4c9.8-9.8,25.7-9.8,35.4,0l10.5,10.5l19,19l13.1,13.1
		l-35.4,35.4l-13.1-13.1l-19-19L418.8,250.6z M387,351.6c-1.5,1.5-4.1,1.5-5.6,0l-26-26c-1.5-1.5-1.5-4.1,0-5.6l20.6-20.6l31.6,31.6
		L387,351.6L387,351.6z M434,299c1.5,1.5,1.5,4.1,0,5.6l-20.6,20.6l-31.6-31.6l20.6-20.6c1.5-1.5,4.1-1.5,5.6,0l4.8,4.8l19,19
		L434,299z M434.6,288l-13.2-13.2l5-5l13.2,13.2L434.6,288z M561.1,250.5l8.7,8.7c1.5,1.5,1.5,4.1,0,5.6l-25.6,25.6
		c-1.6,1.6-1.6,4.2,0,5.8c1.6,1.6,4.2,1.6,5.8,0l8.4-8.4l1.2,1.2c1.5,1.5,1.5,4.1,0,5.6L498.3,356c-1.5,1.5-4.1,1.5-5.6,0l-1.2-1.2
		l48.9-48.9c1.6-1.6,1.6-4.2,0-5.8c-1.6-1.6-4.2-1.6-5.8,0l-66.1,66.1c-1.5,1.5-4.1,1.5-5.6,0l-8.7-8.7c-5.6-5.6-5.6-14.8,0-20.4
		l15.8-15.8l55.1-55.1l15.8-15.8C546.3,244.8,555.4,244.8,561.1,250.5z M512.4,259.6l3.8,3.8l-49.3,49.3l-3.8-3.8
		c-1.5-1.5-1.5-4.1,0-5.6l1.2-1.2l41.2-41.2l1.2-1.2C508.4,258,510.9,258,512.4,259.6z M473.4,222.8l5-5l13.2,13.2l-5,5L473.4,222.8
		z M502.6,230.3l-2.2-2.2l-19-19l-4.8-4.8c-1.5-1.5-1.5-4.1,0-5.6l20.6-20.6l31.6,31.6l-20.6,20.6
		C506.6,231.9,504.1,231.9,502.6,230.3z M555.2,177.7c1.5,1.5,1.5,4.1,0,5.6l-20.6,20.6L503,172.3l20.6-20.6c1.5-1.5,4.1-1.5,5.6,0
		L555.2,177.7z"/>
</g>
<circle class="st6" cx="522" cy="53.5" r="24.5"/>
<circle class="st6" cx="85.9" cy="253.6" r="11.5"/>
<circle class="st6" cx="63.9" cy="38" r="5"/>
<circle class="st6" cx="212.2" cy="356.8" r="16.8"/>
<circle class="st6" cx="290.2" cy="107.3" r="6.3"/>
</svg>
