<?xml version="1.0" encoding="utf-8"?>
<!-- Generator: Adobe Illustrator 16.0.0, SVG Export Plug-In . SVG Version: 6.00 Build 0)  -->
<!DOCTYPE svg PUBLIC "-//W3C//DTD SVG 1.1//EN" "http://www.w3.org/Graphics/SVG/1.1/DTD/svg11.dtd">
<svg version="1.1" id="Livello_1" xmlns="http://www.w3.org/2000/svg" xmlns:xlink="http://www.w3.org/1999/xlink" x="0px" y="0px"
	 width="600px" height="400px" viewBox="0 0 600 400" enable-background="new 0 0 600 400" xml:space="preserve">
<g>
	<g>
		<circle fill="#FFD961" cx="430.6" cy="142.2" r="20.9"/>
		<circle fill="#FFD961" cx="486.5" cy="142.2" r="20.9"/>
	</g>
	<g>
		<circle fill="#F5F6F6" cx="430.6" cy="142.2" r="8.3"/>
		<circle fill="#F5F6F6" cx="486.5" cy="142.2" r="8.3"/>
	</g>
	<path fill="#5FBF84" d="M427.6,52v20.3c0,16.9,13.7,30.6,30.601,30.6c16.899,0,30.6-13.699,30.6-30.6V21h15.7
		c3.6,0,6.5-2.9,6.5-6.5v-5.4c0-3.6-2.9-6.5-6.5-6.5H412c-3.601,0-6.5,2.9-6.5,6.5v5.4c0,3.6,2.899,6.5,6.5,6.5h15.7v22.7"/>
	<g opacity="0.2">
		<path fill="#231F20" d="M443.3,142.2c0,10.1-7.2,18.6-16.8,20.5c1.3,0.3,2.7,0.399,4.1,0.399c11.601,0,20.9-9.399,20.9-20.899
			c0-11.601-9.4-20.9-20.9-20.9c-1.399,0-2.8,0.1-4.1,0.4C436.1,123.599,443.3,132,443.3,142.2z"/>
	</g>
	<g opacity="0.2">
		<path fill="#231F20" d="M499.2,142.2c0,10.1-7.2,18.6-16.801,20.5c1.301,0.3,2.7,0.399,4.101,0.399
			c11.6,0,20.899-9.399,20.899-20.899c0-11.601-9.399-20.9-20.899-20.9c-1.4,0-2.8,0.1-4.101,0.4C492,123.599,499.2,132,499.2,142.2
			z"/>
	</g>
	<g opacity="0.2">
		<path fill="#231F20" d="M458.2,102.899c16.899,0,30.6-13.699,30.6-30.6v-53.7h-1c-2.2,0.101-7.2,0.9-7.2,6.101v47.699
			c0,15.5-11.5,28.301-26.5,30.301C455.4,102.8,456.8,102.899,458.2,102.899z"/>
	</g>
	<g>
		<path fill="#231F20" d="M412,23.599h13.1v20c0,1.4,1.2,2.601,2.601,2.601c1.399,0,2.6-1.2,2.6-2.601V21c0-1.4-1.2-2.601-2.6-2.601
			H412c-2.101,0-3.9-1.699-3.9-3.899v-5.4c0-2.1,1.7-3.899,3.9-3.899h92.5c2.1,0,3.899,1.699,3.899,3.899v5.4
			c0,2.1-1.699,3.899-3.899,3.899h-15.7c-1.4,0-2.6,1.2-2.6,2.601v51.3c0,15.4-12.5,27.9-27.9,27.9s-27.9-12.5-27.9-27.9V52
			c0-1.4-1.199-2.601-2.6-2.601s-2.6,1.2-2.6,2.601v20.3c0,12.9,7.399,24.1,18.199,29.6l-6.699,17.4c-1.9-0.5-3.9-0.8-5.9-0.8
			c-13,0-23.5,10.6-23.5,23.5c0,13,10.6,23.5,23.5,23.5s23.5-10.601,23.5-23.5c0-9.101-5.2-17-12.7-20.9l6.7-17.3
			c3.2,1,6.6,1.6,10.1,1.6c3.601,0,7.101-0.6,10.4-1.699l6.9,17.5c-7.4,4-12.5,11.8-12.5,20.8c0,13,10.6,23.5,23.5,23.5
			c13,0,23.5-10.601,23.5-23.5c0-13-10.601-23.5-23.5-23.5c-2.101,0-4.2,0.3-6.101,0.8l-6.899-17.6c10.699-5.5,18-16.7,18-29.5
			V23.599h12.8c5,0,9.1-4.1,9.1-9.1v-5.4c0-5-4.1-9.1-9.1-9.1H412c-5,0-9.101,4.1-9.101,9.1v5.4C402.8,19.5,406.9,23.599,412,23.599
			z M448.9,142.2c0,10.1-8.199,18.3-18.3,18.3c-10.1,0-18.3-8.2-18.3-18.3c0-10.101,8.2-18.301,18.3-18.301
			C440.7,123.899,448.9,132.099,448.9,142.2z M504.8,142.2c0,10.1-8.2,18.3-18.3,18.3c-10.101,0-18.3-8.2-18.3-18.3
			c0-10.101,8.199-18.301,18.3-18.301C496.6,123.899,504.8,132.099,504.8,142.2z"/>
		<path fill="#231F20" d="M419.7,142.2c0,6,4.899,10.899,10.899,10.899s10.9-4.899,10.9-10.899s-4.9-10.9-10.9-10.9
			S419.7,136.2,419.7,142.2z M436.3,142.2c0,3.1-2.5,5.699-5.7,5.699c-3.1,0-5.7-2.5-5.7-5.699c0-3.101,2.5-5.7,5.7-5.7
			C433.7,136.5,436.3,139,436.3,142.2z"/>
		<path fill="#231F20" d="M486.5,153.099c6,0,10.899-4.899,10.899-10.899s-4.899-10.9-10.899-10.9s-10.9,4.9-10.9,10.9
			S480.5,153.099,486.5,153.099z M486.5,136.5c3.1,0,5.7,2.5,5.7,5.7c0,3.199-2.5,5.699-5.7,5.699c-3.101,0-5.7-2.5-5.7-5.699
			C480.8,139,483.4,136.5,486.5,136.5z"/>
		<path fill="#231F20" d="M449.3,68.2c0-4.9,4-8.9,8.9-8.9c4.899,0,8.899,4,8.899,8.9c0,1.399,1.2,2.6,2.601,2.6
			c1.399,0,2.6-1.2,2.6-2.6c0-7.801-6.4-14.2-14.2-14.2s-14.2,6.399-14.2,14.2c0,1.399,1.2,2.6,2.601,2.6
			C448.1,70.899,449.3,69.7,449.3,68.2z"/>
	</g>
</g>
<g>
	<g>
		<circle fill="#FFD961" cx="268.5" cy="215.399" r="31.5"/>
		<circle fill="#FFD961" cx="352.6" cy="215.399" r="31.5"/>
	</g>
	<g>
		<circle fill="#F5F6F6" cx="268.5" cy="215.399" r="12.5"/>
		<circle fill="#F5F6F6" cx="352.6" cy="215.399" r="12.5"/>
	</g>
	<path fill="#5FBF84" d="M264,79.8v30.5c0,25.4,20.6,46,46,46c25.399,0,46-20.6,46-46v-77.2h23.6c5.4,0,9.8-4.399,9.8-9.8v-8.1
		c0-5.4-4.399-9.801-9.8-9.801H240.5c-5.4,0-9.801,4.4-9.801,9.801v8.1c0,5.4,4.4,9.8,9.801,9.8h23.6V67.2"/>
	<g opacity="0.2">
		<path fill="#231F20" d="M287.6,215.399c0,15.301-10.9,28-25.3,30.9c2,0.399,4.1,0.6,6.2,0.6c17.399,0,31.5-14.1,31.5-31.5
			c0-17.399-14.101-31.5-31.5-31.5c-2.101,0-4.2,0.2-6.2,0.601C276.699,187.399,287.6,200.099,287.6,215.399z"/>
	</g>
	<g opacity="0.2">
		<path fill="#231F20" d="M371.7,215.399c0,15.301-10.9,28-25.301,30.9c2,0.399,4.101,0.6,6.2,0.6c17.4,0,31.5-14.1,31.5-31.5
			c0-17.399-14.1-31.5-31.5-31.5c-2.1,0-4.2,0.2-6.2,0.601C360.8,187.399,371.7,200.099,371.7,215.399z"/>
	</g>
	<g opacity="0.2">
		<path fill="#231F20" d="M310,156.3c25.399,0,46-20.6,46-46v-80.9h-1.5c-3.3,0.101-10.8,1.301-10.8,9.101v71.8
			c0,23.3-17.301,42.5-39.801,45.6C305.9,156.2,307.9,156.3,310,156.3z"/>
	</g>
	<g>
		<path fill="#231F20" d="M240.4,37h19.7v30.1c0,2.2,1.8,3.9,3.9,3.9c2.199,0,3.899-1.8,3.899-3.9v-34c0-2.2-1.8-3.899-3.899-3.899
			H240.4c-3.2,0-5.8-2.601-5.8-5.801v-8.1c0-3.2,2.6-5.8,5.8-5.8h139.2c3.2,0,5.8,2.6,5.8,5.8v8.1c0,3.2-2.6,5.801-5.8,5.801H356
			c-2.2,0-3.9,1.8-3.9,3.899v77.2c0,23.2-18.899,42-42,42c-23.2,0-42-18.9-42-42V79.8c0-2.2-1.8-3.9-3.9-3.9
			c-2.199,0-3.899,1.801-3.899,3.9v30.5c0,19.4,11.2,36.3,27.399,44.6l-10.1,26.2c-2.9-0.7-5.9-1.1-8.9-1.1
			c-19.5,0-35.399,15.899-35.399,35.399s15.899,35.4,35.399,35.4s35.4-15.9,35.4-35.4c0-13.6-7.8-25.5-19.1-31.399l10-26.101
			c4.8,1.5,9.899,2.4,15.199,2.4c5.5,0,10.7-0.9,15.601-2.5l10.4,26.3c-11.2,6-18.801,17.7-18.801,31.3c0,19.5,15.9,35.4,35.4,35.4
			s35.4-15.9,35.4-35.4S372.3,180,352.8,180c-3.2,0-6.3,0.399-9.2,1.2l-10.5-26.5c16-8.301,27-25.101,27-44.4V37h19.7
			c7.6,0,13.7-6.101,13.7-13.7v-8.1c0-7.601-6.101-13.7-13.7-13.7H240.699C233.1,1.5,227,7.599,227,15.2v8.1
			C226.699,30.899,232.9,37,240.4,37z M296,215.399c0,15.2-12.301,27.5-27.5,27.5c-15.2,0-27.5-12.3-27.5-27.5
			c0-15.199,12.3-27.5,27.5-27.5C283.699,187.8,296,200.2,296,215.399z M380.1,215.399c0,15.2-12.3,27.5-27.5,27.5
			s-27.5-12.3-27.5-27.5c0-15.199,12.3-27.5,27.5-27.5C367.8,187.8,380.1,200.2,380.1,215.399z"/>
		<path fill="#231F20" d="M252.1,215.399c0,9.101,7.4,16.4,16.4,16.4c9.1,0,16.399-7.4,16.399-16.4C284.9,206.3,277.5,199,268.5,199
			C259.5,198.899,252.1,206.3,252.1,215.399z M277,215.399c0,4.7-3.801,8.5-8.5,8.5c-4.7,0-8.5-3.8-8.5-8.5c0-4.699,3.8-8.5,8.5-8.5
			C273.199,206.8,277,210.7,277,215.399z"/>
		<path fill="#231F20" d="M352.6,231.8c9.101,0,16.4-7.4,16.4-16.4S361.6,199,352.6,199c-9.1,0-16.399,7.399-16.399,16.399
			S343.5,231.8,352.6,231.8z M352.6,206.8c4.7,0,8.5,3.8,8.5,8.5s-3.8,8.5-8.5,8.5s-8.5-3.8-8.5-8.5S347.9,206.8,352.6,206.8z"/>
		<path fill="#231F20" d="M296.6,104.2c0-7.4,6-13.4,13.4-13.4c7.399,0,13.399,6,13.399,13.4c0,2.199,1.801,3.899,3.9,3.899
			c2.2,0,3.9-1.8,3.9-3.899c0-11.7-9.601-21.301-21.301-21.301S288.6,92.5,288.6,104.2c0,2.199,1.8,3.899,3.9,3.899
			C294.8,108.099,296.6,106.3,296.6,104.2z"/>
	</g>
</g>
<g>
	<g>
		<circle fill="#FFD961" cx="491.1" cy="169" r="24.8"/>
		<circle fill="#FFD961" cx="557.2" cy="169" r="24.8"/>
	</g>
	<g>
		<circle fill="#F5F6F6" cx="491.1" cy="169" r="9.8"/>
		<circle fill="#F5F6F6" cx="557.2" cy="169" r="9.8"/>
	</g>
	<path fill="#5FBF84" d="M487.6,62.3v24c0,20,16.2,36.2,36.2,36.2S560,106.3,560,86.3v-60.7h18.5c4.2,0,7.7-3.399,7.7-7.7V11.5
		c0-4.2-3.4-7.7-7.7-7.7H469c-4.2,0-7.7,3.4-7.7,7.7v6.399c0,4.2,3.4,7.7,7.7,7.7h18.6v26.8"/>
	<g opacity="0.2">
		<path fill="#231F20" d="M506.1,169c0,12-8.6,22-19.899,24.3c1.6,0.3,3.199,0.5,4.899,0.5c13.7,0,24.8-11.1,24.8-24.8
			s-11.1-24.8-24.8-24.8c-1.7,0-3.3,0.199-4.899,0.5C497.6,147,506.1,157,506.1,169z"/>
	</g>
	<g opacity="0.2">
		<path fill="#231F20" d="M572.3,169c0,12-8.6,22-19.9,24.3c1.601,0.3,3.2,0.5,4.9,0.5c13.7,0,24.8-11.1,24.8-24.8
			s-11.1-24.8-24.8-24.8c-1.7,0-3.3,0.199-4.9,0.5C563.7,147,572.3,157,572.3,169z"/>
	</g>
	<g opacity="0.2">
		<path fill="#231F20" d="M523.7,122.5c20,0,36.199-16.2,36.199-36.2V22.7H558.7c-2.601,0.1-8.5,1.1-8.5,7.199v56.5
			c0,18.301-13.601,33.5-31.301,35.9C520.5,122.399,522.1,122.5,523.7,122.5z"/>
	</g>
	<g>
		<path fill="#231F20" d="M469,28.7h15.5v23.699c0,1.7,1.399,3.101,3.1,3.101s3.101-1.4,3.101-3.101v-26.8c0-1.7-1.4-3.1-3.101-3.1
			H469c-2.5,0-4.601-2.101-4.601-4.601V11.5c0-2.5,2.101-4.601,4.601-4.601h109.5c2.5,0,4.6,2.101,4.6,4.601v6.399
			c0,2.5-2.1,4.601-4.6,4.601H559.9c-1.699,0-3.1,1.399-3.1,3.1v60.8c0,18.2-14.8,33.101-33.1,33.101
			c-18.301,0-33.101-14.8-33.101-33.101v-24c0-1.699-1.399-3.1-3.1-3.1s-3.101,1.4-3.101,3.1v24C484.4,101.7,493.2,115,506,121.5
			l-7.9,20.6c-2.2-0.6-4.6-0.899-7-0.899c-15.399,0-27.899,12.5-27.899,27.899c0,15.4,12.5,27.9,27.899,27.9
			c15.4,0,27.8-12.7,27.8-28c0-10.7-6.1-20.101-15-24.7l7.9-20.5c3.8,1.2,7.8,1.9,11.9,1.9c4.3,0,8.399-0.7,12.3-2l8.2,20.699
			c-8.801,4.7-14.801,14-14.801,24.601c0,15.399,12.5,27.899,27.9,27.899s27.9-12.5,27.9-27.899c0-15.4-12.5-27.9-27.9-27.9
			c-2.5,0-5,0.3-7.3,1l-8.2-20.899c12.6-6.5,21.3-19.7,21.3-34.9V28.7h15.4c5.899,0,10.8-4.801,10.8-10.801V11.5
			c0-6-4.9-10.8-10.8-10.8H469c-5.9,0-10.8,4.8-10.8,10.8v6.399C458.2,23.8,463,28.7,469,28.7z M512.7,169
			c0,11.899-9.7,21.7-21.7,21.7s-21.7-9.7-21.7-21.7c0-11.9,9.7-21.7,21.7-21.7S512.7,157,512.7,169z M578.9,169
			c0,11.899-9.699,21.7-21.699,21.7c-11.9,0-21.7-9.7-21.7-21.7c0-11.9,9.7-21.7,21.7-21.7S578.9,157,578.9,169z"/>
		<path fill="#231F20" d="M478.2,169c0,7.1,5.8,12.899,12.899,12.899c7.101,0,12.9-5.8,12.9-12.899c0-7.101-5.8-12.9-12.9-12.9
			C484,156.099,478.2,161.899,478.2,169z M497.8,169c0,3.7-3,6.7-6.7,6.7s-6.7-3-6.7-6.7s3-6.7,6.7-6.7S497.8,165.3,497.8,169z"/>
		<path fill="#231F20" d="M557.2,181.899c7.1,0,12.899-5.8,12.899-12.899c0-7.101-5.8-12.9-12.899-12.9c-7.101,0-12.9,5.8-12.9,12.9
			C544.3,176.099,550.1,181.899,557.2,181.899z M557.2,162.3c3.699,0,6.699,3,6.699,6.7s-3,6.7-6.699,6.7c-3.7,0-6.7-3-6.7-6.7
			S553.5,162.3,557.2,162.3z"/>
		<path fill="#231F20" d="M513.2,81.5c0-5.8,4.699-10.601,10.6-10.601c5.8,0,10.6,4.7,10.6,10.601c0,1.7,1.4,3.1,3.101,3.1
			s3.1-1.399,3.1-3.1c0-9.2-7.5-16.8-16.8-16.8c-9.2,0-16.8,7.5-16.8,16.8c0,1.7,1.399,3.1,3.1,3.1S513.2,83.2,513.2,81.5z"/>
	</g>
</g>
<g>
	<g>
		<circle fill="#FFD961" cx="459.5" cy="82.599" r="12"/>
		<circle fill="#FFD961" cx="491.7" cy="82.599" r="12"/>
	</g>
	<g>
		<circle fill="#F5F6F6" cx="459.5" cy="82.599" r="4.8"/>
		<circle fill="#F5F6F6" cx="491.7" cy="82.599" r="4.8"/>
	</g>
	<path fill="#5FBF84" d="M457.8,30.7v11.699c0,9.7,7.9,17.601,17.6,17.601c9.7,0,17.601-7.9,17.601-17.601V12.8h9
		c2.1,0,3.7-1.7,3.7-3.7v-3.2c0-2.1-1.7-3.699-3.7-3.699h-53.3c-2.101,0-3.7,1.699-3.7,3.699V9c0,2.1,1.7,3.7,3.7,3.7h9v13"/>
	<g opacity="0.2">
		<path fill="#231F20" d="M466.8,82.599c0,5.8-4.2,10.7-9.7,11.8c0.8,0.2,1.601,0.2,2.4,0.2c6.7,0,12-5.399,12-12
			c0-6.7-5.4-12-12-12c-0.8,0-1.601,0.101-2.4,0.2C462.6,71.8,466.8,76.7,466.8,82.599z"/>
	</g>
	<g opacity="0.2">
		<path fill="#231F20" d="M499,82.599c0,5.8-4.2,10.7-9.7,11.8c0.8,0.2,1.6,0.2,2.4,0.2c6.699,0,12-5.399,12-12c0-6.7-5.4-12-12-12
			c-0.801,0-1.601,0.101-2.4,0.2C494.8,71.8,499,76.7,499,82.599z"/>
	</g>
	<g opacity="0.2">
		<path fill="#231F20" d="M475.4,59.899C485.1,59.899,493,52,493,42.3v-31H492.4c-1.3,0.1-4.1,0.5-4.1,3.5v27.5
			c0,8.9-6.6,16.3-15.2,17.4C473.8,59.899,474.6,59.899,475.4,59.899z"/>
	</g>
	<g>
		<path fill="#231F20" d="M448.7,14.3h7.5v11.5c0,0.8,0.699,1.5,1.5,1.5c0.8,0,1.5-0.7,1.5-1.5v-13c0-0.8-0.7-1.5-1.5-1.5h-9
			c-1.2,0-2.2-1-2.2-2.2v-3.2c0-1.199,1-2.199,2.2-2.199H502c1.2,0,2.2,1,2.2,2.199V9c0,1.2-1,2.2-2.2,2.2h-9
			c-0.8,0-1.5,0.699-1.5,1.5v29.6c0,8.9-7.2,16.1-16.101,16.1c-8.899,0-16.1-7.199-16.1-16.1V30.7c0-0.801-0.7-1.5-1.5-1.5
			s-1.5,0.699-1.5,1.5v11.699c0,7.4,4.3,13.9,10.5,17.101l-3.9,10c-1.1-0.3-2.199-0.4-3.399-0.4C452,69.099,445.9,75.2,445.9,82.7
			S452,96.3,459.5,96.3s13.6-6.1,13.6-13.6c0-5.2-3-9.801-7.3-12l3.8-10c1.8,0.6,3.8,0.899,5.8,0.899c2.101,0,4.101-0.3,6-1
			l4,10.101c-4.3,2.3-7.199,6.8-7.199,12c0,7.5,6.1,13.6,13.6,13.6s13.6-6.1,13.6-13.6s-6.1-13.601-13.6-13.601
			c-1.2,0-2.4,0.2-3.5,0.5l-4-10.1c6.1-3.2,10.3-9.601,10.3-17V14.3h7.5c2.9,0,5.2-2.4,5.2-5.2v-3.2c0-2.899-2.4-5.199-5.2-5.199
			h-53.3c-2.9,0-5.2,2.399-5.2,5.199V9C443.5,11.899,445.8,14.3,448.7,14.3z M470,82.599c0,5.8-4.7,10.5-10.5,10.5
			s-10.5-4.7-10.5-10.5s4.7-10.5,10.5-10.5C465.3,72,470,76.7,470,82.599z M502.2,82.599c0,5.8-4.7,10.5-10.5,10.5
			c-5.801,0-10.5-4.7-10.5-10.5s4.699-10.5,10.5-10.5C497.5,72,502.2,76.7,502.2,82.599z"/>
		<path fill="#231F20" d="M453.2,82.599c0,3.5,2.8,6.3,6.3,6.3s6.3-2.8,6.3-6.3s-2.8-6.3-6.3-6.3S453.2,79.099,453.2,82.599z
			 M462.7,82.599c0,1.8-1.5,3.3-3.301,3.3c-1.8,0-3.3-1.5-3.3-3.3s1.5-3.3,3.3-3.3C461.3,79.3,462.7,80.8,462.7,82.599z"/>
		<path fill="#231F20" d="M491.7,88.8c3.5,0,6.3-2.8,6.3-6.3s-2.8-6.3-6.3-6.3S485.4,79,485.4,82.5S488.2,88.8,491.7,88.8z
			 M491.7,79.3c1.8,0,3.3,1.5,3.3,3.3s-1.5,3.3-3.3,3.3c-1.801,0-3.301-1.5-3.301-3.3S489.9,79.3,491.7,79.3z"/>
		<path fill="#231F20" d="M470.2,40c0-2.8,2.3-5.101,5.1-5.101s5.1,2.301,5.1,5.101c0,0.8,0.7,1.5,1.5,1.5c0.801,0,1.5-0.7,1.5-1.5
			c0-4.5-3.699-8.2-8.199-8.2S467,35.5,467,40c0,0.8,0.7,1.5,1.5,1.5C469.5,41.5,470.2,40.8,470.2,40z"/>
	</g>
</g>
<g>
	<g>
		<circle fill="#FFD961" cx="306.1" cy="66.2" r="9.3"/>
		<circle fill="#FFD961" cx="330.9" cy="66.2" r="9.3"/>
	</g>
	<g>
		<circle fill="#F5F6F6" cx="306.1" cy="66.2" r="3.7"/>
		<circle fill="#F5F6F6" cx="330.9" cy="66.2" r="3.7"/>
	</g>
	<path fill="#5FBF84" d="M304.699,26.099v9c0,7.5,6.101,13.601,13.601,13.601s13.6-6.101,13.6-13.601V12.3h7
		c1.601,0,2.9-1.3,2.9-2.9V7c0-1.601-1.3-2.9-2.9-2.9h-41.2c-1.6,0-2.899,1.3-2.899,2.9v2.399c0,1.601,1.3,2.9,2.899,2.9h7v10.1"/>
	<g opacity="0.2">
		<path fill="#231F20" d="M311.699,66.2c0,4.5-3.199,8.3-7.5,9.1c0.601,0.1,1.2,0.2,1.801,0.2c5.1,0,9.3-4.2,9.3-9.3
			c0-5.101-4.2-9.301-9.3-9.301c-0.601,0-1.2,0.101-1.801,0.2C308.5,57.899,311.699,61.7,311.699,66.2z"/>
	</g>
	<g opacity="0.2">
		<path fill="#231F20" d="M336.6,66.2c0,4.5-3.2,8.3-7.5,9.1c0.601,0.1,1.2,0.2,1.8,0.2c5.101,0,9.301-4.2,9.301-9.3
			c0-5.101-4.2-9.301-9.301-9.301c-0.6,0-1.199,0.101-1.8,0.2C333.4,57.899,336.6,61.7,336.6,66.2z"/>
	</g>
	<g opacity="0.2">
		<path fill="#231F20" d="M318.3,48.7c7.5,0,13.6-6.101,13.6-13.601V11.2h-0.5c-1,0-3.199,0.399-3.199,2.699v21.2
			c0,6.9-5.101,12.601-11.801,13.5C317.1,48.7,317.7,48.7,318.3,48.7z"/>
	</g>
	<g>
		<path fill="#231F20" d="M297.8,13.5h5.8v8.899c0,0.601,0.5,1.2,1.2,1.2c0.6,0,1.2-0.5,1.2-1.2V12.3c0-0.6-0.5-1.2-1.2-1.2h-7
			c-0.9,0-1.7-0.8-1.7-1.7V7c0-0.9,0.8-1.7,1.7-1.7H339c0.899,0,1.7,0.8,1.7,1.7v2.399c0,0.9-0.801,1.7-1.7,1.7h-7
			c-0.601,0-1.2,0.5-1.2,1.2v22.8c0,6.9-5.6,12.4-12.4,12.4c-6.8,0-12.399-5.601-12.399-12.4v-9c0-0.6-0.5-1.2-1.2-1.2
			c-0.601,0-1.2,0.5-1.2,1.2v9c0,5.8,3.3,10.7,8.1,13.2l-3,7.8c-0.8-0.2-1.7-0.3-2.6-0.3c-5.8,0-10.5,4.7-10.5,10.5
			s4.7,10.5,10.5,10.5s10.5-4.7,10.5-10.5c0-4-2.3-7.5-5.7-9.3l3-7.7c1.4,0.5,2.9,0.7,4.5,0.7c1.601,0,3.2-0.3,4.601-0.7l3.1,7.8
			c-3.3,1.8-5.6,5.2-5.6,9.2c0,5.8,4.7,10.5,10.5,10.5s10.5-4.7,10.5-10.5s-4.7-10.5-10.5-10.5c-0.9,0-1.9,0.1-2.7,0.4l-3.101-7.801
			c4.7-2.5,8-7.399,8-13.1V13.5H339c2.199,0,4.1-1.8,4.1-4.101V7c0-2.2-1.8-4.101-4.1-4.101h-41.2c-2.2,0-4.101,1.801-4.101,4.101
			v2.399C293.699,11.599,295.5,13.5,297.8,13.5z M314.199,66.2c0,4.5-3.699,8.1-8.1,8.1s-8.1-3.7-8.1-8.1
			c0-4.5,3.699-8.101,8.1-8.101C310.6,58.099,314.199,61.7,314.199,66.2z M339.1,66.2c0,4.5-3.7,8.1-8.1,8.1
			c-4.5,0-8.101-3.7-8.101-8.1c0-4.5,3.7-8.101,8.101-8.101C335.4,58.099,339.1,61.7,339.1,66.2z"/>
		<path fill="#231F20" d="M301.199,66.2c0,2.699,2.2,4.899,4.9,4.899s4.9-2.2,4.9-4.899c0-2.7-2.2-4.9-4.9-4.9
			C303.4,61.399,301.199,63.5,301.199,66.2z M308.6,66.2c0,1.399-1.1,2.5-2.5,2.5s-2.5-1.101-2.5-2.5c0-1.4,1.1-2.5,2.5-2.5
			S308.6,64.8,308.6,66.2z"/>
		<path fill="#231F20" d="M330.9,71.099c2.7,0,4.9-2.2,4.9-4.899c0-2.7-2.2-4.9-4.9-4.9c-2.699,0-4.899,2.2-4.899,4.9
			C326.1,68.899,328.3,71.099,330.9,71.099z M330.9,63.7c1.4,0,2.5,1.1,2.5,2.5c0,1.399-1.1,2.5-2.5,2.5c-1.399,0-2.5-1.101-2.5-2.5
			C328.4,64.8,329.5,63.7,330.9,63.7z"/>
		<path fill="#231F20" d="M314.4,33.3c0-2.2,1.801-4,4-4c2.2,0,4,1.8,4,4c0,0.6,0.5,1.2,1.2,1.2c0.601,0,1.2-0.5,1.2-1.2
			c0-3.5-2.8-6.3-6.3-6.3s-6.301,2.8-6.301,6.3c0,0.6,0.5,1.2,1.2,1.2C313.9,34.5,314.4,34,314.4,33.3z"/>
	</g>
</g>
<g>
	<g>
		<circle fill="#FFD961" cx="347.8" cy="56.8" r="7.9"/>
		<circle fill="#FFD961" cx="369" cy="56.8" r="7.9"/>
	</g>
	<g>
		<circle fill="#F5F6F6" cx="347.8" cy="56.8" r="3.1"/>
		<circle fill="#F5F6F6" cx="369" cy="56.8" r="3.1"/>
	</g>
	<path fill="#5FBF84" d="M346.6,22.599v7.7c0,6.4,5.2,11.6,11.601,11.6c6.399,0,11.6-5.199,11.6-11.6v-19.4h5.9
		c1.399,0,2.5-1.1,2.5-2.5V6.3c0-1.4-1.101-2.5-2.5-2.5H340.6c-1.399,0-2.5,1.1-2.5,2.5v2.1c0,1.4,1.101,2.5,2.5,2.5h5.9V19.5"/>
	<g opacity="0.2">
		<path fill="#231F20" d="M352.6,56.8c0,3.8-2.7,7.1-6.399,7.8c0.5,0.101,1,0.2,1.6,0.2c4.4,0,7.9-3.6,7.9-7.9
			C355.7,52.5,352.1,49,347.8,49c-0.5,0-1.1,0.1-1.6,0.2C349.8,49.8,352.6,53,352.6,56.8z"/>
	</g>
	<g opacity="0.2">
		<path fill="#231F20" d="M373.8,56.8c0,3.8-2.7,7.1-6.4,7.8c0.5,0.101,1,0.2,1.601,0.2c4.399,0,7.899-3.6,7.899-7.9
			C376.9,52.5,373.3,49,369,49c-0.5,0-1.101,0.1-1.601,0.2C371,49.8,373.8,53,373.8,56.8z"/>
	</g>
	<g opacity="0.2">
		<path fill="#231F20" d="M358.2,41.899c6.399,0,11.6-5.199,11.6-11.6v-20.4h-0.4c-0.8,0-2.699,0.301-2.699,2.301v18.1
			c0,5.9-4.4,10.7-10,11.5C357.2,41.899,357.7,41.899,358.2,41.899z"/>
	</g>
	<g>
		<path fill="#231F20" d="M340.7,11.899h5V19.5c0,0.5,0.399,1,1,1c0.5,0,1-0.4,1-1v-8.601c0-0.5-0.4-1-1-1h-5.9
			c-0.8,0-1.5-0.699-1.5-1.5V6.3c0-0.8,0.7-1.5,1.5-1.5h35.1c0.801,0,1.5,0.7,1.5,1.5v2.1c0,0.801-0.699,1.5-1.5,1.5H370
			c-0.5,0-1,0.4-1,1v19.5C369,36.2,364.2,41,358.4,41c-5.8,0-10.6-4.8-10.6-10.601V22.7c0-0.5-0.4-1-1-1c-0.5,0-1,0.399-1,1v7.699
			c0,4.9,2.8,9.2,6.9,11.2l-2.5,6.601c-0.7-0.2-1.5-0.301-2.301-0.301c-4.899,0-8.899,4-8.899,8.9s4,8.9,8.899,8.9
			c4.9,0,8.9-4,8.9-8.9c0-3.4-2-6.4-4.8-7.9l2.5-6.6c1.2,0.4,2.5,0.6,3.8,0.6c1.4,0,2.7-0.199,3.9-0.6l2.6,6.6
			c-2.8,1.5-4.7,4.5-4.7,7.9c0,4.9,4,8.9,8.9,8.9c4.899,0,8.899-4,8.899-8.9s-4-8.9-8.899-8.9c-0.8,0-1.601,0.101-2.3,0.301
			l-2.601-6.7c4-2.101,6.8-6.3,6.8-11.2v-18.4h5c1.9,0,3.5-1.6,3.5-3.5v-2c0-1.899-1.6-3.5-3.5-3.5h-35.1c-1.9,0-3.5,1.601-3.5,3.5
			V8.5C337.2,10.3,338.8,11.899,340.7,11.899z M354.7,56.8c0,3.8-3.101,6.9-6.9,6.9s-6.9-3.101-6.9-6.9s3.101-6.9,6.9-6.9
			S354.7,53,354.7,56.8z M375.9,56.8c0,3.8-3.1,6.9-6.899,6.9s-6.9-3.101-6.9-6.9s3.101-6.9,6.9-6.9S375.9,53,375.9,56.8z"/>
		<path fill="#231F20" d="M343.6,56.8c0,2.3,1.9,4.1,4.101,4.1c2.3,0,4.1-1.899,4.1-4.1c0-2.3-1.9-4.1-4.1-4.1
			C345.5,52.7,343.6,54.5,343.6,56.8z M349.9,56.8c0,1.2-1,2.2-2.199,2.2c-1.2,0-2.2-1-2.2-2.2s1-2.2,2.2-2.2
			C348.9,54.7,349.9,55.599,349.9,56.8z"/>
		<path fill="#231F20" d="M369,61c2.3,0,4.1-1.9,4.1-4.101c0-2.199-1.899-4.1-4.1-4.1c-2.3,0-4.101,1.9-4.101,4.1
			C364.8,59.099,366.7,61,369,61z M369,54.7c1.2,0,2.2,1,2.2,2.199c0,1.2-1,2.2-2.2,2.2s-2.2-1-2.2-2.2
			C366.8,55.599,367.8,54.7,369,54.7z"/>
		<path fill="#231F20" d="M354.8,28.8c0-1.9,1.5-3.4,3.4-3.4c1.899,0,3.399,1.5,3.399,3.4c0,0.5,0.4,1,1,1c0.5,0,1-0.4,1-1
			c0-3-2.399-5.4-5.399-5.4s-5.4,2.4-5.4,5.4c0,0.5,0.4,1,1,1S354.8,29.3,354.8,28.8z"/>
	</g>
</g>
<g>
	<g>
		<circle fill="#FFD961" cx="503.5" cy="55.3" r="7.9"/>
		<circle fill="#FFD961" cx="524.7" cy="55.3" r="7.9"/>
	</g>
	<g>
		<circle fill="#F5F6F6" cx="503.5" cy="55.3" r="3.1"/>
		<circle fill="#F5F6F6" cx="524.7" cy="55.3" r="3.1"/>
	</g>
	<path fill="#5FBF84" d="M502.3,21.2v7.699c0,6.4,5.2,11.601,11.6,11.601c6.4,0,11.601-5.2,11.601-11.601v-19.5h6
		c1.399,0,2.5-1.1,2.5-2.5v-2c0-1.399-1.101-2.5-2.5-2.5H496.4c-1.399,0-2.5,1.101-2.5,2.5V7c0,1.399,1.101,2.5,2.5,2.5h5.9V18"/>
	<g opacity="0.2">
		<path fill="#231F20" d="M508.3,55.3c0,3.8-2.7,7.1-6.4,7.8c0.5,0.101,1,0.2,1.601,0.2c4.399,0,7.899-3.6,7.899-7.9
			c0-4.399-3.6-7.899-7.899-7.899c-0.5,0-1.101,0.1-1.601,0.2C505.5,48.3,508.3,51.5,508.3,55.3z"/>
	</g>
	<g opacity="0.2">
		<path fill="#231F20" d="M529.5,55.3c0,3.8-2.7,7.1-6.4,7.8c0.5,0.101,1,0.2,1.601,0.2c4.399,0,7.899-3.6,7.899-7.9
			C532.6,51,529,47.5,524.7,47.5c-0.5,0-1.101,0.1-1.601,0.2C526.7,48.3,529.5,51.5,529.5,55.3z"/>
	</g>
	<g opacity="0.2">
		<path fill="#231F20" d="M513.9,40.5c6.4,0,11.601-5.2,11.601-11.601V8.5h-0.4c-0.8,0-2.7,0.3-2.7,2.3v18.1
			c0,5.9-4.399,10.7-10,11.5C512.9,40.399,513.4,40.5,513.9,40.5z"/>
	</g>
	<g>
		<path fill="#231F20" d="M496.4,10.399h5V18c0,0.5,0.4,1,1,1c0.5,0,1-0.4,1-1V9.399c0-0.5-0.399-1-1-1H496.5
			c-0.8,0-1.5-0.699-1.5-1.5v-2c0-0.8,0.7-1.5,1.5-1.5h35c0.8,0,1.5,0.7,1.5,1.5V7c0,0.8-0.7,1.5-1.5,1.5h-6c-0.5,0-1,0.399-1,1V29
			c0,5.8-4.8,10.6-10.601,10.6c-5.8,0-10.6-4.8-10.6-10.6v-7.7c0-0.5-0.4-1-1-1c-0.5,0-1,0.4-1,1V29c0,4.899,2.8,9.2,6.9,11.2
			l-2.5,6.6c-0.7-0.2-1.5-0.3-2.301-0.3c-4.899,0-8.899,4-8.899,8.899c0,4.9,4,8.9,8.899,8.9c4.9,0,8.9-4,8.9-8.9
			c0-3.399-2-6.399-4.8-7.899l2.5-6.601c1.2,0.4,2.5,0.601,3.8,0.601c1.4,0,2.7-0.2,3.9-0.601l2.6,6.601c-2.8,1.5-4.7,4.5-4.7,7.899
			c0,4.9,4,8.9,8.9,8.9c4.899,0,8.899-4,8.899-8.9c0-4.899-4-8.899-8.899-8.899c-0.8,0-1.601,0.1-2.3,0.3l-2.601-6.7
			c4-2.1,6.8-6.3,6.8-11.2v-18.5h5c1.9,0,3.5-1.6,3.5-3.5v-2c0-1.899-1.6-3.5-3.5-3.5h-35.1c-1.9,0-3.5,1.601-3.5,3.5V7
			C492.9,8.8,494.5,10.399,496.4,10.399z M510.4,55.3c0,3.8-3.1,6.9-6.899,6.9s-6.9-3.101-6.9-6.9s3.101-6.9,6.9-6.9
			S510.4,51.5,510.4,55.3z M531.6,55.3c0,3.8-3.1,6.9-6.899,6.9c-3.801,0-6.9-3.101-6.9-6.9s3.1-6.9,6.9-6.9
			C528.5,48.399,531.6,51.5,531.6,55.3z"/>
		<path fill="#231F20" d="M499.3,55.3c0,2.3,1.9,4.1,4.1,4.1c2.301,0,4.101-1.899,4.101-4.1c0-2.3-1.9-4.1-4.101-4.1
			C501.2,51.2,499.3,53.099,499.3,55.3z M505.6,55.3c0,1.2-1,2.2-2.2,2.2c-1.199,0-2.199-1-2.199-2.2s1-2.2,2.199-2.2
			C504.6,53.2,505.6,54.2,505.6,55.3z"/>
		<path fill="#231F20" d="M524.7,59.5c2.3,0,4.1-1.9,4.1-4.101c0-2.199-1.9-4.1-4.1-4.1c-2.301,0-4.101,1.9-4.101,4.1
			C520.5,57.599,522.4,59.5,524.7,59.5z M524.7,53.2c1.199,0,2.199,1,2.199,2.199c0,1.2-1,2.2-2.199,2.2c-1.2,0-2.2-1-2.2-2.2
			C522.5,54.2,523.5,53.2,524.7,53.2z"/>
		<path fill="#231F20" d="M510.5,27.3c0-1.9,1.5-3.4,3.399-3.4c1.9,0,3.4,1.5,3.4,3.4c0,0.5,0.4,1,1,1c0.5,0,1-0.4,1-1
			c0-3-2.4-5.4-5.4-5.4s-5.399,2.4-5.399,5.4c0,0.5,0.399,1,1,1C510.1,28.3,510.5,27.899,510.5,27.3z"/>
	</g>
</g>
<g>
	<g>
		<circle fill="#FFD961" cx="384.9" cy="118" r="17.3"/>
		<circle fill="#FFD961" cx="431.1" cy="118" r="17.3"/>
	</g>
	<g>
		<circle fill="#F5F6F6" cx="384.9" cy="118" r="6.8"/>
		<circle fill="#F5F6F6" cx="431.1" cy="118" r="6.8"/>
	</g>
	<path fill="#5FBF84" d="M382.5,43.599v16.8c0,13.9,11.3,25.2,25.2,25.2c13.899,0,25.199-11.3,25.199-25.2V18h12.9
		c3,0,5.4-2.4,5.4-5.4V8.2c0-3-2.4-5.4-5.4-5.4h-76.3c-3,0-5.4,2.4-5.4,5.4v4.5c0,3,2.4,5.399,5.4,5.399h13v18.7"/>
	<g opacity="0.2">
		<path fill="#231F20" d="M395.4,118c0,8.399-6,15.399-13.899,16.899c1.1,0.2,2.2,0.301,3.399,0.301c9.5,0,17.301-7.7,17.301-17.301
			c0-9.5-7.7-17.3-17.301-17.3c-1.199,0-2.3,0.101-3.399,0.3C389.5,102.599,395.4,109.599,395.4,118z"/>
	</g>
	<g opacity="0.2">
		<path fill="#231F20" d="M441.6,118c0,8.399-6,15.399-13.899,16.899c1.1,0.2,2.199,0.301,3.399,0.301c9.5,0,17.3-7.7,17.3-17.301
			c0-9.5-7.699-17.3-17.3-17.3c-1.2,0-2.3,0.101-3.399,0.3C435.6,102.599,441.6,109.599,441.6,118z"/>
	</g>
	<g opacity="0.2">
		<path fill="#231F20" d="M407.7,85.599c13.899,0,25.199-11.3,25.199-25.2V16h-0.8c-1.8,0.1-5.899,0.7-5.899,5v39.399
			c0,12.801-9.5,23.301-21.801,25C405.4,85.5,406.6,85.599,407.7,85.599z"/>
	</g>
	<g>
		<path fill="#231F20" d="M369.5,20.099h10.8v16.5c0,1.2,1,2.2,2.2,2.2s2.2-1,2.2-2.2V18c0-1.2-1-2.2-2.2-2.2h-13
			c-1.8,0-3.2-1.4-3.2-3.2V8.2c0-1.801,1.4-3.2,3.2-3.2H445.9c1.801,0,3.2,1.399,3.2,3.2v4.5c0,1.8-1.399,3.199-3.2,3.199H433
			c-1.2,0-2.2,1-2.2,2.2v42.4c0,12.7-10.3,23.1-23.1,23.1c-12.7,0-23.101-10.3-23.101-23.1v-16.9c0-1.2-1-2.2-2.2-2.2
			c-1.199,0-2.199,1-2.199,2.2v16.8c0,10.7,6.1,19.9,15.1,24.5l-5.5,14.4c-1.6-0.4-3.2-0.6-4.9-0.6
			c-10.699,0-19.399,8.699-19.399,19.399s8.7,19.4,19.399,19.4c10.7,0,19.4-8.7,19.4-19.4c0-7.5-4.3-14-10.5-17.2l5.5-14.3
			c2.6,0.8,5.4,1.3,8.3,1.3c3,0,5.9-0.5,8.601-1.399L421.9,101c-6.1,3.3-10.3,9.7-10.3,17.2c0,10.699,8.7,19.399,19.4,19.399
			s19.399-8.7,19.399-19.399c0-10.7-8.699-19.4-19.399-19.4c-1.8,0-3.5,0.2-5.101,0.7L420.2,85C429,80.399,435,71.199,435,60.7V20.2
			h10.8c4.1,0,7.5-3.4,7.5-7.5V8.2c0-4.101-3.4-7.5-7.5-7.5h-76.4c-4.1,0-7.5,3.399-7.5,7.5v4.5C362,16.8,365.4,20.099,369.5,20.099
			z M400,118c0,8.3-6.8,15.1-15.101,15.1c-8.3,0-15.1-6.8-15.1-15.1s6.8-15.101,15.1-15.101C393.3,102.899,400,109.7,400,118z
			 M446.2,118c0,8.3-6.801,15.1-15.101,15.1S416,126.3,416,118s6.8-15.101,15.1-15.101S446.2,109.7,446.2,118z"/>
		<path fill="#231F20" d="M375.9,118c0,5,4,9,9,9s9-4,9-9s-4-9-9-9C380,109,375.9,113,375.9,118z M389.6,118c0,2.6-2.1,4.7-4.7,4.7
			c-2.6,0-4.699-2.101-4.699-4.7c0-2.601,2.1-4.7,4.699-4.7C387.5,113.3,389.6,115.399,389.6,118z"/>
		<path fill="#231F20" d="M431.1,127c5,0,9-4,9-9s-4-9-9-9s-9,4-9,9S426.1,127,431.1,127z M431.1,113.3c2.601,0,4.7,2.1,4.7,4.7
			c0,2.6-2.1,4.7-4.7,4.7c-2.6,0-4.7-2.101-4.7-4.7C426.4,115.399,428.5,113.3,431.1,113.3z"/>
		<path fill="#231F20" d="M400.3,57c0-4.101,3.3-7.4,7.4-7.4c4.1,0,7.399,3.3,7.399,7.4c0,1.2,1,2.2,2.2,2.2s2.2-1,2.2-2.2
			c0-6.4-5.2-11.7-11.7-11.7c-6.4,0-11.7,5.2-11.7,11.7c0,1.2,1,2.2,2.2,2.2C399.4,59.099,400.3,58.2,400.3,57z"/>
	</g>
</g>
<g>
	<g>
		<circle fill="#FFD961" cx="526.9" cy="64" r="9.3"/>
		<circle fill="#FFD961" cx="551.7" cy="64" r="9.3"/>
	</g>
	<g>
		<circle fill="#F5F6F6" cx="526.9" cy="64" r="3.7"/>
		<circle fill="#F5F6F6" cx="551.7" cy="64" r="3.7"/>
	</g>
	<path fill="#5FBF84" d="M525.5,23.899v9c0,7.5,6.1,13.601,13.6,13.601S552.7,40.399,552.7,32.899v-22.8h7
		c1.6,0,2.899-1.3,2.899-2.899V4.8c0-1.6-1.3-2.9-2.899-2.9h-41.2c-1.601,0-2.9,1.301-2.9,2.9v2.4c0,1.6,1.3,2.899,2.9,2.899h7V20.2
		"/>
	<g opacity="0.2">
		<path fill="#231F20" d="M532.5,64c0,4.5-3.2,8.3-7.5,9.1c0.6,0.101,1.2,0.2,1.8,0.2c5.1,0,9.3-4.2,9.3-9.3
			c0-5.101-4.2-9.3-9.3-9.3c-0.6,0-1.2,0.1-1.8,0.199C529.3,55.7,532.5,59.5,532.5,64z"/>
	</g>
	<g opacity="0.2">
		<path fill="#231F20" d="M557.4,64c0,4.5-3.199,8.3-7.5,9.1c0.601,0.101,1.2,0.2,1.801,0.2c5.1,0,9.3-4.2,9.3-9.3
			c0-5.101-4.2-9.3-9.3-9.3c-0.601,0-1.2,0.1-1.801,0.199C554.2,55.7,557.4,59.5,557.4,64z"/>
	</g>
	<g opacity="0.2">
		<path fill="#231F20" d="M539.1,46.5c7.5,0,13.601-6.101,13.601-13.601V9h-0.5c-1,0-3.2,0.399-3.2,2.7v21.199
			c0,6.9-5.101,12.601-11.8,13.5C537.9,46.5,538.5,46.5,539.1,46.5z"/>
	</g>
	<g>
		<path fill="#231F20" d="M518.6,11.3h5.8v8.9c0,0.6,0.5,1.199,1.2,1.199c0.601,0,1.2-0.5,1.2-1.199V10.099c0-0.6-0.5-1.2-1.2-1.2
			h-7c-0.899,0-1.7-0.8-1.7-1.699V4.8c0-0.9,0.801-1.7,1.7-1.7h41.2c0.9,0,1.7,0.8,1.7,1.7v2.4c0,0.899-0.8,1.699-1.7,1.699h-7
			c-0.6,0-1.2,0.5-1.2,1.2v22.8c0,6.9-5.6,12.4-12.399,12.4c-6.801,0-12.4-5.6-12.4-12.4v-9c0-0.6-0.5-1.199-1.2-1.199
			c-0.6,0-1.2,0.5-1.2,1.199v9c0,5.801,3.301,10.7,8.101,13.2l-3,7.8c-0.8-0.199-1.7-0.3-2.601-0.3c-5.8,0-10.5,4.7-10.5,10.5
			s4.7,10.5,10.5,10.5c5.801,0,10.5-4.7,10.5-10.5c0-4-2.3-7.5-5.699-9.3l3-7.7c1.399,0.5,2.899,0.7,4.5,0.7
			c1.6,0,3.199-0.3,4.6-0.7l3.1,7.8c-3.3,1.801-5.6,5.2-5.6,9.2c0,5.8,4.7,10.5,10.5,10.5s10.5-4.7,10.5-10.5s-4.7-10.5-10.5-10.5
			c-0.9,0-1.9,0.101-2.7,0.4l-3.2-8c4.7-2.5,8-7.4,8-13.101V11.3h5.801c2.199,0,4.1-1.8,4.1-4.1V4.8c0-2.2-1.8-4.1-4.1-4.1h-41.2
			c-2.2,0-4.101,1.8-4.101,4.1v2.4C514.5,9.399,516.3,11.3,518.6,11.3z M535,64c0,4.5-3.7,8.1-8.101,8.1c-4.399,0-8.1-3.7-8.1-8.1
			c0-4.5,3.7-8.101,8.1-8.101C531.3,55.899,535,59.5,535,64z M559.9,64c0,4.5-3.699,8.1-8.1,8.1c-4.5,0-8.1-3.7-8.1-8.1
			c0-4.5,3.699-8.101,8.1-8.101S559.9,59.5,559.9,64z"/>
		<path fill="#231F20" d="M522,64c0,2.7,2.2,4.899,4.899,4.899c2.7,0,4.9-2.199,4.9-4.899s-2.2-4.9-4.9-4.9
			C524.2,59.099,522,61.3,522,64z M529.4,64c0,1.399-1.1,2.5-2.5,2.5c-1.399,0-2.5-1.101-2.5-2.5c0-1.4,1.101-2.5,2.5-2.5
			C528.2,61.5,529.4,62.599,529.4,64z"/>
		<path fill="#231F20" d="M551.7,68.899c2.699,0,4.899-2.199,4.899-4.899s-2.2-4.9-4.899-4.9c-2.7,0-4.9,2.2-4.9,4.9
			C546.9,66.7,549,68.899,551.7,68.899z M551.7,61.5c1.399,0,2.5,1.1,2.5,2.5c0,1.399-1.101,2.5-2.5,2.5c-1.4,0-2.5-1.101-2.5-2.5
			C549.2,62.599,550.3,61.5,551.7,61.5z"/>
		<path fill="#231F20" d="M535.2,31.099c0-2.2,1.8-4,4-4c2.199,0,4,1.8,4,4c0,0.601,0.5,1.2,1.199,1.2c0.601,0,1.2-0.5,1.2-1.2
			c0-3.5-2.8-6.3-6.3-6.3s-6.3,2.8-6.3,6.3c0,0.601,0.5,1.2,1.2,1.2C534.6,32.3,535.2,31.7,535.2,31.099z"/>
	</g>
</g>
<g>
	<g>
		<circle fill="#FFD961" cx="568.5" cy="54.599" r="7.9"/>
		<circle fill="#FFD961" cx="589.7" cy="54.599" r="7.9"/>
	</g>
	<g>
		<circle fill="#F5F6F6" cx="568.5" cy="54.599" r="3.1"/>
		<circle fill="#F5F6F6" cx="589.7" cy="54.599" r="3.1"/>
	</g>
	<path fill="#5FBF84" d="M567.4,20.399v7.7c0,6.4,5.2,11.601,11.601,11.601c6.399,0,11.6-5.2,11.6-11.601V8.7h5.9
		c1.399,0,2.5-1.101,2.5-2.5V4.099c0-1.399-1.101-2.5-2.5-2.5h-35c-1.4,0-2.5,1.101-2.5,2.5V6.2c0,1.399,1.1,2.5,2.5,2.5h5.899v8.6"
		/>
	<g opacity="0.2">
		<path fill="#231F20" d="M573.4,54.599c0,3.8-2.699,7.101-6.399,7.8c0.5,0.101,1,0.2,1.6,0.2c4.4,0,7.9-3.6,7.9-7.899
			c0-4.4-3.601-7.9-7.9-7.9c-0.5,0-1.1,0.1-1.6,0.2C570.6,47.599,573.4,50.8,573.4,54.599z"/>
	</g>
	<g opacity="0.2">
		<path fill="#231F20" d="M594.6,54.599c0,3.8-2.7,7.101-6.399,7.8c0.5,0.101,1,0.2,1.6,0.2c4.4,0,7.9-3.6,7.9-7.899
			c0-4.4-3.601-7.9-7.9-7.9c-0.5,0-1.1,0.1-1.6,0.2C591.8,47.599,594.6,50.8,594.6,54.599z"/>
	</g>
	<g opacity="0.2">
		<path fill="#231F20" d="M579,39.7c6.399,0,11.6-5.2,11.6-11.601V7.7H590.2c-0.801,0-2.7,0.3-2.7,2.3v18.1c0,5.9-4.4,10.7-10,11.5
			C578,39.7,578.5,39.7,579,39.7z"/>
	</g>
	<g>
		<path fill="#231F20" d="M561.5,9.599h5V17.2c0,0.5,0.399,1,1,1c0.5,0,1-0.4,1-1V8.7c0-0.5-0.4-1-1-1h-6c-0.8,0-1.5-0.7-1.5-1.5
			V4.099c0-0.8,0.7-1.5,1.5-1.5h35c0.8,0,1.5,0.7,1.5,1.5V6.2c0,0.8-0.7,1.5-1.5,1.5h-5.9c-0.5,0-1,0.399-1,1v19.5
			c0,5.8-4.8,10.6-10.6,10.6S568.4,34,568.4,28.099v-7.7c0-0.5-0.399-1-1-1c-0.5,0-1,0.4-1,1v7.7c0,4.9,2.801,9.2,6.9,11.2l-2.5,6.6
			c-0.7-0.199-1.5-0.3-2.3-0.3c-4.9,0-8.9,4-8.9,8.9c0,4.899,4,8.899,8.9,8.899c4.899,0,8.899-4,8.899-8.899c0-3.4-2-6.4-4.8-7.9
			l2.5-6.6c1.2,0.399,2.5,0.6,3.8,0.6c1.4,0,2.7-0.2,3.9-0.6l2.6,6.6c-2.8,1.5-4.699,4.5-4.699,7.9c0,4.899,4,8.899,8.899,8.899
			c4.9,0,8.9-4,8.9-8.899c0-4.9-4-8.9-8.9-8.9c-0.8,0-1.6,0.101-2.3,0.3l-2.6-6.699c4-2.101,6.8-6.301,6.8-11.2v-18.4h5
			c1.899,0,3.5-1.6,3.5-3.5v-2c0-1.899-1.601-3.5-3.5-3.5h-35c-1.9,0-3.5,1.601-3.5,3.5V6.2C558,8.099,559.6,9.599,561.5,9.599z
			 M575.5,54.599c0,3.8-3.101,6.9-6.9,6.9s-6.899-3.101-6.899-6.9s3.1-6.899,6.899-6.899S575.5,50.8,575.5,54.599z M596.7,54.599
			c0,3.8-3.101,6.9-6.9,6.9s-6.9-3.101-6.9-6.9S586,47.7,589.8,47.7S596.7,50.8,596.7,54.599z"/>
		<path fill="#231F20" d="M564.4,54.599c0,2.3,1.9,4.101,4.101,4.101c2.3,0,4.1-1.9,4.1-4.101c0-2.3-1.899-4.1-4.1-4.1
			S564.4,52.3,564.4,54.599z M570.7,54.599c0,1.2-1,2.2-2.2,2.2s-2.2-1-2.2-2.2s1-2.2,2.2-2.2C569.7,52.5,570.7,53.399,570.7,54.599
			z"/>
		<path fill="#231F20" d="M589.7,58.7c2.3,0,4.1-1.9,4.1-4.101c0-2.3-1.9-4.1-4.1-4.1c-2.301,0-4.101,1.899-4.101,4.1
			C585.6,56.899,587.5,58.7,589.7,58.7z M589.7,52.5c1.199,0,2.199,1,2.199,2.2c0,1.199-1,2.199-2.199,2.199c-1.2,0-2.2-1-2.2-2.199
			C587.5,53.5,588.6,52.5,589.7,52.5z"/>
		<path fill="#231F20" d="M575.6,26.599c0-1.899,1.5-3.399,3.4-3.399c1.899,0,3.399,1.5,3.399,3.399c0,0.5,0.4,1,1,1
			c0.5,0,1-0.399,1-1c0-3-2.399-5.399-5.399-5.399s-5.4,2.399-5.4,5.399c0,0.5,0.4,1,1,1C575.2,27.599,575.6,27.099,575.6,26.599z"
			/>
	</g>
</g>
</svg>
