<?xml version="1.0" encoding="utf-8"?>
<!-- Generator: Adobe Illustrator 19.1.0, SVG Export Plug-In . SVG Version: 6.00 Build 0)  -->
<svg version="1.1" id="Livello_1" xmlns="http://www.w3.org/2000/svg" xmlns:xlink="http://www.w3.org/1999/xlink" x="0px" y="0px"
	 viewBox="-5 197 600 400" style="enable-background:new -5 197 600 400;" xml:space="preserve">
<style type="text/css">
	.st0{clip-path:url(#SVGID_2_);}
	.st1{fill:#184375;}
	.st2{fill:#F08022;}
	.st3{fill:#010101;}
	.st4{fill:#8FD5DE;}
	.st5{fill:#7DC3D1;}
	.st6{fill:#F7A973;}
	.st7{fill:#E19461;}
	.st8{fill:#E88158;}
	.st9{fill:#D47351;}
</style>
<g>
	<defs>
		<rect id="SVGID_1_" x="-5" y="197" width="600" height="400"/>
	</defs>
	<clipPath id="SVGID_2_">
		<use xlink:href="#SVGID_1_"  style="overflow:visible;"/>
	</clipPath>
	<g class="st0">
		<circle class="st1" cx="458.7" cy="476.1" r="12.1"/>
		<circle class="st1" cx="550.6" cy="275.2" r="30.1"/>
		<circle class="st1" cx="174.3" cy="553.8" r="9.7"/>
		<circle class="st1" cx="409.8" cy="295" r="12.7"/>
		<circle class="st1" cx="549.5" cy="565.7" r="8.4"/>
		<g>
			<path class="st2" d="M192.3,462.3c-97.7,65.4-228.9,37.4-292.8-62.6s-36.6-234.1,61.2-299.5s228.8-37.4,292.7,62.6
				S290,396.9,192.3,462.3z"/>
		</g>
		<g>
			<path class="st3" d="M196.2,468.3c100.9-67.5,129.2-206.3,63.3-309.5S57.6,26.6-43.1,94.1s-129.3,206.4-63.3,309.6
				S95.3,535.8,196.2,468.3z M-123,235.9c10.5,8.5,28.7,19.2,54,21.3c38.5,3.1,80-15.3,123.1-54.4c29.3-26.6,70.8-56.6,102-48.3
				c20.3,5.5,27,25,27.3,25.8l13.3-4.5c-0.4-1.2-9.2-27.6-36.9-35.2c-29.9-8.3-68.7,9-115.2,51.4c-40,36.4-77.7,53.6-112.2,51
				c-26.4-2-44.1-15.5-51.4-22.4c5.9-19.9,14.7-38.9,26.1-56.4c5.9,2.4,14.7,4.9,25.6,5.9c19.6,1.7,50.9-1.5,88.7-26.8L13.6,131
				c-26.9,18-54.1,26.5-78.8,24.6c-7.8-0.6-14.2-2.1-19-3.8c13.3-17.4,29.6-32.8,48.7-45.6c94.4-63.2,221.3-36,283.1,60.5
				c23.9,37.4,34.6,79.8,33.2,121.5c-11.3-3-33.8-7.5-62.1-5.8c-37,2.3-91.2,16.3-138.8,69.9C48.1,388,18.3,405.6-8.6,404.5
				c-25.7-1.1-39.5-19-40-19.8l-11.3,8.7c0.8,1,18,24,50.4,25.6c31.4,1.4,65-17.7,99.7-57c19.5-22,41.7-38.8,66.2-49.7
				c19.6-8.8,40.5-13.9,62.3-15.4c29-1.8,51.8,3.5,60.9,6c-2.9,28.6-11.6,56.4-25.5,81.7c-13.8-7.9-56.9-23.2-133.5,28.2
				c-4.6,3.1-9.3,6.3-14.1,9.9l8.3,11.7c27-19.9,66.9-43.7,103.5-43.7c14.5,0,23.9,3.8,28.4,6.3c-14.9,23-34.5,43.4-58.4,59.4
				c-94.4,63.2-221.3,36-283.1-60.5C-126,346.7-134.5,289.1-123,235.9z"/>
			<path class="st3" d="M33.2,301.9c72.1-13.8,144.4-75.1,147.4-77.7l-9-11.1c-0.7,0.7-72.5,61.5-140.9,74.6
				c-33.5,6.4-59.7,19.5-78.4,32c-21.9,14.6-33.5,28.5-34.3,29.4l10.8,9.3C-70.9,358-34.4,314.7,33.2,301.9z"/>
			<polygon class="st3" points="69.7,447.3 88.3,434.9 96.1,446.9 77.4,459.4 			"/>
			<polygon class="st3" points="32.3,118.5 50.9,106 58.6,118.1 40,130.6 			"/>
			<polygon class="st3" points="4.1,355.1 22.7,342.6 30.4,354.7 11.8,367.2 			"/>
			<polygon class="st3" points="215,227.6 233.7,215.1 241.4,227.2 222.8,239.6 			"/>
			<polygon class="st3" points="-92.8,297.4 -74.1,285 -66.4,297 -85,309.5 			"/>
			<polygon class="st3" points="29.6,249.5 48.3,237.1 56,249.1 37.3,261.6 			"/>
			<polygon class="st3" points="170.8,345.5 189.5,333.1 197.2,345.1 178.5,357.6 			"/>
		</g>
		<g>
			<polygon class="st4" points="307.2,504.8 338.6,432.1 348.6,441.1 320.6,505.8 			"/>
			<polygon class="st5" points="348.6,441.1 338.6,432.1 333.8,443.1 344.4,450.9 			"/>
			<path class="st4" d="M415.5,510.6L415.5,510.6c8.6-20.1-0.5-43.4-20.6-52.1l0.2,0.1l-31.3,72.7l-0.2-0.1
				C383.6,539.9,406.9,530.6,415.5,510.6z"/>
			<path class="st5" d="M415.7,510.4c4.9-12-7.1-28.4-26.9-37.2l6.3-14.5C414.8,467.3,424.1,490.4,415.7,510.4z"/>
			<path class="st6" d="M364.1,530.1L396,456c5.5-12.5-0.3-27.1-13-32.6l0,0c-12.5-5.5-27.1,0.3-32.6,13l-31.9,74.1
				c-5.5,12.5,0.3,27.1,13,32.6l0,0C344.1,548.5,358.7,542.7,364.1,530.1z"/>
			<path class="st7" d="M375.5,441.2L375.5,441.2c12.5,5.5,18.3,20,13,32.6l7.6-17.7c5.5-12.5-0.3-27.1-13-32.6l0,0
				c-12.5-5.5-27.1,0.3-32.6,13l-7.6,17.7C348.4,441.5,363,435.7,375.5,441.2z"/>
			<path class="st8" d="M383.2,423.5l-51.7,119.6c-12.5-5.5-18.3-20-13-32.6l31.9-74.1c2.7-6.2,7.7-10.9,13.6-13.2
				C370.1,420.9,376.9,420.8,383.2,423.5z"/>
			<path class="st9" d="M383.2,423.5L383.2,423.5c-12.5-5.5-27.1,0.3-32.6,13l-7.6,17.7c5.5-12.5,20-18.3,32.6-13l0,0L383.2,423.5z"
				/>
			<g>
				<ellipse class="st4" cx="384.4" cy="451.2" rx="4.4" ry="4.4"/>
				<ellipse class="st4" cx="373.8" cy="475.8" rx="4.4" ry="4.4"/>
				<ellipse class="st4" cx="352.6" cy="525.1" rx="4.4" ry="4.4"/>
				<ellipse class="st4" cx="363.2" cy="500.4" rx="4.4" ry="4.4"/>
			</g>
			<path class="st3" d="M330.7,545.2c6.6,2.9,14,3,20.8,0.2c5.6-2.2,10.3-6.2,13.3-11.4c4,1.5,8,2.4,12.3,2.5c1.3,0,2.3-0.9,2.5-2.2
				c0-1.3-0.9-2.3-2.2-2.5c-3.6-0.2-7.1-0.9-10.4-2.1l29.4-68.3c17.4,8.9,25,29.8,17.3,47.9c-5,11.3-15.2,19.5-27.3,21.8
				c-1.2,0.2-2.2,1.4-1.9,2.8c0.2,1.2,1.4,2.2,2.8,1.9c13.7-2.6,25.2-11.8,30.8-24.6c8.8-20.4,0.1-44.3-19.6-54l0.3-0.5
				c6-13.7-0.4-29.7-14.1-35.7c-6.6-2.9-14-3-20.8-0.2c-6.7,2.7-12.1,7.8-14.9,14.5l-1,1.7l-7.6-6.9c-0.6-0.5-1.4-0.7-2.1-0.5
				c-0.7,0.1-1.4,0.7-1.6,1.4l-3.6,8.3c-0.5,1.2,0.1,2.6,1.3,3.1c1.2,0.5,2.6-0.1,3.1-1.3l2.3-5.2l6.3,5.7l-26.6,61.6l-8.5-0.6
				l23.4-54.3c0.5-1.2-0.1-2.6-1.3-3.1c-1.2-0.5-2.6,0.1-3.1,1.3L305.2,504c-0.4,0.7-0.2,1.5,0.1,2.2c0.3,0.6,1.1,1.1,1.8,1.2
				l10.2,0.8l-0.8,1.7C310.6,523.2,317,539.2,330.7,545.2z M365.1,425.4c4.8-2,10.1-2.1,15-0.5l-40.2,93c-0.5,1.2,0.1,2.6,1.3,3.1
				c1.2,0.5,2.6-0.1,3.1-1.3l40.2-93c9.9,5.6,14.2,17.8,9.6,28.4l-31.9,74.1c-2.3,5.5-6.8,9.7-12.4,11.9c-4.8,2-10.1,2.1-15,0.5
				l6.5-14.9c0.5-1.2-0.1-2.6-1.3-3.1c-1.2-0.5-2.6,0.1-3.1,1.3l-6.5,14.9c-9.9-5.6-14.2-17.8-9.6-28.4l31.9-74.1
				C355.2,431.7,359.6,427.6,365.1,425.4z"/>
			<path class="st3" d="M390.8,453.8c1.5-3.4,0-7.4-3.6-8.9c-3.5-1.5-7.4,0-8.9,3.6c-1.5,3.4,0,7.4,3.6,8.9
				C385.4,458.9,389.3,457.3,390.8,453.8z M382.5,450.3c0.4-1,1.7-1.6,2.7-1.1c1,0.4,1.6,1.7,1.1,2.7c-0.4,1-1.7,1.6-2.7,1.1
				C382.5,452.6,382.1,451.4,382.5,450.3z"/>
			<path class="st3" d="M380.1,478.4c1.5-3.4,0-7.4-3.6-8.9c-3.4-1.5-7.4,0-8.9,3.6c-1.5,3.4,0,7.4,3.6,8.9
				C374.6,483.5,378.6,482,380.1,478.4z M372,474.9c0.4-1,1.7-1.6,2.7-1.1c1,0.4,1.6,1.7,1.1,2.7c-0.4,1-1.7,1.6-2.7,1.1
				C372,477.2,371.4,475.9,372,474.9z"/>
			<path class="st3" d="M350,531.2c3.4,1.5,7.4,0,8.9-3.6c1.5-3.4,0-7.4-3.6-8.9c-3.4-1.5-7.4,0-8.9,3.6
				C344.9,525.9,346.5,529.7,350,531.2z M350.8,524.1c0.4-1,1.7-1.6,2.7-1.1c1,0.4,1.6,1.7,1.1,2.7c-0.4,1-1.7,1.6-2.7,1.1
				C350.8,526.5,350.3,525.2,350.8,524.1z"/>
			<path class="st3" d="M369.6,503c1.5-3.4,0-7.4-3.6-8.9c-3.4-1.5-7.4,0-8.9,3.6c-1.5,3.4,0,7.4,3.6,8.9
				C364.1,508.1,368,506.4,369.6,503z M361.3,499.5c0.4-1,1.7-1.6,2.7-1.1c1,0.4,1.6,1.7,1.1,2.7c-0.4,1-1.7,1.6-2.7,1.1
				C361.3,501.9,360.9,500.5,361.3,499.5z"/>
		</g>
	</g>
</g>
</svg>
