<?xml version="1.0" encoding="utf-8"?>
<!-- Generator: Adobe Illustrator 19.2.1, SVG Export Plug-In . SVG Version: 6.00 Build 0)  -->
<svg version="1.1" id="Livello_1" xmlns="http://www.w3.org/2000/svg" xmlns:xlink="http://www.w3.org/1999/xlink" x="0px" y="0px"
	 width="600px" height="400px" viewBox="0 0 600 400" style="enable-background:new 0 0 600 400;" xml:space="preserve">
<style type="text/css">
	.st0{fill:#FFD961;}
	.st1{fill:#F5F6F6;}
	.st2{fill:#5FBF84;}
	.st3{opacity:0.2;}
	.st4{fill:#231F20;}
</style>
<g>
	<g>
		<circle class="st0" cx="142.2" cy="182.9" r="20.9"/>
		<circle class="st0" cx="142.2" cy="127" r="20.9"/>
	</g>
	<g>
		<circle class="st1" cx="142.2" cy="182.9" r="8.3"/>
		<circle class="st1" cx="142.2" cy="127" r="8.3"/>
	</g>
	<path class="st2" d="M52,185.9h20.3c16.9,0,30.6-13.7,30.6-30.6c0-16.9-13.7-30.6-30.6-30.6H21V109c0-3.6-2.9-6.5-6.5-6.5H9.1
		c-3.6,0-6.5,2.9-6.5,6.5v92.5c0,3.6,2.9,6.5,6.5,6.5h5.4c3.6,0,6.5-2.9,6.5-6.5v-15.7h22.7"/>
	<g class="st3">
		<path class="st4" d="M142.2,170.2c10.1,0,18.6,7.2,20.5,16.8c0.3-1.3,0.4-2.7,0.4-4.1c0-11.6-9.4-20.9-20.9-20.9
			c-11.6,0-20.9,9.4-20.9,20.9c0,1.4,0.1,2.8,0.4,4.1C123.6,177.4,132,170.2,142.2,170.2z"/>
	</g>
	<g class="st3">
		<path class="st4" d="M142.2,114.3c10.1,0,18.6,7.2,20.5,16.8c0.3-1.3,0.4-2.7,0.4-4.1c0-11.6-9.4-20.9-20.9-20.9
			c-11.6,0-20.9,9.4-20.9,20.9c0,1.4,0.1,2.8,0.4,4.1C123.6,121.5,132,114.3,142.2,114.3z"/>
	</g>
	<g class="st3">
		<path class="st4" d="M102.9,155.3c0-16.9-13.7-30.6-30.6-30.6H18.6v1c0.1,2.2,0.9,7.2,6.1,7.2h47.7c15.5,0,28.3,11.5,30.3,26.5
			C102.8,158.1,102.9,156.7,102.9,155.3z"/>
	</g>
	<g>
		<path class="st4" d="M23.6,201.5v-13.1h20c1.4,0,2.6-1.2,2.6-2.6c0-1.4-1.2-2.6-2.6-2.6H21c-1.4,0-2.6,1.2-2.6,2.6v15.7
			c0,2.1-1.7,3.9-3.9,3.9H9.1c-2.1,0-3.9-1.7-3.9-3.9V109c0-2.1,1.7-3.9,3.9-3.9h5.4c2.1,0,3.9,1.7,3.9,3.9v15.7
			c0,1.4,1.2,2.6,2.6,2.6h51.3c15.4,0,27.9,12.5,27.9,27.9s-12.5,27.9-27.9,27.9H52c-1.4,0-2.6,1.2-2.6,2.6c0,1.4,1.2,2.6,2.6,2.6
			h20.3c12.9,0,24.1-7.4,29.6-18.2l17.4,6.7c-0.5,1.9-0.8,3.9-0.8,5.9c0,13,10.6,23.5,23.5,23.5c13,0,23.5-10.6,23.5-23.5
			s-10.6-23.5-23.5-23.5c-9.1,0-17,5.2-20.9,12.7l-17.3-6.7c1-3.2,1.6-6.6,1.6-10.1c0-3.6-0.6-7.1-1.7-10.4l17.5-6.9
			c4,7.4,11.8,12.5,20.8,12.5c13,0,23.5-10.6,23.5-23.5c0-13-10.6-23.5-23.5-23.5c-13,0-23.5,10.6-23.5,23.5c0,2.1,0.3,4.2,0.8,6.1
			l-17.6,6.9c-5.5-10.7-16.7-18-29.5-18H23.6V109c0-5-4.1-9.1-9.1-9.1H9.1c-5,0-9.1,4.1-9.1,9.1l0,92.5c0,5,4.1,9.1,9.1,9.1h5.4
			C19.5,210.7,23.6,206.6,23.6,201.5z M142.2,164.6c10.1,0,18.3,8.2,18.3,18.3s-8.2,18.3-18.3,18.3c-10.1,0-18.3-8.2-18.3-18.3
			C123.9,172.8,132.1,164.6,142.2,164.6z M142.2,108.7c10.1,0,18.3,8.2,18.3,18.3c0,10.1-8.2,18.3-18.3,18.3
			c-10.1,0-18.3-8.2-18.3-18.3C123.9,116.9,132.1,108.7,142.2,108.7z"/>
		<path class="st4" d="M142.2,193.8c6,0,10.9-4.9,10.9-10.9c0-6-4.9-10.9-10.9-10.9s-10.9,4.9-10.9,10.9
			C131.3,188.9,136.2,193.8,142.2,193.8z M142.2,177.2c3.1,0,5.7,2.5,5.7,5.7c0,3.1-2.5,5.7-5.7,5.7c-3.1,0-5.7-2.5-5.7-5.7
			C136.5,179.8,139,177.2,142.2,177.2z"/>
		<path class="st4" d="M153.1,127c0-6-4.9-10.9-10.9-10.9c-6,0-10.9,4.9-10.9,10.9c0,6,4.9,10.9,10.9,10.9
			C148.2,137.9,153.1,133,153.1,127z M136.5,127c0-3.1,2.5-5.7,5.7-5.7s5.7,2.5,5.7,5.7c0,3.1-2.5,5.7-5.7,5.7
			S136.5,130.1,136.5,127z"/>
		<path class="st4" d="M68.2,164.2c-4.9,0-8.9-4-8.9-8.9c0-4.9,4-8.9,8.9-8.9c1.4,0,2.6-1.2,2.6-2.6c0-1.4-1.2-2.6-2.6-2.6
			c-7.8,0-14.2,6.4-14.2,14.2c0,7.8,6.4,14.2,14.2,14.2c1.4,0,2.6-1.2,2.6-2.6C70.9,165.4,69.7,164.2,68.2,164.2z"/>
	</g>
</g>
<g>
	<g>
		<circle class="st0" cx="215.4" cy="345" r="31.5"/>
		<circle class="st0" cx="215.4" cy="260.9" r="31.5"/>
	</g>
	<g>
		<circle class="st1" cx="215.4" cy="345" r="12.5"/>
		<circle class="st1" cx="215.4" cy="260.9" r="12.5"/>
	</g>
	<path class="st2" d="M79.8,349.5h30.5c25.4,0,46-20.6,46-46c0-25.4-20.6-46-46-46H33.1v-23.6c0-5.4-4.4-9.8-9.8-9.8h-8.1
		c-5.4,0-9.8,4.4-9.8,9.8v139.1c0,5.4,4.4,9.8,9.8,9.8h8.1c5.4,0,9.8-4.4,9.8-9.8v-23.6h34.1"/>
	<g class="st3">
		<path class="st4" d="M215.4,325.9c15.3,0,28,10.9,30.9,25.3c0.4-2,0.6-4.1,0.6-6.2c0-17.4-14.1-31.5-31.5-31.5
			c-17.4,0-31.5,14.1-31.5,31.5c0,2.1,0.2,4.2,0.6,6.2C187.4,336.8,200.1,325.9,215.4,325.9z"/>
	</g>
	<g class="st3">
		<path class="st4" d="M215.4,241.8c15.3,0,28,10.9,30.9,25.3c0.4-2,0.6-4.1,0.6-6.2c0-17.4-14.1-31.5-31.5-31.5
			c-17.4,0-31.5,14.1-31.5,31.5c0,2.1,0.2,4.2,0.6,6.2C187.4,252.7,200.1,241.8,215.4,241.8z"/>
	</g>
	<g class="st3">
		<path class="st4" d="M156.3,303.5c0-25.4-20.6-46-46-46H29.4v1.5c0.1,3.3,1.3,10.8,9.1,10.8h71.8c23.3,0,42.5,17.3,45.6,39.8
			C156.2,307.6,156.3,305.6,156.3,303.5z"/>
	</g>
	<g>
		<path class="st4" d="M37,373.1v-19.7h30.1c2.2,0,3.9-1.8,3.9-3.9c0-2.2-1.8-3.9-3.9-3.9H33.1c-2.2,0-3.9,1.8-3.9,3.9v23.6
			c0,3.2-2.6,5.8-5.8,5.8h-8.1c-3.2,0-5.8-2.6-5.8-5.8V233.9c0-3.2,2.6-5.8,5.8-5.8h8.1c3.2,0,5.8,2.6,5.8,5.8v23.6
			c0,2.2,1.8,3.9,3.9,3.9h77.2c23.2,0,42,18.9,42,42c0,23.2-18.9,42-42,42H79.8c-2.2,0-3.9,1.8-3.9,3.9c0,2.2,1.8,3.9,3.9,3.9h30.5
			c19.4,0,36.3-11.2,44.6-27.4l26.2,10.1c-0.7,2.9-1.1,5.9-1.1,8.9c0,19.5,15.9,35.4,35.4,35.4c19.5,0,35.4-15.9,35.4-35.4
			s-15.9-35.4-35.4-35.4c-13.6,0-25.5,7.8-31.4,19.1l-26.1-10c1.5-4.8,2.4-9.9,2.4-15.2c0-5.5-0.9-10.7-2.5-15.6l26.3-10.4
			c6,11.2,17.7,18.8,31.3,18.8c19.5,0,35.4-15.9,35.4-35.4c0-19.5-15.9-35.4-35.4-35.4c-19.5,0-35.4,15.9-35.4,35.4
			c0,3.2,0.4,6.3,1.2,9.2l-26.5,10.5c-8.3-16-25.1-27-44.4-27H37v-19.7c0-7.6-6.1-13.7-13.7-13.7h-8.1c-7.6,0-13.7,6.1-13.7,13.7
			l0,139.1c0,7.6,6.1,13.7,13.7,13.7h8.1C30.9,386.8,37,380.6,37,373.1z M215.4,317.5c15.2,0,27.5,12.3,27.5,27.5
			c0,15.2-12.3,27.5-27.5,27.5c-15.2,0-27.5-12.3-27.5-27.5C187.8,329.8,200.2,317.5,215.4,317.5z M215.4,233.4
			c15.2,0,27.5,12.3,27.5,27.5c0,15.2-12.3,27.5-27.5,27.5c-15.2,0-27.5-12.3-27.5-27.5C187.8,245.7,200.2,233.4,215.4,233.4z"/>
		<path class="st4" d="M215.4,361.4c9.1,0,16.4-7.4,16.4-16.4c0-9.1-7.4-16.4-16.4-16.4c-9.1,0-16.4,7.4-16.4,16.4
			C198.9,354,206.3,361.4,215.4,361.4z M215.4,336.5c4.7,0,8.5,3.8,8.5,8.5s-3.8,8.5-8.5,8.5c-4.7,0-8.5-3.8-8.5-8.5
			C206.8,340.3,210.7,336.5,215.4,336.5z"/>
		<path class="st4" d="M231.8,260.9c0-9.1-7.4-16.4-16.4-16.4s-16.4,7.4-16.4,16.4c0,9.1,7.4,16.4,16.4,16.4S231.8,270,231.8,260.9z
			 M206.8,260.9c0-4.7,3.8-8.5,8.5-8.5s8.5,3.8,8.5,8.5c0,4.7-3.8,8.5-8.5,8.5S206.8,265.6,206.8,260.9z"/>
		<path class="st4" d="M104.2,316.9c-7.4,0-13.4-6-13.4-13.4c0-7.4,6-13.4,13.4-13.4c2.2,0,3.9-1.8,3.9-3.9c0-2.2-1.8-3.9-3.9-3.9
			c-11.7,0-21.3,9.6-21.3,21.3c0,11.7,9.6,21.3,21.3,21.3c2.2,0,3.9-1.8,3.9-3.9C108.1,318.7,106.3,316.9,104.2,316.9z"/>
	</g>
</g>
<g>
	<g>
		<circle class="st0" cx="169" cy="122.4" r="24.8"/>
		<circle class="st0" cx="169" cy="56.3" r="24.8"/>
	</g>
	<g>
		<circle class="st1" cx="169" cy="122.4" r="9.8"/>
		<circle class="st1" cx="169" cy="56.3" r="9.8"/>
	</g>
	<path class="st2" d="M62.3,125.9h24c20,0,36.2-16.2,36.2-36.2c0-20-16.2-36.2-36.2-36.2H25.6V35c0-4.2-3.4-7.7-7.7-7.7h-6.4
		c-4.2,0-7.7,3.4-7.7,7.7v109.5c0,4.2,3.4,7.7,7.7,7.7h6.4c4.2,0,7.7-3.4,7.7-7.7v-18.6h26.8"/>
	<g class="st3">
		<path class="st4" d="M169,107.4c12,0,22,8.6,24.3,19.9c0.3-1.6,0.5-3.2,0.5-4.9c0-13.7-11.1-24.8-24.8-24.8
			c-13.7,0-24.8,11.1-24.8,24.8c0,1.7,0.2,3.3,0.5,4.9C147,115.9,157,107.4,169,107.4z"/>
	</g>
	<g class="st3">
		<path class="st4" d="M169,41.2c12,0,22,8.6,24.3,19.9c0.3-1.6,0.5-3.2,0.5-4.9c0-13.7-11.1-24.8-24.8-24.8
			c-13.7,0-24.8,11.1-24.8,24.8c0,1.7,0.2,3.3,0.5,4.9C147,49.8,157,41.2,169,41.2z"/>
	</g>
	<g class="st3">
		<path class="st4" d="M122.5,89.8c0-20-16.2-36.2-36.2-36.2H22.7v1.2c0.1,2.6,1.1,8.5,7.2,8.5h56.5c18.3,0,33.5,13.6,35.9,31.3
			C122.4,93,122.5,91.4,122.5,89.8z"/>
	</g>
	<g>
		<path class="st4" d="M28.7,144.5V129h23.7c1.7,0,3.1-1.4,3.1-3.1c0-1.7-1.4-3.1-3.1-3.1H25.6c-1.7,0-3.1,1.4-3.1,3.1v18.6
			c0,2.5-2.1,4.6-4.6,4.6h-6.4c-2.5,0-4.6-2.1-4.6-4.6V35c0-2.5,2.1-4.6,4.6-4.6h6.4c2.5,0,4.6,2.1,4.6,4.6v18.6
			c0,1.7,1.4,3.1,3.1,3.1h60.8c18.2,0,33.1,14.8,33.1,33.1s-14.8,33.1-33.1,33.1h-24c-1.7,0-3.1,1.4-3.1,3.1c0,1.7,1.4,3.1,3.1,3.1
			h24c15.3,0,28.6-8.8,35.1-21.6l20.6,7.9c-0.6,2.2-0.9,4.6-0.9,7c0,15.4,12.5,27.9,27.9,27.9c15.4,0,27.9-12.5,27.9-27.9
			S184.3,94.6,169,94.6c-10.7,0-20.1,6.1-24.7,15l-20.5-7.9c1.2-3.8,1.9-7.8,1.9-11.9c0-4.3-0.7-8.4-2-12.3l20.7-8.2
			c4.7,8.8,14,14.8,24.6,14.8c15.4,0,27.9-12.5,27.9-27.9c0-15.4-12.5-27.9-27.9-27.9c-15.4,0-27.9,12.5-27.9,27.9
			c0,2.5,0.3,5,1,7.3l-20.9,8.2c-6.5-12.6-19.7-21.3-34.9-21.3H28.7V35c0-5.9-4.8-10.8-10.8-10.8h-6.4C5.5,24.2,0.7,29.1,0.7,35
			l0,109.5c0,5.9,4.8,10.8,10.8,10.8h6.4C23.8,155.3,28.7,150.5,28.7,144.5z M169,100.8c11.9,0,21.7,9.7,21.7,21.7
			s-9.7,21.7-21.7,21.7c-11.9,0-21.7-9.7-21.7-21.7C147.3,110.5,157,100.8,169,100.8z M169,34.6c11.9,0,21.7,9.7,21.7,21.7
			c0,11.9-9.7,21.7-21.7,21.7c-11.9,0-21.7-9.7-21.7-21.7C147.3,44.3,157,34.6,169,34.6z"/>
		<path class="st4" d="M169,135.3c7.1,0,12.9-5.8,12.9-12.9c0-7.1-5.8-12.9-12.9-12.9c-7.1,0-12.9,5.8-12.9,12.9
			C156.1,129.5,161.9,135.3,169,135.3z M169,115.7c3.7,0,6.7,3,6.7,6.7c0,3.7-3,6.7-6.7,6.7s-6.7-3-6.7-6.7
			C162.3,118.7,165.3,115.7,169,115.7z"/>
		<path class="st4" d="M181.9,56.3c0-7.1-5.8-12.9-12.9-12.9c-7.1,0-12.9,5.8-12.9,12.9c0,7.1,5.8,12.9,12.9,12.9
			C176.1,69.2,181.9,63.4,181.9,56.3z M162.3,56.3c0-3.7,3-6.7,6.7-6.7s6.7,3,6.7,6.7c0,3.7-3,6.7-6.7,6.7S162.3,60,162.3,56.3z"/>
		<path class="st4" d="M81.5,100.3c-5.8,0-10.6-4.7-10.6-10.6c0-5.8,4.7-10.6,10.6-10.6c1.7,0,3.1-1.4,3.1-3.1
			c0-1.7-1.4-3.1-3.1-3.1c-9.2,0-16.8,7.5-16.8,16.8c0,9.2,7.5,16.8,16.8,16.8c1.7,0,3.1-1.4,3.1-3.1
			C84.6,101.7,83.2,100.3,81.5,100.3z"/>
	</g>
</g>
<g>
	<g>
		<circle class="st0" cx="82.6" cy="154" r="12"/>
		<circle class="st0" cx="82.6" cy="121.8" r="12"/>
	</g>
	<g>
		<circle class="st1" cx="82.6" cy="154" r="4.8"/>
		<circle class="st1" cx="82.6" cy="121.8" r="4.8"/>
	</g>
	<path class="st2" d="M30.7,155.7h11.7c9.7,0,17.6-7.9,17.6-17.6c0-9.7-7.9-17.6-17.6-17.6H12.8v-9c0-2.1-1.7-3.7-3.7-3.7H5.9
		c-2.1,0-3.7,1.7-3.7,3.7v53.3c0,2.1,1.7,3.7,3.7,3.7H9c2.1,0,3.7-1.7,3.7-3.7v-9h13"/>
	<g class="st3">
		<path class="st4" d="M82.6,146.7c5.8,0,10.7,4.2,11.8,9.7c0.2-0.8,0.2-1.6,0.2-2.4c0-6.7-5.4-12-12-12c-6.7,0-12,5.4-12,12
			c0,0.8,0.1,1.6,0.2,2.4C71.8,150.9,76.7,146.7,82.6,146.7z"/>
	</g>
	<g class="st3">
		<path class="st4" d="M82.6,114.5c5.8,0,10.7,4.2,11.8,9.7c0.2-0.8,0.2-1.6,0.2-2.4c0-6.7-5.4-12-12-12c-6.7,0-12,5.4-12,12
			c0,0.8,0.1,1.6,0.2,2.4C71.8,118.7,76.7,114.5,82.6,114.5z"/>
	</g>
	<g class="st3">
		<path class="st4" d="M59.9,138.1c0-9.7-7.9-17.6-17.6-17.6h-31v0.6c0.1,1.3,0.5,4.1,3.5,4.1h27.5c8.9,0,16.3,6.6,17.4,15.2
			C59.9,139.7,59.9,138.9,59.9,138.1z"/>
	</g>
	<g>
		<path class="st4" d="M14.3,164.8v-7.5h11.5c0.8,0,1.5-0.7,1.5-1.5c0-0.8-0.7-1.5-1.5-1.5h-13c-0.8,0-1.5,0.7-1.5,1.5v9
			c0,1.2-1,2.2-2.2,2.2H5.9c-1.2,0-2.2-1-2.2-2.2v-53.3c0-1.2,1-2.2,2.2-2.2H9c1.2,0,2.2,1,2.2,2.2v9c0,0.8,0.7,1.5,1.5,1.5h29.6
			c8.9,0,16.1,7.2,16.1,16.1s-7.2,16.1-16.1,16.1H30.7c-0.8,0-1.5,0.7-1.5,1.5c0,0.8,0.7,1.5,1.5,1.5h11.7c7.4,0,13.9-4.3,17.1-10.5
			l10,3.9c-0.3,1.1-0.4,2.2-0.4,3.4c0,7.5,6.1,13.6,13.6,13.6c7.5,0,13.6-6.1,13.6-13.6s-6.1-13.6-13.6-13.6c-5.2,0-9.8,3-12,7.3
			l-10-3.8c0.6-1.8,0.9-3.8,0.9-5.8c0-2.1-0.3-4.1-1-6l10.1-4c2.3,4.3,6.8,7.2,12,7.2c7.5,0,13.6-6.1,13.6-13.6
			c0-7.5-6.1-13.6-13.6-13.6c-7.5,0-13.6,6.1-13.6,13.6c0,1.2,0.2,2.4,0.5,3.5l-10.1,4c-3.2-6.1-9.6-10.3-17-10.3H14.3v-7.5
			c0-2.9-2.4-5.2-5.2-5.2H5.9c-2.9,0-5.2,2.4-5.2,5.2v53.3c0,2.9,2.4,5.2,5.2,5.2H9C11.9,170,14.3,167.7,14.3,164.8z M82.6,143.5
			c5.8,0,10.5,4.7,10.5,10.5s-4.7,10.5-10.5,10.5c-5.8,0-10.5-4.7-10.5-10.5C72,148.2,76.7,143.5,82.6,143.5z M82.6,111.3
			c5.8,0,10.5,4.7,10.5,10.5c0,5.8-4.7,10.5-10.5,10.5c-5.8,0-10.5-4.7-10.5-10.5C72,116,76.7,111.3,82.6,111.3z"/>
		<path class="st4" d="M82.6,160.3c3.5,0,6.3-2.8,6.3-6.3c0-3.5-2.8-6.3-6.3-6.3c-3.5,0-6.3,2.8-6.3,6.3
			C76.3,157.5,79.1,160.3,82.6,160.3z M82.6,150.8c1.8,0,3.3,1.5,3.3,3.3s-1.5,3.3-3.3,3.3s-3.3-1.5-3.3-3.3
			C79.3,152.2,80.8,150.8,82.6,150.8z"/>
		<path class="st4" d="M88.8,121.8c0-3.5-2.8-6.3-6.3-6.3c-3.5,0-6.3,2.8-6.3,6.3c0,3.5,2.8,6.3,6.3,6.3
			C86,128.1,88.8,125.3,88.8,121.8z M79.3,121.8c0-1.8,1.5-3.3,3.3-3.3c1.8,0,3.3,1.5,3.3,3.3c0,1.8-1.5,3.3-3.3,3.3
			C80.8,125.1,79.3,123.6,79.3,121.8z"/>
		<path class="st4" d="M40,143.3c-2.8,0-5.1-2.3-5.1-5.1c0-2.8,2.3-5.1,5.1-5.1c0.8,0,1.5-0.7,1.5-1.5c0-0.8-0.7-1.5-1.5-1.5
			c-4.5,0-8.2,3.7-8.2,8.2c0,4.5,3.7,8.2,8.2,8.2c0.8,0,1.5-0.7,1.5-1.5C41.5,144,40.8,143.3,40,143.3z"/>
	</g>
</g>
<g>
	<g>
		<circle class="st0" cx="66.2" cy="307.4" r="9.3"/>
		<circle class="st0" cx="66.2" cy="282.6" r="9.3"/>
	</g>
	<g>
		<circle class="st1" cx="66.2" cy="307.4" r="3.7"/>
		<circle class="st1" cx="66.2" cy="282.6" r="3.7"/>
	</g>
	<path class="st2" d="M26.1,308.8h9c7.5,0,13.6-6.1,13.6-13.6c0-7.5-6.1-13.6-13.6-13.6H12.3v-7c0-1.6-1.3-2.9-2.9-2.9H7
		c-1.6,0-2.9,1.3-2.9,2.9v41.2c0,1.6,1.3,2.9,2.9,2.9h2.4c1.6,0,2.9-1.3,2.9-2.9v-7h10.1"/>
	<g class="st3">
		<path class="st4" d="M66.2,301.8c4.5,0,8.3,3.2,9.1,7.5c0.1-0.6,0.2-1.2,0.2-1.8c0-5.1-4.2-9.3-9.3-9.3c-5.1,0-9.3,4.2-9.3,9.3
			c0,0.6,0.1,1.2,0.2,1.8C57.9,305,61.7,301.8,66.2,301.8z"/>
	</g>
	<g class="st3">
		<path class="st4" d="M66.2,276.9c4.5,0,8.3,3.2,9.1,7.5c0.1-0.6,0.2-1.2,0.2-1.8c0-5.1-4.2-9.3-9.3-9.3c-5.1,0-9.3,4.2-9.3,9.3
			c0,0.6,0.1,1.2,0.2,1.8C57.9,280.1,61.7,276.9,66.2,276.9z"/>
	</g>
	<g class="st3">
		<path class="st4" d="M48.7,295.2c0-7.5-6.1-13.6-13.6-13.6H11.2v0.5c0,1,0.4,3.2,2.7,3.2h21.2c6.9,0,12.6,5.1,13.5,11.8
			C48.7,296.4,48.7,295.8,48.7,295.2z"/>
	</g>
	<g>
		<path class="st4" d="M13.5,315.7v-5.8h8.9c0.6,0,1.2-0.5,1.2-1.2c0-0.6-0.5-1.2-1.2-1.2H12.3c-0.6,0-1.2,0.5-1.2,1.2v7
			c0,0.9-0.8,1.7-1.7,1.7H7c-0.9,0-1.7-0.8-1.7-1.7v-41.2c0-0.9,0.8-1.7,1.7-1.7h2.4c0.9,0,1.7,0.8,1.7,1.7v7c0,0.6,0.5,1.2,1.2,1.2
			h22.8c6.9,0,12.4,5.6,12.4,12.4s-5.6,12.4-12.4,12.4h-9c-0.6,0-1.2,0.5-1.2,1.2c0,0.6,0.5,1.2,1.2,1.2h9c5.8,0,10.7-3.3,13.2-8.1
			l7.8,3c-0.2,0.8-0.3,1.7-0.3,2.6c0,5.8,4.7,10.5,10.5,10.5c5.8,0,10.5-4.7,10.5-10.5c0-5.8-4.7-10.5-10.5-10.5
			c-4,0-7.5,2.3-9.3,5.7l-7.7-3c0.5-1.4,0.7-2.9,0.7-4.5c0-1.6-0.3-3.2-0.7-4.6l7.8-3.1c1.8,3.3,5.2,5.6,9.2,5.6
			c5.8,0,10.5-4.7,10.5-10.5c0-5.8-4.7-10.5-10.5-10.5c-5.8,0-10.5,4.7-10.5,10.5c0,0.9,0.1,1.9,0.4,2.7l-7.8,3.1
			c-2.5-4.7-7.4-8-13.1-8H13.5v-5.8c0-2.2-1.8-4.1-4.1-4.1H7c-2.2,0-4.1,1.8-4.1,4.1v41.2c0,2.2,1.8,4.1,4.1,4.1h2.4
			C11.6,319.8,13.5,318,13.5,315.7z M66.2,299.3c4.5,0,8.1,3.7,8.1,8.1s-3.7,8.1-8.1,8.1c-4.5,0-8.1-3.7-8.1-8.1
			C58.1,302.9,61.7,299.3,66.2,299.3z M66.2,274.4c4.5,0,8.1,3.7,8.1,8.1c0,4.5-3.7,8.1-8.1,8.1c-4.5,0-8.1-3.7-8.1-8.1
			C58.1,278.1,61.7,274.4,66.2,274.4z"/>
		<path class="st4" d="M66.2,312.3c2.7,0,4.9-2.2,4.9-4.9c0-2.7-2.2-4.9-4.9-4.9c-2.7,0-4.9,2.2-4.9,4.9
			C61.4,310.1,63.5,312.3,66.2,312.3z M66.2,304.9c1.4,0,2.5,1.1,2.5,2.5c0,1.4-1.1,2.5-2.5,2.5c-1.4,0-2.5-1.1-2.5-2.5
			C63.7,306,64.8,304.9,66.2,304.9z"/>
		<path class="st4" d="M71.1,282.6c0-2.7-2.2-4.9-4.9-4.9c-2.7,0-4.9,2.2-4.9,4.9c0,2.7,2.2,4.9,4.9,4.9
			C68.9,287.4,71.1,285.2,71.1,282.6z M63.7,282.6c0-1.4,1.1-2.5,2.5-2.5c1.4,0,2.5,1.1,2.5,2.5c0,1.4-1.1,2.5-2.5,2.5
			C64.8,285.1,63.7,284,63.7,282.6z"/>
		<path class="st4" d="M33.3,299.1c-2.2,0-4-1.8-4-4c0-2.2,1.8-4,4-4c0.6,0,1.2-0.5,1.2-1.2c0-0.6-0.5-1.2-1.2-1.2
			c-3.5,0-6.3,2.8-6.3,6.3c0,3.5,2.8,6.3,6.3,6.3c0.6,0,1.2-0.5,1.2-1.2C34.5,299.6,34,299.1,33.3,299.1z"/>
	</g>
</g>
<g>
	<g>
		<circle class="st0" cx="56.8" cy="265.7" r="7.9"/>
		<circle class="st0" cx="56.8" cy="244.5" r="7.9"/>
	</g>
	<g>
		<circle class="st1" cx="56.8" cy="265.7" r="3.1"/>
		<circle class="st1" cx="56.8" cy="244.5" r="3.1"/>
	</g>
	<path class="st2" d="M22.6,266.9h7.7c6.4,0,11.6-5.2,11.6-11.6c0-6.4-5.2-11.6-11.6-11.6H10.9v-5.9c0-1.4-1.1-2.5-2.5-2.5H6.3
		c-1.4,0-2.5,1.1-2.5,2.5v35.1c0,1.4,1.1,2.5,2.5,2.5h2.1c1.4,0,2.5-1.1,2.5-2.5v-5.9h8.6"/>
	<g class="st3">
		<path class="st4" d="M56.8,260.9c3.8,0,7.1,2.7,7.8,6.4c0.1-0.5,0.2-1,0.2-1.6c0-4.4-3.6-7.9-7.9-7.9c-4.4,0-7.9,3.6-7.9,7.9
			c0,0.5,0.1,1.1,0.2,1.6C49.8,263.7,53,260.9,56.8,260.9z"/>
	</g>
	<g class="st3">
		<path class="st4" d="M56.8,239.7c3.8,0,7.1,2.7,7.8,6.4c0.1-0.5,0.2-1,0.2-1.6c0-4.4-3.6-7.9-7.9-7.9c-4.4,0-7.9,3.6-7.9,7.9
			c0,0.5,0.1,1.1,0.2,1.6C49.8,242.5,53,239.7,56.8,239.7z"/>
	</g>
	<g class="st3">
		<path class="st4" d="M41.9,255.3c0-6.4-5.2-11.6-11.6-11.6H9.9v0.4c0,0.8,0.3,2.7,2.3,2.7h18.1c5.9,0,10.7,4.4,11.5,10
			C41.9,256.3,41.9,255.8,41.9,255.3z"/>
	</g>
	<g>
		<path class="st4" d="M11.9,272.8v-5h7.6c0.5,0,1-0.4,1-1c0-0.5-0.4-1-1-1h-8.6c-0.5,0-1,0.4-1,1v5.9c0,0.8-0.7,1.5-1.5,1.5H6.3
			c-0.8,0-1.5-0.7-1.5-1.5v-35.1c0-0.8,0.7-1.5,1.5-1.5h2.1c0.8,0,1.5,0.7,1.5,1.5v5.9c0,0.5,0.4,1,1,1h19.5
			c5.8,0,10.6,4.8,10.6,10.6s-4.8,10.6-10.6,10.6h-7.7c-0.5,0-1,0.4-1,1c0,0.5,0.4,1,1,1h7.7c4.9,0,9.2-2.8,11.2-6.9l6.6,2.5
			c-0.2,0.7-0.3,1.5-0.3,2.3c0,4.9,4,8.9,8.9,8.9c4.9,0,8.9-4,8.9-8.9c0-4.9-4-8.9-8.9-8.9c-3.4,0-6.4,2-7.9,4.8l-6.6-2.5
			c0.4-1.2,0.6-2.5,0.6-3.8c0-1.4-0.2-2.7-0.6-3.9l6.6-2.6c1.5,2.8,4.5,4.7,7.9,4.7c4.9,0,8.9-4,8.9-8.9c0-4.9-4-8.9-8.9-8.9
			c-4.9,0-8.9,4-8.9,8.9c0,0.8,0.1,1.6,0.3,2.3l-6.7,2.6c-2.1-4-6.3-6.8-11.2-6.8H11.9v-5c0-1.9-1.6-3.5-3.5-3.5H6.4
			c-1.9,0-3.5,1.6-3.5,3.5v35.1c0,1.9,1.6,3.5,3.5,3.5h2.1C10.3,276.3,11.9,274.7,11.9,272.8z M56.8,258.8c3.8,0,6.9,3.1,6.9,6.9
			s-3.1,6.9-6.9,6.9c-3.8,0-6.9-3.1-6.9-6.9C49.9,261.9,53,258.8,56.8,258.8z M56.8,237.6c3.8,0,6.9,3.1,6.9,6.9
			c0,3.8-3.1,6.9-6.9,6.9c-3.8,0-6.9-3.1-6.9-6.9C49.9,240.7,53,237.6,56.8,237.6z"/>
		<path class="st4" d="M56.8,269.9c2.3,0,4.1-1.9,4.1-4.1c0-2.3-1.9-4.1-4.1-4.1c-2.3,0-4.1,1.9-4.1,4.1
			C52.7,268,54.5,269.9,56.8,269.9z M56.8,263.6c1.2,0,2.2,1,2.2,2.2c0,1.2-1,2.2-2.2,2.2s-2.2-1-2.2-2.2
			C54.7,264.6,55.6,263.6,56.8,263.6z"/>
		<path class="st4" d="M61,244.5c0-2.3-1.9-4.1-4.1-4.1s-4.1,1.9-4.1,4.1c0,2.3,1.9,4.1,4.1,4.1C59.1,248.7,61,246.8,61,244.5z
			 M54.7,244.5c0-1.2,1-2.2,2.2-2.2c1.2,0,2.2,1,2.2,2.2c0,1.2-1,2.2-2.2,2.2C55.6,246.7,54.7,245.7,54.7,244.5z"/>
		<path class="st4" d="M28.8,258.7c-1.9,0-3.4-1.5-3.4-3.4c0-1.9,1.5-3.4,3.4-3.4c0.5,0,1-0.4,1-1c0-0.5-0.4-1-1-1
			c-3,0-5.4,2.4-5.4,5.4c0,3,2.4,5.4,5.4,5.4c0.5,0,1-0.4,1-1C29.8,259.1,29.3,258.7,28.8,258.7z"/>
	</g>
</g>
<g>
	<g>
		<circle class="st0" cx="55.3" cy="110" r="7.9"/>
		<circle class="st0" cx="55.3" cy="88.8" r="7.9"/>
	</g>
	<g>
		<circle class="st1" cx="55.3" cy="110" r="3.1"/>
		<circle class="st1" cx="55.3" cy="88.8" r="3.1"/>
	</g>
	<path class="st2" d="M21.2,111.2h7.7c6.4,0,11.6-5.2,11.6-11.6c0-6.4-5.2-11.6-11.6-11.6H9.4V82c0-1.4-1.1-2.5-2.5-2.5H4.9
		c-1.4,0-2.5,1.1-2.5,2.5v35.1c0,1.4,1.1,2.5,2.5,2.5h2.1c1.4,0,2.5-1.1,2.5-2.5v-5.9H18"/>
	<g class="st3">
		<path class="st4" d="M55.3,105.2c3.8,0,7.1,2.7,7.8,6.4c0.1-0.5,0.2-1,0.2-1.6c0-4.4-3.6-7.9-7.9-7.9c-4.4,0-7.9,3.6-7.9,7.9
			c0,0.5,0.1,1.1,0.2,1.6C48.3,108,51.5,105.2,55.3,105.2z"/>
	</g>
	<g class="st3">
		<path class="st4" d="M55.3,84c3.8,0,7.1,2.7,7.8,6.4c0.1-0.5,0.2-1,0.2-1.6c0-4.4-3.6-7.9-7.9-7.9c-4.4,0-7.9,3.6-7.9,7.9
			c0,0.5,0.1,1.1,0.2,1.6C48.3,86.8,51.5,84,55.3,84z"/>
	</g>
	<g class="st3">
		<path class="st4" d="M40.5,99.6c0-6.4-5.2-11.6-11.6-11.6H8.5v0.4c0,0.8,0.3,2.7,2.3,2.7h18.1c5.9,0,10.7,4.4,11.5,10
			C40.4,100.6,40.5,100.1,40.5,99.6z"/>
	</g>
	<g>
		<path class="st4" d="M10.4,117.1v-5H18c0.5,0,1-0.4,1-1c0-0.5-0.4-1-1-1H9.4c-0.5,0-1,0.4-1,1v5.9c0,0.8-0.7,1.5-1.5,1.5H4.9
			c-0.8,0-1.5-0.7-1.5-1.5V82c0-0.8,0.7-1.5,1.5-1.5h2.1c0.8,0,1.5,0.7,1.5,1.5V88c0,0.5,0.4,1,1,1h19.5c5.8,0,10.6,4.8,10.6,10.6
			c0,5.8-4.8,10.6-10.6,10.6h-7.7c-0.5,0-1,0.4-1,1c0,0.5,0.4,1,1,1h7.7c4.9,0,9.2-2.8,11.2-6.9l6.6,2.5c-0.2,0.7-0.3,1.5-0.3,2.3
			c0,4.9,4,8.9,8.9,8.9c4.9,0,8.9-4,8.9-8.9s-4-8.9-8.9-8.9c-3.4,0-6.4,2-7.9,4.8l-6.6-2.5c0.4-1.2,0.6-2.5,0.6-3.8
			c0-1.4-0.2-2.7-0.6-3.9l6.6-2.6c1.5,2.8,4.5,4.7,7.9,4.7c4.9,0,8.9-4,8.9-8.9c0-4.9-4-8.9-8.9-8.9c-4.9,0-8.9,4-8.9,8.9
			c0,0.8,0.1,1.6,0.3,2.3l-6.7,2.6c-2.1-4-6.3-6.8-11.2-6.8H10.4v-5c0-1.9-1.6-3.5-3.5-3.5H4.9c-1.9,0-3.5,1.6-3.5,3.5v35.1
			c0,1.9,1.6,3.5,3.5,3.5h2.1C8.8,120.6,10.4,119,10.4,117.1z M55.3,103.1c3.8,0,6.9,3.1,6.9,6.9s-3.1,6.9-6.9,6.9
			c-3.8,0-6.9-3.1-6.9-6.9C48.4,106.2,51.5,103.1,55.3,103.1z M55.3,81.9c3.8,0,6.9,3.1,6.9,6.9c0,3.8-3.1,6.9-6.9,6.9
			c-3.8,0-6.9-3.1-6.9-6.9C48.4,85,51.5,81.9,55.3,81.9z"/>
		<path class="st4" d="M55.3,114.2c2.3,0,4.1-1.9,4.1-4.1c0-2.3-1.9-4.1-4.1-4.1c-2.3,0-4.1,1.9-4.1,4.1
			C51.2,112.3,53.1,114.2,55.3,114.2z M55.3,107.9c1.2,0,2.2,1,2.2,2.2s-1,2.2-2.2,2.2s-2.2-1-2.2-2.2
			C53.2,108.9,54.2,107.9,55.3,107.9z"/>
		<path class="st4" d="M59.5,88.8c0-2.3-1.9-4.1-4.1-4.1s-4.1,1.9-4.1,4.1c0,2.3,1.9,4.1,4.1,4.1C57.6,93,59.5,91.1,59.5,88.8z
			 M53.2,88.8c0-1.2,1-2.2,2.2-2.2s2.2,1,2.2,2.2c0,1.2-1,2.2-2.2,2.2S53.2,90,53.2,88.8z"/>
		<path class="st4" d="M27.3,103c-1.9,0-3.4-1.5-3.4-3.4c0-1.9,1.5-3.4,3.4-3.4c0.5,0,1-0.4,1-1c0-0.5-0.4-1-1-1
			c-3,0-5.4,2.4-5.4,5.4c0,3,2.4,5.4,5.4,5.4c0.5,0,1-0.4,1-1C28.3,103.4,27.9,103,27.3,103z"/>
	</g>
</g>
<g>
	<g>
		<circle class="st0" cx="118" cy="228.6" r="17.3"/>
		<circle class="st0" cx="118" cy="182.4" r="17.3"/>
	</g>
	<g>
		<circle class="st1" cx="118" cy="228.6" r="6.8"/>
		<circle class="st1" cx="118" cy="182.4" r="6.8"/>
	</g>
	<path class="st2" d="M43.6,231h16.8c13.9,0,25.2-11.3,25.2-25.2c0-13.9-11.3-25.2-25.2-25.2H18v-12.9c0-3-2.4-5.4-5.4-5.4H8.2
		c-3,0-5.4,2.4-5.4,5.4V244c0,3,2.4,5.4,5.4,5.4h4.5c3,0,5.4-2.4,5.4-5.4V231h18.7"/>
	<g class="st3">
		<path class="st4" d="M118,218.1c8.4,0,15.4,6,16.9,13.9c0.2-1.1,0.3-2.2,0.3-3.4c0-9.5-7.7-17.3-17.3-17.3
			c-9.5,0-17.3,7.7-17.3,17.3c0,1.2,0.1,2.3,0.3,3.4C102.6,224,109.6,218.1,118,218.1z"/>
	</g>
	<g class="st3">
		<path class="st4" d="M118,171.9c8.4,0,15.4,6,16.9,13.9c0.2-1.1,0.3-2.2,0.3-3.4c0-9.5-7.7-17.3-17.3-17.3
			c-9.5,0-17.3,7.7-17.3,17.3c0,1.2,0.1,2.3,0.3,3.4C102.6,177.9,109.6,171.9,118,171.9z"/>
	</g>
	<g class="st3">
		<path class="st4" d="M85.6,205.8c0-13.9-11.3-25.2-25.2-25.2H16v0.8c0.1,1.8,0.7,5.9,5,5.9h39.4c12.8,0,23.3,9.5,25,21.8
			C85.5,208.1,85.6,206.9,85.6,205.8z"/>
	</g>
	<g>
		<path class="st4" d="M20.1,244v-10.8h16.5c1.2,0,2.2-1,2.2-2.2c0-1.2-1-2.2-2.2-2.2H18c-1.2,0-2.2,1-2.2,2.2V244
			c0,1.8-1.4,3.2-3.2,3.2H8.2c-1.8,0-3.2-1.4-3.2-3.2v-76.4c0-1.8,1.4-3.2,3.2-3.2h4.5c1.8,0,3.2,1.4,3.2,3.2v12.9
			c0,1.2,1,2.2,2.2,2.2h42.4c12.7,0,23.1,10.3,23.1,23.1c0,12.7-10.3,23.1-23.1,23.1H43.6c-1.2,0-2.2,1-2.2,2.2c0,1.2,1,2.2,2.2,2.2
			h16.8c10.7,0,19.9-6.1,24.5-15.1l14.4,5.5c-0.4,1.6-0.6,3.2-0.6,4.9c0,10.7,8.7,19.4,19.4,19.4c10.7,0,19.4-8.7,19.4-19.4
			c0-10.7-8.7-19.4-19.4-19.4c-7.5,0-14,4.3-17.2,10.5l-14.3-5.5c0.8-2.6,1.3-5.4,1.3-8.3c0-3-0.5-5.9-1.4-8.6l14.5-5.7
			c3.3,6.1,9.7,10.3,17.2,10.3c10.7,0,19.4-8.7,19.4-19.4c0-10.7-8.7-19.4-19.4-19.4c-10.7,0-19.4,8.7-19.4,19.4
			c0,1.8,0.2,3.5,0.7,5.1l-14.5,5.7c-4.6-8.8-13.8-14.8-24.3-14.8H20.2v-10.8c0-4.1-3.4-7.5-7.5-7.5H8.2c-4.1,0-7.5,3.4-7.5,7.5
			l0,76.4c0,4.1,3.4,7.5,7.5,7.5h4.5C16.8,251.5,20.1,248.1,20.1,244z M118,213.5c8.3,0,15.1,6.8,15.1,15.1s-6.8,15.1-15.1,15.1
			c-8.3,0-15.1-6.8-15.1-15.1C102.9,220.2,109.7,213.5,118,213.5z M118,167.3c8.3,0,15.1,6.8,15.1,15.1c0,8.3-6.8,15.1-15.1,15.1
			c-8.3,0-15.1-6.8-15.1-15.1C102.9,174.1,109.7,167.3,118,167.3z"/>
		<path class="st4" d="M118,237.6c5,0,9-4,9-9c0-5-4-9-9-9s-9,4-9,9C109,233.5,113,237.6,118,237.6z M118,223.9
			c2.6,0,4.7,2.1,4.7,4.7c0,2.6-2.1,4.7-4.7,4.7s-4.7-2.1-4.7-4.7C113.3,226,115.4,223.9,118,223.9z"/>
		<path class="st4" d="M127,182.4c0-5-4-9-9-9c-5,0-9,4-9,9c0,5,4,9,9,9S127,187.4,127,182.4z M113.3,182.4c0-2.6,2.1-4.7,4.7-4.7
			s4.7,2.1,4.7,4.7c0,2.6-2.1,4.7-4.7,4.7S113.3,185,113.3,182.4z"/>
		<path class="st4" d="M57,213.2c-4.1,0-7.4-3.3-7.4-7.4c0-4.1,3.3-7.4,7.4-7.4c1.2,0,2.2-1,2.2-2.2c0-1.2-1-2.2-2.2-2.2
			c-6.4,0-11.7,5.2-11.7,11.7c0,6.4,5.2,11.7,11.7,11.7c1.2,0,2.2-1,2.2-2.2C59.1,214.1,58.2,213.2,57,213.2z"/>
	</g>
</g>
<g>
	<g>
		<circle class="st0" cx="64" cy="86.6" r="9.3"/>
		<circle class="st0" cx="64" cy="61.8" r="9.3"/>
	</g>
	<g>
		<circle class="st1" cx="64" cy="86.6" r="3.7"/>
		<circle class="st1" cx="64" cy="61.8" r="3.7"/>
	</g>
	<path class="st2" d="M23.9,88h9c7.5,0,13.6-6.1,13.6-13.6c0-7.5-6.1-13.6-13.6-13.6H10.1v-7c0-1.6-1.3-2.9-2.9-2.9H4.8
		c-1.6,0-2.9,1.3-2.9,2.9v41.2c0,1.6,1.3,2.9,2.9,2.9h2.4c1.6,0,2.9-1.3,2.9-2.9v-7h10.1"/>
	<g class="st3">
		<path class="st4" d="M64,81c4.5,0,8.3,3.2,9.1,7.5c0.1-0.6,0.2-1.2,0.2-1.8c0-5.1-4.2-9.3-9.3-9.3c-5.1,0-9.3,4.2-9.3,9.3
			c0,0.6,0.1,1.2,0.2,1.8C55.7,84.2,59.5,81,64,81z"/>
	</g>
	<g class="st3">
		<path class="st4" d="M64,56.1c4.5,0,8.3,3.2,9.1,7.5c0.1-0.6,0.2-1.2,0.2-1.8c0-5.1-4.2-9.3-9.3-9.3c-5.1,0-9.3,4.2-9.3,9.3
			c0,0.6,0.1,1.2,0.2,1.8C55.7,59.3,59.5,56.1,64,56.1z"/>
	</g>
	<g class="st3">
		<path class="st4" d="M46.5,74.4c0-7.5-6.1-13.6-13.6-13.6H9v0.5c0,1,0.4,3.2,2.7,3.2h21.2c6.9,0,12.6,5.1,13.5,11.8
			C46.5,75.6,46.5,75,46.5,74.4z"/>
	</g>
	<g>
		<path class="st4" d="M11.3,94.9v-5.8h8.9c0.6,0,1.2-0.5,1.2-1.2c0-0.6-0.5-1.2-1.2-1.2H10.1c-0.6,0-1.2,0.5-1.2,1.2v7
			c0,0.9-0.8,1.7-1.7,1.7H4.8c-0.9,0-1.7-0.8-1.7-1.7l0-41.2c0-0.9,0.8-1.7,1.7-1.7h2.4c0.9,0,1.7,0.8,1.7,1.7v7
			c0,0.6,0.5,1.2,1.2,1.2h22.8c6.9,0,12.4,5.6,12.4,12.4s-5.6,12.4-12.4,12.4h-9c-0.6,0-1.2,0.5-1.2,1.2c0,0.6,0.5,1.2,1.2,1.2h9
			c5.8,0,10.7-3.3,13.2-8.1l7.8,3c-0.2,0.8-0.3,1.7-0.3,2.6c0,5.8,4.7,10.5,10.5,10.5c5.8,0,10.5-4.7,10.5-10.5
			c0-5.8-4.7-10.5-10.5-10.5c-4,0-7.5,2.3-9.3,5.7l-7.7-3c0.5-1.4,0.7-2.9,0.7-4.5c0-1.6-0.3-3.2-0.7-4.6l7.8-3.1
			c1.8,3.3,5.2,5.6,9.2,5.6c5.8,0,10.5-4.7,10.5-10.5c0-5.8-4.7-10.5-10.5-10.5c-5.8,0-10.5,4.7-10.5,10.5c0,0.9,0.1,1.9,0.4,2.7
			L46,67.6c-2.5-4.7-7.4-8-13.1-8H11.3v-5.8c0-2.2-1.8-4.1-4.1-4.1H4.8c-2.2,0-4.1,1.8-4.1,4.1l0,41.2c0,2.2,1.8,4.1,4.1,4.1h2.4
			C9.4,99,11.3,97.2,11.3,94.9z M64,78.5c4.5,0,8.1,3.7,8.1,8.1s-3.7,8.1-8.1,8.1c-4.5,0-8.1-3.7-8.1-8.1
			C55.9,82.2,59.5,78.5,64,78.5z M64,53.6c4.5,0,8.1,3.7,8.1,8.1c0,4.5-3.7,8.1-8.1,8.1c-4.5,0-8.1-3.7-8.1-8.1
			C55.9,57.3,59.5,53.6,64,53.6z"/>
		<path class="st4" d="M64,91.5c2.7,0,4.9-2.2,4.9-4.9c0-2.7-2.2-4.9-4.9-4.9s-4.9,2.2-4.9,4.9C59.1,89.3,61.3,91.5,64,91.5z
			 M64,84.1c1.4,0,2.5,1.1,2.5,2.5s-1.1,2.5-2.5,2.5s-2.5-1.1-2.5-2.5C61.5,85.3,62.6,84.1,64,84.1z"/>
		<path class="st4" d="M68.9,61.8c0-2.7-2.2-4.9-4.9-4.9c-2.7,0-4.9,2.2-4.9,4.9c0,2.7,2.2,4.9,4.9,4.9
			C66.7,66.6,68.9,64.5,68.9,61.8z M61.5,61.8c0-1.4,1.1-2.5,2.5-2.5s2.5,1.1,2.5,2.5c0,1.4-1.1,2.5-2.5,2.5S61.5,63.2,61.5,61.8z"
			/>
		<path class="st4" d="M31.1,78.3c-2.2,0-4-1.8-4-4c0-2.2,1.8-4,4-4c0.6,0,1.2-0.5,1.2-1.2c0-0.6-0.5-1.2-1.2-1.2
			c-3.5,0-6.3,2.8-6.3,6.3c0,3.5,2.8,6.3,6.3,6.3c0.6,0,1.2-0.5,1.2-1.2C32.3,78.9,31.7,78.3,31.1,78.3z"/>
	</g>
</g>
<g>
	<g>
		<circle class="st0" cx="54.6" cy="45" r="7.9"/>
		<circle class="st0" cx="54.6" cy="23.8" r="7.9"/>
	</g>
	<g>
		<circle class="st1" cx="54.6" cy="45" r="3.1"/>
		<circle class="st1" cx="54.6" cy="23.8" r="3.1"/>
	</g>
	<path class="st2" d="M20.4,46.1h7.7c6.4,0,11.6-5.2,11.6-11.6c0-6.4-5.2-11.6-11.6-11.6H8.7V17c0-1.4-1.1-2.5-2.5-2.5H4.1
		c-1.4,0-2.5,1.1-2.5,2.5V52c0,1.4,1.1,2.5,2.5,2.5h2.1c1.4,0,2.5-1.1,2.5-2.5v-5.9h8.6"/>
	<g class="st3">
		<path class="st4" d="M54.6,40.1c3.8,0,7.1,2.7,7.8,6.4c0.1-0.5,0.2-1,0.2-1.6c0-4.4-3.6-7.9-7.9-7.9c-4.4,0-7.9,3.6-7.9,7.9
			c0,0.5,0.1,1.1,0.2,1.6C47.6,42.9,50.8,40.1,54.6,40.1z"/>
	</g>
	<g class="st3">
		<path class="st4" d="M54.6,18.9c3.8,0,7.1,2.7,7.8,6.4c0.1-0.5,0.2-1,0.2-1.6c0-4.4-3.6-7.9-7.9-7.9c-4.4,0-7.9,3.6-7.9,7.9
			c0,0.5,0.1,1.1,0.2,1.6C47.6,21.7,50.8,18.9,54.6,18.9z"/>
	</g>
	<g class="st3">
		<path class="st4" d="M39.7,34.5c0-6.4-5.2-11.6-11.6-11.6H7.7v0.4c0,0.8,0.3,2.7,2.3,2.7h18.1c5.9,0,10.7,4.4,11.5,10
			C39.7,35.5,39.7,35,39.7,34.5z"/>
	</g>
	<g>
		<path class="st4" d="M9.6,52v-5h7.6c0.5,0,1-0.4,1-1c0-0.5-0.4-1-1-1H8.7c-0.5,0-1,0.4-1,1V52c0,0.8-0.7,1.5-1.5,1.5H4.1
			c-0.8,0-1.5-0.7-1.5-1.5V17c0-0.8,0.7-1.5,1.5-1.5h2.1c0.8,0,1.5,0.7,1.5,1.5v5.9c0,0.5,0.4,1,1,1h19.5c5.8,0,10.6,4.8,10.6,10.6
			S34,45.1,28.1,45.1h-7.7c-0.5,0-1,0.4-1,1c0,0.5,0.4,1,1,1h7.7c4.9,0,9.2-2.8,11.2-6.9l6.6,2.5c-0.2,0.7-0.3,1.5-0.3,2.3
			c0,4.9,4,8.9,8.9,8.9c4.9,0,8.9-4,8.9-8.9s-4-8.9-8.9-8.9c-3.4,0-6.4,2-7.9,4.8l-6.6-2.5c0.4-1.2,0.6-2.5,0.6-3.8
			c0-1.4-0.2-2.7-0.6-3.9l6.6-2.6c1.5,2.8,4.5,4.7,7.9,4.7c4.9,0,8.9-4,8.9-8.9c0-4.9-4-8.9-8.9-8.9c-4.9,0-8.9,4-8.9,8.9
			c0,0.8,0.1,1.6,0.3,2.3l-6.7,2.6c-2.1-4-6.3-6.8-11.2-6.8H9.6v-5c0-1.9-1.6-3.5-3.5-3.5H4.1c-1.9,0-3.5,1.6-3.5,3.5V52
			c0,1.9,1.6,3.5,3.5,3.5h2.1C8.1,55.5,9.6,53.9,9.6,52z M54.6,38c3.8,0,6.9,3.1,6.9,6.9s-3.1,6.9-6.9,6.9c-3.8,0-6.9-3.1-6.9-6.9
			C47.7,41.1,50.8,38,54.6,38z M54.6,16.8c3.8,0,6.9,3.1,6.9,6.9c0,3.8-3.1,6.9-6.9,6.9c-3.8,0-6.9-3.1-6.9-6.9
			C47.7,19.9,50.8,16.8,54.6,16.8z"/>
		<path class="st4" d="M54.6,49.1c2.3,0,4.1-1.9,4.1-4.1c0-2.3-1.9-4.1-4.1-4.1c-2.3,0-4.1,1.9-4.1,4.1
			C50.5,47.2,52.3,49.1,54.6,49.1z M54.6,42.8c1.2,0,2.2,1,2.2,2.2c0,1.2-1,2.2-2.2,2.2s-2.2-1-2.2-2.2
			C52.5,43.8,53.4,42.8,54.6,42.8z"/>
		<path class="st4" d="M58.7,23.8c0-2.3-1.9-4.1-4.1-4.1c-2.3,0-4.1,1.9-4.1,4.1c0,2.3,1.9,4.1,4.1,4.1C56.9,27.9,58.7,26,58.7,23.8
			z M52.5,23.8c0-1.2,1-2.2,2.2-2.2s2.2,1,2.2,2.2c0,1.2-1,2.2-2.2,2.2S52.5,24.9,52.5,23.8z"/>
		<path class="st4" d="M26.6,37.9c-1.9,0-3.4-1.5-3.4-3.4c0-1.9,1.5-3.4,3.4-3.4c0.5,0,1-0.4,1-1c0-0.5-0.4-1-1-1
			c-3,0-5.4,2.4-5.4,5.4c0,3,2.4,5.4,5.4,5.4c0.5,0,1-0.4,1-1C27.6,38.3,27.1,37.9,26.6,37.9z"/>
	</g>
</g>
</svg>
