<?xml version="1.0" encoding="utf-8"?>
<!-- Generator: Adobe Illustrator 19.2.1, SVG Export Plug-In . SVG Version: 6.00 Build 0)  -->
<svg version="1.1" id="Livello_1" xmlns="http://www.w3.org/2000/svg" xmlns:xlink="http://www.w3.org/1999/xlink" x="0px" y="0px"
	 width="600px" height="400px" viewBox="0 0 600 400" style="enable-background:new 0 0 600 400;" xml:space="preserve">
<style type="text/css">
	.st0{fill:#CB2027;}
	.st1{fill:#A72922;}
	.st2{fill:#FFD961;}
	.st3{fill:#F5F6F6;}
	.st4{opacity:0.2;}
	.st5{fill:#231F20;}
	.st6{fill:#DE2226;}
</style>
<g>
	<path class="st0" d="M101.7,212.3c2.4-5.2,0.1-11.4-5.1-13.7c-13.6-6.2-22.4-20-22.4-34.9c0-9.5,3.5-18.5,9.7-25.5
		c-2.3-5.6-4-11.6-5-17.8h-6.6l0,0l0,0c-12,11.1-18.9,26.8-18.9,43.3c0,23,13.5,44.2,34.5,53.8C93.2,219.8,99.3,217.5,101.7,212.3z"
		/>
	<path class="st0" d="M41.8,214.9c3.8-4.3,3.3-10.9-0.9-14.6c-9.8-8.7-15.5-21.1-15.5-34.3c0-25.2,20.5-45.6,45.6-45.6h7.9
		c-0.6-3.8-0.9-7.6-0.9-11.6c0-3.1,0.2-6.2,0.6-9.2h-7.6c-36.6,0-66.4,29.8-66.4,66.4c0,19.1,8.2,37.2,22.5,49.9
		C31.5,219.6,38,219.2,41.8,214.9z"/>
	<path class="st0" d="M71,99.6h7.6c0,0,0-0.1,0,0c0.6-5.2,1.7-10.1,3.3-14.9c-14-6-23.4-19.8-23.4-35.4c0-6.8,1.8-13.5,5.2-19.3
		c2.9-5,1.2-11.3-3.7-14.2c-5-2.9-11.3-1.2-14.2,3.7c-5.2,9-8,19.3-8,29.7c0,21,11.1,40,28.3,50.5C67.7,99.6,69.3,99.6,71,99.6z"/>
</g>
<path class="st1" d="M198.4,171.9c-12.4,8.6-27.4,13.6-43.6,13.6c-42.4,0-76.7-34.3-76.7-76.7S112.4,32,154.8,32
	s76.7,34.4,76.7,76.7c0,20.9-8.4,40-22,53.8"/>
<circle class="st2" cx="163" cy="108.8" r="34.3"/>
<circle class="st3" cx="163" cy="108.8" r="11.9"/>
<circle class="st0" cx="264.9" cy="108.8" r="15.6"/>
<g class="st4">
	<path class="st5" d="M154.8,46.4c40,0,72.8,30.6,76.4,69.6c0.2-2.3,0.3-4.8,0.3-7.2c0-42.4-34.4-76.7-76.7-76.7
		c-42.4,0-76.7,34.4-76.7,76.7c0,2.4,0.1,4.8,0.3,7.2C82,76.9,114.9,46.4,154.8,46.4z"/>
</g>
<g class="st4">
	<path class="st5" d="M163,88.8c16.5,0,30.2,11.6,33.6,27.1c0.5-2.3,0.8-4.7,0.8-7.2c0-18.9-15.4-34.3-34.3-34.3
		s-34.3,15.4-34.3,34.3c0,2.4,0.3,4.8,0.8,7.2C132.7,100.4,146.5,88.8,163,88.8z"/>
</g>
<g class="st4">
	<path class="st5" d="M264.9,107.5c6,0,11.2,3.4,13.8,8.4c1.1-2.2,1.8-4.6,1.8-7.2c0-8.6-7-15.6-15.6-15.6c-8.6,0-15.6,7-15.6,15.6
		c0,2.6,0.6,5,1.8,7.2C253.8,110.9,258.9,107.5,264.9,107.5z"/>
</g>
<g>
	<path class="st5" d="M35,222.9c4-0.3,7.6-2.1,10.2-5c2.4-2.7,3.7-6.2,3.7-9.8c0-4.3-1.8-8.3-5.1-11.2c-8.9-7.8-14-19.1-14-30.9
		c0-19.3,13.4-35.6,31.4-40c-8,10.9-12.4,24-12.4,37.7c0,24.8,14.6,47.5,37.1,57.9c7.5,3.5,16.3,0.2,19.8-7.3
		c0.9-1.9,1.3-4.1,1.3-6.2c0-5.8-3.4-11.1-8.7-13.5c-12-5.5-19.8-17.6-19.8-30.8c0-5.9,1.6-11.6,4.4-16.7
		c13.7,25.6,40.7,43.1,71.7,43.1c16.6,0,32.6-5,46.2-14.4c2.1-1.4,2.6-4.2,1.2-6.3c-1.4-2.1-4.2-2.6-6.3-1.2
		c-12.1,8.3-26.3,12.8-41.1,12.8c-31.7,0-58.8-20.6-68.4-49.1c-0.1-0.1-0.1-0.2-0.1-0.3c-0.2-0.4-0.3-0.9-0.4-1.4
		c-1.1-3.5-1.9-7-2.4-10.6c0-0.1-0.1-0.2-0.1-0.3c0-0.1,0-0.1,0-0.2c-0.1-0.5-0.2-1-0.2-1.6c-0.1-0.3-0.1-0.5-0.1-0.8
		c-0.1-0.6-0.1-1.1-0.2-1.6c0-0.2-0.1-0.4-0.1-0.6c-0.1-1.5-0.2-3-0.2-4.5c0-0.2,0-0.3,0-0.4c0-0.7,0-1.3,0-2c0-0.1,0-0.2,0-0.3
		c0.1-1.6,0.1-3.2,0.2-4.7c0-0.1,0-0.1,0-0.2c0.1-0.7,0.2-1.5,0.2-2.2c0-0.1,0-0.2,0.1-0.3c0.1-0.3,0.1-0.6,0.1-0.9
		c4.8-35.3,35.1-62.5,71.6-62.5c39.8,0,72.2,32.4,72.2,72.2c0,19-7.3,37.1-20.7,50.6c-1.7,1.8-1.7,4.6,0.1,6.4
		c1.8,1.7,4.6,1.7,6.4-0.1c14-14.2,22.1-32.7,23.1-52.4h9.5c2.1,8.9,10,15.6,19.5,15.6c11.1,0,20.1-9,20.1-20.1s-9-20.1-20.1-20.1
		c-9.5,0-17.5,6.7-19.5,15.6h-9.5c-2.3-42.7-37.8-76.7-81.1-76.7c-34.1,0-63.3,21-75.3,50.9c-10.1-6.1-16.4-17-16.4-29
		c0-6,1.6-11.9,4.6-17c1.3-2.3,2-4.8,2-7.5c0-5.3-2.8-10.2-7.4-12.9c-3.5-2-7.5-2.6-11.3-1.5s-7.1,3.5-9.1,6.9
		c-5.6,9.7-8.6,20.8-8.6,32c0,18.3,8,35.7,21.5,47.6C23.4,104.4,0,132.5,0,166c0,20.4,8.8,39.8,24.1,53.3
		C27.2,221.8,31,223.1,35,222.9z M264.9,97.7c6.1,0,11.1,5,11.1,11.1c0,6.1-5,11-11.1,11s-11-5-11-11
		C253.9,102.6,258.9,97.7,264.9,97.7z M78.7,137.3c-5.8,7.5-9,16.7-9,26.3c0,16.7,9.8,32.1,25,39.1c2.1,0.9,3.4,3.1,3.4,5.3
		c0,0.8-0.2,1.7-0.6,2.4c-1.3,2.9-4.8,4.2-7.8,2.9c-19.4-8.9-31.9-28.4-31.9-49.7c0-14.5,5.9-28.6,16.2-38.8h1
		c0.6,3.1,1.4,6.1,2.3,9c0.1,0.3,0.2,0.6,0.3,0.8c0.2,0.7,0.5,1.4,0.8,2.2C78.6,136.9,78.6,137.1,78.7,137.3z M42.3,49.3
		c0-9.7,2.6-19.1,7.4-27.5c0.8-1.3,2.1-2.3,3.6-2.7c1.5-0.4,3.1-0.2,4.5,0.6c1.8,1.1,2.9,3,2.9,5.1c0,1-0.3,2.1-0.8,2.9
		c-3.8,6.5-5.8,14-5.8,21.6c0,15.9,8.7,30.3,22.4,37.7c-0.7,2.7-1.3,5.3-1.8,8h-3.7c-0.4,0-0.9,0-1.3,0c-0.8,0-1.6,0.1-2.4,0.1
		C51.9,85.2,42.3,67.7,42.3,49.3z M30.2,212.4c-13.4-11.7-21-28.7-21-46.5c0-32.5,25.2-59.2,57.1-61.7c0.1,0,0.2,0,0.3,0
		c1.3-0.1,2.4-0.2,3.4-0.2c0.4,0,0.8,0,1.2,0h2.7c0,0.1,0,0.1,0,0.1c-0.1,0.9-0.1,1.8-0.1,2.7c0,0.2,0,0.3,0,0.4c0,0.4,0,0.9,0,1.4
		c0,0.3,0,0.6,0,0.8c0,0.2,0,0.4,0,0.7c0.1,1.8,0.1,3.5,0.3,5.3c0,0.1,0,0.2,0,0.3h-2.8c-27.7,0-50.1,22.5-50.1,50.1
		c0,14.4,6.2,28.2,17,37.7c1.3,1.1,2,2.7,2,4.4c0,1.4-0.5,2.8-1.4,3.8c-1.1,1.2-2.4,1.9-4,2C32.8,214,31.3,213.4,30.2,212.4z"/>
	<path class="st5" d="M163,147.5c21.4,0,38.8-17.4,38.8-38.8c0-21.4-17.4-38.8-38.8-38.8s-38.8,17.4-38.8,38.8
		S141.6,147.5,163,147.5z M133.2,108.8c0-16.4,13.4-29.8,29.8-29.8s29.8,13.4,29.8,29.8s-13.4,29.8-29.8,29.8
		S133.2,125.2,133.2,108.8z"/>
	<path class="st5" d="M179.4,108.8c0-9.1-7.3-16.4-16.4-16.4s-16.4,7.3-16.4,16.4s7.3,16.4,16.4,16.4S179.4,117.8,179.4,108.8z
		 M155.6,108.8c0-4.1,3.3-7.4,7.4-7.4s7.4,3.3,7.4,7.4c0,4.1-3.3,7.4-7.4,7.4C158.9,116.1,155.6,112.8,155.6,108.8z"/>
	<path class="st5" d="M108.3,117c-3.1-1.7-5.1-4.8-5.1-8.4c0-3.6,2-6.9,5.3-8.5c2.2-1.1,3.2-3.8,2.1-6.1c-1.1-2.2-3.8-3.2-6.1-2.1
		c-6.3,3.1-10.4,9.5-10.4,16.6c0,6.9,3.8,13.1,9.8,16.4c2.2,1.2,5,0.3,6.1-1.9C111.3,120.9,110.5,118.2,108.3,117z"/>
</g>
<g>
	<path class="st0" d="M66.8,380.2c-0.3-2.5-2.5-4.3-5-4.1c-6.5,0.7-12.9-2.6-16.2-8.2c-2.1-3.6-2.8-7.8-2-11.8
		c-2.1-1.6-4.1-3.5-5.8-5.6l-2.5,1.5l0,0l0,0c-2.1,6.8-1.2,14.3,2.5,20.5c5.1,8.7,14.9,13.7,24.9,12.7C65.2,385,67,382.7,66.8,380.2
		z"/>
	<path class="st0" d="M44.7,394.5c0.5-2.5-1.1-4.8-3.6-5.3c-5.6-1.1-10.5-4.5-13.4-9.5c-5.6-9.5-2.4-21.8,7.1-27.3l3-1.7
		c-1-1.3-2-2.7-2.9-4.2c-0.7-1.2-1.3-2.4-1.8-3.6l-2.9,1.7c-13.8,8.1-18.5,25.9-10.4,39.7c4.2,7.2,11.3,12.2,19.5,13.8
		C41.9,398.5,44.2,396.9,44.7,394.5z"/>
	<path class="st0" d="M30.2,344.5l2.9-1.7c0,0,0,0,0,0c-0.9-2.1-1.6-4.2-2-6.4c-6.6,0.8-13.2-2.3-16.7-8.2c-1.5-2.6-2.3-5.5-2.3-8.4
		c0-2.5-2-4.5-4.5-4.5c-2.5,0-4.5,2-4.5,4.5c0,4.6,1.2,9,3.6,13c4.7,7.9,13,12.6,21.9,12.8C29,345.2,29.6,344.9,30.2,344.5z"/>
</g>
<path class="st6" d="M94.3,343.6c-2.8,6-7.3,11.2-13.5,14.8c-16,9.4-36.6,4-45.9-12s-4-36.6,12-45.9c16-9.4,36.6-4,45.9,12
	c4.6,7.9,5.7,16.9,3.6,25.2"/>
<ellipse transform="matrix(0.8626 -0.5059 0.5059 0.8626 -156.5401 78.8975)" class="st2" cx="67" cy="327.6" rx="15" ry="15"/>
<ellipse transform="matrix(0.8626 -0.5059 0.5059 0.8626 -156.5401 78.8975)" class="st3" cx="67" cy="327.6" rx="5.2" ry="5.2"/>
<ellipse transform="matrix(0.8196 -0.573 0.573 0.8196 -155.4118 115.3418)" class="st0" cx="105.4" cy="304.4" rx="6.8" ry="6.8"/>
<g class="st4">
	<path class="st5" d="M50.1,305.9c15.1-8.8,34.2-4.6,44.2,9.3c-0.4-0.9-0.9-1.9-1.5-2.8c-9.4-16-30-21.3-45.9-12
		c-16,9.4-21.3,30-12,45.9c0.5,0.9,1.1,1.8,1.7,2.6C29.4,333.5,35,314.7,50.1,305.9z"/>
</g>
<g class="st4">
	<path class="st5" d="M62.5,320.1c6.2-3.6,14-2.3,18.7,2.8c-0.3-1-0.8-2-1.3-2.9c-4.2-7.1-13.4-9.5-20.5-5.3
		c-7.1,4.2-9.5,13.4-5.3,20.5c0.5,0.9,1.2,1.8,1.9,2.5C53.7,331.1,56.3,323.7,62.5,320.1z"/>
</g>
<g class="st4">
	<path class="st5" d="M105.1,304c2.2-1.5,4.9-1.6,7.1-0.4c-0.1-1.1-0.5-2.1-1.2-3c-2.1-3.1-6.4-3.8-9.5-1.7
		c-3.1,2.1-3.8,6.4-1.7,9.5c0.7,0.9,1.5,1.6,2.4,2.1C102,308,103,305.5,105.1,304z"/>
</g>
<g>
	<path class="st5" d="M43.9,399c1.4-1,2.4-2.5,2.8-4.2c0.3-1.6,0-3.2-0.8-4.5c-0.9-1.6-2.5-2.7-4.4-3.1c-5.1-1-9.5-4.1-12.1-8.6
		c-4.3-7.3-2.8-16.4,3-22c-0.6,5.9,0.7,11.8,3.7,16.9c5.5,9.4,16,14.7,26.8,13.6c3.6-0.3,6.2-3.5,5.8-7.1c-0.1-0.9-0.4-1.8-0.9-2.6
		c-1.3-2.2-3.7-3.4-6.3-3.2c-5.8,0.6-11.4-2.3-14.3-7.2c-1.3-2.2-2-4.7-2-7.3c10.8,6.6,24.9,7.2,36.6,0.4
		c6.3-3.7,11.2-9.1,14.2-15.7c0.5-1,0-2.2-1-2.6s-2.2,0-2.6,1c-2.7,5.8-7.1,10.7-12.7,13.9c-12,7-26.7,5.2-36.7-3.4
		c0,0-0.1-0.1-0.1-0.1c-0.2-0.1-0.3-0.3-0.5-0.4c-1.2-1.1-2.3-2.2-3.2-3.5c0,0-0.1-0.1-0.1-0.1c0,0,0,0,0-0.1
		c-0.1-0.2-0.3-0.3-0.4-0.5c-0.1-0.1-0.1-0.2-0.2-0.3c-0.1-0.2-0.3-0.4-0.4-0.6c0-0.1-0.1-0.1-0.2-0.2c-0.4-0.5-0.7-1.1-1.1-1.7
		c0-0.1-0.1-0.1-0.1-0.2c-0.1-0.3-0.3-0.5-0.4-0.8c0,0,0-0.1-0.1-0.1c-0.3-0.6-0.7-1.2-1-1.8c0,0,0,0,0-0.1
		c-0.1-0.3-0.3-0.6-0.4-0.9c0,0,0-0.1-0.1-0.1c0-0.1-0.1-0.2-0.2-0.4c-6-14.4-0.6-31.4,13.2-39.4c15-8.8,34.4-3.8,43.2,11.3
		c4.2,7.2,5.4,15.6,3.4,23.7c-0.3,1.1,0.4,2.1,1.4,2.4c1.1,0.3,2.1-0.4,2.4-1.4c2.1-8.4,1.1-17.2-2.9-24.9l3.6-2.1
		c2.7,2.9,7.2,3.7,10.8,1.6c4.2-2.5,5.6-7.8,3.1-12s-7.8-5.6-12-3.1c-3.6,2.1-5.1,6.4-3.9,10.2l-3.6,2.1
		c-10.3-15.6-31.3-20.6-47.6-11c-12.9,7.5-19.2,21.9-17.2,35.9c-5.1-0.1-9.9-2.8-12.6-7.3c-1.3-2.3-2-4.8-2-7.4
		c0-1.2-0.3-2.3-0.9-3.3c-1.2-2-3.3-3.2-5.6-3.2c-1.7,0-3.4,0.7-4.6,1.9c-1.2,1.2-1.9,2.9-1.9,4.6c0,4.9,1.3,9.7,3.8,14
		c4,6.9,10.9,11.7,18.6,13.2c-10.2,9.7-12.8,25.5-5.3,38.1C22.6,393,30.3,398.3,39,400C40.7,400.3,42.5,400,43.9,399z M103,300.8
		c2.3-1.3,5.3-0.6,6.6,1.7c1.3,2.3,0.6,5.3-1.7,6.6c-2.3,1.4-5.3,0.6-6.6-1.7C99.9,305.2,100.7,302.2,103,300.8z M41.5,357
		c-0.5,4.1,0.3,8.3,2.4,11.9c3.7,6.3,10.8,9.9,18.1,9.2c1-0.1,2,0.4,2.5,1.3c0.2,0.3,0.3,0.7,0.3,1c0.1,1.4-0.9,2.7-2.3,2.8
		c-9.3,0.9-18.3-3.7-23-11.7c-3.2-5.5-4.1-12.1-2.5-18.2l0.4-0.2c0.9,1,1.9,2,2.9,2.9c0.1,0.1,0.2,0.2,0.3,0.3
		c0.2,0.2,0.5,0.4,0.8,0.6C41.3,356.9,41.4,357,41.5,357z M8.3,331.8c-2.1-3.7-3.3-7.8-3.3-12c0-0.7,0.3-1.3,0.7-1.8
		c0.5-0.5,1.1-0.8,1.8-0.8c0.9,0,1.8,0.5,2.2,1.3c0.2,0.4,0.4,0.8,0.4,1.3c0,3.3,0.9,6.6,2.6,9.4c3.5,6,10,9.5,16.8,9.3
		c0.3,1.2,0.7,2.3,1.1,3.4l-1.4,0.8c-0.2,0.1-0.3,0.2-0.5,0.3c-0.3,0.2-0.6,0.4-0.9,0.6C19.8,343.3,12.3,338.8,8.3,331.8z
		 M39.8,396.1c-7.6-1.5-14.3-6.2-18.2-12.9c-7.2-12.3-3.6-27.9,7.9-35.9c0,0,0.1,0,0.1-0.1c0.5-0.3,0.9-0.6,1.2-0.8
		c0.1-0.1,0.3-0.2,0.4-0.3l1-0.6c0,0,0,0,0,0c0.2,0.3,0.4,0.7,0.6,1.1c0,0.1,0.1,0.1,0.1,0.2c0.1,0.2,0.2,0.4,0.3,0.5
		c0.1,0.1,0.1,0.2,0.2,0.3c0,0.1,0.1,0.2,0.2,0.3c0.4,0.7,0.8,1.3,1.3,1.9c0,0,0,0.1,0.1,0.1l-1.1,0.6c-10.4,6.1-13.9,19.6-7.8,30
		c3.2,5.4,8.6,9.2,14.8,10.4c0.7,0.1,1.4,0.6,1.7,1.2c0.3,0.5,0.4,1.2,0.3,1.8c-0.1,0.7-0.5,1.3-1.1,1.6
		C41.1,396.1,40.4,396.2,39.8,396.1z"/>
	<path class="st5" d="M75.5,342.2c8.1-4.7,10.8-15.2,6.1-23.2c-4.7-8.1-15.2-10.8-23.2-6.1s-10.8,15.2-6.1,23.2
		C57,344.2,67.5,347,75.5,342.2z M55.7,334.2c-3.6-6.2-1.5-14.2,4.6-17.8s14.2-1.5,17.8,4.6c3.6,6.2,1.5,14.2-4.6,17.8
		C67.3,342.5,59.3,340.4,55.7,334.2z"/>
	<path class="st5" d="M73.1,324c-2-3.4-6.4-4.6-9.8-2.6c-3.4,2-4.6,6.4-2.6,9.8c2,3.4,6.4,4.6,9.8,2.6C74,331.8,75.1,327.4,73.1,324
		z M64.2,329.2c-0.9-1.5-0.4-3.5,1.2-4.4c1.6-0.9,3.5-0.4,4.4,1.2c0.9,1.5,0.4,3.5-1.2,4.4C67,331.3,65.1,330.8,64.2,329.2z"/>
	<path class="st5" d="M48.2,342.8c-1.5,0.1-3-0.7-3.8-2c-0.8-1.4-0.8-3,0.1-4.4c0.6-0.9,0.4-2.1-0.6-2.7c-0.9-0.6-2.1-0.4-2.7,0.6
		c-1.7,2.6-1.8,5.9-0.2,8.5c1.5,2.6,4.3,4.1,7.3,4c1.1-0.1,1.9-1,1.9-2.1C50.2,343.6,49.2,342.8,48.2,342.8z"/>
</g>
<g>
	<path class="st0" d="M178.4,324.3c8.3,18,26.4,29.6,46.1,29.6c14.2,0,27.6-5.9,37.2-16.2l0,0l0,0V332c-5.3-0.8-10.4-2.2-15.3-4.2
		c-6,5.3-13.7,8.3-21.8,8.3c-12.8,0-24.6-7.5-30-19.2c-2.1-4.5-7.3-6.4-11.8-4.4C178.3,314.5,176.3,319.8,178.4,324.3z"/>
	<path class="st0" d="M179.8,376.5c10.8,12.3,26.4,19.3,42.7,19.3c31.4,0,56.9-25.5,56.9-56.9v-6.5c-2.6,0.3-5.2,0.5-7.9,0.5
		c-3.4,0-6.7-0.3-9.9-0.8v6.8c0,21.6-17.6,39.1-39.1,39.1c-11.3,0-21.9-4.9-29.4-13.3c-3.2-3.7-8.9-4.1-12.5-0.8
		C176.9,367.1,176.5,372.7,179.8,376.5z"/>
	<path class="st0" d="M279.3,342.9c9,14.8,25.2,24.3,43.3,24.3c9,0,17.7-2.4,25.5-6.9c4.2-2.5,5.7-7.9,3.2-12.2s-7.9-5.7-12.2-3.2
		c-5,2.9-10.7,4.4-16.6,4.4c-13.4,0-25.2-8.1-30.3-20c-4.1,1.4-8.3,2.3-12.8,2.9c0,0,0,0,0,0v6.5
		C279.4,340.2,279.4,341.6,279.3,342.9z"/>
</g>
<path class="st6" d="M225.4,220c11.9-11.6,28.2-18.8,46.1-18.8c36.3,0,65.8,29.4,65.8,65.8s-29.4,65.8-65.8,65.8
	s-65.8-29.4-65.8-65.8c0-13.9,4.3-26.8,11.6-37.4"/>
<circle class="st2" cx="271.6" cy="259.9" r="29.4"/>
<circle class="st3" cx="271.6" cy="259.9" r="10.2"/>
<circle class="st0" cx="271.6" cy="173.2" r="13.4"/>
<g class="st4">
	<path class="st5" d="M265.4,332.4c2.1,0.2,4.1,0.3,6.2,0.3c36.3,0,65.8-29.4,65.8-65.8c0-36.3-29.4-65.8-65.8-65.8
		c-2.1,0-4.1,0.1-6.2,0.3c33.4,3.1,59.6,31.2,59.6,65.5S298.8,329.3,265.4,332.4z"/>
</g>
<g class="st4">
	<path class="st5" d="M265.4,288.6c2,0.4,4.1,0.7,6.2,0.7c16.2,0,29.4-13.2,29.4-29.4c0-16.2-13.2-29.4-29.4-29.4
		c-2.1,0-4.1,0.2-6.2,0.7c13.3,2.9,23.2,14.6,23.2,28.8C288.7,274.1,278.7,285.9,265.4,288.6z"/>
</g>
<g class="st4">
	<path class="st5" d="M270.5,173.2c0-5.2,2.9-9.6,7.2-11.8c-1.9-1-3.9-1.5-6.2-1.5c-7.3,0-13.4,6-13.4,13.4c0,7.3,6,13.4,13.4,13.4
		c2.2,0,4.3-0.5,6.2-1.5C273.4,182.8,270.5,178.4,270.5,173.2z"/>
</g>
<g>
	<path class="st5" d="M176.8,379c11.5,13.1,28.2,20.7,45.6,20.7c28.7,0,52.8-20,59.1-46.8c10.3,11.5,25.2,18.4,40.8,18.4
		c9.6,0,19.1-2.6,27.4-7.4c3-1.7,5-4.5,5.9-7.8c0.9-3.3,0.4-6.7-1.3-9.7c-2.2-3.9-6.5-6.3-11-6.3c-2.2,0-4.4,0.6-6.4,1.7
		c-4.4,2.6-9.4,3.9-14.6,3.9c-10.3,0-19.7-5.4-24.9-14c25.6-10.4,43.6-35.4,43.6-64.6c0-37.1-29.1-67.5-65.8-69.5v-8.1
		c7.6-1.8,13.4-8.6,13.4-16.7c0-9.5-7.7-17.2-17.2-17.2c-9.5,0-17.2,7.7-17.2,17.2c0,8.2,5.7,15,13.4,16.7v8.1
		c-16.9,0.9-32.8,7.9-44.9,19.8c-1.5,1.5-1.5,4,0,5.5c1.5,1.5,4,1.5,5.5,0c11.6-11.4,27.1-17.7,43.4-17.7
		c34.2,0,61.9,27.8,61.9,61.9c0,31.3-23.4,57.2-53.6,61.3c-0.3,0-0.5,0-0.8,0.1c-0.1,0-0.2,0-0.3,0c-0.6,0-1.3,0.1-1.9,0.2
		c0,0-0.1,0-0.1,0c-1.3,0.1-2.7,0.1-4.1,0.2c0,0-0.1,0-0.2,0c-0.6,0-1.1,0-1.7,0c-0.1,0-0.2,0-0.4,0c-1.3,0-2.6-0.1-3.9-0.2
		c-0.2,0-0.3,0-0.5,0c-0.5,0-0.9-0.1-1.4-0.1c-0.2,0-0.4,0-0.7-0.1c-0.5,0-0.9-0.1-1.3-0.2c0,0-0.1,0-0.1,0c-0.1,0-0.2,0-0.3,0
		c-3.1-0.4-6.1-1.1-9.1-2.1c-0.4-0.1-0.8-0.2-1.2-0.4c0,0-0.1,0-0.2-0.1c-24.4-8.3-42.1-31.5-42.1-58.7c0-12.6,3.8-24.8,11-35.2
		c1.2-1.8,0.8-4.2-1-5.4c-1.8-1.2-4.2-0.8-5.4,1c-8.1,11.6-12.4,25.3-12.4,39.6c0,26.6,15,49.7,36.9,61.4c-4.3,2.4-9.3,3.8-14.3,3.8
		c-11.3,0-21.7-6.7-26.4-17c-2.1-4.5-6.6-7.4-11.6-7.4c-1.9,0-3.7,0.4-5.3,1.1c-6.4,3-9.2,10.5-6.2,16.9
		c8.9,19.3,28.3,31.8,49.6,31.8c11.7,0,23-3.8,32.3-10.6c-3.8,15.4-17.7,26.9-34.2,26.9c-10.1,0-19.8-4.3-26.5-12
		c-2.4-2.8-5.9-4.3-9.6-4.3c-3.1,0-6.1,1.1-8.4,3.2c-2.5,2.2-4.1,5.4-4.3,8.8C173.5,373.1,174.6,376.4,176.8,379z M271.6,182
		c-5.2,0-9.4-4.2-9.4-9.4c0-5.2,4.2-9.5,9.4-9.5c5.2,0,9.5,4.3,9.5,9.5C281,177.8,276.8,182,271.6,182z M247.5,332.4
		c0.6,0.2,1.2,0.5,1.9,0.7c0.2,0.1,0.5,0.1,0.7,0.2c2.5,0.8,5.1,1.5,7.7,2v0.9C249,345,236.9,350,224.5,350
		c-18.3,0-35-10.7-42.6-27.3c-1.1-2.5,0-5.5,2.5-6.7c0.7-0.3,1.4-0.5,2.1-0.5c2,0,3.8,1.1,4.6,2.9c6,13,19.1,21.5,33.5,21.5
		c8.2,0,16.1-2.7,22.6-7.7C247.2,332.3,247.4,332.3,247.5,332.4z M283.3,341.9c0-0.7,0-1.3,0-2.1c0-0.4,0-0.8,0-1.1v-3.1
		c2.3-0.4,4.6-0.9,6.9-1.5c6.4,11.8,18.7,19.2,32.3,19.2c6.5,0,12.9-1.7,18.5-5c0.8-0.4,1.7-0.7,2.5-0.7c1.8,0,3.4,1,4.3,2.5
		c0.7,1.1,0.9,2.5,0.5,3.8c-0.3,1.3-1.2,2.4-2.3,3.1c-7.2,4.1-15.3,6.3-23.6,6.3C306.8,363.3,291.8,355.2,283.3,341.9z M181.4,370.1
		c0.1-1.3,0.7-2.5,1.7-3.4c0.9-0.8,2.1-1.2,3.3-1.2c1.4,0,2.8,0.6,3.8,1.7c8.2,9.3,19.9,14.6,32.3,14.6c23.7,0,43-19.3,43-43v-2.4
		c0.1,0,0.1,0,0.2,0c1.5,0.1,3,0.2,4.5,0.2c0.2,0,0.4,0,0.6,0c0.2,0,0.5,0,0.7,0c0.4,0,0.8,0,1.2,0c0.1,0,0.2,0,0.4,0
		c0.8,0,1.6,0,2.3-0.1c0,0,0,0,0.1,0v2.3c0,0.3,0,0.7,0,1c0,0.9,0,1.8-0.1,2.9c0,0.1,0,0.1,0,0.2c-2.1,27.3-25,48.9-52.8,48.9
		c-15.2,0-29.8-6.6-39.8-18C181.8,372.8,181.4,371.5,181.4,370.1z"/>
	<path class="st5" d="M271.6,293.2c18.3,0,33.2-14.9,33.2-33.2c0-18.3-14.9-33.2-33.2-33.2c-18.3,0-33.2,14.9-33.2,33.2
		S253.2,293.2,271.6,293.2z M246,260c0-14.1,11.4-25.5,25.5-25.5c14.1,0,25.5,11.4,25.5,25.5s-11.4,25.5-25.5,25.5
		C257.5,285.5,246,274.1,246,260z"/>
	<path class="st5" d="M257.5,260c0,7.8,6.3,14.1,14.1,14.1c7.8,0,14.1-6.3,14.1-14.1s-6.3-14.1-14.1-14.1
		C263.8,245.9,257.5,252.2,257.5,260z M265.2,259.9c0-3.5,2.9-6.3,6.3-6.3c3.5,0,6.3,2.8,6.3,6.3s-2.9,6.3-6.3,6.3
		C268.1,266.3,265.3,263.5,265.2,259.9z"/>
	<path class="st5" d="M259.3,305.2c-1.9,1-2.6,3.3-1.6,5.2c2.8,5.2,8.1,8.4,14,8.4c6.1,0,11.5-3.4,14.2-8.9c1-2,0.1-4.2-1.8-5.2
		c-2-1-4.2-0.1-5.2,1.8c-1.4,2.8-4.2,4.5-7.3,4.5c-3.1,0-5.8-1.7-7.2-4.3C263.4,304.9,261.1,304.2,259.3,305.2z"/>
</g>
<g>
	<path class="st0" d="M359,368.3c3.5,7.6,11.1,12.4,19.4,12.4c6,0,11.6-2.5,15.6-6.8l0,0l0,0v-2.4c-2.2-0.3-4.4-0.9-6.4-1.8
		c-2.5,2.2-5.8,3.5-9.2,3.5c-5.4,0-10.3-3.2-12.6-8.1c-0.9-1.9-3.1-2.7-4.9-1.8C359,364.2,358.2,366.5,359,368.3z"/>
	<path class="st0" d="M359.6,390.3c4.5,5.1,11.1,8.1,18,8.1c13.2,0,23.9-10.7,23.9-23.9v-2.7c-1.1,0.1-2.2,0.2-3.3,0.2
		c-1.4,0-2.8-0.1-4.2-0.3v2.8c0,9.1-7.4,16.4-16.4,16.4c-4.7,0-9.2-2-12.3-5.6c-1.4-1.5-3.7-1.7-5.3-0.3
		C358.4,386.3,358.3,388.7,359.6,390.3z"/>
	<path class="st0" d="M401.4,376.2c3.8,6.2,10.6,10.2,18.2,10.2c3.8,0,7.5-1,10.7-2.9c1.8-1,2.4-3.3,1.3-5.1c-1-1.8-3.3-2.4-5.1-1.3
		c-2.1,1.2-4.5,1.9-7,1.9c-5.6,0-10.6-3.4-12.7-8.4c-1.7,0.6-3.5,1-5.4,1.2c0,0,0,0,0,0v2.7C401.5,375,401.5,375.6,401.4,376.2z"/>
</g>
<path class="st6" d="M378.8,324.5c5-4.9,11.8-7.9,19.4-7.9c15.2,0,27.6,12.4,27.6,27.6c0,15.3-12.4,27.6-27.6,27.6
	c-15.3,0-27.6-12.4-27.6-27.6c0-5.8,1.8-11.2,4.9-15.7"/>
<circle class="st2" cx="398.2" cy="341.3" r="12.3"/>
<circle class="st3" cx="398.2" cy="341.3" r="4.3"/>
<circle class="st0" cx="398.3" cy="305" r="5.6"/>
<g class="st4">
	<path class="st5" d="M395.6,371.8c0.9,0.1,1.7,0.1,2.6,0.1c15.2,0,27.6-12.4,27.6-27.6c0-15.2-12.4-27.6-27.6-27.6
		c-0.9,0-1.7,0-2.6,0.1c14,1.3,25,13.1,25,27.5C420.6,358.6,409.6,370.5,395.6,371.8z"/>
</g>
<g class="st4">
	<path class="st5" d="M395.6,353.4c0.8,0.2,1.7,0.3,2.6,0.3c6.8,0,12.3-5.5,12.3-12.3c0-6.8-5.5-12.3-12.3-12.3
		c-0.9,0-1.7,0.1-2.6,0.3c5.6,1.2,9.8,6.2,9.8,12.1C405.4,347.3,401.2,352.2,395.6,353.4z"/>
</g>
<g class="st4">
	<path class="st5" d="M397.8,305c0-2.2,1.2-4,3-5c-0.8-0.4-1.6-0.6-2.6-0.6c-3.1,0-5.6,2.5-5.6,5.6c0,3.1,2.5,5.6,5.6,5.6
		c0.9,0,1.8-0.2,2.6-0.6C399.1,309,397.8,307.2,397.8,305z"/>
</g>
<g>
	<path class="st5" d="M358.4,391.3c4.8,5.5,11.8,8.7,19.2,8.7c12.1,0,22.2-8.4,24.8-19.7c4.3,4.8,10.6,7.7,17.2,7.7
		c4,0,8-1.1,11.5-3.1c1.2-0.7,2.1-1.9,2.5-3.3c0.4-1.4,0.2-2.8-0.5-4.1c-0.9-1.6-2.7-2.7-4.6-2.7c-0.9,0-1.9,0.2-2.7,0.7
		c-1.8,1.1-4,1.6-6.1,1.6c-4.3,0-8.3-2.3-10.5-5.9c10.7-4.3,18.3-14.9,18.3-27.1c0-15.6-12.2-28.4-27.6-29.2v-3.4
		c3.2-0.7,5.6-3.6,5.6-7c0-4-3.2-7.2-7.2-7.2c-4,0-7.2,3.2-7.2,7.2c0,3.4,2.4,6.3,5.6,7v3.4c-7.1,0.4-13.8,3.3-18.9,8.3
		c-0.6,0.6-0.6,1.7,0,2.3c0.6,0.6,1.7,0.6,2.3,0c4.9-4.8,11.4-7.5,18.2-7.5c14.3,0,26,11.7,26,26c0,13.1-9.8,24-22.5,25.8
		c-0.1,0-0.2,0-0.3,0c0,0-0.1,0-0.1,0c-0.3,0-0.5,0.1-0.8,0.1c0,0,0,0-0.1,0c-0.6,0-1.1,0.1-1.7,0.1c0,0-0.1,0-0.1,0
		c-0.2,0-0.5,0-0.7,0c-0.1,0-0.1,0-0.2,0c-0.5,0-1.1,0-1.6-0.1c-0.1,0-0.1,0-0.2,0c-0.2,0-0.4,0-0.6-0.1c-0.1,0-0.2,0-0.3,0
		c-0.2,0-0.4-0.1-0.6-0.1c0,0,0,0-0.1,0c0,0-0.1,0-0.1,0c-1.3-0.2-2.6-0.5-3.8-0.9c-0.2,0-0.3-0.1-0.5-0.2c0,0-0.1,0-0.1,0
		c-10.3-3.5-17.7-13.2-17.7-24.6c0-5.3,1.6-10.4,4.6-14.8c0.5-0.7,0.3-1.8-0.4-2.3s-1.8-0.3-2.3,0.4c-3.4,4.9-5.2,10.6-5.2,16.6
		c0,11.2,6.3,20.9,15.5,25.8c-1.8,1-3.9,1.6-6,1.6c-4.7,0-9.1-2.8-11.1-7.1c-0.9-1.9-2.8-3.1-4.9-3.1c-0.8,0-1.5,0.2-2.2,0.5
		c-2.7,1.2-3.9,4.4-2.6,7.1c3.7,8.1,11.9,13.4,20.8,13.4c4.9,0,9.7-1.6,13.6-4.4c-1.6,6.5-7.4,11.3-14.4,11.3c-4.2,0-8.3-1.8-11.1-5
		c-1-1.2-2.5-1.8-4-1.8c-1.3,0-2.6,0.5-3.5,1.3c-1.1,0.9-1.7,2.3-1.8,3.7C357,388.8,357.5,390.2,358.4,391.3z M398.2,308.6
		c-2.2,0-4-1.8-4-4c0-2.2,1.8-4,4-4c2.2,0,4,1.8,4,4S400.4,308.6,398.2,308.6z M388.1,371.8c0.3,0.1,0.5,0.2,0.8,0.3
		c0.1,0,0.2,0.1,0.3,0.1c1,0.3,2.1,0.6,3.2,0.8v0.4c-3.7,3.7-8.8,5.8-14,5.8c-7.7,0-14.7-4.5-17.9-11.5c-0.5-1.1,0-2.3,1-2.8
		c0.3-0.1,0.6-0.2,0.9-0.2c0.8,0,1.6,0.5,1.9,1.2c2.5,5.5,8,9,14.1,9c3.4,0,6.8-1.1,9.5-3.2C388,371.7,388,371.7,388.1,371.8z
		 M403.1,375.8c0-0.3,0-0.6,0-0.9c0-0.2,0-0.3,0-0.5v-1.3c1-0.2,1.9-0.4,2.9-0.6c2.7,4.9,7.9,8.1,13.6,8.1c2.7,0,5.4-0.7,7.8-2.1
		c0.3-0.2,0.7-0.3,1.1-0.3c0.7,0,1.4,0.4,1.8,1c0.3,0.5,0.4,1.1,0.2,1.6s-0.5,1-1,1.3c-3,1.7-6.4,2.7-9.9,2.7
		C413,384.8,406.7,381.3,403.1,375.8z M360.3,387.6c0-0.6,0.3-1.1,0.7-1.4c0.4-0.3,0.9-0.5,1.4-0.5c0.6,0,1.2,0.3,1.6,0.7
		c3.4,3.9,8.4,6.1,13.6,6.1c10,0,18.1-8.1,18.1-18.1v-1c0,0,0.1,0,0.1,0c0.6,0.1,1.3,0.1,1.9,0.1c0.1,0,0.2,0,0.3,0
		c0.1,0,0.2,0,0.3,0c0.2,0,0.3,0,0.5,0c0.1,0,0.1,0,0.2,0c0.3,0,0.7,0,1,0c0,0,0,0,0,0v1c0,0.1,0,0.3,0,0.4c0,0.4,0,0.8-0.1,1.2
		c0,0,0,0.1,0,0.1c-0.9,11.5-10.5,20.6-22.2,20.6c-6.4,0-12.5-2.8-16.7-7.6C360.5,388.7,360.3,388.2,360.3,387.6z"/>
	<path class="st5" d="M398.2,355.3c7.7,0,14-6.3,14-14c0-7.7-6.3-14-14-14c-7.7,0-14,6.3-14,14S390.5,355.3,398.2,355.3z
		 M387.5,341.3c0-5.9,4.8-10.7,10.7-10.7c5.9,0,10.7,4.8,10.7,10.7c0,5.9-4.8,10.7-10.7,10.7C392.3,352.1,387.5,347.2,387.5,341.3z"
		/>
	<path class="st5" d="M392.3,341.3c0,3.3,2.6,5.9,5.9,5.9s5.9-2.6,5.9-5.9s-2.6-5.9-5.9-5.9C394.9,335.4,392.3,338.1,392.3,341.3z
		 M395.5,341.3c0-1.5,1.2-2.7,2.7-2.7c1.5,0,2.7,1.2,2.7,2.7s-1.2,2.7-2.7,2.7C396.7,344,395.5,342.8,395.5,341.3z"/>
	<path class="st5" d="M393,360.3c-0.8,0.4-1.1,1.4-0.7,2.2c1.2,2.2,3.4,3.5,5.9,3.5c2.5,0,4.8-1.4,6-3.7c0.4-0.8,0.1-1.8-0.7-2.2
		c-0.8-0.4-1.8-0.1-2.2,0.7c-0.6,1.2-1.8,1.9-3.1,1.9c-1.3,0-2.4-0.7-3-1.8C394.8,360.2,393.8,359.9,393,360.3z"/>
</g>
</svg>
