<?xml version="1.0" encoding="utf-8"?>
<!-- Generator: Adobe Illustrator 19.1.0, SVG Export Plug-In . SVG Version: 6.00 Build 0)  -->
<svg version="1.1" id="Layer_1" xmlns="http://www.w3.org/2000/svg" xmlns:xlink="http://www.w3.org/1999/xlink" x="0px" y="0px"
	 viewBox="-34.6 287 387.1 499.2" style="enable-background:new -34.6 287 387.1 499.2;" xml:space="preserve">
<style type="text/css">
	.st0{opacity:0.2;fill:#231F20;enable-background:new    ;}
	.st1{fill:#FFFFFF;}
</style>
<g>
	<path class="st0" d="M5.2,646.7c0,0-21.6,70.7,33.1,80.8h-34H-23V703l20-56.3H5.2z"/>
	<path class="st0" d="M77.2,463.7c0,0-44.3,221.8,53.8,263.9H77.2L43,719.7l-7.3-72.9l6.7-68.4l22-86.7L77.2,463.7z"/>
	<path class="st0" d="M286.1,658.3c0,0,1.6,55.4,48.9,61.4l6.6,7.9h-31.1l-30.3-7.9v-26.8L286.1,658.3z"/>
	<path class="st0" d="M118.8,512.9c0,0-23.8,106.2,73,108.4L189,633l-35,5.3l-37.8-14.7l-27.9-36v-42l23.3-32.7L118.8,512.9
		L118.8,512.9z"/>
	<path class="st1" d="M159.9,481.3c45.6,0,82.7,37.1,82.7,82.7s-37.1,82.7-82.7,82.7S77.2,609.6,77.2,564
		C77.2,518.4,114.3,481.3,159.9,481.3z M225.6,564c0-36.2-29.4-65.6-65.6-65.6S94.4,527.8,94.4,564s29.4,65.6,65.6,65.6
		C196.1,629.6,225.6,600.2,225.6,564z"/>
	<path class="st0" d="M158.9,310.4c0,0-28.1,69.4,0,99.4l-19.3,4l-36.7-7.4V385l41.3-74.6H158.9z"/>
	<path class="st1" d="M352.5,728.3c0,4.7-3.8,8.6-8.6,8.6c-30,0-60.4-3-67-3.7c-6.3,1.2-12.7,2.4-19,3.4l3.9,34.9
		c0.3,2.3-0.4,4.5-1.8,6.3s-3.5,2.9-5.8,3.2c-31.6,3.5-63.5,5.2-95.4,5.2s-63.7-1.7-95.4-5.2c-2.3-0.3-4.3-1.4-5.7-3.2
		c-1.4-1.8-2.1-4-1.8-6.3l3.9-34.9c-6.3-1-12.5-2.1-18.8-3.4c-6.6,0.7-37,3.7-67,3.7c-4.7,0-8.6-3.8-8.6-8.6
		c0-32.2,12.1-69.4,36-110.6c14.8-25.5,29.3-44.3,34.1-50.2c3.3-20.5,7.6-41,13.1-61.5C69,429.9,103.8,357.4,152,290.5
		c1.6-2.2,4.2-3.5,6.9-3.5s5.3,1.3,6.9,3.5c48.2,66.8,83,139.3,103.4,215.4c5.5,20.5,9.9,41,13.1,61.5c4.7,5.9,19.3,24.7,34.1,50.2
		C340.4,659,352.5,696.2,352.5,728.3z M335,719.7c-3.2-43.2-29.3-89-48.1-116.9c3.7,38.4,3.5,76.6-0.8,114.1
		C296.7,717.9,315.6,719.3,335,719.7z M268.9,717.4c8-67.5,2.6-137.1-16.1-206.9c-8.8-33-20.5-65.3-34.8-96.7
		c-18.4,8.6-38.6,13.1-59,13.1s-40.7-4.5-59-13.1c-14.3,31.4-25.9,63.7-34.8,96.7C46.4,580.3,41,649.8,49,717.4
		C122,730.9,195.9,730.9,268.9,717.4z M243.8,764.9l-2.8-25.7c-27.3,3.7-54.6,5.5-82,5.5c-27.5,0-54.9-1.8-82.3-5.5l-2.9,25.7
		C130.3,770.5,187.4,770.5,243.8,764.9z M210.7,398.2c-14.7-30.2-32-59.5-51.7-87.9c-19.7,28.3-37,57.7-51.7,87.9
		c16.1,7.5,33.8,11.5,51.7,11.5S194.6,405.8,210.7,398.2z M31.7,716.9c-4.3-37.5-4.6-75.7-0.8-114.1C12.2,630.7-14,676.6-17.2,719.7
		C2.3,719.3,21.2,717.9,31.7,716.9z"/>
</g>
</svg>
