<?xml version="1.0" encoding="utf-8"?>
<!-- Generator: Adobe Illustrator 19.1.0, SVG Export Plug-In . SVG Version: 6.00 Build 0)  -->
<svg version="1.1" id="Livello_1" xmlns="http://www.w3.org/2000/svg" xmlns:xlink="http://www.w3.org/1999/xlink" x="0px" y="0px"
	 viewBox="-201 886.8 207.4 54.1" style="enable-background:new -201 886.8 207.4 54.1;" xml:space="preserve">
<style type="text/css">
	.st0{display:none;}
	.st1{display:inline;}
	.st2{clip-path:url(#SVGID_2_);fill:#FFFFFF;}
	.st3{clip-path:url(#SVGID_4_);fill:#FFFFFF;}
	.st4{clip-path:url(#SVGID_6_);fill:#FFFFFF;}
	.st5{clip-path:url(#SVGID_8_);fill:#FFFFFF;}
	.st6{clip-path:url(#SVGID_10_);fill:#FFFFFF;}
	.st7{display:inline;fill:#FFFFFF;}
	.st8{display:none;fill:#FFFFFF;enable-background:new    ;}
	.st9{font-family:'NexaBold';}
	.st10{font-size:84px;}
	.st11{fill:#FFFFFF;}
	.st12{fill:#184274;stroke:#000000;stroke-width:1.3069;stroke-miterlimit:10;}
	.st13{fill:#010101;}
	.st14{fill:#F18021;}
	.st15{fill:#184375;}
	.st16{fill:none;}
	.st17{enable-background:new    ;}
</style>
<g class="st0">
	<g class="st1">
		<g>
			<g>
				<g>
					<g>
						<defs>
							<rect id="SVGID_1_" x="-302" y="678.9" width="482" height="482"/>
						</defs>
						<clipPath id="SVGID_2_">
							<use xlink:href="#SVGID_1_"  style="overflow:visible;"/>
						</clipPath>
						<path class="st2" d="M-61.5,983c-9.1,0-18.3,0.1-27.4,0c-9.6-0.1-13.6-3.4-14.9-12.8c-1.5-10.5-4.7-20.5-8.6-30.3
							c-5.7-14.3-14.2-27.1-21.7-40.4c-9.3-16.4-17.2-33.6-19.6-52.6c-2.6-21.1,1.3-40.9,13.6-58.6c13.4-19.4,32.1-31.1,54.8-36.6
							c28.7-6.9,55.7-2.7,80.3,13.7c22.9,15.3,35.4,37.1,37.6,64.7c1.6,20.9-4.8,39.7-14,57.9c-6.4,12.7-14.4,24.6-21,37.2
							c-7.7,14.7-13.3,30-15.7,46.5c-1.1,7.7-5.4,11.2-13.2,11.3C-41.6,983-51.6,982.9-61.5,983L-61.5,983"/>
					</g>
				</g>
			</g>
		</g>
	</g>
	<g class="st1">
		<g>
			<g>
				<g>
					<g>
						<defs>
							<rect id="SVGID_3_" x="-302" y="678.9" width="482" height="482"/>
						</defs>
						<clipPath id="SVGID_4_">
							<use xlink:href="#SVGID_3_"  style="overflow:visible;"/>
						</clipPath>
						<path class="st3" d="M-88.9,1061.1c-4.8,0-8.5-3-8.9-7.2c-0.3-3.3,3.3-7,7.7-7.6c17.9-2.5,35.8-4.9,53.7-7.2
							c4.6-0.6,8.8,2.3,9.5,6.5c0.6,3.7-2.4,7.4-7.3,8.1c-17.8,2.6-35.7,4.9-53.6,7.4C-88.2,1061.1-88.6,1061.1-88.9,1061.1"/>
					</g>
				</g>
			</g>
		</g>
	</g>
	<g class="st1">
		<g>
			<g>
				<g>
					<g>
						<defs>
							<rect id="SVGID_5_" x="-302" y="678.9" width="482" height="482"/>
						</defs>
						<clipPath id="SVGID_6_">
							<use xlink:href="#SVGID_5_"  style="overflow:visible;"/>
						</clipPath>
						<path class="st4" d="M-36.7,993.2c5.5,0,9.2,2.9,9.6,6.9c0.4,3.1-2.8,7-6.8,7.6c-14,2.1-28.1,4-42.2,5.9
							c-5,0.7-9.9,1.9-14.9,1.5c-3.7-0.3-6.3-3.2-6.5-6.8c-0.2-3.9,1.7-6.8,5.6-7.4c10.4-1.7,20.8-3.1,31.2-4.5
							C-52.4,995.3-44,994.2-36.7,993.2"/>
					</g>
				</g>
			</g>
		</g>
	</g>
	<g class="st1">
		<g>
			<g>
				<g>
					<g>
						<defs>
							<rect id="SVGID_7_" x="-302" y="678.9" width="482" height="482"/>
						</defs>
						<clipPath id="SVGID_8_">
							<use xlink:href="#SVGID_7_"  style="overflow:visible;"/>
						</clipPath>
						<path class="st5" d="M-89.1,1038.1c-4.8,0-8.3-2.8-8.6-6.6c-0.3-3.8,2.9-7.4,7.5-8c12-1.7,24.1-3.2,36.1-4.8
							c5.1-0.7,10.2-1.4,15.3-2c1.3-0.2,2.5-0.2,3.8-0.2c4.1,0,7.7,3,8.1,6.6c0.4,2.9-2.4,6.8-6.1,7.6c-4.5,1-9.2,1.6-13.8,2.2
							c-13.8,1.8-27.6,3.5-41.4,5.2C-88.5,1038.1-88.9,1038.1-89.1,1038.1"/>
					</g>
				</g>
			</g>
		</g>
	</g>
	<g class="st1">
		<g>
			<g>
				<g>
					<g>
						<defs>
							<rect id="SVGID_9_" x="-302" y="678.9" width="482" height="482"/>
						</defs>
						<clipPath id="SVGID_10_">
							<use xlink:href="#SVGID_9_"  style="overflow:visible;"/>
						</clipPath>
						<path class="st6" d="M-46.1,1063.1c-5.9,9.4-21.8,11.6-31.1,4.1C-66.7,1065.8-56.6,1064.5-46.1,1063.1"/>
					</g>
				</g>
			</g>
		</g>
	</g>
</g>
<g class="st0">
	<path class="st7" d="M115.9,939.3c0-20.4-14.8-37.4-34.2-40.9v-6.2c0-79-64.2-143.2-143.2-143.2s-143.2,64.2-143.2,143.2v6.2
		c-19.4,3.5-34.2,20.5-34.2,40.9c0,20.6,15,37.7,34.7,41c2.8,31.6,17.2,54.9,43,69.4c23,12.9,55.6,19.2,99.7,19.2
		s76.7-6.3,99.7-19.2c25.8-14.5,40.3-37.8,43-69.4C100.9,977,115.9,959.9,115.9,939.3z M-224.3,939.3c0-12.3,8.3-22.7,19.6-25.9
		v51.7C-216,962-224.3,951.6-224.3,939.3z M67,968.7c0,32.2-11.8,54.5-36.1,68.1c-20.7,11.6-51,17.3-92.5,17.3s-71.8-5.7-92.5-17.3
		c-24.3-13.6-36.1-35.9-36.1-68.1v-76.5c0-58,38.7-107.2,91.6-123.1c40.3,0.5,61.8,29.6,61.8,50.7c0,16.1-13.1,29.3-29.3,29.3
		c-12.1,0-22-9.8-22-22c0-8.9,7.2-16.1,16.1-16.1c4.1,0,7.3-3.3,7.3-7.3c0-4.1-3.3-7.3-7.3-7.3c-17,0-30.8,13.8-30.8,30.8
		c0,20.2,16.4,36.6,36.6,36.6c24.2,0,43.9-19.7,43.9-43.9c0-15.2-7.6-31.6-20.5-43.8c-5.1-4.9-11-9-17.3-12.3
		C10,764.7,66.7,822,66.7,892.3L67,968.7L67,968.7z M81.7,965.2v-51.7c11.3,3.2,19.6,13.6,19.6,25.9C101.3,951.6,93,962,81.7,965.2z
		"/>
</g>
<text transform="matrix(1 0 0 1 -151.6937 968.1448)" class="st8 st9 st10">SON</text>
<g class="st0">
	<g class="st1">
		<g>
			<path class="st11" d="M-76.3,876.5c-17.8,0-32.3,14.5-32.3,32.3s14.5,32.3,32.3,32.3S-44,926.6-44,908.8S-58.5,876.5-76.3,876.5z
				 M-76.3,931.9c-12.7,0-23.1-10.4-23.1-23.1s10.4-23.1,23.1-23.1s23.1,10.4,23.1,23.1S-63.6,931.9-76.3,931.9z"/>
			<path class="st11" d="M-76.3,894.9c-7.6,0-13.9,6.2-13.9,13.9c0,7.6,6.2,13.9,13.9,13.9c7.6,0,13.9-6.2,13.9-13.9
				C-62.5,901.1-68.7,894.9-76.3,894.9z M-76.3,913.4c-2.5,0-4.6-2.1-4.6-4.6s2.1-4.6,4.6-4.6s4.6,2.1,4.6,4.6
				S-73.8,913.4-76.3,913.4z"/>
			<path class="st11" d="M-10.9,945.7c-4.7,0-9.2,1.8-12.5,5.2l-10.8,10.8c-3.3,3.3-5.2,7.8-5.2,12.5c0,9.7,7.9,17.7,17.7,17.7
				c4.7,0,9.2-1.8,12.5-5.2l10.8-10.8c3.3-3.3,5.2-7.8,5.2-12.5C6.8,953.6-1.1,945.7-10.9,945.7z M-4.9,969.4l-10.8,10.8
				c-1.6,1.6-3.7,2.5-6,2.5c-4.7,0-8.4-3.8-8.4-8.4c0-2.2,0.9-4.4,2.5-6l10.8-10.8c1.6-1.6,3.7-2.5,6-2.5c4.7,0,8.4,3.8,8.4,8.4
				C-2.4,965.6-3.3,967.8-4.9,969.4z"/>
			<path class="st11" d="M-130.9,830.3c-4.7,0-9.2,1.8-12.5,5.2l-10.8,10.8c-3.3,3.3-5.2,7.8-5.2,12.5c0,9.7,7.9,17.7,17.7,17.7
				c4.7,0,9.2-1.8,12.5-5.2l10.8-10.8c3.3-3.3,5.2-7.8,5.2-12.5C-113.3,838.2-121.2,830.3-130.9,830.3z M-125,853.9l-10.8,10.8
				c-1.6,1.6-3.7,2.5-6,2.5c-4.7,0-8.4-3.8-8.4-8.4c0-2.2,0.9-4.4,2.5-6l10.8-10.8c1.6-1.6,3.7-2.5,6-2.5c4.7,0,8.4,3.8,8.4,8.4
				C-122.5,850.2-123.4,852.4-125,853.9z"/>
			<path class="st11" d="M62.2,885.7c-3.4,0-6.8-0.4-10.2-1.1c-6.1-49-41.6-89.1-89.5-101.3c-1.2-4-1.9-8.4-1.9-13
				c0-7.6-6.2-13.9-13.9-13.9H-81c-7.6,0-13.9,6.2-13.9,13.9c0,4.6-0.7,9-1.9,13c-39.4,10-71.4,39.8-84.3,78.5
				c-6.3,3.5-11.9,5.4-15.4,5.4c-7.6,0-13.9,6.2-13.9,13.9V918c0,7.6,6.2,13.9,13.9,13.9c6.2,0,11.4,2.2,15,4.4
				c2.3,7.3,5.4,14.3,9,20.9c-3.4,7.3-8,15.1-14.2,21.5l0,0c-0.2,0.3-0.5,0.5-0.7,0.8l0,0c-2.8,3.1-4.5,7.2-4.5,11.7
				c0,4.7,1.8,9.2,5.2,12.5l15.4,15.4c3.3,3.3,7.8,5.2,12.5,5.2c4.5,0,8.5-1.7,11.7-4.5l0,0c0.1-0.2,0.3-0.3,0.5-0.4
				c0.2-0.2,0.3-0.3,0.5-0.5c6.3-6.4,14.8-10.5,23-13.1c6.6,3.5,13.4,6.3,20.5,8.5c1.6,2.8,5.4,9.6,7,17.3c1.3,6.4,7,11.1,13.5,11.1
				h29.5c6.9,0,12.6-4.9,13.7-11.7c0.8-5.1,2.6-11.9,6.5-16.4c3.9-1.2,7.7-2.6,11.5-4.1c16.1,0.1,32.4,17.5,32.6,17.8
				c3.4,3.4,7.8,5.3,12.6,5.3c4.7,0,9.2-1.8,12.5-5.2l10.8-10.8c3.3-3.3,5.2-7.8,5.2-12.5c0-4.9-2-9.4-5.6-12.8
				c-7.8-7.1-16-17.1-17.3-22.1c5.5-7.7,10.3-16.1,14-25.2c6-2.4,12.1-3.7,18.1-3.7c7.6,0,13.9-6.2,13.9-13.9v-27.7
				C76,891.9,69.8,885.7,62.2,885.7z M-80.9,765.6h27.7c2.5,0,4.6,2.1,4.6,4.6s-2.1,4.6-4.6,4.6h-27.7c-2.5,0-4.6-2.1-4.6-4.6
				C-85.6,767.7-83.5,765.6-80.9,765.6z M-152.5,1012.3c-0.2,0.2-0.3,0.3-0.5,0.5c-1.5,1.4-3.5,2.2-5.7,2.2s-4.4-0.9-6-2.5
				l-15.3-15.4c-1.6-1.6-2.5-3.7-2.5-6s0.9-4.4,2.4-5.9l0.1-0.1c1.5-1.5,3.6-2.4,5.9-2.4c2.2,0,4.4,0.9,6,2.5l15.4,15.4
				c1.6,1.6,2.5,3.7,2.5,6C-150.2,1008.8-151.1,1010.8-152.5,1012.3z M-47.9,1029.5c-0.4,2.3-2.3,3.9-4.6,3.9H-82
				c-2.2,0-4.1-1.5-4.5-3.7c-0.9-4.6-2.5-8.9-4.1-12.5c7.7,1.5,15.6,2.3,23.5,2.3c7.7,0,15.2-0.8,22.5-2.2
				C-46.3,1021.6-47.3,1025.9-47.9,1029.5z M41.1,998.8c1.7,1.6,2.6,3.8,2.6,6.1c0,2.2-0.9,4.4-2.5,6l-10.8,10.8
				c-3.2,3.2-8.9,3.1-11.9,0c-0.6-0.6-11.6-12.5-25.9-17.9c11.7-6.7,22.2-15.4,31-25.7C28.8,987.2,38.6,996.6,41.1,998.8z M38.7,937
				l-1.7,0.8l-0.7,1.8c-16.7,43-57.2,70.8-103.3,70.8c-14.1,0-28.2-2.7-41.2-8c7.8-1.2,13.4-1.3,13.5-1.3v-9.2
				c-1.3,0-26.5,0.2-46.5,11.8c-0.6-3.6-2.2-7-4.9-9.6l-15.4-15.4c-2.6-2.6-5.8-4.2-9.4-4.9c12.4-18.9,15.9-40,16.1-41.1l-9.1-1.5
				c0,0.1-1.1,6.2-3.8,14.5c-2-4.4-3.8-9-5.2-13.7l-0.5-1.6l-1.4-0.9c-4.6-3.1-12.1-6.8-21.5-6.8c-2.5,0-4.6-2.1-4.6-4.6v-36.9
				c0-2.5,2.1-4.6,4.6-4.6c7,0,15.6-4.1,21.5-7.5l1.6-0.9l0.5-1.7c10.8-34.3,37.7-61.2,71.5-72.1c-6.2,11.5-14.8,18.5-14.9,18.6
				l5.8,7.2c0.9-0.7,18.2-14.9,23.4-37.4c1.8,0.9,3.9,1.5,6.1,1.5h27.7c2.2,0,4.2-0.6,6.1-1.5c5.1,22.5,22.5,36.7,23.4,37.4l5.8-7.2
				c-0.1-0.1-8.7-7.1-15-18.7c41.7,13.4,71.9,50.3,76.2,94.6l0.3,3.1l3,0.9c1.1,0.3,2.2,0.6,3.3,0.8c-0.9,1.8-1.5,3.9-1.5,6.1v27.7
				c0,2.2,0.6,4.2,1.5,6.1C46.1,934.2,42.4,935.4,38.7,937z M66.8,927.2c0,2.5-2.1,4.6-4.6,4.6s-4.6-2.1-4.6-4.6v-27.7
				c0-2.5,2.1-4.6,4.6-4.6s4.6,2.1,4.6,4.6V927.2z"/>
			<path class="st11" d="M-8.5,836.2l-6.4,6.7c16.7,16,26.3,36.6,26.3,56.7h9.2C20.6,877,10,853.9-8.5,836.2z"/>
			
				<rect x="-136.3" y="957.6" transform="matrix(-0.7071 0.7071 -0.7071 -0.7071 456.947 1739.0015)" class="st11" width="9.2" height="13.1"/>
			<rect x="-76.3" y="811.8" class="st11" width="9.2" height="9.2"/>
			<rect x="-34.8" y="904.2" class="st11" width="9.2" height="9.2"/>
			<rect x="20.3" y="922.6" class="st11" width="9.2" height="9.2"/>
		</g>
	</g>
</g>
<g class="st0">
	<g class="st1">
		<g>
			<path class="st11" d="M-29.7,863.5c-6.1-1-11.2,4.2-10.2,10.2c0.6,3.7,3.6,6.6,7.2,7.2c6.1,1,11.2-4.2,10.2-10.2
				C-23.1,867.1-26.1,864.1-29.7,863.5z"/>
			<circle class="st11" cx="-54.1" cy="857.6" r="5.7"/>
			<path class="st11" d="M-78.7,868.6c-12.9-1.3-23.8,9.5-22.5,22.5c1,9.6,8.7,17.3,18.3,18.3c12.9,1.3,23.8-9.5,22.5-22.5
				C-61.4,877.3-69.2,869.6-78.7,868.6z M-78.9,899.9c-7.6,1.2-14-5.2-12.8-12.8c0.8-4.6,4.5-8.3,9-9c7.6-1.3,14,5.2,12.8,12.8
				C-70.7,895.5-74.4,899.2-78.9,899.9z"/>
			<path class="st11" d="M93.5,865.5C88,845,35.6,849.3,4.8,853.8c-13.7-17.4-35-28.5-58.8-28.5c-37.7,0-68.9,27.9-74.2,64.1
				c-0.2,0-0.4,0.1-0.5,0.2c-28.9,11.6-76.6,34.1-71.1,54.6c2.7,10.2,17.4,15.4,43.8,15.4c2.8,0,5.7-0.1,8.7-0.2
				c12.7-0.5,26.9-2,42.2-4.3c13.4,12.5,31.4,20.2,51.2,20.2c15.2,0,29.3-4.5,41.2-12.3c0.1-0.1,0.2-0.1,0.3-0.2
				c4.6-3.1,8.8-6.6,12.6-10.6c0.3-0.3,0.5-0.5,0.8-0.8c0.4-0.5,0.9-0.9,1.3-1.4c0.4-0.4,0.7-0.8,1.1-1.2c0.2-0.2,0.4-0.5,0.6-0.7
				c0.5-0.6,1-1.3,1.5-1.9c0.1-0.2,0.3-0.4,0.4-0.6c0.5-0.7,1.1-1.4,1.6-2.1c0.3-0.4,0.6-0.9,1.3-1.3c1.3-0.7,1.9-2.1,2-3.6
				c0-0.2,0.1-0.3,0.2-0.5c0.5-0.9,1-1.7,1.5-2.6v-0.1c1.4-2.7,2.7-5.5,3.8-8.4l0,0c0.6-1.6,1.2-3.3,1.7-4.9
				c18-7,33.9-14.4,46.5-21.8c1.9-1.1,3-3.5,2.2-5.6c-1-2.9-4.3-4-6.8-2.6c-10.8,6.3-24.2,12.7-39.4,18.9c0.5-3.5,0.8-7,0.8-10.7
				c0-13.8-3.7-26.7-10.2-37.8c20.9-2.8,38.9-3.6,52.2-2.3c14.7,1.4,20.7,4.9,21.5,7.9c0.7,2.7-2.3,8.4-12.8,16.2
				c-1.7,1.3-2.5,4-1.6,5.9c0.9,1.7,2.5,2.7,4.2,2.7c1,0,1.9-0.3,2.8-0.9C90,882.2,95.6,873.3,93.5,865.5z M-147.8,949.9
				c-31.9,1.2-42.1-4.6-43-8.2c-0.8-2.9,2.7-9,14.7-17.5c11.1-7.8,27.3-16.2,47.1-24.4c0,0.1,0,0.3,0,0.4c0,17.5,6,33.6,16.1,46.4
				C-125.5,948.4-137.2,949.5-147.8,949.9z M-54.1,965.8c-14.6,0-28.1-4.8-39-12.9c15.9-2.9,32.7-6.6,49.7-11.2
				c2.1-0.6,4.1-1.1,6.2-1.7c1.3,7.7,5.7,14.6,12,19.1C-33.9,963.4-43.7,965.8-54.1,965.8z M5.5,927.6L5.5,927.6
				c-0.7,1.5-1.4,2.9-2.2,4.3c0,0,0,0,0,0.1c-0.8,1.4-1.6,2.7-2.4,4c0,0.1-0.1,0.1-0.1,0.2c-0.8,1.2-1.7,2.4-2.6,3.6
				c-0.1,0.2-0.2,0.3-0.4,0.5c-0.4,0.5-0.7,0.9-1.1,1.4c-0.2,0.2-0.4,0.5-0.6,0.7c-0.3,0.3-0.6,0.7-0.9,1c-0.2,0.3-0.5,0.5-0.7,0.8
				c-0.2,0.2-0.3,0.4-0.5,0.5c-0.5,0.6-1.1,1.2-1.6,1.7c-0.1,0.1-0.1,0.1-0.2,0.2c-2.5,2.5-5.3,4.8-8.2,6.9
				c-6.6-2.8-11.3-9-12.1-16.1c11.8-3.5,23.3-7.2,34.1-11.1C5.9,926.7,5.7,927.1,5.5,927.6z M-26.4,927.1c3.1-6.9,10-11.7,18.1-11.7
				c3.5,0,6.8,0.9,9.8,2.5C-7.5,921.1-16.8,924.2-26.4,927.1z M11.5,900.2c0,4.3-0.4,8.5-1.2,12.5C5.1,908.4-1.4,906-8.3,906
				c-14.4,0-26.4,10.5-28.8,24.2c-2.9,0.8-5.7,1.6-8.6,2.4c-19.4,5.2-38.5,9.4-56.3,12.3c-11-11.7-17.7-27.5-17.7-44.7
				c0-36.2,29.4-65.6,65.6-65.6S11.5,864,11.5,900.2z"/>
		</g>
	</g>
</g>
<g>
	<g>
		<path class="st12" d="M-171.9,887.5c3.4,0,6.7,0,10.1,0c7.2,0.1,13.2,0.5,16.8,4c3.7,3.5,4.2,9.3,4.4,16.4c0,3.8,0,7.7,0,11.5
			c-0.2,5.8-0.3,11.1-2.5,14.6c-3.1,5-9.2,6.2-17.3,6.3c-4.3,0-8.7,0-13,0c-3.6-0.2-6.8-0.2-9.6-0.9c-2.6-0.6-5.1-1.9-6.7-3.7
			c-3.4-3.8-3.6-9.9-3.8-17c0-3.1,0-6.2,0-9.4c0.2-6,0.2-11.6,2.4-15.3C-187.6,888.4-180.7,887.5-171.9,887.5z"/>
	</g>
	<g>
		<path class="st13" d="M-168.6,933.9c-0.1,0.4-0.6,0.6-1,0.5c-2.5-0.9-4.9-2.1-5.5-2.3c-0.6-0.1-1.1-0.2-1.7-0.3l-0.7,3
			c-0.1,0.2-0.2,0.4-0.3,0.5c-0.1,0.1-0.4,0.1-0.6,0.1c-2.7-0.7-5.4-1.5-8.1-2.4c-2.7-1-5.3-2.1-7.8-3.3c-0.2-0.1-0.3-0.2-0.4-0.4
			s-0.1-0.4,0-0.6l1.4-2.8c-0.5-0.3-1-0.5-1.5-0.8c-0.6-0.1-3.2-0.8-5.7-1.7c-0.4-0.1-0.6-0.6-0.5-1c0.9-2.7,3.1-5.4,6.3-8.1
			c2-1.7,3.8-2.8,4.3-3.2c0.9-1.6,1.9-3.2,2.9-4.7c4-5.7,9-10.7,15.1-14.9c0.2-0.1,0.5-0.2,0.7-0.1c0.2,0.1,0.4,0.3,0.5,0.5
			c2,7,2.7,14.1,2.2,21.1c-0.2,1.9-0.4,3.7-0.7,5.5c0.2,0.6,0.9,2.6,1.3,5.2C-167.6,927.8-167.7,931.3-168.6,933.9z M-169.8,932.7
			c1-3.7,0.2-8.3-0.5-11.2c-0.8,3.3-2,6.5-3.5,9.5C-173,931.4-171.5,932.1-169.8,932.7z M-175.3,930.5c2.7-5.4,4.3-11.3,4.8-17.7
			c0.2-3,0.2-6.1,0-9.1c-1.8,0.2-3.6-0.1-5.3-0.7c-1.7-0.6-3.3-1.6-4.5-2.9c-2.1,2.2-4.1,4.5-5.8,7c-3.6,5.3-6.2,10.9-7.5,16.8
			C-187.9,927.3-181.8,929.5-175.3,930.5z M-178.8,933.7l0.5-2.2c-2.4-0.5-4.7-1.2-7-2c-2.3-0.8-4.5-1.8-6.7-2.9l-1,2.1
			C-188.4,930.8-183.7,932.5-178.8,933.7z M-170.6,902.2c-0.3-3-0.9-5.9-1.7-8.9c-2.5,1.8-4.8,3.7-6.9,5.8c1.1,1.1,2.5,2,4,2.5
			C-173.8,902.1-172.2,902.3-170.6,902.2z M-195,923.4c0.8-3.3,1.9-6.4,3.3-9.5c-2.4,1.8-5.9,4.8-7.5,8.3
			C-197.6,922.7-195.9,923.2-195,923.4z"/>
		<path class="st14" d="M-170.3,921.5c0.7,2.9,1.5,7.5,0.5,11.2c-1.6-0.6-3.1-1.3-4-1.7C-172.4,928-171.2,924.8-170.3,921.5z"/>
		<path class="st11" d="M-170.4,912.8c-0.5,6.4-2.2,12.3-4.8,17.7c-6.5-1-12.7-3.3-18.3-6.6c1.3-5.9,3.9-11.5,7.5-16.8
			c1.7-2.5,3.7-4.8,5.8-7c1.3,1.3,2.8,2.2,4.5,2.9c1.7,0.6,3.5,0.8,5.3,0.7C-170.2,906.7-170.2,909.8-170.4,912.8z M-172.9,917
			c1.4-3.8-0.6-8-4.4-9.4c-3.8-1.4-8,0.6-9.4,4.4c-1.4,3.8,0.6,8,4.4,9.4C-178.4,922.7-174.2,920.8-172.9,917z"/>
		<path class="st14" d="M-178.3,931.5l-0.5,2.2c-4.9-1.2-9.6-2.9-14.2-5.1l1-2.1c2.2,1.1,4.4,2.1,6.7,2.9
			C-183,930.3-180.6,931-178.3,931.5z"/>
		<path class="st14" d="M-172.3,893.3c0.8,3,1.4,5.9,1.7,8.9c-1.6,0.1-3.2-0.1-4.7-0.6s-2.8-1.4-4-2.5
			C-177.1,897-174.8,895.1-172.3,893.3z"/>
		<path class="st14" d="M-191.7,913.9c-1.5,3.1-2.6,6.3-3.3,9.5c-0.9-0.2-2.5-0.7-4.2-1.2C-197.6,918.7-194.1,915.6-191.7,913.9z"/>
	</g>
	<rect x="-172.1" y="910.5" class="st15" width="4.1" height="7.6"/>
	<rect x="-198.9" y="906.6" class="st16" width="66.9" height="14.1"/>
	<g class="st17">
		<path class="st11" d="M-182.1,915.2c0.1,1.1,1.1,1.8,2.6,1.8c0.8,0,1.8-0.3,2.3-0.8l1.4,1.3c-0.9,0.9-2.4,1.4-3.7,1.4
			c-3,0-4.7-1.8-4.7-4.6c0-2.6,1.8-4.5,4.5-4.5c2.9,0,4.7,1.8,4.3,5.3L-182.1,915.2C-182.1,915.1-182.1,915.2-182.1,915.2z
			 M-177.4,913.4c-0.1-1.1-1-1.7-2.2-1.7c-1.2,0-2.1,0.6-2.4,1.7H-177.4z"/>
		<path class="st11" d="M-167,910.2h2v8.6h-2l-0.1-1.3c-0.5,1-1.8,1.5-2.8,1.5c-2.5,0-4.4-1.5-4.4-4.5s2-4.5,4.5-4.5
			c1.2,0,2.2,0.5,2.7,1.4L-167,910.2z M-172.1,914.4c0,1.6,1.1,2.6,2.5,2.6c3.3,0,3.3-5.2,0-5.2C-171,911.9-172.1,912.8-172.1,914.4
			z"/>
	</g>
	<g class="st17">
		<path class="st11" d="M-157,911.7c-0.9-0.8-1.7-0.9-2.7-0.9c-1.3,0-2.6,0.5-2.6,1.6c0,1.2,1.5,1.4,2.6,1.6
			c1.5,0.3,3.6,0.5,3.5,2.5c-0.1,1.9-2,2.4-3.5,2.4s-3-0.6-3.8-1.7l0.6-0.6c0.7,1,2,1.5,3.1,1.5c1,0,2.6-0.3,2.7-1.6
			c0-1.2-1.4-1.5-2.8-1.7c-1.7-0.3-3.3-0.6-3.3-2.3s1.7-2.4,3.4-2.4c1.3,0,2.4,0.4,3.2,1.2L-157,911.7z"/>
		<path class="st11" d="M-146.9,910.1l-5.2,12.2h-0.9l1.6-3.7l-3.5-8.5h0.9l2,5.1l1,2.5l1-2.5l2.2-5.1H-146.9L-146.9,910.1z"/>
	</g>
	<g>
		<g class="st17">
			<path class="st11" d="M-119.6,914.5c0.2,1.3,1.3,2.3,3.2,2.3c1,0,2.3-0.4,2.9-1l1.7,1.7c-1.1,1.2-3,1.7-4.6,1.7
				c-3.7,0-5.9-2.3-5.9-5.7c0-3.3,2.2-5.6,5.7-5.6c3.6,0,5.8,2.2,5.4,6.6H-119.6z M-113.8,912.3c-0.2-1.4-1.3-2.1-2.8-2.1
				c-1.4,0-2.6,0.7-3,2.1H-113.8z"/>
			<path class="st11" d="M-100.7,908.2h2.6v10.7h-2.5l-0.1-1.6c-0.6,1.3-2.3,1.9-3.5,1.9c-3.2,0-5.5-1.9-5.5-5.7
				c0-3.7,2.5-5.6,5.6-5.6c1.4,0,2.8,0.7,3.4,1.7V908.2z M-107.1,913.5c0,2,1.4,3.3,3.2,3.3c4.2,0,4.2-6.5,0-6.5
				C-105.7,910.3-107.1,911.5-107.1,913.5z"/>
		</g>
		<g class="st17">
			<path class="st11" d="M-88.2,910.1c-1.1-1-2.2-1.1-3.4-1.1c-1.7,0-3.3,0.6-3.2,2c0,1.4,1.9,1.7,3.3,2c1.9,0.3,4.5,0.7,4.4,3.2
				c-0.1,2.4-2.5,3-4.4,3s-3.8-0.7-4.7-2.2l0.8-0.7c0.9,1.3,2.5,1.8,3.9,1.8c1.3,0,3.3-0.3,3.4-2c0-1.5-1.7-1.8-3.5-2.1
				c-2.1-0.3-4.2-0.7-4.2-2.9c0-2.1,2.1-3,4.3-3c1.6,0,2.9,0.4,4,1.4L-88.2,910.1z"/>
			<path class="st11" d="M-75.5,908.2l-6.5,15.2h-1.1l2-4.6l-4.3-10.6h1.1l2.5,6.3l1.3,3.1l1.2-3.1l2.7-6.3L-75.5,908.2L-75.5,908.2
				z"/>
		</g>
		<g class="st17">
			<path class="st11" d="M-66.5,903.7v12.6h7.8v2.7h-10.7v-15.2L-66.5,903.7L-66.5,903.7z"/>
			<path class="st11" d="M-45.9,916h-8l-1.3,2.9h-3.1l6.8-15.2h3.1l6.8,15.2h-3.1L-45.9,916z M-49.8,906.9l-2.8,6.5h5.7L-49.8,906.9
				z"/>
			<path class="st11" d="M-30.1,903.6h2.9v15.3H-29l0,0l-8-10.3v10.3h-2.9v-15.2h2.3l7.5,9.4V903.6L-30.1,903.6z"/>
			<path class="st11" d="M-13.3,907.4c-1-1-2.6-1.5-3.9-1.5c-3.3,0-5.3,2.5-5.3,5.6c0,2.5,1.5,5.1,5.3,5.1c1.2,0,2.2-0.3,3.4-1.2
				v-2.7h-3.9v-2.6h6.5v6.4c-1.5,1.7-3.4,2.7-6.1,2.7c-5.7,0-8.1-3.8-8.1-7.8c0-4.3,2.7-8.2,8.1-8.2c2,0,4.1,0.8,5.7,2.3
				L-13.3,907.4z"/>
			<path class="st11" d="M2.1,916h-8l-1.3,2.9h-3.1l6.8-15.2h3.1l6.8,15.2H3.3L2.1,916z M-1.9,906.9l-2.8,6.5H1L-1.9,906.9z"/>
		</g>
	</g>
</g>
</svg>
