<?xml version="1.0" encoding="utf-8"?>
<!-- Generator: Adobe Illustrator 16.0.0, SVG Export Plug-In . SVG Version: 6.00 Build 0)  -->
<!DOCTYPE svg PUBLIC "-//W3C//DTD SVG 1.1//EN" "http://www.w3.org/Graphics/SVG/1.1/DTD/svg11.dtd">
<svg version="1.1" id="Livello_1" xmlns="http://www.w3.org/2000/svg" xmlns:xlink="http://www.w3.org/1999/xlink" x="0px" y="0px"
	 width="940.199px" height="500px" viewBox="0 0 940.199 500" enable-background="new 0 0 940.199 500" xml:space="preserve">
<g display="none">
	<g display="inline">
		<g>
			<defs>
				<rect id="SVGID_1_" x="9" y="15" width="482" height="482"/>
			</defs>
			<clipPath id="SVGID_2_">
				<use xlink:href="#SVGID_1_"  overflow="visible"/>
			</clipPath>
			<path clip-path="url(#SVGID_2_)" fill="#FFFFFF" d="M249.5,319.1c-9.101,0-18.3,0.1-27.4,0c-9.6-0.101-13.6-3.4-14.899-12.8
				C205.7,295.8,202.5,285.8,198.6,276c-5.7-14.3-14.2-27.1-21.7-40.399C167.6,219.2,159.7,202,157.3,183
				c-2.6-21.1,1.3-40.899,13.6-58.6c13.4-19.4,32.101-31.1,54.801-36.6C254.4,80.9,281.4,85.1,306,101.5
				c22.899,15.301,35.399,37.101,37.6,64.7c1.601,20.9-4.8,39.7-14,57.9c-6.399,12.7-14.399,24.6-21,37.2
				c-7.7,14.699-13.3,30-15.7,46.5c-1.1,7.7-5.399,11.2-13.2,11.3C269.4,319.1,259.4,319,249.5,319.1L249.5,319.1"/>
		</g>
	</g>
	<g display="inline">
		<g>
			<defs>
				<rect id="SVGID_3_" x="9" y="15" width="482" height="482"/>
			</defs>
			<clipPath id="SVGID_4_">
				<use xlink:href="#SVGID_3_"  overflow="visible"/>
			</clipPath>
			<path clip-path="url(#SVGID_4_)" fill="#FFFFFF" d="M222.1,397.2c-4.8,0-8.5-3-8.899-7.2c-0.301-3.3,3.3-7,7.699-7.6
				c17.9-2.5,35.801-4.9,53.7-7.2c4.601-0.6,8.8,2.3,9.5,6.5c0.601,3.7-2.399,7.4-7.3,8.101c-17.8,2.6-35.7,4.899-53.6,7.399
				C222.8,397.2,222.4,397.2,222.1,397.2"/>
		</g>
	</g>
	<g display="inline">
		<g>
			<defs>
				<rect id="SVGID_5_" x="9" y="15" width="482" height="482"/>
			</defs>
			<clipPath id="SVGID_6_">
				<use xlink:href="#SVGID_5_"  overflow="visible"/>
			</clipPath>
			<path clip-path="url(#SVGID_6_)" fill="#FFFFFF" d="M274.3,329.301c5.5,0,9.2,2.899,9.6,6.899c0.4,3.101-2.8,7-6.8,7.601
				c-14,2.1-28.1,4-42.2,5.899c-5,0.7-9.899,1.9-14.899,1.5c-3.7-0.3-6.3-3.2-6.5-6.8c-0.2-3.9,1.7-6.8,5.6-7.4
				c10.4-1.699,20.8-3.1,31.2-4.5C258.6,331.4,267,330.301,274.3,329.301"/>
		</g>
	</g>
	<g display="inline">
		<g>
			<defs>
				<rect id="SVGID_7_" x="9" y="15" width="482" height="482"/>
			</defs>
			<clipPath id="SVGID_8_">
				<use xlink:href="#SVGID_7_"  overflow="visible"/>
			</clipPath>
			<path clip-path="url(#SVGID_8_)" fill="#FFFFFF" d="M221.9,374.2c-4.8,0-8.3-2.8-8.6-6.6s2.899-7.4,7.5-8
				c12-1.7,24.1-3.2,36.1-4.8c5.101-0.7,10.2-1.4,15.3-2c1.301-0.2,2.5-0.2,3.801-0.2c4.1,0,7.699,3,8.1,6.6
				c0.4,2.9-2.4,6.8-6.1,7.601c-4.5,1-9.2,1.6-13.801,2.2c-13.8,1.8-27.6,3.5-41.399,5.199C222.5,374.2,222.1,374.2,221.9,374.2"/>
		</g>
	</g>
	<g display="inline">
		<g>
			<defs>
				<rect id="SVGID_9_" x="9" y="15" width="482" height="482"/>
			</defs>
			<clipPath id="SVGID_10_">
				<use xlink:href="#SVGID_9_"  overflow="visible"/>
			</clipPath>
			<path clip-path="url(#SVGID_10_)" fill="#FFFFFF" d="M264.9,399.2c-5.899,9.4-21.8,11.601-31.1,4.101
				C244.3,401.9,254.4,400.6,264.9,399.2"/>
		</g>
	</g>
</g>
<g display="none">
	<path display="inline" fill="#FFFFFF" d="M426.9,275.4c0-20.4-14.8-37.4-34.2-40.9v-6.2c0-79-64.199-143.199-143.199-143.199
		S106.3,149.3,106.3,228.3v6.2C86.9,238,72.1,255,72.1,275.4c0,20.6,15,37.7,34.7,41c2.8,31.6,17.2,54.9,43,69.4
		C172.8,398.7,205.4,405,249.5,405c44.1,0,76.7-6.3,99.7-19.199c25.8-14.5,40.3-37.801,43-69.4C411.9,313.1,426.9,296,426.9,275.4z
		 M86.7,275.4c0-12.3,8.3-22.7,19.6-25.9v51.7C95,298.1,86.7,287.7,86.7,275.4z M378,304.801c0,32.199-11.8,54.5-36.101,68.1
		c-20.7,11.6-51,17.3-92.5,17.3s-71.8-5.7-92.5-17.3c-24.3-13.6-36.1-35.9-36.1-68.1V228.3c0-58,38.7-107.199,91.6-123.1
		c40.301,0.5,61.8,29.6,61.8,50.7c0,16.1-13.1,29.3-29.3,29.3c-12.1,0-22-9.8-22-22c0-8.9,7.2-16.1,16.101-16.1
		c4.1,0,7.3-3.301,7.3-7.301c0-4.1-3.3-7.3-7.3-7.3c-17,0-30.801,13.8-30.801,30.8c0,20.2,16.4,36.601,36.601,36.601
		c24.2,0,43.899-19.7,43.899-43.9c0-15.2-7.6-31.6-20.5-43.8c-5.1-4.9-11-9-17.3-12.3c70.101,0.899,126.8,58.2,126.8,128.5
		L378,304.801L378,304.801z M392.7,301.301v-51.7c11.3,3.199,19.6,13.6,19.6,25.899C412.3,287.7,404,298.1,392.7,301.301z"/>
</g>
<rect x="56" y="245.5" fill="none" width="388" height="279"/>
<g display="none" enable-background="new    ">
	<path display="inline" fill="#FFFFFF" d="M163.079,284.927l7.506-0.656c0.355,3.008,1.183,5.476,2.481,7.403
		c1.298,1.928,3.315,3.486,6.05,4.676c2.734,1.189,5.81,1.784,9.229,1.784c3.035,0,5.715-0.451,8.039-1.354
		c2.324-0.902,4.054-2.14,5.188-3.712c1.134-1.572,1.702-3.288,1.702-5.147c0-1.887-0.547-3.534-1.641-4.942
		c-1.094-1.408-2.898-2.591-5.414-3.548c-1.614-0.629-5.182-1.606-10.705-2.933c-5.523-1.326-9.393-2.577-11.607-3.753
		c-2.871-1.504-5.011-3.37-6.419-5.599c-1.409-2.229-2.112-4.724-2.112-7.485c0-3.035,0.861-5.872,2.584-8.511
		s4.238-4.642,7.547-6.009c3.308-1.367,6.986-2.051,11.033-2.051c4.457,0,8.388,0.718,11.792,2.153s6.022,3.548,7.854,6.337
		c1.832,2.789,2.816,5.947,2.953,9.475l-7.629,0.574c-0.41-3.801-1.798-6.672-4.163-8.613c-2.365-1.941-5.859-2.912-10.479-2.912
		c-4.813,0-8.32,0.882-10.521,2.646c-2.201,1.764-3.302,3.89-3.302,6.378c0,2.16,0.779,3.938,2.338,5.332
		c1.531,1.395,5.53,2.823,11.997,4.286c6.466,1.463,10.903,2.741,13.31,3.835c3.5,1.613,6.084,3.657,7.752,6.132
		c1.667,2.475,2.502,5.325,2.502,8.552c0,3.199-0.917,6.214-2.748,9.044c-1.832,2.83-4.464,5.031-7.896,6.604
		c-3.432,1.572-7.294,2.358-11.587,2.358c-5.441,0-10.001-0.793-13.679-2.379c-3.678-1.586-6.563-3.972-8.654-7.157
		S163.188,288.946,163.079,284.927z"/>
	<path display="inline" fill="#FFFFFF" d="M219.394,274.96c0-9.98,2.68-17.794,8.039-23.44c5.359-5.646,12.277-8.47,20.754-8.47
		c5.551,0,10.555,1.326,15.012,3.979c4.457,2.652,7.854,6.351,10.192,11.095s3.507,10.124,3.507,16.14
		c0,6.098-1.23,11.553-3.691,16.365s-5.947,8.456-10.459,10.931s-9.379,3.712-14.602,3.712c-5.66,0-10.719-1.367-15.176-4.102
		c-4.457-2.734-7.834-6.467-10.131-11.197S219.394,280.237,219.394,274.96z M227.597,275.083c0,7.246,1.948,12.954,5.845,17.124
		s8.784,6.255,14.663,6.255c5.988,0,10.917-2.105,14.786-6.316c3.869-4.211,5.804-10.186,5.804-17.924
		c0-4.895-0.827-9.167-2.481-12.817c-1.655-3.65-4.075-6.48-7.26-8.49c-3.186-2.01-6.761-3.015-10.726-3.015
		c-5.633,0-10.479,1.935-14.54,5.804S227.597,266.032,227.597,275.083z"/>
	<path display="inline" fill="#FFFFFF" d="M287.07,304.245v-60.129h8.162l31.582,47.209v-47.209h7.629v60.129h-8.162l-31.582-47.25
		v47.25H287.07z"/>
</g>
<g display="none">
	<g display="inline">
		<g>
			<path fill="#FFFFFF" d="M234.7,212.6c-17.801,0-32.301,14.5-32.301,32.3s14.5,32.3,32.301,32.3c17.8,0,32.3-14.5,32.3-32.3
				S252.5,212.6,234.7,212.6z M234.7,268C222,268,211.6,257.6,211.6,244.9S222,221.8,234.7,221.8c12.699,0,23.1,10.4,23.1,23.101
				S247.4,268,234.7,268z"/>
			<path fill="#FFFFFF" d="M234.7,231c-7.601,0-13.9,6.2-13.9,13.9c0,7.6,6.2,13.899,13.9,13.899c7.6,0,13.899-6.199,13.899-13.899
				C248.5,237.2,242.3,231,234.7,231z M234.7,249.5c-2.5,0-4.601-2.1-4.601-4.6s2.101-4.601,4.601-4.601s4.6,2.101,4.6,4.601
				S237.2,249.5,234.7,249.5z"/>
			<path fill="#FFFFFF" d="M300.1,281.8c-4.7,0-9.2,1.801-12.5,5.2l-10.8,10.801c-3.3,3.3-5.2,7.8-5.2,12.5
				C271.6,320,279.5,328,289.3,328c4.7,0,9.2-1.8,12.5-5.199L312.6,312c3.3-3.3,5.2-7.8,5.2-12.5
				C317.8,289.7,309.9,281.8,300.1,281.8z M306.1,305.5l-10.8,10.801c-1.6,1.6-3.7,2.5-6,2.5c-4.7,0-8.4-3.801-8.4-8.4
				c0-2.2,0.9-4.4,2.5-6l10.801-10.8c1.6-1.601,3.699-2.5,6-2.5c4.699,0,8.399,3.8,8.399,8.399C308.6,301.7,307.7,303.9,306.1,305.5
				z"/>
			<path fill="#FFFFFF" d="M180.1,166.4c-4.7,0-9.2,1.8-12.5,5.2l-10.8,10.8c-3.3,3.3-5.2,7.8-5.2,12.5c0,9.7,7.9,17.7,17.7,17.7
				c4.7,0,9.2-1.801,12.5-5.2l10.8-10.8c3.3-3.301,5.2-7.801,5.2-12.5C197.7,174.3,189.8,166.4,180.1,166.4z M186,190l-10.8,10.8
				c-1.601,1.601-3.7,2.5-6,2.5c-4.7,0-8.4-3.8-8.4-8.399c0-2.2,0.9-4.4,2.5-6l10.8-10.8c1.601-1.601,3.7-2.5,6-2.5
				c4.7,0,8.4,3.8,8.4,8.399C188.5,186.3,187.6,188.5,186,190z"/>
			<path fill="#FFFFFF" d="M373.2,221.8c-3.4,0-6.801-0.399-10.2-1.1c-6.101-49-41.601-89.1-89.5-101.3c-1.2-4-1.9-8.4-1.9-13
				c0-7.601-6.2-13.9-13.899-13.9H230c-7.601,0-13.9,6.2-13.9,13.9c0,4.6-0.7,9-1.899,13c-39.4,10-71.4,39.8-84.301,78.5
				C123.6,201.4,118,203.3,114.5,203.3c-7.601,0-13.9,6.2-13.9,13.9v36.9c0,7.6,6.2,13.899,13.9,13.899c6.2,0,11.399,2.2,15,4.4
				c2.3,7.3,5.399,14.3,9,20.899c-3.4,7.301-8,15.101-14.2,21.501l0,0c-0.2,0.3-0.5,0.5-0.7,0.8l0,0c-2.8,3.1-4.5,7.2-4.5,11.7
				c0,4.699,1.8,9.199,5.2,12.5l15.4,15.399c3.3,3.3,7.8,5.2,12.5,5.2c4.5,0,8.5-1.7,11.699-4.5l0,0c0.101-0.2,0.301-0.3,0.5-0.4
				c0.2-0.199,0.301-0.3,0.5-0.5c6.301-6.399,14.801-10.5,23-13.1c6.601,3.5,13.4,6.3,20.5,8.5c1.601,2.8,5.4,9.6,7,17.3
				c1.301,6.4,7,11.101,13.5,11.101h29.5c6.9,0,12.601-4.9,13.7-11.7c0.8-5.101,2.601-11.9,6.5-16.4c3.9-1.2,7.7-2.6,11.5-4.1
				c16.101,0.1,32.4,17.5,32.601,17.8c3.399,3.4,7.8,5.3,12.6,5.3c4.7,0,9.2-1.8,12.5-5.2l10.8-10.8c3.3-3.3,5.2-7.8,5.2-12.5
				c0-4.899-2-9.399-5.6-12.8c-7.801-7.1-16-17.1-17.301-22.1c5.5-7.7,10.301-16.101,14-25.2c6-2.4,12.101-3.7,18.101-3.7
				c7.6,0,13.899-6.2,13.899-13.9v-27.7C387,228,380.8,221.8,373.2,221.8z M230.1,101.7h27.7c2.5,0,4.6,2.1,4.6,4.6
				s-2.1,4.601-4.6,4.601h-27.7c-2.5,0-4.6-2.101-4.6-4.601C225.4,103.8,227.5,101.7,230.1,101.7z M158.5,348.4
				c-0.2,0.2-0.3,0.3-0.5,0.5c-1.5,1.4-3.5,2.2-5.7,2.2s-4.4-0.9-6-2.5L131,333.2c-1.601-1.6-2.5-3.7-2.5-6s0.899-4.399,2.399-5.899
				L131,321.2c1.5-1.5,3.6-2.399,5.899-2.399c2.2,0,4.4,0.899,6,2.5l15.4,15.399c1.6,1.601,2.5,3.7,2.5,6
				C160.8,344.9,159.9,346.9,158.5,348.4z M263.1,365.6c-0.399,2.3-2.3,3.899-4.6,3.899H229c-2.2,0-4.101-1.5-4.5-3.699
				c-0.9-4.601-2.5-8.9-4.101-12.5c7.7,1.5,15.601,2.3,23.5,2.3c7.7,0,15.2-0.8,22.5-2.2C264.7,357.7,263.7,362,263.1,365.6z
				 M352.1,334.9c1.7,1.6,2.601,3.8,2.601,6.1c0,2.2-0.9,4.4-2.5,6L341.4,357.801c-3.199,3.199-8.899,3.1-11.899,0
				c-0.601-0.601-11.601-12.5-25.9-17.9c11.7-6.7,22.2-15.4,31-25.7C339.8,323.301,349.6,332.7,352.1,334.9z M349.7,273.1l-1.7,0.8
				l-0.7,1.8c-16.7,43-57.2,70.8-103.3,70.8c-14.101,0-28.2-2.699-41.2-8c7.8-1.199,13.399-1.3,13.5-1.3V328
				c-1.3,0-26.5,0.2-46.5,11.801c-0.601-3.601-2.2-7-4.9-9.601L149.5,314.801c-2.601-2.601-5.8-4.2-9.4-4.9
				c12.4-18.9,15.9-40,16.101-41.101l-9.101-1.5c0,0.101-1.1,6.2-3.8,14.5c-2-4.399-3.8-9-5.2-13.699l-0.5-1.601L136.2,265.6
				C131.6,262.5,124.1,258.8,114.7,258.8c-2.5,0-4.601-2.1-4.601-4.6v-36.9c0-2.5,2.101-4.6,4.601-4.6c7,0,15.6-4.1,21.5-7.5
				l1.6-0.9l0.5-1.699c10.8-34.301,37.7-61.2,71.5-72.101C203.6,142,195,149,194.9,149.1l5.801,7.199
				C201.6,155.6,218.9,141.4,224.1,118.9c1.8,0.899,3.9,1.5,6.101,1.5H257.9c2.2,0,4.2-0.601,6.101-1.5
				c5.1,22.5,22.5,36.7,23.399,37.399l5.801-7.199c-0.101-0.101-8.7-7.101-15-18.7C319.9,143.8,350.1,180.7,354.4,225l0.301,3.101
				l3,0.899c1.1,0.3,2.199,0.601,3.3,0.8c-0.9,1.801-1.5,3.9-1.5,6.101v27.7c0,2.199,0.6,4.199,1.5,6.1
				C357.1,270.3,353.4,271.5,349.7,273.1z M377.8,263.3c0,2.5-2.101,4.601-4.601,4.601s-4.6-2.101-4.6-4.601V235.6
				c0-2.5,2.1-4.601,4.6-4.601s4.601,2.101,4.601,4.601V263.3z"/>
			<path fill="#FFFFFF" d="M302.5,172.3l-6.4,6.7c16.7,16,26.3,36.601,26.3,56.7h9.2C331.6,213.1,321,190,302.5,172.3z"/>
			
				<rect x="174.685" y="293.685" transform="matrix(-0.7071 0.7071 -0.7071 -0.7071 518.3564 385.759)" fill="#FFFFFF" width="9.201" height="13.099"/>
			<rect x="234.7" y="147.9" fill="#FFFFFF" width="9.199" height="9.2"/>
			<rect x="276.2" y="240.3" fill="#FFFFFF" width="9.199" height="9.2"/>
			<rect x="331.3" y="258.7" fill="#FFFFFF" width="9.2" height="9.2"/>
		</g>
	</g>
</g>
<g display="none">
	<g display="inline">
		<g>
			<path fill="#FFFFFF" d="M281.3,199.6c-6.101-1-11.2,4.199-10.2,10.199c0.6,3.7,3.6,6.601,7.2,7.2c6.1,1,11.2-4.2,10.2-10.2
				C287.9,203.2,284.9,200.2,281.3,199.6z"/>
			<circle fill="#FFFFFF" cx="256.9" cy="193.7" r="5.7"/>
			<path fill="#FFFFFF" d="M232.3,204.7c-12.9-1.3-23.8,9.5-22.5,22.5c1,9.6,8.7,17.3,18.3,18.3c12.9,1.3,23.8-9.5,22.5-22.5
				C249.6,213.4,241.8,205.7,232.3,204.7z M232.1,236c-7.6,1.2-14-5.2-12.8-12.8c0.8-4.6,4.5-8.3,9-9c7.6-1.3,14,5.2,12.8,12.8
				C240.3,231.6,236.6,235.3,232.1,236z"/>
			<path fill="#FFFFFF" d="M404.5,201.6c-5.5-20.5-57.9-16.2-88.7-11.7c-13.7-17.4-35-28.5-58.8-28.5c-37.7,0-68.9,27.899-74.2,64.1
				c-0.2,0-0.4,0.101-0.5,0.2c-28.9,11.6-76.6,34.1-71.1,54.6c2.699,10.2,17.399,15.4,43.8,15.4c2.8,0,5.7-0.1,8.7-0.2
				c12.699-0.5,26.899-2,42.199-4.3c13.4,12.5,31.4,20.2,51.2,20.2c15.2,0,29.3-4.5,41.2-12.3c0.1-0.101,0.2-0.101,0.3-0.2
				c4.601-3.101,8.8-6.601,12.601-10.601c0.3-0.3,0.5-0.5,0.8-0.8c0.399-0.5,0.899-0.899,1.3-1.399c0.399-0.4,0.7-0.801,1.1-1.2
				c0.2-0.2,0.4-0.5,0.601-0.7c0.5-0.6,1-1.3,1.5-1.9c0.1-0.199,0.3-0.399,0.399-0.6c0.5-0.7,1.101-1.4,1.601-2.1
				c0.3-0.4,0.6-0.9,1.3-1.301c1.3-0.699,1.899-2.1,2-3.6c0-0.2,0.1-0.3,0.2-0.5c0.5-0.9,1-1.7,1.5-2.6V271.5
				c1.399-2.7,2.7-5.5,3.8-8.399l0,0c0.6-1.601,1.2-3.301,1.7-4.9c18-7,33.899-14.4,46.5-21.8c1.899-1.101,3-3.5,2.2-5.601
				c-1-2.899-4.301-4-6.801-2.6c-10.8,6.3-24.199,12.7-39.399,18.9c0.5-3.5,0.8-7,0.8-10.7c0-13.8-3.7-26.7-10.2-37.8
				C343,195.8,361,195,374.3,196.3c14.7,1.4,20.7,4.9,21.5,7.9c0.7,2.7-2.3,8.4-12.8,16.2c-1.7,1.3-2.5,4-1.601,5.899
				c0.9,1.7,2.5,2.7,4.2,2.7c1,0,1.9-0.3,2.8-0.899C401,218.3,406.6,209.4,404.5,201.6z M163.2,286c-31.9,1.2-42.101-4.6-43-8.2
				c-0.801-2.899,2.699-9,14.699-17.5C146,252.5,162.2,244.1,182,235.9c0,0.1,0,0.3,0,0.399c0,17.5,6,33.601,16.1,46.4
				C185.5,284.5,173.8,285.6,163.2,286z M256.9,301.9c-14.6,0-28.1-4.8-39-12.9c15.9-2.899,32.7-6.6,49.7-11.2
				c2.101-0.6,4.101-1.1,6.2-1.699c1.3,7.699,5.7,14.6,12,19.1C277.1,299.5,267.3,301.9,256.9,301.9z M316.5,263.7L316.5,263.7
				c-0.7,1.5-1.4,2.9-2.2,4.3c0,0,0,0,0,0.101c-0.8,1.399-1.601,2.699-2.4,4c0,0.1-0.1,0.1-0.1,0.199c-0.8,1.2-1.7,2.4-2.601,3.601
				c-0.1,0.2-0.199,0.3-0.399,0.5c-0.4,0.5-0.7,0.899-1.101,1.399c-0.199,0.2-0.399,0.5-0.6,0.7c-0.3,0.3-0.6,0.7-0.9,1
				c-0.199,0.3-0.5,0.5-0.699,0.8c-0.2,0.2-0.301,0.4-0.5,0.5c-0.5,0.601-1.101,1.2-1.601,1.7c-0.1,0.101-0.1,0.101-0.2,0.2
				c-2.5,2.5-5.3,4.8-8.199,6.9c-6.601-2.8-11.301-9-12.101-16.101c11.8-3.5,23.3-7.2,34.101-11.1
				C316.9,262.8,316.7,263.2,316.5,263.7z M284.6,263.2c3.101-6.9,10-11.7,18.101-11.7c3.5,0,6.8,0.9,9.8,2.5
				C303.5,257.2,294.2,260.3,284.6,263.2z M322.5,236.3c0,4.301-0.4,8.5-1.2,12.5c-5.2-4.3-11.7-6.699-18.601-6.699
				c-14.399,0-26.399,10.5-28.8,24.199c-2.899,0.801-5.7,1.601-8.6,2.4c-19.4,5.2-38.5,9.4-56.3,12.3c-11-11.7-17.7-27.5-17.7-44.7
				c0-36.199,29.399-65.6,65.6-65.6S322.5,200.1,322.5,236.3z"/>
		</g>
	</g>
</g>
<g>
	<path fill="#010101" d="M249.2,401.1c-1.101,3-4.4,4.6-7.4,3.5c-19.1-6.9-37.8-15.7-41.9-17.7c-4.3-0.7-8.6-1.4-12.899-2.2
		l-5.5,23.101c-0.4,1.5-1.3,2.8-2.601,3.6c-1.3,0.8-2.899,1.1-4.399,0.7c-21-5-41.7-11.2-62-18.5S72.3,377.9,52.9,368.4
		c-1.399-0.7-2.399-1.9-2.899-3.3c-0.5-1.5-0.4-3,0.3-4.4l10.5-21.399c-3.8-2.101-7.5-4.2-11.2-6.4c-4.399-1.1-24.399-6.1-43.6-13
		c-3-1.1-4.601-4.399-3.5-7.399C9.7,292,25.9,271,50.6,250.2c15.2-12.9,28.9-21.5,33.2-24.2c6.8-12.3,14.3-24.399,22.5-36.2
		C136.7,145.9,175.5,107.7,221.6,76.1c1.5-1.101,3.5-1.301,5.2-0.7c1.8,0.6,3.1,2.1,3.6,3.899C245.8,133,251.4,187.1,247,240.4
		c-1.2,14.399-3.101,28.399-5.7,42.2c1.7,4.8,6.7,20.2,10.2,39.8C257.4,354.1,256.6,380.6,249.2,401.1z M240.1,391.6
		c7.8-28.3,1.7-63.5-3.899-85.601c-6.4,25.4-15.301,49.601-26.7,72.601C216,381.7,227.7,386.9,240.1,391.6z M198.4,375
		c20.601-41.199,33-86.8,37.101-135.7c1.899-23.1,1.899-46.3,0-69.6c-13.7,1.3-27.601-0.5-40.7-5.1c-13-4.7-24.9-12.2-34.6-21.9
		C143.9,159.5,129.1,177.4,115.9,196.4C88,236.6,68.6,279.8,58.3,324.7C101.6,350,148.7,366.9,198.4,375z M171.5,399.5l4.1-17
		c-18.2-3.899-36.1-9-53.6-15.3S87.4,353.4,70.8,344.801l-7.7,15.8C97.8,377.1,134.2,390.2,171.5,399.5z M234.3,158.1
		c-2.5-22.601-6.8-45.301-12.9-67.9c-19.1,13.6-36.8,28.3-53.1,44.2c8.5,8.5,18.9,15.1,30.3,19.2
		C210.1,157.7,222.3,159.3,234.3,158.1z M47.3,320.4c5.9-24.9,14.4-49.3,25.6-73c-18.3,13.5-45.5,36.8-57.399,63.5
		C28,315.2,40.3,318.6,47.3,320.4z"/>
	<path fill="#F18021" d="M236.2,306c5.6,22.101,11.699,57.301,3.899,85.601c-12.3-4.7-24-9.9-30.6-13
		C220.8,355.7,229.7,331.4,236.2,306z"/>
	<path fill="#FFFFFF" d="M235.5,239.3C231.5,288.1,219,333.7,198.4,375c-49.6-8-96.8-25-140.199-50.3
		c10.3-44.9,29.699-88,57.6-128.3c13.2-19,28-36.9,44.3-53.7c9.7,9.7,21.601,17.2,34.6,21.9c13,4.699,27,6.399,40.7,5.1
		C237.4,193,237.4,216.3,235.5,239.3z M216.8,271.2c10.4-29.1-4.7-61.3-33.8-71.7c-29.101-10.399-61.3,4.7-71.7,33.8
		C100.9,262.4,116,294.6,145.1,305C174.2,315.4,206.3,300.301,216.8,271.2z"/>
	<path fill="#F18021" d="M175.6,382.5l-4.1,17C134.2,390.2,97.8,377.1,63.1,360.6l7.7-15.8c16.6,8.6,33.7,16.1,51.2,22.399
		S157.4,378.6,175.6,382.5z"/>
	<path fill="#F18021" d="M221.5,90.3C227.6,112.9,231.9,135.6,234.4,158.2c-12,1.1-24.199-0.4-35.6-4.5S177,143,168.5,134.5
		C184.7,118.6,202.4,103.8,221.5,90.3z"/>
	<path fill="#F18021" d="M72.9,247.5c-11.199,23.7-19.699,48-25.6,73c-6.9-1.8-19.3-5.199-31.8-9.399
		C27.4,284.2,54.5,260.9,72.9,247.5z"/>
</g>
<rect x="222.6" y="221.8" fill="#184375" width="31" height="57.801"/>
<rect x="18" y="191.6" fill="none" width="512.199" height="108.1"/>
<g enable-background="new    ">
	<path fill="#FFFFFF" d="M146.3,257.7c1.1,8.1,8.1,14,19.6,14c6,0,13.801-2.3,17.601-6.1L193.9,275.8
		C187,283,175.7,286.4,165.7,286.4c-22.601,0-36-14-36-35c0-19.9,13.6-34.3,34.8-34.3c21.899,0,35.6,13.6,33.1,40.6H146.3z
		 M181.9,244.3c-1.1-8.5-7.699-12.8-17-12.8c-8.8,0-16,4.3-18.399,12.8H181.9z"/>
	<path fill="#FFFFFF" d="M262,219.2h15.6v65.6h-15.3l-0.8-9.6c-3.7,7.7-14,11.4-21.3,11.6C220.8,286.9,206.4,275,206.4,252
		c0-22.6,15-34.399,34.2-34.3c8.8,0,17.2,4.1,20.9,10.6L262,219.2z M222.6,251.9c0,12.5,8.601,19.899,19.4,19.899
		c25.5,0,25.5-39.8,0-39.8C231.3,232.1,222.6,239.4,222.6,251.9z"/>
</g>
<g enable-background="new    ">
	<path fill="#FFFFFF" d="M338.3,231c-6.601-5.899-13.2-6.899-20.5-6.899C307.6,224,297.699,227.8,298,236.2
		c0.3,8.8,11.7,10.5,19.899,12c11.7,2,27.8,4,27.101,19.3c-0.4,14.5-15.4,18.4-27,18.4c-11.601,0-23-4.4-28.7-13.2l4.8-4.3
		c5.5,7.8,15.3,11.2,24.1,11.2c8,0,20.101-2.101,20.5-12.5c0.301-9.4-10.6-11.301-21.399-13c-12.8-2.101-25.4-4.5-25.5-17.7
		c-0.101-12.9,12.8-18.5,26.1-18.4c9.601,0,18,2.7,24.5,8.8L338.3,231z"/>
	<path fill="#FFFFFF" d="M415.8,219l-40,93.101h-6.9L381,283.9L354.6,219h7l15.3,38.8l7.7,19L392.2,257.6l16.5-38.7h7.1V219z"/>
</g>
<rect x="425" y="191.6" fill="none" width="512.199" height="108.1"/>
<g enable-background="new    ">
	<path fill="#FFFFFF" d="M470.8,191.5v76.9h47.899v16.2H453.3V191.5H470.8z"/>
	<path fill="#FFFFFF" d="M597.1,267h-48.7l-8,17.601h-19l41.8-93.101h19.2l41.8,93.101H605L597.1,267z M572.8,211.1l-17.3,39.6h34.6
		L572.8,211.1z"/>
	<path fill="#FFFFFF" d="M693.3,191.4h17.6v93.2H700v0.1l-49-62.9V284.6H633.4V191.5h14.2l45.6,57.7v-57.8H693.3z"/>
	<path fill="#FFFFFF" d="M796.1,214.2c-6.3-6-15.6-9.3-23.7-9.3c-19.899,0-32.1,15.2-32.1,34.3c0,15.3,8.899,31.1,32.1,31.1
		c7.3,0,13.7-1.6,21-7.399v-16.5h-23.8v-15.7h39.9V270c-9.2,10.5-20.7,16.8-37.101,16.8c-35,0-49.2-23-49.2-47.5
		c0-26.199,16.4-50.399,49.2-50.399c12.5,0,25,4.8,34.601,14.2L796.1,214.2z"/>
	<path fill="#FFFFFF" d="M890,267h-48.7l-8,17.601h-19l41.8-93.101h19.2l41.8,93.101h-19.2L890,267z M865.6,211.1l-17.3,39.6h34.6
		L865.6,211.1z"/>
</g>
</svg>
