<?xml version="1.0" encoding="utf-8"?>
<!-- Generator: Adobe Illustrator 19.1.0, SVG Export Plug-In . SVG Version: 6.00 Build 0)  -->
<svg version="1.1" id="Livello_1" xmlns="http://www.w3.org/2000/svg" xmlns:xlink="http://www.w3.org/1999/xlink" x="0px" y="0px"
	 viewBox="-1182 118.4 1004.9 337.2" style="enable-background:new -1182 118.4 1004.9 337.2;" xml:space="preserve">
<style type="text/css">
	.st0{display:none;}
	.st1{display:inline;}
	.st2{clip-path:url(#SVGID_2_);fill:#FFFFFF;}
	.st3{clip-path:url(#SVGID_4_);fill:#FFFFFF;}
	.st4{clip-path:url(#SVGID_6_);fill:#FFFFFF;}
	.st5{clip-path:url(#SVGID_8_);fill:#FFFFFF;}
	.st6{clip-path:url(#SVGID_10_);fill:#FFFFFF;}
	.st7{display:inline;fill:#FFFFFF;}
	.st8{fill:#FFFFFF;}
	.st9{fill:#010101;}
	.st10{fill:#F18021;}
	.st11{enable-background:new    ;}
</style>
<g class="st0">
	<g class="st1">
		<g>
			<defs>
				<rect id="SVGID_1_" x="217" y="162" width="482" height="482"/>
			</defs>
			<clipPath id="SVGID_2_">
				<use xlink:href="#SVGID_1_"  style="overflow:visible;"/>
			</clipPath>
			<path class="st2" d="M457.5,466.1c-9.1,0-18.3,0.1-27.4,0c-9.6-0.1-13.6-3.4-14.9-12.8c-1.5-10.5-4.7-20.5-8.6-30.3
				c-5.7-14.3-14.2-27.1-21.7-40.4c-9.3-16.4-17.2-33.6-19.6-52.6c-2.6-21.1,1.3-40.9,13.6-58.6c13.4-19.4,32.1-31.1,54.8-36.6
				c28.7-6.9,55.7-2.7,80.3,13.7c22.9,15.3,35.4,37.1,37.6,64.7c1.6,20.9-4.8,39.7-14,57.9c-6.4,12.7-14.4,24.6-21,37.2
				c-7.7,14.7-13.3,30-15.7,46.5c-1.1,7.7-5.4,11.2-13.2,11.3C477.4,466.1,467.4,466,457.5,466.1L457.5,466.1"/>
		</g>
	</g>
	<g class="st1">
		<g>
			<defs>
				<rect id="SVGID_3_" x="217" y="162" width="482" height="482"/>
			</defs>
			<clipPath id="SVGID_4_">
				<use xlink:href="#SVGID_3_"  style="overflow:visible;"/>
			</clipPath>
			<path class="st3" d="M430.1,544.2c-4.8,0-8.5-3-8.9-7.2c-0.3-3.3,3.3-7,7.7-7.6c17.9-2.5,35.8-4.9,53.7-7.2
				c4.6-0.6,8.8,2.3,9.5,6.5c0.6,3.7-2.4,7.4-7.3,8.1c-17.8,2.6-35.7,4.9-53.6,7.4C430.8,544.2,430.4,544.2,430.1,544.2"/>
		</g>
	</g>
	<g class="st1">
		<g>
			<defs>
				<rect id="SVGID_5_" x="217" y="162" width="482" height="482"/>
			</defs>
			<clipPath id="SVGID_6_">
				<use xlink:href="#SVGID_5_"  style="overflow:visible;"/>
			</clipPath>
			<path class="st4" d="M482.3,476.3c5.5,0,9.2,2.9,9.6,6.9c0.4,3.1-2.8,7-6.8,7.6c-14,2.1-28.1,4-42.2,5.9c-5,0.7-9.9,1.9-14.9,1.5
				c-3.7-0.3-6.3-3.2-6.5-6.8c-0.2-3.9,1.7-6.8,5.6-7.4c10.4-1.7,20.8-3.1,31.2-4.5C466.6,478.4,475,477.3,482.3,476.3"/>
		</g>
	</g>
	<g class="st1">
		<g>
			<defs>
				<rect id="SVGID_7_" x="217" y="162" width="482" height="482"/>
			</defs>
			<clipPath id="SVGID_8_">
				<use xlink:href="#SVGID_7_"  style="overflow:visible;"/>
			</clipPath>
			<path class="st5" d="M429.9,521.2c-4.8,0-8.3-2.8-8.6-6.6c-0.3-3.8,2.9-7.4,7.5-8c12-1.7,24.1-3.2,36.1-4.8
				c5.1-0.7,10.2-1.4,15.3-2c1.3-0.2,2.5-0.2,3.8-0.2c4.1,0,7.7,3,8.1,6.6c0.4,2.9-2.4,6.8-6.1,7.6c-4.5,1-9.2,1.6-13.8,2.2
				c-13.8,1.8-27.6,3.5-41.4,5.2C430.5,521.2,430.1,521.2,429.9,521.2"/>
		</g>
	</g>
	<g class="st1">
		<g>
			<defs>
				<rect id="SVGID_9_" x="217" y="162" width="482" height="482"/>
			</defs>
			<clipPath id="SVGID_10_">
				<use xlink:href="#SVGID_9_"  style="overflow:visible;"/>
			</clipPath>
			<path class="st6" d="M472.9,546.2c-5.9,9.4-21.8,11.6-31.1,4.1C452.3,548.9,462.4,547.6,472.9,546.2"/>
		</g>
	</g>
</g>
<g class="st0">
	<path class="st7" d="M634.9,422.4c0-20.4-14.8-37.4-34.2-40.9v-6.2c0-79-64.2-143.2-143.2-143.2s-143.2,64.2-143.2,143.2v6.2
		c-19.4,3.5-34.2,20.5-34.2,40.9c0,20.6,15,37.7,34.7,41c2.8,31.6,17.2,54.9,43,69.4c23,12.9,55.6,19.2,99.7,19.2
		s76.7-6.3,99.7-19.2c25.8-14.5,40.3-37.8,43-69.4C619.9,460.1,634.9,443,634.9,422.4z M294.7,422.4c0-12.3,8.3-22.7,19.6-25.9v51.7
		C303,445.1,294.7,434.7,294.7,422.4z M586,451.8c0,32.2-11.8,54.5-36.1,68.1c-20.7,11.6-51,17.3-92.5,17.3s-71.8-5.7-92.5-17.3
		c-24.3-13.6-36.1-35.9-36.1-68.1v-76.5c0-58,38.7-107.2,91.6-123.1c40.3,0.5,61.8,29.6,61.8,50.7c0,16.1-13.1,29.3-29.3,29.3
		c-12.1,0-22-9.8-22-22c0-8.9,7.2-16.1,16.1-16.1c4.1,0,7.3-3.3,7.3-7.3c0-4.1-3.3-7.3-7.3-7.3c-17,0-30.8,13.8-30.8,30.8
		c0,20.2,16.4,36.6,36.6,36.6c24.2,0,43.9-19.7,43.9-43.9c0-15.2-7.6-31.6-20.5-43.8c-5.1-4.9-11-9-17.3-12.3
		c70.1,0.9,126.8,58.2,126.8,128.5L586,451.8L586,451.8z M600.7,448.3v-51.7c11.3,3.2,19.6,13.6,19.6,25.9
		C620.3,434.7,612,445.1,600.7,448.3z"/>
</g>
<text transform="matrix(1 0 0 1 367.3063 451.2448)" style="display:none;fill:#FFFFFF;enable-background:new    ; font-family:'NexaBold'; font-size:84px;">SON</text>
<g class="st0">
	<g class="st1">
		<g>
			<path class="st8" d="M442.7,359.6c-17.8,0-32.3,14.5-32.3,32.3c0,17.8,14.5,32.3,32.3,32.3c17.8,0,32.3-14.5,32.3-32.3
				C475,374.1,460.5,359.6,442.7,359.6z M442.7,415c-12.7,0-23.1-10.4-23.1-23.1s10.4-23.1,23.1-23.1s23.1,10.4,23.1,23.1
				S455.4,415,442.7,415z"/>
			<path class="st8" d="M442.7,378c-7.6,0-13.9,6.2-13.9,13.9c0,7.6,6.2,13.9,13.9,13.9c7.6,0,13.9-6.2,13.9-13.9
				C456.5,384.2,450.3,378,442.7,378z M442.7,396.5c-2.5,0-4.6-2.1-4.6-4.6s2.1-4.6,4.6-4.6s4.6,2.1,4.6,4.6
				S445.2,396.5,442.7,396.5z"/>
			<path class="st8" d="M508.1,428.8c-4.7,0-9.2,1.8-12.5,5.2l-10.8,10.8c-3.3,3.3-5.2,7.8-5.2,12.5c0,9.7,7.9,17.7,17.7,17.7
				c4.7,0,9.2-1.8,12.5-5.2l10.8-10.8c3.3-3.3,5.2-7.8,5.2-12.5C525.8,436.7,517.9,428.8,508.1,428.8z M514.1,452.5l-10.8,10.8
				c-1.6,1.6-3.7,2.5-6,2.5c-4.7,0-8.4-3.8-8.4-8.4c0-2.2,0.9-4.4,2.5-6l10.8-10.8c1.6-1.6,3.7-2.5,6-2.5c4.7,0,8.4,3.8,8.4,8.4
				C516.6,448.7,515.7,450.9,514.1,452.5z"/>
			<path class="st8" d="M388.1,313.4c-4.7,0-9.2,1.8-12.5,5.2l-10.8,10.8c-3.3,3.3-5.2,7.8-5.2,12.5c0,9.7,7.9,17.7,17.7,17.7
				c4.7,0,9.2-1.8,12.5-5.2l10.8-10.8c3.3-3.3,5.2-7.8,5.2-12.5C405.7,321.3,397.8,313.4,388.1,313.4z M394,337l-10.8,10.8
				c-1.6,1.6-3.7,2.5-6,2.5c-4.7,0-8.4-3.8-8.4-8.4c0-2.2,0.9-4.4,2.5-6l10.8-10.8c1.6-1.6,3.7-2.5,6-2.5c4.7,0,8.4,3.8,8.4,8.4
				C396.5,333.3,395.6,335.5,394,337z"/>
			<path class="st8" d="M581.2,368.8c-3.4,0-6.8-0.4-10.2-1.1c-6.1-49-41.6-89.1-89.5-101.3c-1.2-4-1.9-8.4-1.9-13
				c0-7.6-6.2-13.9-13.9-13.9H438c-7.6,0-13.9,6.2-13.9,13.9c0,4.6-0.7,9-1.9,13c-39.4,10-71.4,39.8-84.3,78.5
				c-6.3,3.5-11.9,5.4-15.4,5.4c-7.6,0-13.9,6.2-13.9,13.9v36.9c0,7.6,6.2,13.9,13.9,13.9c6.2,0,11.4,2.2,15,4.4
				c2.3,7.3,5.4,14.3,9,20.9c-3.4,7.3-8,15.1-14.2,21.5l0,0c-0.2,0.3-0.5,0.5-0.7,0.8l0,0c-2.8,3.1-4.5,7.2-4.5,11.7
				c0,4.7,1.8,9.2,5.2,12.5l15.4,15.4c3.3,3.3,7.8,5.2,12.5,5.2c4.5,0,8.5-1.7,11.7-4.5l0,0c0.1-0.2,0.3-0.3,0.5-0.4
				c0.2-0.2,0.3-0.3,0.5-0.5c6.3-6.4,14.8-10.5,23-13.1c6.6,3.5,13.4,6.3,20.5,8.5c1.6,2.8,5.4,9.6,7,17.3c1.3,6.4,7,11.1,13.5,11.1
				h29.5c6.9,0,12.6-4.9,13.7-11.7c0.8-5.1,2.6-11.9,6.5-16.4c3.9-1.2,7.7-2.6,11.5-4.1c16.1,0.1,32.4,17.5,32.6,17.8
				c3.4,3.4,7.8,5.3,12.6,5.3c4.7,0,9.2-1.8,12.5-5.2l10.8-10.8c3.3-3.3,5.2-7.8,5.2-12.5c0-4.9-2-9.4-5.6-12.8
				c-7.8-7.1-16-17.1-17.3-22.1c5.5-7.7,10.3-16.1,14-25.2c6-2.4,12.1-3.7,18.1-3.7c7.6,0,13.9-6.2,13.9-13.9v-27.7
				C595,375,588.8,368.8,581.2,368.8z M438.1,248.7h27.7c2.5,0,4.6,2.1,4.6,4.6s-2.1,4.6-4.6,4.6h-27.7c-2.5,0-4.6-2.1-4.6-4.6
				C433.4,250.8,435.5,248.7,438.1,248.7z M366.5,495.4c-0.2,0.2-0.3,0.3-0.5,0.5c-1.5,1.4-3.5,2.2-5.7,2.2c-2.2,0-4.4-0.9-6-2.5
				L339,480.2c-1.6-1.6-2.5-3.7-2.5-6s0.9-4.4,2.4-5.9l0.1-0.1c1.5-1.5,3.6-2.4,5.9-2.4c2.2,0,4.4,0.9,6,2.5l15.4,15.4
				c1.6,1.6,2.5,3.7,2.5,6C368.8,491.9,367.9,493.9,366.5,495.4z M471.1,512.6c-0.4,2.3-2.3,3.9-4.6,3.9H437c-2.2,0-4.1-1.5-4.5-3.7
				c-0.9-4.6-2.5-8.9-4.1-12.5c7.7,1.5,15.6,2.3,23.5,2.3c7.7,0,15.2-0.8,22.5-2.2C472.7,504.7,471.7,509,471.1,512.6z M560.1,481.9
				c1.7,1.6,2.6,3.8,2.6,6.1c0,2.2-0.9,4.4-2.5,6l-10.8,10.8c-3.2,3.2-8.9,3.1-11.9,0c-0.6-0.6-11.6-12.5-25.9-17.9
				c11.7-6.7,22.2-15.4,31-25.7C547.8,470.3,557.6,479.7,560.1,481.9z M557.7,420.1l-1.7,0.8l-0.7,1.8
				c-16.7,43-57.2,70.8-103.3,70.8c-14.1,0-28.2-2.7-41.2-8c7.8-1.2,13.4-1.3,13.5-1.3V475c-1.3,0-26.5,0.2-46.5,11.8
				c-0.6-3.6-2.2-7-4.9-9.6l-15.4-15.4c-2.6-2.6-5.8-4.2-9.4-4.9c12.4-18.9,15.9-40,16.1-41.1l-9.1-1.5c0,0.1-1.1,6.2-3.8,14.5
				c-2-4.4-3.8-9-5.2-13.7l-0.5-1.6l-1.4-0.9c-4.6-3.1-12.1-6.8-21.5-6.8c-2.5,0-4.6-2.1-4.6-4.6v-36.9c0-2.5,2.1-4.6,4.6-4.6
				c7,0,15.6-4.1,21.5-7.5l1.6-0.9l0.5-1.7c10.8-34.3,37.7-61.2,71.5-72.1c-6.2,11.5-14.8,18.5-14.9,18.6l5.8,7.2
				c0.9-0.7,18.2-14.9,23.4-37.4c1.8,0.9,3.9,1.5,6.1,1.5h27.7c2.2,0,4.2-0.6,6.1-1.5c5.1,22.5,22.5,36.7,23.4,37.4l5.8-7.2
				c-0.1-0.1-8.7-7.1-15-18.7c41.7,13.4,71.9,50.3,76.2,94.6l0.3,3.1l3,0.9c1.1,0.3,2.2,0.6,3.3,0.8c-0.9,1.8-1.5,3.9-1.5,6.1v27.7
				c0,2.2,0.6,4.2,1.5,6.1C565.1,417.3,561.4,418.5,557.7,420.1z M585.8,410.3c0,2.5-2.1,4.6-4.6,4.6s-4.6-2.1-4.6-4.6v-27.7
				c0-2.5,2.1-4.6,4.6-4.6s4.6,2.1,4.6,4.6V410.3z"/>
			<path class="st8" d="M510.5,319.3l-6.4,6.7c16.7,16,26.3,36.6,26.3,56.7h9.2C539.6,360.1,529,337,510.5,319.3z"/>
			
				<rect x="382.7" y="440.7" transform="matrix(-0.7071 0.7071 -0.7071 -0.7071 977.3798 489.6247)" class="st8" width="9.2" height="13.1"/>
			<rect x="442.7" y="294.9" class="st8" width="9.2" height="9.2"/>
			<rect x="484.2" y="387.3" class="st8" width="9.2" height="9.2"/>
			<rect x="539.3" y="405.7" class="st8" width="9.2" height="9.2"/>
		</g>
	</g>
</g>
<g class="st0">
	<g class="st1">
		<g>
			<path class="st8" d="M489.3,346.6c-6.1-1-11.2,4.2-10.2,10.2c0.6,3.7,3.6,6.6,7.2,7.2c6.1,1,11.2-4.2,10.2-10.2
				C495.9,350.2,492.9,347.2,489.3,346.6z"/>
			<circle class="st8" cx="464.9" cy="340.7" r="5.7"/>
			<path class="st8" d="M440.3,351.7c-12.9-1.3-23.8,9.5-22.5,22.5c1,9.6,8.7,17.3,18.3,18.3c12.9,1.3,23.8-9.5,22.5-22.5
				C457.6,360.4,449.8,352.7,440.3,351.7z M440.1,383c-7.6,1.2-14-5.2-12.8-12.8c0.8-4.6,4.5-8.3,9-9c7.6-1.3,14,5.2,12.8,12.8
				C448.3,378.6,444.6,382.3,440.1,383z"/>
			<path class="st8" d="M612.5,348.6c-5.5-20.5-57.9-16.2-88.7-11.7c-13.7-17.4-35-28.5-58.8-28.5c-37.7,0-68.9,27.9-74.2,64.1
				c-0.2,0-0.4,0.1-0.5,0.2c-28.9,11.6-76.6,34.1-71.1,54.6c2.7,10.2,17.4,15.4,43.8,15.4c2.8,0,5.7-0.1,8.7-0.2
				c12.7-0.5,26.9-2,42.2-4.3c13.4,12.5,31.4,20.2,51.2,20.2c15.2,0,29.3-4.5,41.2-12.3c0.1-0.1,0.2-0.1,0.3-0.2
				c4.6-3.1,8.8-6.6,12.6-10.6c0.3-0.3,0.5-0.5,0.8-0.8c0.4-0.5,0.9-0.9,1.3-1.4c0.4-0.4,0.7-0.8,1.1-1.2c0.2-0.2,0.4-0.5,0.6-0.7
				c0.5-0.6,1-1.3,1.5-1.9c0.1-0.2,0.3-0.4,0.4-0.6c0.5-0.7,1.1-1.4,1.6-2.1c0.3-0.4,0.6-0.9,1.3-1.3c1.3-0.7,1.9-2.1,2-3.6
				c0-0.2,0.1-0.3,0.2-0.5c0.5-0.9,1-1.7,1.5-2.6v-0.1c1.4-2.7,2.7-5.5,3.8-8.4l0,0c0.6-1.6,1.2-3.3,1.7-4.9
				c18-7,33.9-14.4,46.5-21.8c1.9-1.1,3-3.5,2.2-5.6c-1-2.9-4.3-4-6.8-2.6c-10.8,6.3-24.2,12.7-39.4,18.9c0.5-3.5,0.8-7,0.8-10.7
				c0-13.8-3.7-26.7-10.2-37.8c20.9-2.8,38.9-3.6,52.2-2.3c14.7,1.4,20.7,4.9,21.5,7.9c0.7,2.7-2.3,8.4-12.8,16.2
				c-1.7,1.3-2.5,4-1.6,5.9c0.9,1.7,2.5,2.7,4.2,2.7c1,0,1.9-0.3,2.8-0.9C609,365.3,614.6,356.4,612.5,348.6z M371.2,433
				c-31.9,1.2-42.1-4.6-43-8.2c-0.8-2.9,2.7-9,14.7-17.5c11.1-7.8,27.3-16.2,47.1-24.4c0,0.1,0,0.3,0,0.4c0,17.5,6,33.6,16.1,46.4
				C393.5,431.5,381.8,432.6,371.2,433z M464.9,448.9c-14.6,0-28.1-4.8-39-12.9c15.9-2.9,32.7-6.6,49.7-11.2
				c2.1-0.6,4.1-1.1,6.2-1.7c1.3,7.7,5.7,14.6,12,19.1C485.1,446.5,475.3,448.9,464.9,448.9z M524.5,410.7L524.5,410.7
				c-0.7,1.5-1.4,2.9-2.2,4.3c0,0,0,0,0,0.1c-0.8,1.4-1.6,2.7-2.4,4c0,0.1-0.1,0.1-0.1,0.2c-0.8,1.2-1.7,2.4-2.6,3.6
				c-0.1,0.2-0.2,0.3-0.4,0.5c-0.4,0.5-0.7,0.9-1.1,1.4c-0.2,0.2-0.4,0.5-0.6,0.7c-0.3,0.3-0.6,0.7-0.9,1c-0.2,0.3-0.5,0.5-0.7,0.8
				c-0.2,0.2-0.3,0.4-0.5,0.5c-0.5,0.6-1.1,1.2-1.6,1.7c-0.1,0.1-0.1,0.1-0.2,0.2c-2.5,2.5-5.3,4.8-8.2,6.9
				c-6.6-2.8-11.3-9-12.1-16.1c11.8-3.5,23.3-7.2,34.1-11.1C524.9,409.8,524.7,410.2,524.5,410.7z M492.6,410.2
				c3.1-6.9,10-11.7,18.1-11.7c3.5,0,6.8,0.9,9.8,2.5C511.5,404.2,502.2,407.3,492.6,410.2z M530.5,383.3c0,4.3-0.4,8.5-1.2,12.5
				c-5.2-4.3-11.7-6.7-18.6-6.7c-14.4,0-26.4,10.5-28.8,24.2c-2.9,0.8-5.7,1.6-8.6,2.4c-19.4,5.2-38.5,9.4-56.3,12.3
				c-11-11.7-17.7-27.5-17.7-44.7c0-36.2,29.4-65.6,65.6-65.6C501.1,317.7,530.5,347.1,530.5,383.3z"/>
		</g>
	</g>
</g>
<g>
	<rect x="-1076.1" y="239.5" width="113.6" height="112.1"/>
	<g>
		<path class="st9" d="M-934.9,444.4c-1.1,3-4.4,4.6-7.4,3.5c-19.1-6.9-37.8-15.7-41.9-17.7c-4.3-0.7-8.6-1.4-12.9-2.2l-5.5,23.1
			c-0.4,1.5-1.3,2.8-2.6,3.6c-1.3,0.8-2.9,1.1-4.4,0.7c-21-5-41.7-11.2-62-18.5c-20.3-7.3-40.2-15.7-59.6-25.2
			c-1.4-0.7-2.4-1.9-2.9-3.3c-0.5-1.5-0.4-3,0.3-4.4l10.5-21.4c-3.8-2.1-7.5-4.2-11.2-6.4c-4.4-1.1-24.4-6.1-43.6-13
			c-3-1.1-4.6-4.4-3.5-7.4c7.2-20.5,23.4-41.5,48.1-62.3c15.2-12.9,28.9-21.5,33.2-24.2c6.8-12.3,14.3-24.4,22.5-36.2
			c30.4-43.9,69.2-82.1,115.3-113.7c1.5-1.1,3.5-1.3,5.2-0.7c1.8,0.6,3.1,2.1,3.6,3.9c15.4,53.7,21,107.8,16.6,161.1
			c-1.2,14.4-3.1,28.4-5.7,42.2c1.7,4.8,6.7,20.2,10.2,39.8C-926.7,397.4-927.5,423.9-934.9,444.4z M-944,434.9
			c7.8-28.3,1.7-63.5-3.9-85.6c-6.4,25.4-15.3,49.6-26.7,72.6C-968.1,425-956.4,430.2-944,434.9z M-985.7,418.3
			c20.6-41.2,33-86.8,37.1-135.7c1.9-23.1,1.9-46.3,0-69.6c-13.7,1.3-27.6-0.5-40.7-5.1c-13-4.7-24.9-12.2-34.6-21.9
			c-16.3,16.8-31.1,34.7-44.3,53.7c-27.9,40.2-47.3,83.4-57.6,128.3C-1082.5,393.3-1035.4,410.2-985.7,418.3z M-1012.6,442.8l4.1-17
			c-18.2-3.9-36.1-9-53.6-15.3s-34.6-13.8-51.2-22.4l-7.7,15.8C-1086.3,420.4-1049.9,433.5-1012.6,442.8z M-949.8,201.4
			c-2.5-22.6-6.8-45.3-12.9-67.9c-19.1,13.6-36.8,28.3-53.1,44.2c8.5,8.5,18.9,15.1,30.3,19.2C-974,201-961.8,202.6-949.8,201.4z
			 M-1136.8,363.7c5.9-24.9,14.4-49.3,25.6-73c-18.3,13.5-45.5,36.8-57.4,63.5C-1156.1,358.5-1143.8,361.9-1136.8,363.7z"/>
		<path class="st10" d="M-947.9,349.3c5.6,22.1,11.7,57.3,3.9,85.6c-12.3-4.7-24-9.9-30.6-13C-963.3,399-954.4,374.7-947.9,349.3z"
			/>
		<path class="st8" d="M-948.6,282.6c-4,48.8-16.5,94.4-37.1,135.7c-49.6-8-96.8-25-140.2-50.3c10.3-44.9,29.7-88,57.6-128.3
			c13.2-19,28-36.9,44.3-53.7c9.7,9.7,21.6,17.2,34.6,21.9s27,6.4,40.7,5.1C-946.7,236.3-946.7,259.6-948.6,282.6z M-967.3,314.5
			c10.4-29.1-4.7-61.3-33.8-71.7c-29.1-10.4-61.3,4.7-71.7,33.8s4.7,61.3,33.8,71.7C-1009.9,358.7-977.8,343.6-967.3,314.5z"/>
		<path class="st10" d="M-1008.5,425.8l-4.1,17c-37.3-9.3-73.7-22.4-108.4-38.9l7.7-15.8c16.6,8.6,33.7,16.1,51.2,22.4
			S-1026.7,421.9-1008.5,425.8z"/>
		<path class="st10" d="M-962.6,133.6c6.1,22.6,10.4,45.3,12.9,67.9c-12,1.1-24.2-0.4-35.6-4.5c-11.4-4.1-21.8-10.7-30.3-19.2
			C-999.4,161.9-981.7,147.1-962.6,133.6z"/>
		<path class="st10" d="M-1111.2,290.8c-11.2,23.7-19.7,48-25.6,73c-6.9-1.8-19.3-5.2-31.8-9.4
			C-1156.7,327.5-1129.6,304.2-1111.2,290.8z"/>
	</g>
	<rect x="-961.5" y="265.1" width="31" height="57.8"/>
	<g class="st11">
		<path class="st8" d="M-1003.5,262.3h15.6v65.6h-15.3l-0.9-9.6c-3.7,7.7-14,11.4-21.3,11.6c-19.4,0.1-33.8-11.8-33.8-34.8
			c0-22.6,15-34.4,34.2-34.3c8.8,0,17.2,4.1,20.9,10.6L-1003.5,262.3z M-1042.9,295c0,12.5,8.6,19.9,19.4,19.9
			c25.5,0,25.5-39.8,0-39.8C-1034.3,275.2-1042.9,282.5-1042.9,295z"/>
		<path class="st8" d="M-906.2,234.9v93h-15.2l-1.1-9c-5.1,7.8-13.2,10.5-21.1,10.5c-19.3,0-33.8-12.8-33.8-34.3
			c0-22.6,14.2-34.3,33.4-34.3c6.9,0,17.7,3.7,21.5,10.5V235L-906.2,234.9L-906.2,234.9z M-961.1,295c0,11.4,8.2,19.3,18.6,19.3
			c10.2,0,19-7.4,19-19.3c0-11.4-8.8-19.2-19-19.2C-952.9,275.9-961.1,283.2-961.1,295z"/>
		<path class="st8" d="M-848.5,327.9v-35.1c0-8.6-4.5-16.5-13.4-16.5c-8.8,0-14,7.8-14,16.5v35.1h-16.2v-65.7h15l1.2,8
			c3.5-6.7,11-9,17.3-9c7.8,0,15.7,3.2,19.4,12.2c5.9-9.3,13.4-12,21.9-12c18.6,0,27.8,11.4,27.8,31.1v35.4h-16.2v-35.4
			c0-8.6-3.6-16-12.4-16s-14.2,7.6-14.2,16.2v35.1h-16.2V327.9z"/>
		<path class="st8" d="M-755.2,243.8c0,12.6-19.2,12.6-19.2,0C-774.4,231.2-755.2,231.2-755.2,243.8z M-772.9,262.1v65.8h16.2v-65.8
			H-772.9z"/>
		<path class="st8" d="M-693.8,327.9v-34.3c0-10-5.5-17.6-15.8-17.6c-10,0-16.8,8.4-16.8,18.4v33.5h-16.1v-65.7h14.5l1.1,8.9
			c6.6-6.5,13.3-9.8,21.5-9.8c15.4,0,27.8,11.6,27.8,32.2v34.4L-693.8,327.9L-693.8,327.9z"/>
	</g>
	<g class="st11">
		<path class="st8" d="M-623.3,234.8v76.9h47.9v16.2h-65.4v-93.1H-623.3z"/>
		<path class="st8" d="M-497,310.3h-48.7l-8,17.6h-19l41.8-93.1h19.2l41.8,93.1h-19.2L-497,310.3z M-521.3,254.4l-17.3,39.6h34.6
			L-521.3,254.4z"/>
		<path class="st8" d="M-400.8,234.7h17.6v93.2h-10.9v0.1l-49-62.9v62.8h-17.6v-93.1h14.2l45.6,57.7L-400.8,234.7L-400.8,234.7z"/>
		<path class="st8" d="M-298,257.5c-6.3-6-15.6-9.3-23.7-9.3c-20,0-32.1,15.2-32.1,34.3c0,15.3,8.9,31.1,32.1,31.1
			c7.3,0,13.7-1.6,21-7.4v-16.5h-23.8V274h39.9v39.3c-9.2,10.5-20.7,16.8-37.1,16.8c-35,0-49.2-23-49.2-47.5
			c0-26.2,16.4-50.4,49.2-50.4c12.5,0,25,4.8,34.6,14.2L-298,257.5z"/>
		<path class="st8" d="M-204.1,310.3h-48.7l-8,17.6h-19l41.8-93.1h19.2l41.8,93.1h-19.2L-204.1,310.3z M-228.5,254.4l-17.3,39.6
			h34.6L-228.5,254.4z"/>
	</g>
</g>
</svg>
