<?xml version="1.0" encoding="utf-8"?>
<!-- Generator: Adobe Illustrator 19.1.0, SVG Export Plug-In . SVG Version: 6.00 Build 0)  -->
<svg version="1.1" id="Layer_1" xmlns="http://www.w3.org/2000/svg" xmlns:xlink="http://www.w3.org/1999/xlink" x="0px" y="0px"
	 viewBox="-37.7 177.2 491.2 467.4" style="enable-background:new -37.7 177.2 491.2 467.4;" xml:space="preserve">
<style type="text/css">
	.st0{opacity:0.2;}
	.st1{fill:#231F20;}
	.st2{fill:#FFFFFF;}
</style>
<g>
	<g class="st0">
		<path class="st1" d="M-5.5,481.7v-131c0-11.7,9.5-21.2,21.2-21.2H-8.7c-11.7,0-21.2,9.5-21.2,21.2v130.9
			c0,11.7,9.5,21.2,21.2,21.2h24.5C4,502.9-5.5,493.4-5.5,481.7z"/>
	</g>
	<g class="st0">
		<path class="st1" d="M197.4,550.1h-24.5V601c6.7-6.4,15.1-10.9,24.5-12.8V550.1z"/>
	</g>
	<g class="st0">
		<path class="st1" d="M177.7,528.8V294.4c0-25,17.9-45.7,41.6-50.1c-3.1-0.6-6.2-0.9-9.4-0.9h-5.7c-28.2,0-51,22.8-51,51v234.4
			c0,11.7,9.5,21.2,21.2,21.2H199C187.2,550.1,177.7,540.6,177.7,528.8z"/>
	</g>
	<g class="st0">
		<path class="st1" d="M219.4,588.7c-3.9-1-8-1.5-12.2-1.5c-27.4,0-49.5,22.2-49.5,49.5h24.5C182.1,613.6,197.9,594.2,219.4,588.7z"
			/>
	</g>
	<g>
		<path class="st2" d="M424.1,321.7h-71h-84.4v-27.3c0-30.8-23.7-56-53.9-58.6V185c0-4.3-3.5-7.8-7.8-7.8s-7.8,3.5-7.8,7.8v50.8
			c-30.1,2.5-53.9,27.8-53.9,58.6v27.3H61.5H-8.7c-16,0-29,13-29,29v65.5v65.5c0,16,13,29,29,29h70.4h83.8v18.2
			c0,12.7,8.2,23.5,19.7,27.4v41.5c-9.5,10.2-15.3,23.9-15.3,39c0,4.3,3.5,7.8,7.8,7.8h53.8c4.3,0,7.8-3.5,7.8-7.8s-3.5-7.8-7.8-7.8
			h-45.4c1.7-8.9,6.2-16.9,12.7-22.9c0.2-0.2,0.3-0.3,0.5-0.5c0.3-0.3,0.6-0.5,0.9-0.8c0.2-0.1,0.3-0.3,0.5-0.4
			c0.3-0.3,0.7-0.5,1-0.8c0.1-0.1,0.2-0.1,0.3-0.2c2.2-1.7,4.7-3.2,7.2-4.4c0.1,0,0.1-0.1,0.2-0.1c0.4-0.2,0.9-0.4,1.4-0.6
			c0.1-0.1,0.2-0.1,0.4-0.2c0.4-0.2,0.8-0.3,1.3-0.5c0.2-0.1,0.3-0.1,0.5-0.2c0.4-0.1,0.8-0.3,1.2-0.4c0.2-0.1,0.4-0.1,0.6-0.2
			c0.4-0.1,0.7-0.2,1.1-0.3c0.2-0.1,0.5-0.1,0.7-0.2c0.4-0.1,0.7-0.2,1.1-0.3c0.3-0.1,0.6-0.1,0.9-0.2c0.3-0.1,0.7-0.1,1-0.2
			c0.3-0.1,0.6-0.1,1-0.2c0.3,0,0.6-0.1,0.9-0.1c0.4-0.1,0.7-0.1,1.1-0.1c0.3,0,0.5-0.1,0.8-0.1c0.4,0,0.9-0.1,1.3-0.1
			c0.2,0,0.4,0,0.7,0c0.7,0,1.3,0,2,0c0.7,0,1.3,0,2,0c0.2,0,0.4,0,0.7,0c0.4,0,0.9,0.1,1.3,0.1c0.3,0,0.5,0.1,0.8,0.1
			c0.4,0,0.7,0.1,1.1,0.1c0.3,0,0.6,0.1,0.9,0.1c0.3,0.1,0.6,0.1,1,0.2c0.3,0.1,0.7,0.1,1,0.2c0.3,0.1,0.6,0.1,0.8,0.2
			c0.4,0.1,0.7,0.2,1.1,0.3c0.2,0.1,0.5,0.1,0.7,0.2c0.4,0.1,0.8,0.2,1.1,0.3c0.2,0.1,0.4,0.1,0.6,0.2c0.4,0.1,0.8,0.3,1.2,0.4
			c0.2,0.1,0.3,0.1,0.5,0.2c0.4,0.2,0.9,0.3,1.3,0.5c0.1,0,0.2,0.1,0.3,0.1c0.5,0.2,1,0.4,1.4,0.6c0,0,0,0,0.1,0
			c2.7,1.3,5.2,2.8,7.5,4.6l0,0c0.4,0.3,0.8,0.7,1.2,1c0.1,0.1,0.2,0.1,0.2,0.2c0.4,0.3,0.7,0.6,1.1,1c0.1,0.1,0.2,0.2,0.3,0.3
			c6.5,6,11.1,14,12.8,23h-11.9c-4.3,0-7.8,3.5-7.8,7.8s3.5,7.8,7.8,7.8h20.4c4.3,0,7.8-3.5,7.8-7.8c0-15-5.8-28.7-15.3-39v-41.5
			c11.4-3.9,19.7-14.7,19.7-27.4v-18.2h84.4h71c16,0,29-13,29-29v-65.5v-65.5C453.1,334.8,440.1,321.7,424.1,321.7z M424.1,337.3
			c7.4,0,13.5,6,13.5,13.5v57.7h-76.7v-71.2H424.1L424.1,337.3L424.1,337.3z M345.4,337.3v71.2h-76.7v-71.2H345.4L345.4,337.3z
			 M145.5,408.4H69.4v-71.2h76.1V408.4z M-22.2,350.7c0-7.4,6-13.5,13.5-13.5h62.6v71.2h-76.1V350.7z M-8.7,495.1
			c-7.4,0-13.5-6-13.5-13.5V424h76.1v71.2L-8.7,495.1L-8.7,495.1z M69.4,495.1V424h76.1v71.2H69.4V495.1z M233.6,585.9
			c-0.4-0.2-0.8-0.4-1.2-0.6c-0.3-0.1-0.5-0.3-0.8-0.4c-0.6-0.3-1.2-0.6-1.9-0.8c-0.3-0.1-0.6-0.3-1-0.4c-0.6-0.2-1.2-0.5-1.8-0.7
			c-0.3-0.1-0.7-0.2-1-0.4c-1-0.3-2-0.7-3-0.9c-0.6-0.2-1.1-0.3-1.7-0.5c-0.5-0.1-0.9-0.2-1.4-0.3c-0.6-0.1-1.2-0.3-1.8-0.4
			c-0.4-0.1-0.9-0.2-1.3-0.2c-0.6-0.1-1.3-0.2-1.9-0.3c-0.4-0.1-0.8-0.1-1.3-0.2c-0.7-0.1-1.4-0.1-2.1-0.2c-0.4,0-0.7-0.1-1.1-0.1
			c-1.1-0.1-2.2-0.1-3.2-0.1c-1.1,0-2.2,0-3.2,0.1c-0.4,0-0.7,0.1-1.1,0.1c-0.7,0.1-1.4,0.1-2.1,0.2c-0.4,0-0.8,0.1-1.3,0.2
			c-0.6,0.1-1.3,0.2-1.9,0.3c-0.4,0.1-0.9,0.2-1.3,0.2c-0.6,0.1-1.2,0.2-1.8,0.4c-0.5,0.1-0.9,0.2-1.4,0.3c-0.6,0.1-1.1,0.3-1.7,0.5
			c-1,0.3-2,0.6-2.9,0.9c-0.4,0.1-0.7,0.2-1.1,0.4c-0.6,0.2-1.2,0.5-1.8,0.7c-0.3,0.1-0.7,0.3-1,0.4c-0.6,0.3-1.2,0.5-1.8,0.8
			c-0.3,0.1-0.6,0.3-0.9,0.4c-0.4,0.2-0.8,0.4-1.2,0.6v-28.1h52.9L233.6,585.9L233.6,585.9z M253.2,528.8c0,7.4-6,13.5-13.5,13.5
			h-65.3c-7.4,0-13.5-6-13.5-13.5v-25.9v-86.7v-86.7v-35.1c0-23.9,19.4-43.3,43.3-43.3h5.7c23.9,0,43.3,19.4,43.3,43.3v35.1v86.7
			v86.7V528.8L253.2,528.8z M268.7,424h76.7v71.2h-76.7V424z M424.1,495.1h-63.2V424h76.7v57.7C437.6,489.1,431.6,495.1,424.1,495.1
			z"/>
		<path class="st2" d="M207.1,444.4c-4.3,0-7.8,3.5-7.8,7.8v56.6c0,4.3,3.5,7.8,7.8,7.8c4.3,0,7.8-3.5,7.8-7.8v-56.6
			C214.9,447.9,211.4,444.4,207.1,444.4z"/>
		<path class="st2" d="M207.1,271.2c-15.3,0-27.8,12.5-27.8,27.8c0,15.3,12.5,27.8,27.8,27.8s27.8-12.5,27.8-27.8
			C234.9,283.7,222.4,271.2,207.1,271.2z M207.1,311.3c-6.8,0-12.3-5.5-12.3-12.3c0-6.8,5.5-12.3,12.3-12.3
			c6.8,0,12.3,5.5,12.3,12.3C219.4,305.8,213.9,311.3,207.1,311.3z"/>
	</g>
</g>
</svg>
