<?xml version="1.0" encoding="utf-8"?>
<!-- Generator: Adobe Illustrator 19.1.0, SVG Export Plug-In . SVG Version: 6.00 Build 0)  -->
<svg version="1.1" id="Layer_1" xmlns="http://www.w3.org/2000/svg" xmlns:xlink="http://www.w3.org/1999/xlink" x="0px" y="0px"
	 viewBox="-39.7 148.2 495.9 495.8" style="enable-background:new -39.7 148.2 495.9 495.8;" xml:space="preserve">
<style type="text/css">
	.st0{opacity:0.2;}
	.st1{fill:#231F20;}
	.st2{fill:#FFFFFF;}
</style>
<g>
	<g class="st0">
		<path class="st1" d="M-7.1,396.2c0-128.4,100.8-233.3,227.6-239.8c-4.1-0.2-8.3-0.3-12.4-0.3C75.5,156.1-32,263.6-32,396.2
			S75.5,636.3,208.1,636.3c4.2,0,8.3-0.1,12.4-0.3C93.7,629.5-7.1,524.6-7.1,396.2z"/>
	</g>
	<g>
		<path class="st2" d="M171.8,493.9c-5.5,0-11.1,2-16.7,5.8c-0.5,0.3-0.9,0.7-1.3,1.2c-2.9,3.1-27.9,31.3-19.8,55.3
			c4.9,14.4,16.8,24.2,29.7,24.2c12.1,0,22.7-8.6,29.1-23.6c7.6-18.1,7-38.8-1.5-51.7C186.4,497.9,179.5,493.9,171.8,493.9z
			 M178.3,550.6c-3.8,9.1-9,14-14.7,14c-6,0-12.3-5.7-14.9-13.5c-4.2-12.5,9.8-32.1,15.9-39c2.7-1.7,5.1-2.6,7.2-2.6
			c0.9,0,3.6,0,6.4,4.1C182.9,520.9,184.5,535.9,178.3,550.6z"/>
		<path class="st2" d="M385.8,569c1.3-1.4,2.7-2.8,4-4.2c0.3-0.3,0.5-0.6,0.8-0.8c40.2-43.6,63.1-99.2,65.3-158.4
			c0-0.6,0-1.1,0.1-1.7c0-0.9,0.1-1.7,0.1-2.6c0-1.7,0.1-3.4,0.1-5.1c0-2.4,0-4.7-0.1-7c0-0.5,0-0.9-0.1-1.4c-0.1-2-0.2-4.1-0.3-6.1
			c0-0.2,0-0.4,0-0.7c-3.6-60.5-28.9-116.9-72.1-160.1c-47-46.9-109.3-72.7-175.5-72.7S79.6,174,32.8,220.9
			c-40.3,40.3-65,92-71.1,147.8c0,0.2,0,0.4-0.1,0.6c-0.1,1.3-0.3,2.6-0.4,3.9c-0.1,0.6-0.1,1.1-0.1,1.7c-0.1,1.5-0.2,2.9-0.3,4.4
			c-0.1,1.2-0.2,2.5-0.2,3.7c0,0.7-0.1,1.4-0.1,2.1c-0.1,1.2-0.1,2.5-0.1,3.7c0,0.6,0,1.2,0,1.8c0,1.8-0.1,3.7-0.1,5.5
			c0,2.4,0,4.7,0.1,7.1c0,0.5,0,0.9,0.1,1.4c0.1,2.1,0.2,4.1,0.3,6.1c0,0.2,0,0.5,0,0.7c3.6,60.5,28.9,116.8,72.1,160
			C79.7,618.2,142,644,208.2,644c64.6,0,125.3-24.5,171.7-69.1c0.2-0.2,0.4-0.4,0.7-0.6c1-0.9,1.9-1.9,2.9-2.8
			c0.4-0.4,0.9-0.9,1.3-1.4C385.1,569.7,385.4,569.4,385.8,569z M406.6,422.7c-13.9-18.1-22-38-19.2-47.5c0.8-2.7,2.4-4.3,5.4-5.3
			c0.1,0,2.6-0.8,9.8,5.4c6.1,5.2,12.9,13.2,20.1,21.5c5.5,6.4,11.1,12.9,16.9,18.8c-2.9,34.9-13.5,67.6-30.2,96.4
			C417.6,475.3,419.7,439.7,406.6,422.7z M54.2,415.3c16.2,17.4,38.2,17.5,55.9,17.6c9.3,0,19,0.1,21.9,3.3c1.7,1.9,1.7,6,1.3,9.1
			c-1.5,14.3-15.2,29.1-29.8,44.7c-21.2,22.8-45.2,48.7-36.8,81.4c1.1,4.3,0.8,7.1,0,8.9c-15.1-11.6-28.8-25.1-40.6-40
			c-0.3-0.4-0.7-0.8-1-1.3c-0.6-0.8-1.2-1.6-1.8-2.4c-0.9-1.1-1.7-2.3-2.6-3.4c-0.2-0.3-0.4-0.6-0.7-0.9
			c-25.6-35.4-41-77.8-43.7-122.1c0-0.3,0-0.5-0.1-0.8c-0.1-1.8-0.2-3.6-0.2-5.4c0-0.4,0-0.8,0-1.3c-0.1-2.2-0.1-4.3-0.1-6.5
			c0-1.8,0-3.6,0.1-5.3c0-0.5,0-0.9,0-1.4c0-1.5,0.1-3.1,0.2-4.6c0-0.3,0-0.5,0-0.8c0.1-1.7,0.2-3.5,0.3-5.2c0-0.4,0.1-0.9,0.1-1.3
			c0.1-1.5,0.2-2.9,0.4-4.4c0-0.3,0.1-0.7,0.1-1c0.2-1.8,0.4-3.5,0.6-5.3c0-0.2,0.1-0.5,0.1-0.7c0.2-1.6,0.4-3.3,0.7-4.9
			c0-0.2,0.1-0.5,0.1-0.7c4.9-32,16.5-61.9,33.2-88.3c9.8,0.1,33.6,0.3,58.1,1.8c48.5,2.9,59.1,8,61.1,9.4
			c3.3,10.1,3.4,27.1-1.4,35.7c-2,3.5-3.9,3.9-4.5,4.1c-16.4,3.5-66.5,29.4-72.1,32.4c-0.2,0.1-0.3,0.2-0.5,0.3
			c-1.2,0.8-12.1,7.8-14.1,21.9C36.7,389.6,42,402.3,54.2,415.3z M79.5,589.5c3.7-5.8,4.6-13.4,2.4-21.9
			c-6.3-24.4,12.9-45,33.1-66.8c16.3-17.6,31.8-34.2,33.9-53.7c1-9.3-0.7-16.2-5.2-21.2c-7.5-8.4-20.1-8.4-33.5-8.5
			c-15.5-0.1-33-0.2-44.5-12.6c-8.6-9.3-12.7-17.8-11.8-24.7c0.8-6.5,5.7-10.1,6.6-10.7c15.1-7.9,55.8-28.2,67.8-30.8
			c6.2-1.3,11.3-5.4,14.9-11.8c7.5-13.4,6.9-36.1,2.2-49.4c-2.5-7-10.2-14.8-70.5-18.6c-19.6-1.3-39.3-1.8-52.4-1.9
			c42.4-56.3,109.8-92.8,185.6-92.8c48.3,0,93.2,14.8,130.4,40.1c-5.2,6.2-13.2,13.8-20.7,13.8c-15.2,0-46.9,0-60.7,16.6
			c-5.5,6.5-7.5,14.9-5.8,24.3c3,16.9,13.1,27.7,21.2,36.4c9.4,10.1,14.2,15.9,11.7,25.9c-1.4,5.8-17.7,12.3-30.8,17.5
			c-22.9,9.2-48.9,19.5-57.1,41.3c-4.5,11.8-2.8,25.5,4.8,40.5c20.1,39.5,35.1,45.9,51.2,49.8c7.3,1.8,11.3,2.7,16.3,12.4
			c1.3,2.4,2.8,5.5,4.5,9c1.3,2.7,2.8,5.6,4.3,8.7c1.9,3.9,6.6,5.4,10.5,3.5s5.4-6.6,3.5-10.5c-1.6-3.1-3-6-4.3-8.6
			c-1.8-3.6-3.3-6.7-4.6-9.2c-8.2-16.1-18-18.5-26.6-20.5c-10.5-2.5-22.5-5.4-40.9-41.7c-5.7-11.1-7-20.3-4.1-27.9
			c5.8-15.3,28.3-24.3,48.2-32.3c19.8-7.9,36.8-14.7,40.2-28.3c4.7-18.7-6-30.2-15.5-40.4c-7.4-7.9-15-16.1-17.2-28.5
			c-1.1-6.4,0.8-9.6,2.4-11.5c9.2-11,37.9-11,48.7-11c14.6,0,26.8-12.1,33.3-20.2c13.3,10.4,25.4,22.2,36.1,35.2l0,0
			c0.9,1,1.7,2.1,2.5,3.1c0.6,0.8,1.2,1.5,1.8,2.3c0.4,0.6,0.9,1.1,1.3,1.7c27.2,35.8,43.7,79.1,46.9,124.4c0,0.2,0,0.4,0,0.6
			c0.1,1.8,0.2,3.6,0.3,5.4c0,0.7,0.1,1.3,0.1,2c0,1.4,0.1,2.7,0.1,4.1c0,0.4,0,0.9,0,1.3c-2-2.2-3.9-4.5-5.8-6.7
			c-17-19.8-31.7-36.8-46.9-31.5c-7.8,2.7-13.1,8.1-15.3,15.6c-6.8,22.8,17,55.2,21.9,61.5c11.6,15,6.7,63-11.8,117.2
			c-10.5,11.9-22.1,22.7-34.8,32.2c-12.3-11.3-27.5-34-45.4-67.6c-2-3.8-6.8-5.3-10.6-3.2c-3.8,2-5.3,6.8-3.2,10.6
			c17.7,33.3,32.9,56.2,46.1,69.4c-36.4,23.7-79.9,37.5-126.5,37.5C160.6,628.4,116.3,614.1,79.5,589.5z"/>
	</g>
</g>
</svg>
