<?xml version="1.0" encoding="utf-8"?>
<!-- Generator: Adobe Illustrator 19.1.0, SVG Export Plug-In . SVG Version: 6.00 Build 0)  -->
<svg version="1.1" id="Layer_1" xmlns="http://www.w3.org/2000/svg" xmlns:xlink="http://www.w3.org/1999/xlink" x="0px" y="0px"
	 viewBox="36.5 146.8 354.1 498.2" style="enable-background:new 36.5 146.8 354.1 498.2;" xml:space="preserve">
<style type="text/css">
	.st0{opacity:0.2;}
	.st1{fill:#231F20;}
	.st2{fill:#FFFFFF;}
</style>
<g>
	<g class="st0">
		<path class="st1" d="M286.6,357.4c0-23.6,16.2-43.5,38.1-49c-4-1-8.2-1.6-12.5-1.6c-27.9,0-50.6,22.7-50.6,50.6
			s22.7,50.6,50.6,50.6c4.3,0,8.5-0.5,12.5-1.6C302.8,400.9,286.6,381,286.6,357.4z"/>
	</g>
	<g class="st0">
		<path class="st1" d="M75.1,357.4c0-23.6,16.2-43.5,38.1-49c-4-1-8.2-1.6-12.5-1.6c-27.9,0-50.6,22.7-50.6,50.6S72.8,408,100.7,408
			c4.3,0,8.5-0.5,12.5-1.6C91.3,400.9,75.1,381,75.1,357.4z"/>
	</g>
	<g class="st0">
		<path class="st1" d="M107.1,478.3v-70.7c-2.1,0.3-4.2,0.4-6.4,0.4c-6.6,0-12.9-1.3-18.6-3.6v73.8c0,9.3,7.6,16.9,16.9,16.9h25
			C114.6,495.1,107.1,487.6,107.1,478.3z"/>
		<path class="st1" d="M117.3,309.6l3.4-2.5c-0.2,0-0.4,0-0.6,0c18.6-37.3,55.5-64,98.9-68.3c-4.1-0.4-8.3-0.6-12.5-0.6
			c-48.8,0-91,28.1-111.4,69c1.8-0.2,3.7-0.3,5.6-0.3C106.5,306.8,112.1,307.8,117.3,309.6z"/>
	</g>
	<g>
		<circle class="st2" cx="100.7" cy="357.4" r="16.9"/>
		<circle class="st2" cx="314" cy="357.4" r="16.9"/>
		<path class="st2" d="M230.1,427.8c-3,10.5-12.8,17.8-23.7,17.8c-10.9,0-20.6-7.3-23.7-17.8c-1.2-4.2-5.6-6.6-9.8-5.4
			s-6.6,5.6-5.4,9.8c5,17.1,21,29.1,38.8,29.1s33.8-12,38.8-29.1c1.2-4.2-1.2-8.6-5.4-9.8C235.7,421.2,231.4,423.6,230.1,427.8z"/>
		<path class="st2" d="M380.8,485.6c-4.5-3.5-9.9-5.4-15.6-5.4c-7.9,0-15.3,3.6-20.1,9.8c-10.8,13.9-27.7,22.1-45.3,22.1
			c-4.4,0-8.7-0.5-12.9-1.5c-6.4-1.5-12.5-4.1-18-7.7H314c13.6,0,24.7-11.1,24.7-24.7v-68.8c18.9-9.7,32-29.4,32-52.1
			c0-28.6-20.6-52.4-47.7-57.5c-8.6-15.9-20.5-30.1-34.7-41.3c-3.4-2.7-8.4-2.1-11.1,1.3s-2.1,8.4,1.3,11.1
			c10.1,8,18.9,17.6,25.9,28.4c-0.2,0-0.4,0.1-0.6,0.1c-0.4,0.1-0.8,0.1-1.2,0.2c-0.5,0.1-1.1,0.2-1.6,0.3c-0.4,0.1-0.8,0.2-1.2,0.2
			c-0.5,0.1-1,0.2-1.5,0.4c-0.4,0.1-0.8,0.2-1.2,0.3c-0.5,0.1-1,0.3-1.5,0.4c-0.4,0.1-0.8,0.2-1.2,0.3c-0.5,0.2-1,0.3-1.5,0.5
			c-0.4,0.1-0.7,0.3-1.1,0.4c-0.5,0.2-1,0.4-1.5,0.6c-0.3,0.1-0.7,0.3-1,0.4c-0.6,0.2-1.1,0.5-1.7,0.8c-0.3,0.1-0.5,0.2-0.8,0.4
			c-0.8,0.4-1.6,0.8-2.4,1.2c-0.2,0.1-0.4,0.2-0.6,0.4c-0.6,0.3-1.1,0.6-1.7,1c-0.3,0.2-0.6,0.4-0.9,0.6c-0.5,0.3-0.9,0.6-1.4,0.9
			c-0.3,0.2-0.7,0.5-1,0.7c-0.4,0.3-0.8,0.6-1.2,0.9c-0.3,0.2-0.7,0.5-1,0.7c-0.4,0.3-0.8,0.6-1.2,0.9c-0.3,0.3-0.6,0.5-1,0.8
			c-0.4,0.3-0.7,0.6-1.1,1c-0.3,0.3-0.6,0.6-0.9,0.8c-0.4,0.3-0.7,0.7-1.1,1c-0.3,0.3-0.6,0.6-0.9,0.9s-0.7,0.7-1,1.1
			c-0.3,0.3-0.6,0.6-0.8,0.9c-0.3,0.4-0.7,0.7-1,1.1c-0.3,0.3-0.5,0.6-0.8,0.9c-0.3,0.4-0.6,0.8-1,1.2c-0.2,0.3-0.5,0.6-0.7,0.9
			c-0.3,0.5-0.7,0.9-1,1.4c-0.2,0.3-0.4,0.5-0.6,0.8c-0.5,0.7-1,1.5-1.4,2.3c-0.1,0.2-0.2,0.3-0.3,0.5c-0.4,0.6-0.7,1.2-1.1,1.9
			c-0.2,0.3-0.3,0.6-0.5,0.9c-0.3,0.5-0.5,1-0.8,1.5c-0.2,0.3-0.3,0.7-0.5,1c-0.2,0.5-0.4,1-0.7,1.5c-0.2,0.4-0.3,0.7-0.5,1.1
			c-0.2,0.5-0.4,1-0.6,1.4c-0.1,0.4-0.3,0.8-0.4,1.1c-0.2,0.5-0.3,1-0.5,1.5c-0.1,0.4-0.2,0.8-0.4,1.2c-0.1,0.5-0.3,1-0.4,1.5
			c-0.1,0.4-0.2,0.8-0.3,1.2c-0.1,0.5-0.2,1-0.4,1.5c-0.1,0.4-0.2,0.8-0.3,1.2c-0.1,0.5-0.2,1.1-0.3,1.6c-0.1,0.4-0.1,0.8-0.2,1.2
			c-0.1,0.6-0.1,1.1-0.2,1.7c0,0.4-0.1,0.7-0.1,1.1c-0.1,0.6-0.1,1.3-0.1,1.9c0,0.3-0.1,0.6-0.1,1c0,1-0.1,1.9-0.1,2.9
			c0,32.2,26.2,58.5,58.5,58.5c1,0,1.9,0,2.9-0.1c0.3,0,0.6,0,1-0.1c0.6,0,1.3-0.1,1.9-0.1c0.4,0,0.8-0.1,1.2-0.1
			c0.5-0.1,1.1-0.1,1.6-0.2c0.4-0.1,0.9-0.1,1.3-0.2c0.3-0.1,0.7-0.1,1-0.2v63.4c0,5-4,9-9,9h-65.4h-31.7h-36H162H98.7c-5,0-9-4-9-9
			v-63.4c0.3,0.1,0.6,0.1,1,0.2s0.9,0.1,1.3,0.2c0.5,0.1,1.1,0.1,1.6,0.2c0.4,0,0.8,0.1,1.2,0.1c0.6,0.1,1.2,0.1,1.9,0.1
			c0.3,0,0.6,0.1,1,0.1c1,0,1.9,0.1,2.9,0.1c32.2,0,58.5-26.2,58.5-58.5c0-1,0-1.9-0.1-2.9c0-0.3,0-0.6-0.1-0.9
			c0-0.6-0.1-1.3-0.1-1.9c0-0.4-0.1-0.7-0.1-1.1c-0.1-0.6-0.1-1.1-0.2-1.7c-0.1-0.4-0.1-0.8-0.2-1.2c-0.1-0.5-0.2-1.1-0.3-1.6
			c-0.1-0.4-0.2-0.8-0.3-1.2c-0.1-0.5-0.2-1-0.4-1.6c-0.1-0.4-0.2-0.8-0.3-1.2c-0.1-0.5-0.3-1-0.4-1.5c-0.1-0.4-0.2-0.8-0.4-1.1
			c-0.2-0.5-0.3-1-0.5-1.5c-0.1-0.4-0.3-0.7-0.4-1.1c-0.2-0.5-0.4-1-0.6-1.5c-0.1-0.4-0.3-0.7-0.4-1.1c-0.2-0.5-0.5-1-0.7-1.5
			c-0.2-0.3-0.3-0.7-0.5-1c-0.3-0.5-0.5-1.1-0.8-1.6c-0.1-0.3-0.3-0.5-0.4-0.8c-0.4-0.7-0.8-1.4-1.2-2.1c-0.1-0.1-0.1-0.2-0.2-0.3
			c-0.5-0.8-1-1.5-1.5-2.3c-0.1-0.2-0.3-0.4-0.4-0.6c-0.4-0.5-0.7-1.1-1.1-1.6c-0.2-0.3-0.4-0.5-0.6-0.8c-0.3-0.4-0.7-0.9-1-1.3
			c-0.2-0.3-0.5-0.6-0.7-0.8c-0.3-0.4-0.7-0.8-1.1-1.2c-0.3-0.3-0.5-0.6-0.8-0.8c-0.4-0.4-0.7-0.8-1.1-1.1c-0.3-0.3-0.5-0.5-0.8-0.8
			c-0.4-0.4-0.7-0.7-1.1-1.1c-0.3-0.3-0.6-0.5-0.9-0.8c-0.4-0.3-0.8-0.7-1.2-1c-0.3-0.2-0.6-0.5-0.9-0.7c-0.4-0.3-0.8-0.7-1.2-1
			c-0.3-0.2-0.6-0.5-0.9-0.7c-0.4-0.3-0.9-0.6-1.3-1c-0.3-0.2-0.6-0.4-0.9-0.6c-0.5-0.3-1-0.6-1.5-1c-0.3-0.2-0.5-0.3-0.8-0.5
			c-0.6-0.4-1.3-0.7-1.9-1.1c-0.2-0.1-0.3-0.2-0.5-0.3c-0.8-0.4-1.6-0.9-2.4-1.2c-0.2-0.1-0.4-0.2-0.6-0.3c-0.6-0.3-1.2-0.6-1.9-0.9
			c-0.3-0.1-0.6-0.2-0.9-0.4c-0.5-0.2-1.1-0.4-1.6-0.6c-0.3-0.1-0.7-0.2-1-0.4c-0.5-0.2-1-0.4-1.6-0.5c-0.4-0.1-0.7-0.2-1.1-0.3
			c-0.5-0.2-1-0.3-1.5-0.4c-0.4-0.1-0.8-0.2-1.2-0.3c-0.5-0.1-1-0.2-1.6-0.4c-0.4-0.1-0.8-0.2-1.2-0.2c-0.5-0.1-1.1-0.2-1.6-0.3
			c-0.4-0.1-0.8-0.1-1.2-0.2c-0.2,0-0.4-0.1-0.6-0.1c21.3-33.2,57.8-53.4,98-53.4c17.6,0,34.5,3.8,50.3,11.4
			c3.9,1.9,8.6,0.2,10.5-3.7c1.9-3.9,0.2-8.6-3.7-10.5c-15.5-7.4-32.1-11.7-49.2-12.7v-29.7c11.4-3.4,19.7-13.9,19.7-26.4
			c0-15.2-12.4-27.6-27.6-27.6c-15.2,0-27.6,12.4-27.6,27.6c0,12.5,8.3,23,19.7,26.4v29.7c-22.3,1.3-43.8,8.2-62.7,20.1
			c-19.3,12.2-35.2,29.2-46,49.3C62.6,305,42,328.8,42,357.4c0,22.7,13,42.4,32,52.1v68.8c0,13.6,11.1,24.7,24.7,24.7h46.5
			c-10.3,9.3-23.8,14.7-38.2,14.7c-1,0-2,0-2.9-0.1c-10.1-0.5-19.9-3.7-28.3-9.2c-4.1-2.7-9-4.1-13.9-4.1c-8.6,0-16.6,4.3-21.3,11.6
			c-3.7,5.7-5,12.5-3.6,19.1c1.4,6.7,5.3,12.4,11,16.1c15.9,10.4,34.4,16.4,53.5,17.4c1.8,0.1,3.7,0.1,5.5,0.1
			c23.4,0,45.7-7.4,64.1-21.1c2.8,14.5,8.4,28.6,16.5,41.5c17.2,27.2,43.9,46,75.2,53.1c8.7,1.9,17.5,2.9,26.4,2.9l0,0
			c25.6,0,50-7.9,70.7-23c11.4-8.2,13.9-24.2,5.6-35.6c-4.8-6.6-12.5-10.5-20.6-10.5c-5.4,0-10.6,1.7-14.9,4.9
			c-11.9,8.7-26.1,13.3-40.8,13.3c-5.1,0-10.2-0.6-15.2-1.7c-31.1-7-52.6-34-54.1-64.4c14.6,15.9,33.9,27.4,55.1,32.3
			c8,1.9,16.3,2.8,24.5,2.8l0,0c33.2,0,65.2-15.6,85.6-41.8C393.9,510.2,391.9,494.2,380.8,485.6z M269.5,357.4
			c0-23.6,19.2-42.7,42.7-42.7c1.5,0,3.1,0.1,4.7,0.3c21.3,2.4,38,20.5,38,42.4c0,18.2-11.4,33.7-27.4,39.9
			c-0.4,0.1-0.8,0.3-1.2,0.4c-0.3,0.1-0.5,0.2-0.8,0.3c-0.4,0.1-0.8,0.3-1.2,0.4c-0.3,0.1-0.5,0.2-0.8,0.2c-0.4,0.1-0.8,0.2-1.1,0.3
			c-0.3,0.1-0.6,0.1-0.9,0.2c-0.4,0.1-0.7,0.2-1.1,0.2c-0.3,0.1-0.7,0.1-1.1,0.2c-0.3,0.1-0.6,0.1-1,0.2s-0.8,0.1-1.2,0.2
			c-0.3,0-0.6,0.1-0.9,0.1c-0.5,0-0.9,0.1-1.4,0.1c-0.2,0-0.5,0-0.7,0.1c-0.7,0-1.4,0.1-2.1,0.1
			C288.7,400.1,269.5,380.9,269.5,357.4z M194.7,174.4c0-6.5,5.3-11.8,11.8-11.8s11.8,5.3,11.8,11.8s-5.3,11.8-11.8,11.8
			C200,186.2,194.7,180.9,194.7,174.4z M58,357.4c0-21.9,16.6-40.1,38-42.4c1.6-0.2,3.2-0.3,4.8-0.3c23.6,0,42.7,19.2,42.7,42.7
			c0,23.6-19.2,42.7-42.7,42.7c-0.7,0-1.4,0-2.1-0.1c-0.2,0-0.5,0-0.7-0.1c-0.5,0-0.9-0.1-1.4-0.1c-0.3,0-0.6-0.1-0.9-0.1
			c-0.4,0-0.8-0.1-1.2-0.1c-0.3,0-0.7-0.1-1-0.2s-0.7-0.1-1-0.2c-0.4-0.1-0.7-0.2-1.1-0.2c-0.3-0.1-0.6-0.1-0.9-0.2
			c-0.4-0.1-0.8-0.2-1.1-0.3c-0.3-0.1-0.5-0.2-0.8-0.2c-0.4-0.1-0.8-0.2-1.2-0.4c-0.3-0.1-0.5-0.2-0.8-0.3c-0.4-0.1-0.8-0.3-1.1-0.4
			C69.4,391.1,58,375.6,58,357.4z M107.2,552.8c-1.6,0-3.1,0-4.7-0.1c-16.3-0.8-32.1-5.9-45.7-14.8c-2.2-1.4-3.7-3.6-4.2-6.1
			s0-5.1,1.4-7.3c1.8-2.8,4.8-4.4,8.1-4.4c1.9,0,3.7,0.5,5.3,1.6c10.7,7,23.2,11,36.1,11.7c1.2,0.1,2.5,0.1,3.7,0.1
			c23.8,0,45.6-11.3,59.3-30.4h4.7c0,0.1,0,0.2-0.1,0.3c-0.2,0.9-0.3,1.9-0.5,2.8v0.1c-1.2,7.5-1.6,15.1-1.4,22.6
			C152.2,544.3,130.3,552.8,107.2,552.8z M270.8,607.8c6.1,1.4,12.4,2.1,18.7,2.1c18.1,0,35.4-5.6,50.1-16.3
			c1.7-1.2,3.6-1.8,5.7-1.8c3.1,0,6,1.5,7.9,4c3.1,4.3,2.2,10.4-2.1,13.5c-18,13.1-39.2,20-61.5,20c-7.7,0-15.4-0.9-22.9-2.6
			c-27.2-6.1-50.4-22.5-65.4-46.1c-9.4-14.8-14.8-31.3-16-48.3c0-0.2,0-0.5,0-0.7c-0.6-9.6,0.1-19.2,2-28.5h19.8l-0.7,2.9
			C196.1,551.8,225,597.5,270.8,607.8z M372.8,511.6c-17.4,22.4-44.7,35.7-73.1,35.7c-7,0-14.1-0.8-20.9-2.4
			c-22.9-5.4-43.2-19.6-56.2-39.3l0.6-2.6h21.7c10,11.5,23.5,19.6,38.3,23c5.4,1.3,11,1.9,16.5,1.9c22.4,0,44-10.6,57.8-28.2
			c1.8-2.4,4.6-3.7,7.7-3.7c2.2,0,4.2,0.7,5.9,2C375.3,501.3,376.1,507.4,372.8,511.6z"/>
	</g>
</g>
</svg>
