<?xml version="1.0" encoding="utf-8"?>
<!-- Generator: Adobe Illustrator 19.1.0, SVG Export Plug-In . SVG Version: 6.00 Build 0)  -->
<svg version="1.1" id="Layer_1" xmlns="http://www.w3.org/2000/svg" xmlns:xlink="http://www.w3.org/1999/xlink" x="0px" y="0px"
	 viewBox="64.9 149.8 280 492" style="enable-background:new 64.9 149.8 280 492;" xml:space="preserve">
<style type="text/css">
	.st0{opacity:0.2;}
	.st1{fill:#231F20;}
	.st2{fill:#FFFFFF;}
</style>
<g>
	<g class="st0">
		<path class="st1" d="M96.4,289.8c0-69,52.9-125.7,120.4-131.7c-3.9-0.3-7.8-0.5-11.8-0.5c-73,0-132.2,59.2-132.2,132.2
			S131.9,422,204.9,422c4,0,7.9-0.2,11.8-0.5C149.3,415.5,96.4,358.8,96.4,289.8z"/>
	</g>
	<g class="st0">
		<path class="st1" d="M141.7,315v-50.1c0-10.6,8.6-19.2,19.2-19.2h-23.7c-10.6,0-19.2,8.6-19.2,19.2V315c0,10.6,8.6,19.2,19.2,19.2
			h23.7C150.3,334.2,141.7,325.6,141.7,315z"/>
	</g>
	<g class="st0">
		<path class="st1" d="M197.6,422H174c-30.4,0-55,24.6-55,55v96h23.7v-96.1C142.7,446.6,167.3,422,197.6,422z"/>
	</g>
	<g class="st0">
		<path class="st1" d="M142.7,614.6V573H119v41.6c0,10.6,8.6,19.2,19.2,19.2h13.9c1.7,0,3.3-0.2,4.9-0.7
			C148.8,631,142.7,623.5,142.7,614.6z"/>
	</g>
	<g class="st0">
		<path class="st1" d="M262.2,614.6V573h-23.7v41.6c0,10.6,8.6,19.2,19.2,19.2h13.9c1.7,0,3.3-0.2,4.9-0.7
			C268.3,631,262.2,623.5,262.2,614.6z"/>
	</g>
	<g class="st0">
		<path class="st1" d="M99.6,555.5c0-13.3,0-35.3,0-69.6c0-37.5,27.3-52.7,51.4-58.9c3.9-1.8,8-3.2,12.4-4l0,0
			c0,0-87.4-4.3-87.4,62.9c0,34.3,0,56.3,0,69.6c0,16.8,12.9,17.5,14.6,17.6h23.7C112.5,573,99.6,572.3,99.6,555.5z"/>
	</g>
	<g>
		<path class="st2" d="M230.1,334.2c0-4.3-3.5-7.8-7.8-7.8h-85.1c-6.3,0-11.4-5.1-11.4-11.4v-50.1c0-6.3,5.1-11.4,11.4-11.4h135.4
			c6.3,0,11.4,5.1,11.4,11.4V315c0,6.3-5.1,11.4-11.4,11.4h-23.3c-4.3,0-7.8,3.5-7.8,7.8c0,4.3,3.5,7.8,7.8,7.8h23.3
			c14.9,0,27-12.1,27-27v-50.1c0-14.9-12.1-27-27-27H137.2c-14.9,0-27,12.1-27,27V315c0,14.9,12.1,27,27,27h85.1
			C226.6,342,230.1,338.5,230.1,334.2z"/>
		<path class="st2" d="M301.2,424.9c-12.4-5.4-25.5-7.8-35.8-8.9c47-22.6,79.5-70.7,79.5-126.2c0-77.2-62.8-140-140-140
			s-140,62.8-140,140c0,55.6,32.6,103.7,79.6,126.3c-10.2,1.1-23.1,3.6-35.3,8.9c-26.9,11.6-41.1,32.7-41.1,61v69.6
			c0,19.8,14.6,25.2,22.3,25.4h0.1h20.7v33.8c0,14.9,12.1,27,27,27h13.9c14.9,0,27-12.1,27-27V581h51.7v33.8c0,14.9,12.1,27,27,27
			h13.9c14.9,0,27-12.1,27-27V581H320h0.1c7.7-0.1,22.3-5.5,22.3-25.4V486C342.3,457.7,328.1,436.6,301.2,424.9z M171.3,565.3h-44.5
			v-34H283v34h-44.4H171.3z M126.9,474.7c0-0.3,0-0.6,0.1-0.8c0-0.5,0.1-0.9,0.1-1.4c0-0.4,0.1-0.7,0.1-1.1s0.1-0.7,0.1-1.1
			c0.1-0.4,0.1-0.8,0.2-1.2c0.1-0.3,0.1-0.6,0.2-0.9c0.1-0.4,0.2-0.9,0.3-1.3c0.1-0.2,0.1-0.5,0.2-0.7c0.1-0.5,0.2-1,0.4-1.4
			c0-0.1,0.1-0.2,0.1-0.3c0.7-2.4,1.5-4.8,2.6-7c0.1-0.1,0.1-0.2,0.2-0.4c0.2-0.5,0.4-0.9,0.7-1.4c0.1-0.2,0.2-0.4,0.3-0.5
			c0.2-0.4,0.4-0.8,0.7-1.2c0.1-0.2,0.3-0.4,0.4-0.7c0.2-0.4,0.4-0.7,0.7-1.1c0.2-0.3,0.3-0.5,0.5-0.8s0.4-0.6,0.6-0.9
			c0.3-0.4,0.5-0.8,0.8-1.1c0.1-0.2,0.3-0.4,0.4-0.6c1.3-1.8,2.8-3.5,4.4-5.1l0,0c4.3-4.3,9.3-7.7,14.9-10.1c0.1,0,0.1,0,0.2-0.1
			c0.6-0.3,1.2-0.5,1.8-0.7c0.2-0.1,0.3-0.1,0.5-0.2c0.5-0.2,1-0.3,1.5-0.5c0.2-0.1,0.5-0.2,0.7-0.2c0.4-0.1,0.8-0.2,1.3-0.4
			c0.3-0.1,0.6-0.2,1-0.3c0.3-0.1,0.7-0.2,1-0.2c0.4-0.1,0.8-0.2,1.2-0.3c3-0.6,6.1-0.9,9.2-0.9h61.8c26,0,47.2,21.2,47.2,47.2v38.8
			H126.8V477C126.8,476.2,126.8,475.4,126.9,474.7z M80.5,289.8c0-68.6,55.8-124.4,124.4-124.4s124.4,55.8,124.4,124.4
			s-55.8,124.4-124.4,124.4S80.5,358.4,80.5,289.8z M83.7,555.5v-69.6c0-22.2,10.4-37.5,31.7-46.7c3.9-1.7,7.9-3.1,11.9-4.1
			c-0.4,0.5-0.9,1-1.3,1.5c-0.2,0.2-0.3,0.4-0.5,0.5c-0.4,0.5-0.8,1-1.2,1.5c-1.9,2.5-3.7,5.1-5.2,7.9c0,0,0,0,0,0.1
			c-0.4,0.8-0.8,1.6-1.2,2.4c0,0.1-0.1,0.1-0.1,0.2c-0.4,0.8-0.7,1.5-1.1,2.3c0,0.1-0.1,0.2-0.1,0.3c-0.3,0.8-0.6,1.5-1,2.3
			c-0.1,0.1-0.1,0.3-0.2,0.4c-0.3,0.7-0.6,1.5-0.8,2.3c-0.1,0.2-0.1,0.3-0.2,0.5c-0.2,0.7-0.5,1.5-0.7,2.2c-0.1,0.2-0.1,0.4-0.2,0.7
			c-0.2,0.7-0.4,1.4-0.6,2.1c-0.1,0.3-0.1,0.5-0.2,0.8c-0.2,0.7-0.3,1.3-0.4,2c-0.1,0.3-0.1,0.7-0.2,1c-0.1,0.6-0.2,1.2-0.3,1.9
			c-0.1,0.4-0.1,0.9-0.2,1.3c-0.1,0.5-0.1,1.1-0.2,1.6c-0.1,0.6-0.1,1.2-0.1,1.7c0,0.4-0.1,0.9-0.1,1.3c0,1-0.1,2.1-0.1,3.1v46.6
			v41.8H90.5C87.5,565.2,83.7,563.4,83.7,555.5z M163.5,614.6c0,6.3-5.1,11.4-11.4,11.4h-13.9c-6.3,0-11.4-5.1-11.4-11.4v-33.8h36.7
			L163.5,614.6L163.5,614.6z M283,614.6c0,6.3-5.1,11.4-11.4,11.4h-13.9c-6.3,0-11.4-5.1-11.4-11.4v-33.8H283V614.6L283,614.6z
			 M326.7,555.5c0,8-3.7,9.7-6.9,9.8h-20.6V477c0-15.9-6-30.6-16-41.8c3.9,1.1,7.9,2.4,11.9,4.1c21.3,9.2,31.7,24.5,31.7,46.7v69.5
			H326.7z"/>
	</g>
</g>
</svg>
