<?xml version="1.0" encoding="utf-8"?>
<!-- Generator: Adobe Illustrator 19.1.0, SVG Export Plug-In . SVG Version: 6.00 Build 0)  -->
<svg version="1.1" id="Layer_1" xmlns="http://www.w3.org/2000/svg" xmlns:xlink="http://www.w3.org/1999/xlink" x="0px" y="0px"
	 viewBox="-33.9 146.6 483.8 498.7" style="enable-background:new -33.9 146.6 483.8 498.7;" xml:space="preserve">
<style type="text/css">
	.st0{opacity:0.2;}
	.st1{fill:#231F20;}
	.st2{fill:#FFFFFF;}
</style>
<g>
	<g class="st0">
		<path class="st1" d="M207.7,236.9c-56.6,0-102.5,45.9-102.5,102.5v262.3c2.4,0.3,4.8,0.5,7.2,0.5c6.3-0.6,17.7-3.8,17.7-20.4
			V339.4c0-52.4,39.3-95.6,90-101.7C216,237.1,211.9,236.9,207.7,236.9z"/>
	</g>
	<g class="st0">
		<path class="st1" d="M179.1,349c0-25.2,17.5-46.4,41-52c-4-1-8.2-1.5-12.5-1.5c-29.5,0-53.5,23.9-53.5,53.5
			c0,29.5,23.9,53.5,53.5,53.5c4.3,0,8.5-0.5,12.5-1.5C196.6,395.3,179.1,374.2,179.1,349z"/>
	</g>
	<g class="st0">
		<path class="st1" d="M187.3,453.3h-24.9c5.6,22.9,23.7,39.6,45.3,39.6c4.3,0,8.5-0.7,12.5-1.9C204.2,486,191.7,471.6,187.3,453.3z
			"/>
	</g>
	<g class="st0">
		<path class="st1" d="M286,179.2c0-9.1,4.9-17.1,12.3-21.3c-3.7-2.1-7.9-3.4-12.5-3.4c-13.6,0-24.7,11.1-24.7,24.7
			s11.1,24.7,24.7,24.7c4.5,0,8.8-1.2,12.5-3.4C291,196.3,286,188.3,286,179.2z"/>
	</g>
	<g>
		<path class="st2" d="M207.7,287.6c-33.8,0-61.4,27.5-61.4,61.4c0,33.8,27.5,61.4,61.4,61.4S269,382.8,269,349
			C269,315.1,241.5,287.6,207.7,287.6z M207.7,394.5c-25.1,0-45.6-20.4-45.6-45.6c0-25.1,20.4-45.6,45.6-45.6
			c25.1,0,45.6,20.4,45.6,45.6C253.2,374.1,232.8,394.5,207.7,394.5z"/>
		<circle class="st2" cx="207.7" cy="349" r="15.1"/>
		<path class="st2" d="M253,445.4h-90.6c-2.4,0-4.7,1.1-6.2,3s-2,4.4-1.5,6.7c6.5,26.9,28.3,45.7,53,45.7s46.5-18.8,53-45.7
			c0.6-2.4,0-4.8-1.5-6.7C257.7,446.5,255.4,445.4,253,445.4z M207.7,485c-14.3,0-27.4-9.4-34.2-23.8h68.4
			C235,475.6,222,485,207.7,485z"/>
		<path class="st2" d="M391.2,417.1c-6.6-4.1-14.4-5.4-22-3.6s-14,6.4-18.1,13s-5.4,14.4-3.6,22s6.4,14,13,18.1
			c19.3,12,30.8,32.7,30.8,55.3c0,35.9-29.2,65.1-65.1,65.1h-8.1V396.5c0-4.4-3.5-7.9-7.9-7.9s-7.9,3.5-7.9,7.9v198.3
			c0,4.4,3.5,7.9,7.9,7.9h16c44.6,0,80.9-36.3,80.9-80.9c0-28.2-14.3-53.8-38.2-68.7c-3-1.9-5.1-4.8-5.9-8.3s-0.2-7,1.7-10.1
			c1.9-3,4.8-5.1,8.3-5.9s7-0.2,10.1,1.7c31.8,19.8,50.8,54,50.8,91.4c0,59.3-48.3,107.6-107.6,107.6h-237
			c-59.3,0-107.6-48.3-107.6-107.6c0-37.4,19-71.6,50.8-91.4c3-1.9,6.6-2.5,10.1-1.7s6.4,2.9,8.3,5.9c3.9,6.2,2,14.5-4.3,18.4
			C22.7,468,8.4,493.7,8.4,521.8c0,44.6,36.3,80.9,80.9,80.9h16c4.4,0,7.9-3.5,7.9-7.9V339.4c0-52.2,42.4-94.6,94.6-94.6l0,0l0,0
			c52.1,0,94.6,42.4,94.6,94.6v31.9c0,4.4,3.5,7.9,7.9,7.9s7.9-3.5,7.9-7.9v-31.9c0-57.4-44-104.7-100.1-109.9
			c4.2-12.1,14.4-33.3,36.4-41.8c3.7,13.9,16.4,24.1,31.5,24.1c18,0,32.6-14.6,32.6-32.6S304,146.6,286,146.6
			c-15.3,0-28.1,10.5-31.6,24.7c-0.7,0-1.4,0.1-2,0.4c-33.8,10.9-46.7,43.6-50.7,57.5c-58,3.2-104.2,51.4-104.2,110.2V587h-8.1
			c-35.9,0-65.1-29.2-65.1-65.1c0-22.7,11.5-43.3,30.8-55.3c13.6-8.5,17.8-26.5,9.4-40.1c-4.1-6.6-10.5-11.2-18.1-13
			s-15.4-0.5-22,3.6c-36.5,22.7-58.3,61.9-58.3,104.8c0,68,55.3,123.4,123.4,123.4h237c68,0,123.4-55.3,123.4-123.4
			C449.5,478.9,427.7,439.8,391.2,417.1z M285.8,162.4c9.3,0,16.8,7.5,16.8,16.8c0,9.3-7.5,16.8-16.8,16.8
			c-9.3,0-16.8-7.5-16.8-16.8C269,169.9,276.6,162.4,285.8,162.4z"/>
	</g>
</g>
</svg>
