<?xml version="1.0" encoding="utf-8"?>
<!-- Generator: Adobe Illustrator 19.1.0, SVG Export Plug-In . SVG Version: 6.00 Build 0)  -->
<svg version="1.1" id="Layer_1" xmlns="http://www.w3.org/2000/svg" xmlns:xlink="http://www.w3.org/1999/xlink" x="0px" y="0px"
	 viewBox="-44.5 153.7 503.5 481.8" style="enable-background:new -44.5 153.7 503.5 481.8;" xml:space="preserve">
<style type="text/css">
	.st0{opacity:0.2;}
	.st1{fill:#231F20;}
	.st2{fill:#FFFFFF;}
</style>
<g>
	<g class="st0">
		<path class="st1" d="M96.8,590.2l23.5-136.8c1-5.6-0.8-8.7-2-10.1l-0.9-0.9l0,0l0,0L16.9,344.6c-4.4-4.3-6-10.8-4.1-16.7
			c0.4-1.3,1-2.4,1.7-3.5l-30.8,4.5c-6.1,0.9-11.2,5.2-13.1,11.1s-0.3,12.3,4.1,16.7L79.2,458.6L54.5,602.4
			c-1,6.1,1.5,12.3,6.5,15.9c5,3.6,11.7,4.1,17.1,1.2l25.2-13.2c0,0,0,0-0.1,0C98.2,602.5,95.7,596.3,96.8,590.2z"/>
	</g>
	<path class="st2" d="M70.5,635.5c-6.3,0-12.5-2-17.9-5.9c-9.4-6.9-14.1-18.3-12.1-29.8l23.4-136.5l-99.2-96.7
		c-8.4-8.2-11.3-20.1-7.7-31.2c3.6-11.1,13-19,24.6-20.7l137-19.9L180,170.7c5.2-10.5,15.6-17,27.3-17s22.1,6.5,27.3,17l61.3,124.2
		l137,19.9c11.6,1.7,21,9.6,24.6,20.7c3.6,11.1,0.7,23-7.7,31.2l-99.2,96.7l6.5,38.1c1.3,7.7-3.9,15.1-11.6,16.4
		s-15.1-3.9-16.4-11.6l-7.8-45.4c-0.8-4.6,0.7-9.3,4.1-12.6L430,346.4c0.6-0.5,0.8-1.4,0.5-2.1c-0.2-0.8-0.9-1.3-1.7-1.4l-144.4-21
		c-4.6-0.7-8.6-3.6-10.7-7.8l-64.6-130.8c-0.4-0.7-1.1-1.2-1.9-1.2c-0.8,0-1.5,0.4-1.9,1.2l-64.6,130.9c-2.1,4.2-6.1,7.1-10.7,7.8
		l-144.4,21c-0.8,0.1-1.4,0.7-1.7,1.4c-0.2,0.7,0,1.6,0.5,2.1L88.9,448.4c3.3,3.3,4.9,8,4.1,12.6L68.3,604.8c-0.1,0.8,0.2,1.6,0.8,2
		c0.6,0.5,1.5,0.5,2.2,0.2l129.4-68c4.1-2.2,9.1-2.2,13.2,0L343,606.9c0.6,0.3,1.2,0.5,2.2-0.2c0.6-0.5,1-1.3,0.8-2l-9.3-54
		c-1.3-7.7,3.9-15.1,11.6-16.4s15.1,3.9,16.4,11.6l9.3,54c2,11.5-2.7,22.9-12.1,29.8c-5.2,3.8-11.4,5.8-17.9,5.8
		c-4.9,0-9.8-1.2-14.2-3.5l-122.6-64.4L84.7,632C80.2,634.3,75.4,635.5,70.5,635.5z"/>
</g>
</svg>
