<?xml version="1.0" encoding="utf-8"?>
<!-- Generator: Adobe Illustrator 19.1.0, SVG Export Plug-In . SVG Version: 6.00 Build 0)  -->
<svg version="1.1" id="Layer_1" xmlns="http://www.w3.org/2000/svg" xmlns:xlink="http://www.w3.org/1999/xlink" x="0px" y="0px"
	 viewBox="-17.1 146 449.1 499.1" style="enable-background:new -17.1 146 449.1 499.1;" xml:space="preserve">
<style type="text/css">
	.st0{opacity:0.2;fill:#231F20;enable-background:new    ;}
	.st1{fill:#FFFFFF;}
</style>
<g>
	<path class="st0" d="M142.2,219.7c0,0-43.1,116.8,17.2,198.9l-42.3-41.5l-36-81.7l-4.9-65.1v-50.4l6.2-17.9l59.8,50V219.7z"/>
	<path class="st1" d="M429.8,488.6l-73.3-73.3l11.4-170.4l33.3-33.3c3.1-3.1,3.1-8,0-11.1L377.5,177c-3.1-3.1-8-3.1-11.1,0
		l-33.3,33.3l-170.3,11.3l-73.3-73.3c-2-2-4.8-2.7-7.5-2s-4.8,2.8-5.6,5.4C55,226.7,65.6,306,103.7,371.6L87,388.4
		c-6.3,6.3-6.3,16.5,0,22.8l3,3l-10.4,25.9l-0.9-0.9c-1.5-1.5-3.5-2.3-5.5-2.3c-2.1,0-4.1,0.8-5.5,2.3l-21,21
		c-6.3,6.3-6.3,16.5,0,22.8l10.7,10.7l-7.2,102.5H15.7c-4.3,0-7.8,3.5-7.8,7.8v25.5H-9.3c-4.3,0-7.8,3.5-7.8,7.8s3.5,7.8,7.8,7.8
		h183.4c4.3,0,7.8-3.5,7.8-7.8s-3.5-7.8-7.8-7.8h-17.2V604c0-4.3-3.5-7.8-7.8-7.8h-34.4l-4.4-61.7c2.4-0.7,4.7-2.1,6.6-4l21-21
		c3-3,3.1-8,0-11l25.9-10.4l3,3c3.1,3.1,7.3,4.7,11.4,4.7s8.3-1.6,11.4-4.7l16.8-16.8c43.2,25,92.2,38.2,142.1,38.2
		c26,0,52.2-3.6,77.8-10.9c2.7-0.8,4.7-2.9,5.4-5.6C432.5,493.4,431.7,490.6,429.8,488.6z M372,193.5l12.5,12.5l-24.3,24.3
		l-12.5-12.5L372,193.5z M333.6,225.9l18.6,18.6l-10.4,156.1L177.5,236.3L333.6,225.9z M141.3,629.6H23.5v-17.7h117.8V629.6
		L141.3,629.6z M65.8,596.2l6.1-87.9l22.2,22.2c0.1,0.1,0.2,0.2,0.3,0.2l4.7,65.4L65.8,596.2L65.8,596.2z M105.9,519.5
		c-0.2,0.2-0.5,0.2-0.7,0L57.6,472c-0.2-0.2-0.2-0.5,0-0.7l15.5-15.5l3.8,3.8c0,0,0,0,0.1,0.1l44.4,44.4L105.9,519.5z M178.7,480.1
		c-0.2,0.2-0.5,0.2-0.7,0l-6.6-6.6c0,0,0,0-0.1-0.1L138,440.1c-3.1-3.1-8-3.1-11.1,0s-3.1,8,0,11.1l25,25L126,486.5l-34.4-34.4
		l10.4-25.9c1.5,1.5,3.5,2.2,5.5,2.2s4-0.8,5.5-2.3c3.1-3.1,3.1-8,0-11.1l-8.3-8.3c0,0,0,0-0.1-0.1L98,400c-0.2-0.2-0.2-0.5,0-0.7
		l14.1-14.1c10.4,15.8,22.5,30.7,36.2,44.4c13.7,13.7,28.6,25.8,44.5,36.2L178.7,480.1z M159.4,418.7C94,353.3,67.3,258.7,88.1,169
		l321,321C319.4,510.8,224.8,484.1,159.4,418.7z"/>
</g>
</svg>
