<?xml version="1.0" encoding="utf-8"?>
<!-- Generator: Adobe Illustrator 16.0.0, SVG Export Plug-In . SVG Version: 6.00 Build 0)  -->
<!DOCTYPE svg PUBLIC "-//W3C//DTD SVG 1.1//EN" "http://www.w3.org/Graphics/SVG/1.1/DTD/svg11.dtd">
<svg version="1.1" id="Layer_1" xmlns="http://www.w3.org/2000/svg" xmlns:xlink="http://www.w3.org/1999/xlink" x="0px" y="0px"
	 width="128.598px" height="105.939px" viewBox="0 0 128.598 105.939" enable-background="new 0 0 128.598 105.939"
	 xml:space="preserve">
<g>
	<g>
		<path fill="#FFFFFF" d="M57.57,93.863c0.393-0.877,0.141-1.846-0.256-2.672c-0.038-0.078-0.111-0.195-0.188-0.33
			c-0.054-0.025-0.101-0.057-0.158-0.078c-1.859-0.715-4.028,0.443-3.559,2.627C53.818,95.311,56.766,95.654,57.57,93.863z"/>
		<path fill="#FFFFFF" d="M2.609,49.418c-0.042,3.687,1.444,7.288,3.897,10.019c1.015,1.129,2.22,1.975,3.432,2.803
			c0.173,0.074,0.328,0.179,0.456,0.314c1.104,0.756,2.196,1.523,3.136,2.51c0.049,0.049,0.028,0.14-0.041,0.158
			c-1.099,0.272-2.154,0.272-3.161,0.067c-1.792,10.502,9.448,16.469,18.857,15.133c2.008-0.282,3.937-0.78,5.837-1.487
			c1.2-0.447,2.292-1.326,3.583-1.213c1.682,0.148,3.25,1.887,5.238,2.016c2.583,0.168,4.879-0.752,6.794-2.445
			c0.544-0.481,1.36-0.539,1.9,0c4.03,4.013,13.987,10.396,17.305,1.763c0.348-0.904,1.471-1.359,2.231-0.589
			c10.641,10.806,28.223,4.314,29.832-10.625c0.048-0.446,0.293-0.761,0.605-0.944c0.262-0.277,0.652-0.426,1.132-0.295
			c12.185,3.316,21.896-10.109,22.543-20.943c0.674-11.281-6.741-18.125-16.479-21.291c-0.192,2.437-1.196,4.75-3.285,6.502
			c-0.379,0.318-1.148,0.029-0.93-0.541c2.264-5.924,2.045-12.069-3.494-16.103c-5.168-3.766-10.443-2.675-16.128-2.04
			c0.618,1.614,0.948,3.351,0.898,5.19c-0.021,0.756-1.104,1.129-1.486,0.402c-1.865-3.541-3.123-7.023-6.145-9.836
			c-3.538-3.293-8.185-5.063-13.021-4.922c-10.288,0.3-15.963,7.96-18.696,16.978c-0.145,0.479-0.79,0.354-0.834-0.111
			c-0.15-1.607-0.048-3.17,0.264-4.666c-8.369-3.151-16.964-4.254-25.075,0.624c-3.714,2.23-6.743,5.491-8.841,9.271
			c-1.72,3.097-2.298,6.21-2.964,9.48c1.277-0.477,2.636-0.758,4.058-0.777c0.331-0.004,0.481,0.485,0.174,0.641
			C8.32,37.465,2.688,42.236,2.609,49.418z"/>
		<path fill="#FFFFFF" d="M46.77,103.652c1.229-0.387,0.827-1.734,0.519-2.672c-0.647-0.402-1.519-0.383-2.087,0.338
			C44.33,102.42,45.363,104.096,46.77,103.652z"/>
	</g>
	<path fill="#FFFFFF" d="M57.57,93.863c0.393-0.877,0.141-1.846-0.256-2.672c-0.038-0.078-0.111-0.195-0.188-0.33
		c-0.054-0.025-0.101-0.057-0.158-0.078c-1.859-0.715-4.028,0.443-3.559,2.627C53.818,95.311,56.766,95.654,57.57,93.863z"/>
	<path fill="#FFFFFF" d="M46.77,103.652c1.229-0.387,0.827-1.734,0.519-2.672c-0.647-0.402-1.519-0.383-2.087,0.338
		C44.33,102.42,45.363,104.096,46.77,103.652z"/>
	<path fill="#010101" d="M0.001,49.419C-0.052,54.068,3.059,61.484,7.813,64.3c-2.064,10.324,6.856,18.478,16.921,19.041
		c3.204,0.18,6.476-0.35,9.528-1.309c2.585-0.811,3.145-1.239,5.699-0.469c4.218,1.27,8.07,0.987,11.531-1.539
		c3.391,3.239,7.527,6.278,12.437,5.934c3.263-0.228,5.948-1.8,7.575-4.396c11.92,10.112,30.598,3.406,32.633-12.367
		c12.449,2.506,22.727-10.051,24.281-21.455c1.487-10.894-6.377-25.736-18.732-25.32c-0.298-3.342-1.959-6.7-4.36-8.998
		c-5.049-4.826-14.021-6.479-20.249-2.963C81.443,3.742,72.637-0.416,65.389,0.033c-7.872,0.489-15.662,6.002-18.093,13.514
		c-7.887-5.325-19.594-4.548-27.405,0.429C13.036,18.342,6.666,27.383,7.354,35.922C2.962,38.797,0.063,44.193,0.001,49.419z
		 M2.608,49.42c0.08-7.184,5.712-11.955,11.594-14.961c0.307-0.156,0.157-0.645-0.174-0.641c-1.422,0.019-2.781,0.3-4.058,0.777
		c0.666-3.27,1.244-6.383,2.964-9.48c2.098-3.779,5.127-7.04,8.841-9.271c8.111-4.878,16.706-3.775,25.075-0.624
		c-0.312,1.496-0.414,3.059-0.264,4.666c0.044,0.466,0.689,0.591,0.834,0.111C50.154,10.98,55.828,3.32,66.116,3.018
		c4.835-0.142,9.482,1.629,13.021,4.922c3.022,2.813,4.28,6.295,6.145,9.836c0.383,0.727,1.466,0.354,1.486-0.402
		c0.05-1.839-0.28-3.576-0.898-5.19c5.685-0.635,10.96-1.726,16.128,2.04c5.539,4.034,5.758,10.179,3.494,16.103
		c-0.217,0.57,0.551,0.859,0.93,0.541c2.089-1.752,3.093-4.066,3.285-6.502c9.738,3.168,17.153,10.012,16.479,21.293
		c-0.647,10.834-10.358,24.26-22.544,20.945c-0.48-0.131-0.87,0.018-1.132,0.295c-0.313,0.183-0.557,0.498-0.605,0.945
		c-1.609,14.938-19.191,21.43-29.832,10.625c-0.76-0.771-1.883-0.316-2.231,0.588c-3.319,8.633-13.276,2.25-17.305-1.763
		c-0.54-0.539-1.356-0.481-1.9,0c-1.915,1.693-4.211,2.613-6.794,2.445c-1.988-0.129-3.556-1.868-5.238-2.016
		c-1.291-0.113-2.383,0.766-3.583,1.213c-1.9,0.707-3.829,1.205-5.837,1.487c-9.409,1.337-20.649-4.631-18.857-15.133
		c1.007,0.205,2.062,0.205,3.161-0.067c0.069-0.018,0.09-0.109,0.041-0.158c-0.94-0.987-2.031-1.754-3.136-2.51
		c-0.128-0.135-0.283-0.24-0.456-0.314c-1.212-0.828-2.417-1.674-3.432-2.803C4.052,56.707,2.565,53.105,2.608,49.42z"/>
	<path fill="#010101" d="M59.522,94.688c0.463-1.127,0.425-2.451-0.128-3.545c-0.084-0.168-0.208-0.357-0.354-0.545
		c-0.094-0.17-0.196-0.333-0.312-0.479c-1.592-2.025-4.644-2.289-6.409-0.299c-1.7,1.918-1.493,5.201,0.69,6.66
		C55.197,97.941,58.493,97.193,59.522,94.688z M56.967,90.783c0.056,0.021,0.104,0.053,0.158,0.078
		c0.077,0.135,0.15,0.252,0.188,0.33c0.396,0.826,0.649,1.795,0.256,2.672c-0.803,1.791-3.751,1.447-4.159-0.453
		C52.94,91.227,55.109,90.068,56.967,90.783z"/>
	<path fill="#010101" d="M48.802,104.897c0.956-0.946,1.295-2.334,0.826-3.601c-1.002-2.711-4.636-3.127-6.096-0.573
		c-1.026,1.793,0.02,3.833,1.701,4.479c0.017,0.082,0.05,0.162,0.112,0.232C46.301,106.471,47.966,105.723,48.802,104.897z
		 M47.288,100.98c0.308,0.938,0.711,2.285-0.519,2.672c-1.407,0.443-2.438-1.232-1.568-2.334
		C45.77,100.598,46.641,100.578,47.288,100.98z"/>
</g>
</svg>
